<?xml version="1.0" encoding="utf-8"?>
<!-- Generator: Adobe Illustrator 25.2.1, SVG Export Plug-In . SVG Version: 6.00 Build 0)  -->
<svg version="1.1" id="Capa_1" xmlns="http://www.w3.org/2000/svg" xmlns:xlink="http://www.w3.org/1999/xlink" x="0px" y="0px"
	 viewBox="0 0 708 105" style="enable-background:new 0 0 708 105;" xml:space="preserve">
<style type="text/css">
	.st0{fill:#FFFFFF;}
</style>
<g>
	<path d="M22.6,96V80.2h63V64.5h-63V17.3h78.7V33h-63v15.7h63V96H22.6z"/>
	<path d="M117,96V17.3h78.7V96h-31.5V80.2H180V64.5h-47.2v15.7h15.7V96H117z M132.8,33v15.7H180V33H132.8z"/>
	<path d="M211.5,96V17.3h78.7v31.5h-15.7V33h-47.2v15.7h31.5v15.7h-31.5v15.7H243V96H211.5z"/>
	<path d="M305.9,96V17.3h31.5V33h-15.7v47.2h47.2V33h-15.7V17.3h15.7h15.7V96H305.9z"/>
	<path d="M400.3,96V80.2h15.7V96H400.3z"/>
	<path d="M431.8,96V17.3h15.7V33h15.7v15.7h-15.7v31.5h15.7V96H431.8z M463.3,64.5V48.7H479v15.7H463.3z M479,80.2V64.5h15.7V33H479
		V17.3h31.5V96h-15.7V80.2H479z"/>
	<path d="M526.2,96V17.3h78.7v31.5h-15.7V33H542v15.7h31.5v15.7H542v15.7h47.2V64.5h15.7V96H526.2z"/>
	<path d="M636.4,96V80.2h15.7V33h-15.7v15.7h-15.7V33V17.3h78.7v31.5h-15.7V33h-15.7v47.2h15.7V96H636.4z"/>
</g>
<g>
	<path class="st0" d="M13.5,88.1V72.3h63V56.6h-63V9.4h78.7v15.7h-63v15.7h63v47.2H13.5z"/>
	<path class="st0" d="M107.9,88.1V9.4h78.7v78.7h-31.5V72.3h15.7V56.6h-47.2v15.7h15.7v15.7H107.9z M123.7,25.1v15.7h47.2V25.1
		H123.7z"/>
	<path class="st0" d="M202.4,88.1V9.4H281v31.5h-15.7V25.1h-47.2v15.7h31.5v15.7h-31.5v15.7h15.7v15.7H202.4z"/>
	<path class="st0" d="M296.8,88.1V9.4h31.5v15.7h-15.7v47.2h47.2V25.1H344V9.4h15.7h15.7v78.7H296.8z"/>
	<path class="st0" d="M391.2,88.1V72.3H407v15.7H391.2z"/>
	<path class="st0" d="M422.7,88.1V9.4h15.7v15.7h15.7v15.7h-15.7v31.5h15.7v15.7H422.7z M454.2,56.6V40.9h15.7v15.7H454.2z
		 M469.9,72.3V56.6h15.7V25.1h-15.7V9.4h31.5v78.7h-15.7V72.3H469.9z"/>
	<path class="st0" d="M517.1,88.1V9.4h78.7v31.5h-15.7V25.1h-47.2v15.7h31.5v15.7h-31.5v15.7h47.2V56.6h15.7v31.5H517.1z"/>
	<path class="st0" d="M627.3,88.1V72.3H643V25.1h-15.7v15.7h-15.7V25.1V9.4h78.7v31.5h-15.7V25.1h-15.7v47.2h15.7v15.7H627.3z"/>
</g>
</svg>
