<?xml version="1.0" encoding="utf-8"?>
<!-- Generator: Adobe Illustrator 25.2.1, SVG Export Plug-In . SVG Version: 6.00 Build 0)  -->
<svg version="1.1" id="Capa_1" xmlns="http://www.w3.org/2000/svg" xmlns:xlink="http://www.w3.org/1999/xlink" x="0px" y="0px"
	 viewBox="0 0 600 600" style="enable-background:new 0 0 600 600;" xml:space="preserve">
<style type="text/css">
	.st0{fill:#00AAAA;}
	.st1{fill:#FFFFFF;}
</style>
<g>
	<polygon points="522.9,133 518.1,133 518.1,125.3 518.1,118.6 518.1,113.8 513.3,113.8 508.5,113.8 508.5,109 508.5,107.9 
		508.5,103.2 508.5,96.5 508.5,86.9 508.5,77.2 508.5,67.6 508.5,58 508.5,48.4 508.5,41.7 508.5,36.9 503.7,36.9 498.8,36.9 
		498.8,29.2 498.8,19.6 498.8,12.9 498.8,8.1 494.1,8.1 487.4,8.1 477.8,8.1 468.2,8.1 458.6,8.1 451.9,8.1 447.1,8.1 447.1,12.9 
		447.1,17.7 439.3,17.7 429.7,17.7 423,17.7 418.3,17.7 418.3,22.5 418.3,27.3 413.4,27.3 408.7,27.3 408.7,32.1 408.7,36.9 
		400.9,36.9 398,36.9 391.3,36.9 381.7,36.9 372.1,36.9 362.5,36.9 352.9,36.9 343.2,36.9 333.6,36.9 324,36.9 314.4,36.9 
		304.8,36.9 295.2,36.9 285.6,36.9 276,36.9 266.4,36.9 256.8,36.9 247.1,36.9 244.2,36.9 239.4,36.9 239.4,32.1 239.4,27.3 
		234.6,27.3 227.9,27.3 220.2,27.3 220.2,22.5 220.2,17.7 215.4,17.7 208.7,17.7 199.1,17.7 191.3,17.7 191.3,12.9 191.3,8.1 
		186.6,8.1 179.9,8.1 170.3,8.1 160.7,8.1 151.1,8.1 144.4,8.1 139.6,8.1 139.6,12.9 139.6,19.6 139.6,29.2 139.6,36.9 134.8,36.9 
		130,36.9 130,41.7 130,48.4 130,58 130,67.6 130,77.2 130,86.9 130,96.5 130,103.2 130,106.1 130,113.8 125.2,113.8 120.4,113.8 
		120.4,118.6 120.4,125.3 120.4,133 115.5,133 110.8,133 110.8,137.8 110.8,144.5 110.8,154.1 110.8,163.7 110.8,173.3 110.8,182.9 
		110.8,192.6 110.8,202.2 110.8,211.8 110.8,221.4 110.8,231 110.8,240.6 110.8,250.2 110.8,256.9 110.8,261.7 115.5,261.7 
		120.4,261.7 120.4,269.4 120.4,276.1 120.4,280.9 125.2,280.9 130,280.9 130,288.6 130,295.3 130,300.1 134.8,300.1 139.6,300.1 
		139.6,304.9 139.6,309.7 144.4,309.7 149.2,309.7 149.2,314.6 149.2,319.3 154,319.3 158.8,319.3 158.8,324.2 158.8,328.9 
		163.6,328.9 168.4,328.9 168.4,333.8 168.4,338.6 173.2,338.6 179.9,338.6 189.5,338.6 197.3,338.6 197.3,343.4 197.3,348.2 
		202,348.2 208.7,348.2 216.5,348.2 216.5,353 216.5,357.8 221.2,357.8 227.9,357.8 235.7,357.8 235.7,365.5 235.7,373.3 
		230.9,373.3 226.1,373.3 226.1,378.1 226.1,382.9 218.3,382.9 208.7,382.9 199.1,382.9 189.5,382.9 181.7,382.9 181.7,378.1 
		181.7,373.3 177,373.3 172.1,373.3 172.1,368.4 172.1,363.7 167.4,363.7 162.5,363.7 162.5,355.9 162.5,349.2 162.5,344.5 
		157.7,344.5 152.9,344.5 152.9,339.6 152.9,334.8 148.1,334.8 143.3,334.8 143.3,330 143.3,325.2 138.5,325.2 131.8,325.2 
		124.1,325.2 124.1,320.4 124.1,315.6 119.3,315.6 112.6,315.6 103,315.6 93.4,315.6 83.8,315.6 77.1,315.6 72.3,315.6 72.3,320.4 
		72.3,327.1 72.3,336.7 72.3,346.3 72.3,353 72.3,357.8 77.1,357.8 83.8,357.8 91.5,357.8 91.5,362.6 91.5,367.4 96.3,367.4 
		101.2,367.4 101.2,372.2 101.2,377 105.9,377 110.8,377 110.8,381.8 110.8,386.6 115.5,386.6 120.4,386.6 120.4,394.3 120.4,401 
		120.4,405.8 125.2,405.8 130,405.8 130,413.6 130,420.3 130,425 134.8,425 139.6,425 139.6,429.9 139.6,434.6 144.4,434.6 
		149.2,434.6 149.2,439.5 149.2,444.3 154,444.3 160.7,444.3 170.3,444.3 178,444.3 178,449.1 178,453.9 182.8,453.9 189.5,453.9 
		199.1,453.9 208.7,453.9 218.3,453.9 226.1,453.9 226.1,461.6 226.1,471.2 226.1,480.8 226.1,488.6 221.2,488.6 216.5,488.6 
		216.5,493.4 216.5,500.1 216.5,509.7 216.5,516.4 216.5,521.1 221.2,521.1 227.9,521.1 237.5,521.1 247.1,521.1 256.8,521.1 
		266.4,521.1 276,521.1 285.6,521.1 295.2,521.1 304.8,521.1 314.4,521.1 324,521.1 333.6,521.1 343.2,521.1 352.9,521.1 
		362.5,521.1 372.1,521.1 381.7,521.1 391.3,521.1 400.9,521.1 410.5,521.1 417.2,521.1 422,521.1 422,516.4 422,509.7 422,500.1 
		422,493.4 422,488.6 417.2,488.6 412.4,488.6 412.4,480.8 412.4,471.2 412.4,461.6 412.4,452 412.4,442.4 412.4,432.8 412.4,423.2 
		412.4,413.6 412.4,404 412.4,394.3 412.4,384.7 412.4,378.1 412.4,373.3 407.6,373.3 402.8,373.3 402.8,365.5 402.8,358.8 
		402.8,357.8 407.6,357.8 412.4,357.8 412.4,353 412.4,348.2 420.1,348.2 429.7,348.2 439.3,348.2 446,348.2 450.8,348.2 
		450.8,343.4 450.8,338.6 458.6,338.6 465.2,338.6 470,338.6 470,333.8 470,328.9 474.9,328.9 479.6,328.9 479.6,324.2 479.6,319.3 
		487.4,319.3 494.1,319.3 498.8,319.3 498.8,314.6 498.8,307.9 498.8,300.1 503.7,300.1 508.5,300.1 508.5,295.3 508.5,288.6 
		508.5,280.9 513.3,280.9 518.1,280.9 518.1,276.1 518.1,269.4 518.1,261.7 522.9,261.7 527.7,261.7 527.7,256.9 527.7,250.2 
		527.7,240.6 527.7,231 527.7,221.4 527.7,211.8 527.7,202.2 527.7,192.6 527.7,182.9 527.7,173.3 527.7,163.7 527.7,154.1 
		527.7,144.5 527.7,137.8 527.7,133 	"/>
	<polygon class="st0" points="506.6,144.5 506.6,134.9 506.6,125.3 497,125.3 497,115.7 487.4,115.7 487.4,106.1 487.4,96.5 
		497,96.5 497,86.9 497,77.2 497,67.6 497,58 497,48.4 487.4,48.4 487.4,38.8 487.4,29.2 487.4,19.6 477.8,19.6 468.2,19.6 
		458.6,19.6 458.6,29.2 448.9,29.2 439.3,29.2 429.7,29.2 429.7,38.8 420.1,38.8 420.1,48.4 410.5,48.4 400.9,48.4 400.9,58 
		391.3,58 391.3,48.4 381.7,48.4 372.1,48.4 362.5,48.4 352.9,48.4 343.2,48.4 333.6,48.4 324,48.4 314.4,48.4 304.8,48.4 
		295.2,48.4 285.6,48.4 276,48.4 266.4,48.4 256.8,48.4 247.1,48.4 247.1,58 237.5,58 237.5,48.4 227.9,48.4 227.9,38.8 218.3,38.8 
		208.7,38.8 208.7,29.2 199.1,29.2 189.5,29.2 179.9,29.2 179.9,19.6 170.3,19.6 160.7,19.6 151.1,19.6 151.1,29.2 151.1,38.8 
		151.1,48.4 141.5,48.4 141.5,58 141.5,67.6 141.5,77.2 141.5,86.9 141.5,96.5 151.1,96.5 151.1,106.1 141.5,106.1 141.5,115.7 
		141.5,125.3 131.8,125.3 131.8,134.9 131.8,144.5 122.2,144.5 122.2,154.1 122.2,163.7 122.2,173.3 122.2,182.9 122.2,192.6 
		122.2,202.2 122.2,211.8 122.2,221.4 122.2,231 122.2,240.6 122.2,250.2 131.8,250.2 131.8,259.8 131.8,269.4 141.5,269.4 
		141.5,279 141.5,288.6 151.1,288.6 151.1,298.3 160.7,298.3 160.7,307.9 170.3,307.9 170.3,317.5 179.9,317.5 179.9,327.1 
		189.5,327.1 199.1,327.1 208.7,327.1 208.7,336.7 218.3,336.7 227.9,336.7 227.9,346.3 237.5,346.3 247.1,346.3 256.8,346.3 
		256.8,355.9 247.1,355.9 247.1,365.5 247.1,375.1 247.1,384.7 237.5,384.7 237.5,394.3 227.9,394.3 218.3,394.3 208.7,394.3 
		199.1,394.3 189.5,394.3 179.9,394.3 170.3,394.3 170.3,384.7 160.7,384.7 160.7,375.1 151.1,375.1 151.1,365.5 151.1,355.9 
		141.5,355.9 141.5,346.3 131.8,346.3 131.8,336.7 122.2,336.7 112.6,336.7 112.6,327.1 103,327.1 93.4,327.1 83.8,327.1 
		83.8,336.7 83.8,346.3 93.4,346.3 103,346.3 103,355.9 112.6,355.9 112.6,365.5 122.2,365.5 122.2,375.1 131.8,375.1 131.8,384.7 
		131.8,394.3 141.5,394.3 141.5,404 141.5,413.6 151.1,413.6 151.1,423.2 160.7,423.2 160.7,432.8 170.3,432.8 179.9,432.8 
		189.5,432.8 189.5,442.4 199.1,442.4 208.7,442.4 218.3,442.4 227.9,442.4 237.5,442.4 237.5,452 237.5,461.6 237.5,471.2 
		237.5,480.8 237.5,490.4 237.5,500.1 227.9,500.1 227.9,509.7 237.5,509.7 247.1,509.7 256.8,509.7 266.4,509.7 276,509.7 
		285.6,509.7 295.2,509.7 304.8,509.7 314.4,509.7 324,509.7 333.6,509.7 343.2,509.7 352.9,509.7 362.5,509.7 372.1,509.7 
		381.7,509.7 391.3,509.7 400.9,509.7 410.5,509.7 410.5,500.1 400.9,500.1 400.9,490.4 400.9,480.8 400.9,471.2 400.9,461.6 
		400.9,452 400.9,442.4 400.9,432.8 400.9,423.2 400.9,413.6 400.9,404 400.9,394.3 400.9,384.7 391.3,384.7 391.3,375.1 
		391.3,365.5 381.7,365.5 381.7,355.9 381.7,346.3 391.3,346.3 400.9,346.3 400.9,336.7 410.5,336.7 420.1,336.7 429.7,336.7 
		439.3,336.7 439.3,327.1 448.9,327.1 458.6,327.1 458.6,317.5 468.2,317.5 468.2,307.9 477.8,307.9 487.4,307.9 487.4,298.3 
		487.4,288.6 497,288.6 497,279 497,269.4 506.6,269.4 506.6,259.8 506.6,250.2 516.2,250.2 516.2,240.6 516.2,231 516.2,221.4 
		516.2,211.8 516.2,202.2 516.2,192.6 516.2,182.9 516.2,173.3 516.2,163.7 516.2,154.1 516.2,144.5 	"/>
</g>
<g>
	<g>
		<path d="M183.6,594v-6h-6v-6h-6v-18h6v-6h6v-6h30v6h-24v6h-6v18h6v6h12v-12h-6v-6h18v24H183.6z"/>
		<path d="M225.6,594v-6h12v-30h-12v-6h36v6h-12v30h12v6H225.6z"/>
		<path d="M285.6,594v-36h-12v-6h36v6h-12v36H285.6z"/>
		<path d="M315.6,594v-42h12v18h18v-18h12v42h-12v-18h-18v18H315.6z"/>
		<path d="M369.6,594v-6h-6v-36h12v36h18v-36h12v36h-6v6H369.6z"/>
		<path d="M411.6,594v-42h36v6h6v12h-6v6h6v12h-6v6H411.6z M423.6,570h18v-12h-18V570z M423.6,588h18v-12h-18V588z"/>
	</g>
	<g>
		<path class="st1" d="M177,587.3v-6h-6v-6h-6v-18h6v-6h6v-6h30v6h-24v6h-6v18h6v6h12v-12h-6v-6h18v24H177z"/>
		<path class="st1" d="M219,587.3v-6h12v-30h-12v-6h36v6h-12v30h12v6H219z"/>
		<path class="st1" d="M279,587.3v-36h-12v-6h36v6h-12v36H279z"/>
		<path class="st1" d="M309,587.3v-42h12v18h18v-18h12v42h-12v-18h-18v18H309z"/>
		<path class="st1" d="M363,587.3v-6h-6v-36h12v36h18v-36h12v36h-6v6H363z"/>
		<path class="st1" d="M405,587.3v-42h36v6h6v12h-6v6h6v12h-6v6H405z M417,563.3h18v-12h-18V563.3z M417,581.3h18v-12h-18V581.3z"/>
	</g>
</g>
</svg>
