<?xml version="1.0" encoding="utf-8"?>
<!-- Generator: Adobe Illustrator 25.2.1, SVG Export Plug-In . SVG Version: 6.00 Build 0)  -->
<svg version="1.1" id="Capa_1" xmlns="http://www.w3.org/2000/svg" xmlns:xlink="http://www.w3.org/1999/xlink" x="0px" y="0px"
	 viewBox="0 0 580.2 408.1" style="enable-background:new 0 0 580.2 408.1;" xml:space="preserve">
<style type="text/css">
	.st0{fill:#FFD15B;}
	.st1{fill:#FFC344;}
	.st2{fill:#00AAAA;}
	.st3{fill:#036B68;}
	.st4{fill:#444444;}
	.st5{fill:#838383;}
	.st6{fill:#5A5A5A;}
	.st7{fill:#01C0FA;}
	.st8{fill:#08A9F1;}
</style>
<g>
	<g>
		<g>
			<path class="st0" d="M433.2,110.5c6.7,20.6,28.8,31.9,49.4,25.2l66.3-21.5c20.6-6.7,31.9-28.8,25.2-49.4l-7.7-23.6
				C559.7,20.6,537.6,9.3,517,16l-66.3,21.5c-16.3,5.3-26.8,20.3-27.1,36.6c-0.1,4.2,0.5,8.6,1.9,12.8l4.1,12.5L433.2,110.5
				L433.2,110.5z M479.5,109.5c-8.5,2.8-17.6-1.9-20.4-10.4l-5.9-18.3c-2.3-7.1,0.5-14.6,6.5-18.5c1.2-0.8,2.5-1.4,3.9-1.9L520,42.2
				c8.5-2.8,17.6,1.9,20.4,10.4l5.9,18.3c2.8,8.5-1.9,17.6-10.4,20.4L479.5,109.5L479.5,109.5z"/>
			<path class="st1" d="M425.5,86.9c-1.4-4.3-2-8.6-1.9-12.8l36.1-11.7c-5.9,3.9-8.8,11.4-6.5,18.5l3.2,9.9l-26.9,8.7L425.5,86.9z"
				/>
			<g>
				<path class="st1" d="M536.5,40.9c-2.8-8.5-11.9-13.1-20.4-10.4l-56.4,18.3c-8.5,2.8-13.1,11.9-10.4,20.4l5.9,18.3l0,0l-2.2-6.7
					c-2.8-8.5,1.9-17.6,10.4-20.4L520,42.2c8.5-2.8,17.6,1.9,20.4,10.4L536.5,40.9z"/>
				<path class="st1" d="M482.5,135.7l66.3-21.5c20.6-6.7,31.9-28.8,25.2-49.4l-7.7-23.6l0,0l3.9,12c6.7,20.6-4.6,42.7-25.2,49.4
					l-66.3,21.5c-20.6,6.7-42.7-4.6-49.4-25.2l3.8,11.6C439.8,131.1,462,142.4,482.5,135.7z"/>
			</g>
			<path class="st0" d="M298.5,195.5l66.3-21.5c20.6-6.7,31.9-28.8,25.2-49.4l-7.7-23.6c-1.4-4.3-3.4-8.1-6-11.5
				c-9.8-13-27.1-19-43.4-13.7l-66.3,21.5c-20.6,6.7-31.9,28.8-25.2,49.4l7.7,23.6C255.8,190.9,277.9,202.1,298.5,195.5z
				 M295.4,169.3c-8.5,2.8-17.6-1.9-20.4-10.4l-5.9-18.3c-2.8-8.5,1.9-17.6,10.4-20.4l56.4-18.3c1.4-0.5,2.8-0.7,4.3-0.8
				c7.1-0.3,13.8,4.1,16.1,11.2l3.2,9.9l2.7,8.4c2.8,8.5-1.9,17.6-10.4,20.4L295.4,169.3L295.4,169.3z"/>
			<path class="st1" d="M356.2,112.3c-2.3-7.1-9-11.5-16.1-11.2l36.1-11.7c2.6,3.4,4.6,7.2,6,11.5l4.1,12.5l-26.9,8.7L356.2,112.3z"
				/>
			<g>
				<path class="st1" d="M249.1,170.3c6.7,20.6,28.8,31.9,49.4,25.2l66.3-21.5c20.6-6.7,31.9-28.8,25.2-49.4l-7.7-23.6l0,0l3.9,12
					c6.7,20.6-4.6,42.7-25.2,49.4l-66.3,21.5c-20.6,6.7-42.7-4.6-49.4-25.2L249.1,170.3L249.1,170.3z"/>
				<path class="st1" d="M352.5,100.7c-2.8-8.5-11.9-13.1-20.4-10.4l-56.4,18.3c-8.5,2.8-13.1,11.9-10.4,20.4l5.9,18.3l0,0l-2.2-6.7
					c-2.8-8.5,1.9-17.6,10.4-20.4l56.4-18.3c8.5-2.8,17.6,1.9,20.4,10.4L352.5,100.7z"/>
			</g>
			<path class="st0" d="M478.7,85.4c1.8,5.4-1.2,11.3-6.6,13L350.3,138c-5.4,1.8-11.3-1.2-13-6.6l-1.6-5c-1.8-5.4,1.2-11.3,6.6-13
				l121.8-39.5c5.4-1.8,11.3,1.2,13,6.6L478.7,85.4L478.7,85.4z"/>
			<path class="st1" d="M337.3,131.4c1.8,5.4,7.6,8.4,13,6.6l121.8-39.5c5.4-1.8,8.4-7.6,6.6-13l-1.6-5c-0.4-1.2-0.9-2.2-1.7-3.1
				c-0.1,4.2-2.9,8.1-7.1,9.5l-121.8,39.5c-4.3,1.4-8.8-0.2-11.4-3.5c0,1.2,0.1,2.3,0.5,3.5L337.3,131.4L337.3,131.4z"/>
		</g>
		<path d="M245,171.6c3.6,11,11.2,20,21.6,25.3c10.3,5.3,22.1,6.2,33.2,2.6L366,178c10.9-3.6,19.9-11.1,25.2-21.3
			c0-0.1,0.1-0.2,0.1-0.3c4.5-8.9,5.9-18.9,3.8-28.5l35.7-11.6c4.1,9.1,11.1,16.4,20.1,20.9c10.3,5.2,22,6,32.9,2.5l66.3-21.5
			c11-3.6,20-11.3,25.3-21.6s6.2-22.1,2.6-33.2l-7.7-23.6c-3.6-11-11.2-20-21.6-25.3c-10.3-5.3-22.1-6.2-33.2-2.6l-66.3,21.5
			C438.3,37,429.3,44.5,424,54.7c-4.6,8.9-6,19-4,28.8l-63.7,20.7c-5.3-6.3-14-8.9-22-6.3L278,116.2c-5.2,1.7-9.4,5.3-11.9,10.1
			c-2.5,4.9-2.9,10.4-1.2,15.6l5.9,18.3c1.7,5.2,5.3,9.4,10.1,11.9c4.9,2.5,10.4,2.9,15.6,1.2l56.3-18.3c5.3-1.7,9.5-5.5,11.9-10.2
			c1.2-2.4,2-5.1,2.2-7.8l19.9-6.5c3,16.9-6.9,33.9-23.6,39.4l-66.3,21.5c-8.9,2.9-18.4,2.1-26.7-2.1S256,177.8,253.1,169l-7.7-23.6
			c-2.9-8.9-2.1-18.4,2.1-26.7c4.2-8.3,11.5-14.5,20.4-17.4l66.3-21.5c11.5-3.7,24-1.3,33.3,6.5c1.8,1.5,4.5,1.3,6-0.5
			s1.3-4.5-0.5-6c-11.6-9.7-27-12.7-41.4-8.1l-66.3,21.5c-11,3.6-20,11.3-25.3,21.6s-6.2,22.1-2.6,33.2L245,171.6L245,171.6z
			 M388.8,121L388.8,121l-27.2,8.8h-0.1L349,134c-1.5,0.5-3.2,0.4-4.6-0.4c-1.4-0.7-2.5-2-3-3.5l-1.6-5c-0.5-1.5-0.4-3.2,0.4-4.6
			c0.7-1.4,2-2.5,3.5-3l12.5-4.1h0.1L465.4,78c3.2-1,6.6,0.7,7.7,3.9l1.6,5l0,0c0.5,1.5,0.4,3.2-0.4,4.6c-0.7,1.4-2,2.5-3.5,3
			L388.8,121L388.8,121L388.8,121z M337.2,106c3.4-1.1,7.1-0.6,10,1.3l-6.2,2c-3.7,1.2-6.7,3.8-8.5,7.2c-1.8,3.5-2.1,7.4-0.9,11.1
			l1.6,5c1.2,3.7,3.8,6.7,7.2,8.5s7.4,2.1,11.1,0.9l6.2-2c-1.3,3.2-3.9,5.8-7.4,6.9l-56.4,18.3c-3,1-6.3,0.7-9.1-0.7
			c-2.8-1.4-4.9-3.9-5.9-6.9l-5.9-18.3c-1-3-0.7-6.3,0.7-9.1c1.4-2.8,3.9-4.9,6.9-5.9L337.2,106L337.2,106z M481.2,131.7
			c-16.7,5.4-34.7-2.6-42.2-18l19.9-6.4c5.3,6.3,14,8.9,22,6.3l33.6-10.9c1.1-0.4,2-1.1,2.5-2.1s0.6-2.1,0.3-3.2
			c-0.7-2.2-3.1-3.5-5.4-2.7l-33.6,10.9c-3.4,1.1-7.1,0.6-10-1.3l5.2-1.7c3.7-1.2,6.7-3.8,8.5-7.2c1.8-3.5,2.1-7.4,0.9-11.1l0,0
			l-1.6-5c-2.5-7.6-10.7-11.9-18.4-9.4l-5.2,1.7c1.3-3.2,3.9-5.8,7.4-6.9l56.4-18.3c6.2-2,13,1.4,15,7.6l5.9,18.3
			c1,3,0.7,6.3-0.7,9.1c-1.4,2.8-3.9,4.9-6.9,5.9l-3.5,1.1c-2.2,0.7-3.5,3.1-2.7,5.4c0.7,2.2,3.1,3.5,5.4,2.7l3.5-1.1
			c5.2-1.7,9.4-5.3,11.9-10.1c2.5-4.9,2.9-10.4,1.2-15.6l-5.9-18.3c-3.5-10.7-15-16.6-25.7-13.1l-56.4,18.3c-8,2.6-13.5,9.9-14.1,18
			L428.6,81c-3-16.9,6.9-33.9,23.6-39.4l66-21.6c8.9-2.9,18.4-2.1,26.7,2.1s14.5,11.5,17.4,20.3L570,66c2.9,8.9,2.1,18.4-2.1,26.7
			c-4.2,8.3-11.5,14.5-20.4,17.4L481.2,131.7L481.2,131.7z"/>
	</g>
	<g>
		<g>
			<path class="st2" d="M130.3,102.5l4.5-9.7l5.1-11c1.7-3.7,2.8-7.6,3.2-11.4c1.5-14.8-6.3-29.6-20.6-36.3L64.6,7.3
				c-18-8.4-39.4-0.5-47.7,17.5L7.3,45.4c-8.4,18-0.5,39.4,17.5,47.7L82.6,120C100.6,128.3,122,120.5,130.3,102.5L130.3,102.5z
				 M88.3,96.5L39,73.6c-7.4-3.4-10.6-12.2-7.2-19.7l7.4-16c3.4-7.4,12.3-10.6,19.7-7.2l49.2,22.9c1.2,0.6,2.4,1.3,3.3,2.1
				c5,4.2,6.7,11.3,3.9,17.5l-7.4,16C104.5,96.7,95.7,99.9,88.3,96.5L88.3,96.5z"/>
			<path class="st3" d="M134.8,92.8l-23.5-10.9l4-8.6c2.9-6.2,1.1-13.3-3.9-17.5L143,70.5c-0.4,3.9-1.4,7.7-3.2,11.4L134.8,92.8z"/>
			<g>
				<path class="st3" d="M39.2,37.9c3.4-7.4,12.2-10.6,19.7-7.2l49.2,22.9c7.4,3.4,10.6,12.3,7.2,19.7l-2.7,5.8l0,0l7.4-16
					c3.4-7.4,0.2-16.2-7.2-19.7L63.6,20.6c-7.4-3.4-16.2-0.2-19.7,7.2L39.2,37.9z"/>
				<path class="st3" d="M130.3,102.5l4.7-10.2c-8.4,18-29.7,25.8-47.7,17.5L29.4,82.9C11.4,74.6,3.6,53.2,12,35.2l4.9-10.5l0,0
					L7.3,45.4c-8.4,18-0.5,39.4,17.5,47.7L82.6,120C100.6,128.3,122,120.5,130.3,102.5z"/>
			</g>
			<path class="st2" d="M291.2,177.2l9.6-20.6c8.4-18,0.5-39.4-17.5-47.7L225.4,82c-14.3-6.6-30.7-3.1-41,7.7
				c-2.7,2.8-5,6.1-6.7,9.8l-9.6,20.6c-8.4,18-0.5,39.4,17.5,47.7l57.9,26.9C261.5,203,282.9,195.2,291.2,177.2z M249.1,171.2
				l-49.2-22.9c-7.4-3.4-10.6-12.2-7.2-19.7l3.4-7.4l4-8.6c2.9-6.2,9.5-9.5,15.9-8.4c1.3,0.2,2.6,0.6,3.8,1.2l49.2,22.9
				c7.4,3.4,10.6,12.2,7.2,19.7l-7.4,16C265.4,171.4,256.6,174.6,249.1,171.2L249.1,171.2z"/>
			<path class="st3" d="M196.1,121.3l-23.5-10.9l5.1-11c1.7-3.7,4-7,6.7-9.8l31.6,14.7c-6.4-1.1-13,2.2-15.9,8.4L196.1,121.3z"/>
			<g>
				<path class="st3" d="M291.2,177.2l4.7-10.2c-8.4,18-29.7,25.8-47.7,17.5l-57.9-26.9c-18-8.4-25.8-29.7-17.5-47.7l4.9-10.5l0,0
					l-9.6,20.6c-8.4,18-0.5,39.4,17.5,47.7l57.9,26.9C261.5,203,282.8,195.2,291.2,177.2L291.2,177.2z"/>
				<path class="st3" d="M200.1,112.6c3.4-7.4,12.2-10.6,19.7-7.2l49.2,22.9c7.4,3.4,10.6,12.3,7.2,19.7l-2.7,5.8l0,0l7.4-16
					c3.4-7.4,0.2-16.2-7.2-19.7l-49.2-22.9c-7.4-3.4-16.2-0.2-19.7,7.2L200.1,112.6z"/>
			</g>
			<path class="st2" d="M91.7,74.7l2-4.4c2.2-4.7,7.8-6.8,12.6-4.6l106.4,49.4c4.7,2.2,6.8,7.8,4.6,12.6l-2,4.4
				c-2.2,4.7-7.8,6.8-12.6,4.6L96.3,87.2C91.5,85,89.5,79.4,91.7,74.7L91.7,74.7z"/>
			<path class="st3" d="M215.3,132.1l2-4.4c0.5-1,0.7-2.1,0.8-3.1c-2.7,2.8-7,3.7-10.7,2L101,77.1c-3.7-1.7-5.8-5.6-5.4-9.5
				c-0.7,0.8-1.4,1.6-1.9,2.7l-2,4.4c-2.2,4.7-0.1,10.4,4.6,12.6l106.4,49.4C207.4,138.9,213.1,136.8,215.3,132.1L215.3,132.1z"/>
		</g>
		<path d="M294.7,178.8l9.6-20.6c4.5-9.6,4.9-20.5,1.3-30.4c-3.7-10-11-18-20.6-22.4l-57.9-26.9c-12.5-5.8-27-4.8-38.6,2.8
			c-1.8,1.2-2.3,3.6-1.1,5.4s3.6,2.3,5.4,1.1c9.3-6.1,20.9-6.9,31-2.2l57.9,26.9c7.8,3.6,13.7,10,16.6,18.1c2.9,8,2.6,16.7-1,24.5
			l-9.6,20.6c-3.6,7.8-10,13.7-18,16.6s-16.7,2.6-24.5-1l-57.9-26.9c-14.6-6.8-21.7-23.4-17.1-38.4l17.4,8.1c-0.1,2.5,0.3,5,1.1,7.4
			c1.7,4.5,5.1,8.4,9.7,10.6l49.2,22.9c4.5,2.1,9.6,2.3,14.3,0.6c4.7-1.7,8.4-5.2,10.5-9.7l7.4-16c2.1-4.5,2.3-9.6,0.6-14.3
			c-1.7-4.7-5.2-8.4-9.7-10.5l-49.2-22.9c-7-3.2-15.2-1.8-20.7,3.3l-55.7-25.8c2.9-8.6,2.8-18-0.4-26.6c-3.7-9.9-11-17.8-20.5-22.2
			l-58-27.2c-9.6-4.5-20.5-4.9-30.5-1.3s-18,11-22.4,20.6L3.7,43.7c-4.5,9.6-4.9,20.5-1.3,30.4s11,18,20.6,22.4l58,27
			c9.6,4.4,20.3,4.9,30.2,1.4c8.7-3.1,15.9-9,20.6-16.8l31.2,14.5c-2.9,8.6-2.8,17.8,0.4,26.4c0,0.1,0.1,0.2,0.1,0.2
			c3.7,9.9,11,17.8,20.5,22.2l57.9,26.9c9.6,4.5,20.5,4.9,30.5,1.3C282.3,195.8,290.3,188.5,294.7,178.8L294.7,178.8z M169.5,117
			L169.5,117L97.9,83.7c-1.4-0.6-2.4-1.7-2.9-3.1s-0.4-2.9,0.2-4.3l0,0l2-4.4c1.3-2.8,4.6-4,7.4-2.7l95.4,44.3h0.1l11,5.1
			c1.4,0.6,2.4,1.7,2.9,3.1s0.4,2.9-0.2,4.3l-2,4.4c-0.6,1.4-1.7,2.4-3.1,2.9c-1.4,0.5-2.9,0.4-4.3-0.2l-11-5.1h-0.1L169.5,117
			L169.5,117L169.5,117z M218.1,109l49.2,22.9c2.6,1.2,4.7,3.4,5.7,6.1c1,2.7,0.9,5.7-0.4,8.3l-7.4,16c-1.2,2.6-3.4,4.7-6.1,5.7
			s-5.7,0.9-8.3-0.4l-49.2-22.9c-3-1.4-5.1-4.1-5.9-7.1l5.5,2.5c3.2,1.5,6.9,1.7,10.2,0.4c3.4-1.2,6-3.7,7.5-6.9l2-4.4
			c1.5-3.2,1.7-6.9,0.4-10.2c-1.2-3.4-3.7-6-6.9-7.5l-5.5-2.5C211.7,107.7,215.1,107.6,218.1,109L218.1,109z M84.3,116.4L26.4,89.5
			c-7.8-3.6-13.7-10-16.6-18.1s-2.6-16.7,1-24.5l9.6-20.6c3.6-7.8,10-13.7,18-16.6s16.7-2.6,24.5,1l57.9,26.9
			c14.6,6.8,21.7,23.4,17.1,38.4l-17.3-8c0.4-7.5-3.8-14.7-10.8-17.9L60.5,27.2c-9.4-4.3-20.5-0.3-24.8,9.1l-7.4,16
			c-2.1,4.5-2.3,9.6-0.6,14.3c1.7,4.7,5.2,8.4,9.7,10.5l3,1.4c1.9,0.9,4.3,0.1,5.2-1.9c0.9-1.9,0.1-4.3-1.9-5.2l-3-1.4
			C38,68.8,36,66.7,35,63.9c-1-2.7-0.9-5.7,0.4-8.3l7.4-16c2.5-5.5,9-7.8,14.5-5.3l49.2,22.9c3,1.4,5.1,4.1,5.9,7.1l-4.5-2.1
			c-6.7-3.1-14.6-0.2-17.8,6.5l-2,4.4l0,0c-1.5,3.2-1.7,6.9-0.4,10.2c1.2,3.4,3.7,6,6.9,7.5l4.5,2.1c-2.9,1.3-6.3,1.4-9.3,0
			L60.5,79.3c-2-0.9-4.3-0.1-5.2,1.9c-0.5,1-0.5,2-0.1,3c0.3,0.9,1,1.7,2,2.2L86.6,100c7,3.2,15.2,1.8,20.7-3.3l17.4,8.1
			C116.1,117.9,98.8,123.2,84.3,116.4L84.3,116.4z"/>
	</g>
	<g>
		<g>
			<path class="st4" d="M412.9,217.2v66.1h-24.1v-66.1L412.9,217.2L412.9,217.2z"/>
			<path class="st4" d="M178.4,217.2v66.1h-24.1v-66.1L178.4,217.2L178.4,217.2z"/>
			<path class="st5" d="M369.8,345.3v-79.1c0-2.3,1.9-4.1,4.1-4.1h53.8c2.3,0,4.1,1.9,4.1,4.1v79.1c0,2.3-1.9,4.1-4.1,4.1h-53.8
				C371.6,349.4,369.8,347.5,369.8,345.3z"/>
			<path class="st5" d="M135.3,345.3v-79.1c0-2.3,1.9-4.1,4.1-4.1h53.8c2.3,0,4.1,1.9,4.1,4.1v79.1c0,2.3-1.9,4.1-4.1,4.1h-53.8
				C137.2,349.4,135.3,347.5,135.3,345.3z"/>
			<path class="st6" d="M427.7,262h-23.4c2.3,0,4.1,1.9,4.1,4.1v79.1c0,2.3-1.9,4.1-4.1,4.1h23.4c2.3,0,4.1-1.9,4.1-4.1v-79.1
				C431.8,263.8,430,262,427.7,262z"/>
			<path class="st6" d="M193.2,262h-23.4c2.3,0,4.1,1.9,4.1,4.1v79.1c0,2.3-1.9,4.1-4.1,4.1h23.4c2.3,0,4.1-1.9,4.1-4.1v-79.1
				C197.4,263.8,195.5,262,193.2,262z"/>
			<path class="st5" d="M450.7,234.4H116.4c-2.3,0-4.1-1.9-4.1-4.1v-26.2c0-2.3,1.9-4.1,4.1-4.1h334.3c2.3,0,4.1,1.9,4.1,4.1v26.2
				C454.9,232.6,453,234.4,450.7,234.4z"/>
			<path class="st2" d="M443.8,200L395.6,78.7c-1.6-4.1-5.7-7-10.2-7H181.8c-4.5,0-8.5,2.7-10.2,6.9v0.1L123.4,200H443.8z
				 M420,199.9h-69.3l34.6-87.3L420,199.9z M369.1,93.7L334.5,181l-34.6-87.3H369.1z M318.2,199.9h-69.3l34.6-87.3L318.2,199.9z
				 M267.3,93.7L232.7,181L198,93.7H267.3z M181.8,112.6l34.6,87.3h-69.3L181.8,112.6z"/>
			<path class="st7" d="M122.6,402.9h321.9c5.7,0,10.3-4.6,10.3-10.3v-66.9c0-2.5-2.1-4.4-4.6-4.1c-16.9,1.8-18.5,13.6-38.2,13.6
				c-21.4,0-21.4-13.8-42.8-13.8s-21.4,13.8-42.8,13.8s-21.4-13.8-42.8-13.8s-21.4,13.8-42.8,13.8s-21.4-13.8-42.8-13.8
				s-21.4,13.8-42.8,13.8c-19.8,0-21.3-11.7-38.2-13.6c-2.5-0.3-4.6,1.6-4.6,4.1v66.9C112.3,398.3,116.9,402.9,122.6,402.9z"/>
			<path class="st8" d="M450.3,356.7c-16.9,1.8-18.5,13.6-38.2,13.6c-21.4,0-21.4-13.8-42.8-13.8s-21.4,13.8-42.8,13.8
				s-21.4-13.8-42.8-13.8s-21.4,13.8-42.8,13.8s-21.4-13.8-42.8-13.8s-21.4,13.8-42.8,13.8c-19.8,0-21.3-11.7-38.2-13.6
				c-2.5-0.3-4.6,1.6-4.6,4.1v31.7c0,5.7,4.6,10.3,10.3,10.3h321.9c5.7,0,10.3-4.6,10.3-10.3v-31.7
				C454.9,358.4,452.7,356.4,450.3,356.7L450.3,356.7z"/>
			<path class="st6" d="M450.7,200h-23.4c2.3,0,4.1,1.9,4.1,4.1v26.2c0,2.3-1.9,4.1-4.1,4.1h23.4c2.3,0,4.1-1.9,4.1-4.1v-26.2
				C454.9,201.8,453,200,450.7,200z"/>
			<g>
				<path class="st3" d="M373.6,79.5c4.5,0,8.6,2.8,10.2,7l45,113.5h14.8l-48-121.3c-1.6-4.1-5.7-7-10.2-7H181.8
					c-4.5,0-8.5,2.7-10.2,6.9v0.1l-0.3,0.9L373.6,79.5L373.6,79.5z"/>
			</g>
		</g>
		<g>
			<path d="M450.7,239.6c5.1,0,9.3-4.2,9.3-9.3v-26.2c0-5.1-4.2-9.3-9.3-9.3h-3.5l-46.9-118c-2.4-6.1-8.5-10.2-15.1-10.2H181.8
				c-6.6,0-12.5,3.9-15,10c0,0.1-0.1,0.2-0.1,0.2l-7.9,19.9c-1.1,2.7,0.2,5.7,2.9,6.7c2.7,1.1,5.7-0.2,6.7-2.9l7.9-19.8
				c0-0.1,0-0.1,0.1-0.1c0.9-2.2,3.1-3.7,5.4-3.7h203.6c2.4,0,4.6,1.5,5.4,3.7l45.3,114.2h-12.6l-33.4-84.1c-0.8-2-2.7-3.3-4.8-3.3
				s-4,1.3-4.8,3.3l-33.4,84.1h-25.4l-33.4-84.1c-0.8-2-2.7-3.3-4.8-3.3c-2.1,0-4,1.3-4.8,3.3l-33.4,84.1H220l-33.4-84.1
				c-0.8-2-2.7-3.3-4.8-3.3s-4,1.3-4.8,3.3l-33.4,84.1H131l28.5-71.9c1.1-2.7-0.2-5.7-2.9-6.7c-2.7-1.1-5.7,0.2-6.7,2.9l-30,75.7
				h-3.5c-5.1,0-9.3,4.2-9.3,9.3v26.2c0,5.1,4.2,9.3,9.3,9.3h32.7v17.2h-9.6c-5.1,0-9.3,4.2-9.3,9.3v54c-3.4-1.7-7.4-3.1-12.7-3.7
				c-2.6-0.3-5.3,0.6-7.2,2.3c-2,1.8-3.1,4.3-3.1,6.9v66.9c0,8.6,7,15.5,15.5,15.5h321.9c8.6,0,15.5-7,15.5-15.5v-66.9
				c0-2.6-1.1-5.2-3.1-6.9c-2-1.8-4.6-2.6-7.2-2.3c-5.3,0.6-9.3,2-12.7,3.7v-54c0-5.1-4.2-9.3-9.3-9.3H418v-17.2L450.7,239.6z
				 M385.4,126.6l27,68.1h-54.1L385.4,126.6z M283.6,126.6l27,68.1h-54.1L283.6,126.6z M181.8,126.6l27,68.1h-54.1L181.8,126.6z
				 M140.5,267.1h51.7v49.3l0,0c-15.2,1.8-19.1,10.4-30.1,12.8c-7.2,1.5-14.9,0.8-21.6-2.9L140.5,267.1L140.5,267.1z M159.5,256.8
				v-17.2h13.8v17.2H159.5z M449.7,326.8v65.7c0,2.9-2.3,5.2-5.2,5.2H122.6c-2.9,0-5.2-2.3-5.2-5.2v-65.7c7.5,1.1,11.2,4.5,17.1,8
				c9.2,5.4,19.9,6.6,29.8,4.5c14.9-3.2,17-12.6,33-12.8l0,0c0.2,0,0.3,0,0.5,0c19.3,0,19.7,13.8,42.8,13.8
				c12.2,0,18.6-4.1,24.2-7.7c5.1-3.3,9.4-6.1,18.6-6.1c19.3,0,19.7,13.8,42.8,13.8c23.1,0,23.6-13.8,42.8-13.8c0.2,0,0.3,0,0.5,0
				l0,0c16.2,0.2,18.1,9.9,33.6,13c4.6,0.9,9.9,1,14.6,0.5C433.8,337.9,437.1,328.6,449.7,326.8z M426.7,267.1v59.2
				c-6.6,3.7-14.4,4.5-21.7,2.9c-11.1-2.4-14-10.5-30-12.8v-49.3L426.7,267.1L426.7,267.1z M393.9,256.8v-17.2h13.8v17.2H393.9z
				 M346.6,229.3c-2.9,0-5.2,2.3-5.2,5.2s2.3,5.2,5.2,5.2h36.9v17.2h-9.6c-5.1,0-9.3,4.2-9.3,9.3v50.2c-19,1.8-20.3,13.6-38.2,13.6
				c-19.2,0-19.7-13.8-42.8-13.8c-23.1,0-23.6,13.8-42.8,13.8c-18,0-19.1-11.8-38.2-13.6v-50.2c0-5.1-4.2-9.3-9.3-9.3h-9.6v-17.2
				h138.9c2.9,0,5.2-2.3,5.2-5.2s-2.3-5.2-5.2-5.2c-15.4,0-197.6,0-205.1,0v-24.1h332.2v24.1C437.1,229.3,362.2,229.3,346.6,229.3z"
				/>
			<path d="M334.5,186.2c2.1,0,4-1.3,4.8-3.3l34.6-87.3c0.6-1.6,0.4-3.4-0.5-4.8c-1-1.4-2.6-2.3-4.3-2.3h-69.3
				c-1.7,0-3.3,0.8-4.3,2.3c-1,1.4-1.2,3.2-0.5,4.8l34.6,87.3C330.4,184.9,332.3,186.2,334.5,186.2L334.5,186.2z M361.5,98.9
				l-27,68.1l-27-68.1H361.5z"/>
			<path d="M232.7,186.2c2.1,0,4-1.3,4.8-3.3l34.6-87.3c0.6-1.6,0.4-3.4-0.5-4.8c-1-1.4-2.6-2.3-4.3-2.3H198c-1.7,0-3.3,0.8-4.3,2.3
				c-1,1.4-1.2,3.2-0.5,4.8l34.6,87.3C228.7,184.9,230.6,186.2,232.7,186.2L232.7,186.2z M259.7,98.9l-27,68.1l-27-68.1H259.7z"/>
		</g>
	</g>
</g>
</svg>
