<?xml version="1.0" encoding="utf-8"?>
<!-- Generator: Adobe Illustrator 25.2.1, SVG Export Plug-In . SVG Version: 6.00 Build 0)  -->
<svg version="1.1" id="Capa_1" xmlns="http://www.w3.org/2000/svg" xmlns:xlink="http://www.w3.org/1999/xlink" x="0px" y="0px"
	 viewBox="0 0 600 600" style="enable-background:new 0 0 600 600;" xml:space="preserve">
<style type="text/css">
	.st0{fill:#FFFFFF;}
	.st1{fill:#00AAAA;}
</style>
<g>
	<polygon points="576.3,275.2 574.2,275.2 574.2,272.9 574.2,262.1 574.2,253.5 565.6,253.5 563.3,253.5 563.3,251.3 563.3,242.6 
		554.7,242.6 543.9,242.6 541.7,242.6 541.7,240.4 541.7,231.7 533,231.7 522.2,231.7 511.3,231.7 500.6,231.7 491.9,231.7 
		491.9,240.4 491.9,242.6 489.7,242.6 478.9,242.6 476.7,242.6 468,242.6 465.8,242.6 465.8,240.4 465.8,231.7 457.1,231.7 
		446.3,231.7 435.4,231.7 433.2,231.7 433.2,229.5 433.2,220.9 424.7,220.9 413.8,220.9 411.6,220.9 411.6,218.7 411.6,210.1 
		403,210.1 392.1,210.1 381.3,210.1 379.1,210.1 379.1,207.8 379.1,199.3 370.4,199.3 359.7,199.3 348.8,199.3 337.9,199.3 
		327.1,199.3 324.9,199.3 324.9,197.1 324.9,186.2 324.9,175.4 324.9,173.2 327.1,173.2 335.7,173.2 335.7,164.5 335.7,153.7 
		335.7,142.8 335.7,132.1 335.7,129.8 337.9,129.8 346.6,129.8 346.6,121.2 346.6,110.4 346.6,99.5 346.6,97.3 348.8,97.3 
		359.7,97.3 370.4,97.3 381.3,97.3 392.1,97.3 394.3,97.3 394.3,99.5 394.3,108.2 403,108.2 413.8,108.2 424.7,108.2 426.9,108.2 
		426.9,110.4 426.9,121.2 426.9,129.8 435.4,129.8 437.7,129.8 437.7,132.1 437.7,140.6 446.3,140.6 448.6,140.6 448.6,142.8 
		448.6,151.5 457.1,151.5 468,151.5 478.9,151.5 489.7,151.5 498.3,151.5 498.3,142.8 498.3,140.6 500.6,140.6 509.1,140.6 
		509.1,132.1 509.1,129.8 511.3,129.8 520,129.8 520,121.2 520,110.4 520,99.5 520,88.6 520,77.8 520,66.9 520,58.4 511.3,58.4 
		509.1,58.4 509.1,56.2 509.1,47.5 500.6,47.5 489.7,47.5 478.9,47.5 468,47.5 457.1,47.5 446.3,47.5 437.7,47.5 437.7,56.2 
		437.7,58.4 435.4,58.4 426.9,58.4 426.9,66.9 426.9,69.2 424.7,69.2 422.4,69.2 422.4,66.9 422.4,58.4 413.8,58.4 403,58.4 
		392.1,58.4 381.3,58.4 379.1,58.4 379.1,56.2 379.1,47.5 370.4,47.5 359.7,47.5 348.8,47.5 337.9,47.5 327.1,47.5 316.2,47.5 
		307.7,47.5 307.7,56.2 307.7,66.9 307.7,77.8 307.7,88.6 307.7,99.5 307.7,101.7 305.4,101.7 296.8,101.7 296.8,110.4 296.8,121.2 
		296.8,132.1 296.8,142.8 296.8,153.7 296.8,155.9 294.6,155.9 286,155.9 286,164.5 286,175.4 286,186.2 286,197.1 286,199.3 
		283.8,199.3 272.9,199.3 262.1,199.3 251.2,199.3 240.4,199.3 229.6,199.3 220.9,199.3 220.9,207.8 220.9,210.1 218.7,210.1 
		207.9,210.1 197,210.1 188.4,210.1 188.4,218.7 188.4,220.9 186.2,220.9 175.3,220.9 164.6,220.9 155.9,220.9 155.9,229.5 
		155.9,231.7 153.7,231.7 142.9,231.7 134.2,231.7 134.2,240.4 134.2,242.6 132,242.6 129.8,242.6 121.1,242.6 119,242.6 119,240.4 
		119,231.7 110.3,231.7 99.4,231.7 88.7,231.7 77.8,231.7 67,231.7 56.1,231.7 47.6,231.7 47.6,240.4 47.6,242.6 45.3,242.6 
		36.7,242.6 36.7,251.3 36.7,253.5 34.4,253.5 25.9,253.5 25.9,262.1 25.9,264.3 23.7,264.3 15,264.3 15,272.9 15,283.7 15,294.6 
		15,305.4 15,316.3 15,327.1 15,335.7 23.7,335.7 25.9,335.7 25.9,337.9 25.9,348.8 25.9,357.4 34.4,357.4 36.7,357.4 36.7,359.6 
		36.7,368.3 45.3,368.3 47.6,368.3 47.6,370.5 47.6,381.3 47.6,392.2 47.6,402.9 47.6,413.8 47.6,422.4 56.1,422.4 58.3,422.4 
		58.3,424.6 58.3,435.5 58.3,444.1 67,444.1 69.2,444.1 69.2,446.3 69.2,457.2 69.2,465.8 77.8,465.8 80,465.8 80,468.1 80,476.6 
		88.7,476.6 90.9,476.6 90.9,478.8 90.9,487.5 99.4,487.5 101.7,487.5 101.7,489.7 101.7,498.3 110.3,498.3 112.6,498.3 
		112.6,500.5 112.6,509.2 121.1,509.2 132,509.2 134.2,509.2 134.2,511.4 134.2,519.9 142.9,519.9 153.7,519.9 155.9,519.9 
		155.9,522.2 155.9,530.8 164.6,530.8 175.3,530.8 177.6,530.8 177.6,533.1 177.6,541.6 186.2,541.6 197,541.6 207.9,541.6 
		210.1,541.6 210.1,543.8 210.1,552.5 218.7,552.5 229.6,552.5 240.4,552.5 251.2,552.5 262.1,552.5 272.9,552.5 283.8,552.5 
		294.6,552.5 305.4,552.5 316.2,552.5 327.1,552.5 337.9,552.5 348.8,552.5 359.7,552.5 370.4,552.5 381.3,552.5 389.9,552.5 
		389.9,543.8 389.9,541.6 392.1,541.6 403,541.6 413.8,541.6 422.4,541.6 422.4,533.1 422.4,530.8 424.7,530.8 435.4,530.8 
		444.1,530.8 444.1,522.2 444.1,519.9 446.3,519.9 457.1,519.9 465.8,519.9 465.8,511.4 465.8,509.2 468,509.2 478.9,509.2 
		487.4,509.2 487.4,500.5 487.4,498.3 489.7,498.3 498.3,498.3 498.3,489.7 498.3,487.5 500.6,487.5 509.1,487.5 509.1,478.8 
		509.1,476.6 511.3,476.6 520,476.6 520,468.1 520,465.8 522.2,465.8 530.8,465.8 530.8,457.2 530.8,446.3 530.8,444.1 533,444.1 
		541.7,444.1 541.7,435.5 541.7,424.6 541.7,422.4 543.9,422.4 552.4,422.4 552.4,413.8 552.4,402.9 552.4,392.2 552.4,381.3 
		552.4,370.5 552.4,368.3 554.7,368.3 563.3,368.3 563.3,359.6 563.3,357.4 565.6,357.4 574.2,357.4 574.2,348.8 574.2,337.9 
		574.2,335.7 576.3,335.7 585,335.7 585,327.1 585,316.3 585,305.4 585,294.6 585,283.7 585,275.2 	"/>
	<g>
		<g>
			<polygon class="st0" points="424.7,327.1 424.7,316.3 413.8,316.3 413.8,305.4 403,305.4 392.1,305.4 381.3,305.4 370.4,305.4 
				370.4,316.3 359.7,316.3 359.7,327.1 359.7,337.9 359.7,348.8 359.7,359.6 359.7,370.5 359.7,381.3 370.4,381.3 381.3,381.3 
				381.3,392.2 392.1,392.2 403,392.2 413.8,392.2 413.8,381.3 424.7,381.3 424.7,370.5 435.4,370.5 435.4,359.6 435.4,348.8 
				435.4,337.9 435.4,327.1 			"/>
			<polygon class="st0" points="381.3,446.3 381.3,457.2 370.4,457.2 359.7,457.2 359.7,468.1 348.8,468.1 337.9,468.1 327.1,468.1 
				316.2,468.1 305.4,468.1 294.6,468.1 283.8,468.1 272.9,468.1 262.1,468.1 251.2,468.1 240.4,468.1 240.4,457.2 229.6,457.2 
				218.7,457.2 218.7,446.3 207.9,446.3 197,446.3 197,457.2 197,468.1 207.9,468.1 218.7,468.1 218.7,478.8 229.6,478.8 
				240.4,478.8 240.4,489.7 251.2,489.7 262.1,489.7 272.9,489.7 283.8,489.7 294.6,489.7 305.4,489.7 316.2,489.7 327.1,489.7 
				337.9,489.7 348.8,489.7 359.7,489.7 359.7,478.8 370.4,478.8 381.3,478.8 381.3,468.1 392.1,468.1 403,468.1 403,457.2 
				403,446.3 392.1,446.3 			"/>
			<polygon class="st0" points="197,392.2 207.9,392.2 218.7,392.2 218.7,381.3 229.6,381.3 240.4,381.3 240.4,370.5 240.4,359.6 
				240.4,348.8 240.4,337.9 240.4,327.1 240.4,316.3 229.6,316.3 229.6,305.4 218.7,305.4 207.9,305.4 197,305.4 186.2,305.4 
				186.2,316.3 175.3,316.3 175.3,327.1 164.6,327.1 164.6,337.9 164.6,348.8 164.6,359.6 164.6,370.5 175.3,370.5 175.3,381.3 
				186.2,381.3 186.2,392.2 			"/>
		</g>
		<path class="st1" d="M565.6,283.7v-10.9v-10.9h-10.9v-10.9h-10.9h-10.9v-10.9h-10.7h-10.9h-10.9v10.9h-10.9h-10.7v10.9H468v-10.9
			h-10.9v-10.9h-10.9h-10.9h-10.9v-10.7h-10.9h-10.9v-10.9h-10.9H381h-10.9v-10.8h-10.9h-10.9h-10.9h-10.9h-10.9v-10.9v-10.8v-10.9
			v-10.9h10.9v-10.9v-10.7v-10.9v-10.9h10.9v-10.8V99.5V88.6V77.7h10.9v10.9h10.9h10.9H381h10.8h10.9v10.9h10.9h10.9h10.9v10.9v10.8
			h10.9v10.9h10.9v10.9H468h10.9h10.8v-10.9h10.9v-10.9h10.9v-10.8V99.5V88.6V77.7V66.8h-10.9V56.2h-10.9h-10.8H468h-10.9h-10.9
			v10.9h-10.9v10.9h-10.9h-10.9V67.1h-10.9h-10.9H381h-10.9V56.2h-10.9h-10.9h-10.9h-10.9h-10.9v10.9v10.9v10.9v10.7v10.9h-10.9
			v10.8v10.9v10.9v10.9v10.9H294v10.9v10.9v10.9v10.9h-10.9h-10.9h-10.9h-10.9h-10.9h-10.9v10.8h-10.9h-10.9h-10.8v10.9h-10.9h-10.9
			h-10.9v10.9h-10.9h-10.9v10.9h-10.9v10.9h-9.7v-10.9h-10.8v-10.9H99.4H88.6H77.8H66.9H56v10.9H45.1v10.9H34.4v10.9H23.6v10.9v10.9
			v10.8v10.9v10.9h10.9v10.9v10.9h10.9v10.9h10.9v10.9v10.9v10.9v10.8v10.9h10.9v10.9v10.9H78v10.9v10.9h10.9v10.9h10.9v10.9h10.9
			v10.8h10.8v10.9h10.9h10.9v10.9h10.9H165v10.9h10.9h10.9v10.9h10.9h10.8h10.9v10.9h10.9h10.9H252h10.9h10.9h10.9h10.9h10.8h10.9
			h10.9H339h10.9h10.9h10.9h10.9v-10.9h10.8h10.9h10.9v-10.9H426h10.9v-10.9h10.9h10.9v-10.9h10.9h10.9v-10.9h10.8v-10.8h10.9v-10.9
			H513v-10.9h10.9v-10.9v-10.9h10.9v-10.9v-10.9h10.9v-10.9v-10.8v-10.9v-10.9v-10.9h10.9v-10.9h10.9v-10.9v-10.9h10.8v-10.9v-10.9
			v-10.8v-10.9h-12.7V283.7z M392.1,468.1h-10.8v10.9h-10.9h-10.9v10.8h-10.9h-10.9h-10.9H316h-10.9h-10.8h-10.9h-10.9h-10.9h-10.9
			h-10.9v-10.8H229h-10.9v-10.9h-10.9h-10.8v-10.9v-10.9h10.8h10.9v10.9H229h10.9v10.9h10.9h10.9h10.9h10.9h10.9h10.8H316h10.9h10.9
			h10.9h10.9v-10.9h10.9h10.9v-10.9h10.8H403v10.9v10.9H392.1z M186.2,316.3v-10.9h10.9h10.8h10.9h10.9v10.9h10.9v10.9v10.9v10.9
			v10.9v10.9v10.9h-10.9h-10.9v10.9h-10.9h-10.8h-10.9v-10.9h-10.9v-10.9h-10.9v-10.9v-10.9v-10.9v-10.9h10.9v-10.9H186.2z
			 M424.7,316.3v10.9h10.9v10.9v10.9v10.9v10.9h-10.9v10.9h-10.9v10.9h-10.9H392h-10.8v-10.9h-10.9h-10.9v-10.9v-10.9v-10.9v-10.9
			v-10.9v-10.9h10.9v-10.9h10.9H392h10.9h10.9v10.9H424.7z"/>
	</g>
</g>
</svg>
