<?xml version="1.0" encoding="utf-8"?>
<!-- Generator: Adobe Illustrator 25.2.1, SVG Export Plug-In . SVG Version: 6.00 Build 0)  -->
<svg version="1.1" id="Capa_1" xmlns="http://www.w3.org/2000/svg" xmlns:xlink="http://www.w3.org/1999/xlink" x="0px" y="0px"
	 viewBox="0 0 600 600" style="enable-background:new 0 0 600 600;" xml:space="preserve">
<style type="text/css">
	.st0{fill:#002B2A;}
	.st1{fill:#00AAAA;}
	.st2{fill:#FFFFFF;}
	.st3{fill:#11726B;}
	.st4{fill:#494949;}
	.st5{fill:#999999;}
</style>
<g>
	<circle class="st0" cx="299" cy="299.5" r="285"/>
	<g>
		<g>
			<circle class="st1" cx="299" cy="299.5" r="251.2"/>
			<path class="st2" d="M461.2,386.6c-3.5-0.6-6.8-0.3-9.9,0.7c-2.7,0.9-5.7,0.3-7.7-1.7L408,350c-0.7-0.7-1.2-1.4-1.8-2.2
				l-50.9-76.3c-0.9-1.3-0.7-3,0.4-4.1l6.1-6.1l42.4-42.4c2-2,5.1-2.6,7.8-1.7c3.4,1.1,7.2,1.4,11.2,0.6c8.4-1.8,14.9-8.7,16.3-17.2
				c2.3-14.4-10-26.7-24.4-24.3c-8.8,1.4-15.8,8.5-17.3,17.2c-0.6,3.4-0.3,6.7,0.6,9.7c0.8,2.7,0.2,5.6-1.8,7.6l-41.1,41.1l-5.6,5.6
				c-1.3,1.2-3.3,1-4.3-0.4l-38.8-58.1c-1.5-2.3-2.4-5.1-2.4-7.8v-46.2c0-2.9,1.7-5.5,4.2-6.9c7.8-4.1,12.8-12.9,11-22.6
				c-1.5-8.5-8.3-15.3-16.8-16.9c-13.4-2.5-25.2,7.8-25.2,20.8c0,8.1,4.6,15.2,11.4,18.7c2.6,1.4,4.2,4,4.2,6.9V191
				c0,2.8-0.8,5.5-2.4,7.8L252.3,257c-1,1.5-3.1,1.7-4.3,0.4L201.5,211c-2-2-2.6-4.9-1.8-7.6c0.9-3,1.2-6.3,0.6-9.7
				c-1.5-8.8-8.5-15.8-17.3-17.3c-14.4-2.4-26.7,9.9-24.4,24.3c1.4,8.4,7.9,15.4,16.3,17.2c4,0.9,7.8,0.6,11.2-0.6
				c2.7-0.9,5.8-0.3,7.8,1.7l96.1,96.1c2.2,2.2,3.4,5.2,3.4,8.3V347h-83.4c-1.9,0-3-2.1-2-3.7l35.1-52.7c1.2-1.8,1.4-4.2,0.3-6.1
				c-2.2-3.6-7.2-3.5-9.4-0.3l-42.4,63.5c-0.5,0.8-1.1,1.5-1.8,2.2l-35.6,35.6c-2,2-5,2.6-7.7,1.7c-3-1-6.4-1.3-9.9-0.7
				c-8.8,1.5-15.9,8.6-17.4,17.4c-2.3,14.4,10,26.6,24.3,24.3c8.8-1.4,15.9-8.5,17.4-17.4c0.6-3.5,0.3-6.8-0.7-9.9
				c-0.9-2.7-0.3-5.7,1.7-7.7l31.2-31.2c2.7-2.7,6.2-4.1,10-4.1h90v46.8c0,2.8-1.6,5.3-4.1,6.6c-2.7,1.4-5.1,3.4-7,5.8
				c-2.9,3.6-4.5,8.2-4.5,13.2c0.1,11.2,9.3,20.7,20.6,21c11.9,0.3,21.7-9.3,21.7-21.1c0-4.9-1.7-9.5-4.5-13.1
				c-1.9-2.4-4.3-4.4-7-5.8c-2.5-1.3-4.1-3.8-4.1-6.6v-81.4c0-3.1,1.2-6.1,3.4-8.3l7.7-7.7l18.8-18.8c1.7-1.7,2.3-4.2,1.3-6.4
				c-1.7-3.6-6.3-4.4-9-1.7L301,306.5c-1.1,1.1-2.9,1.1-4,0l-36.7-36.7c-1.1-1.1-1.3-2.8-0.4-4.1L297,210c0.9-1.4,3-1.4,3.9,0
				l88.9,133.3c1,1.6-0.1,3.7-2,3.7h-66.5c-2.6,0-5,1.7-5.6,4.2c-0.9,3.7,1.9,6.9,5.4,6.9h73.4c3.8,0,7.3,1.5,10,4.1l31.2,31.2
				c2,2,2.6,5,1.7,7.7c-1,3-1.3,6.4-0.7,9.9c1.4,8.8,8.6,15.9,17.4,17.4c14.4,2.3,26.7-10,24.3-24.3
				C477.1,395.2,470,388.1,461.2,386.6L461.2,386.6z M415.9,187.4c7.7-2,14.5,4.8,12.4,12.4c-0.9,3.4-3.6,6.1-7,7
				c-7.6,2-14.5-4.8-12.4-12.4C409.8,191,412.6,188.3,415.9,187.4L415.9,187.4z M182.2,207c-7.7,2-14.5-4.8-12.4-12.4
				c0.9-3.4,3.6-6.1,7-7c7.7-2,14.5,4.8,12.4,12.4C188.3,203.3,185.6,206.1,182.2,207L182.2,207z M143.1,417.2
				c-7.7,2-14.5-4.8-12.4-12.4c0.9-3.4,3.6-6.1,7-7c7.7-2,14.5,4.8,12.4,12.4C149.2,413.6,146.4,416.3,143.1,417.2L143.1,417.2z
				 M308,425.7c0.7,1.4,1.1,2.9,1.1,4.5c0,6-5.3,10.8-11.5,10c-3.2-0.4-6.1-2.5-7.5-5.4c-1.6-3.2-1.3-6.4,0-9.1
				c1.7-3.3,5.1-5.5,9-5.5C302.9,420.2,306.3,422.5,308,425.7L308,425.7z M289.3,122c-2-7.7,4.8-14.5,12.4-12.4c3.4,0.9,6.1,3.6,7,7
				c2,7.7-4.8,14.5-12.4,12.4C292.9,128.1,290.2,125.3,289.3,122L289.3,122z M460.4,417.2c-7.7,2-14.5-4.8-12.4-12.4
				c0.9-3.4,3.6-6.1,7-7c7.7-2,14.5,4.8,12.4,12.4C466.5,413.6,463.8,416.3,460.4,417.2"/>
			<g>
				<g>
					<g>
						<g>
							<g>
								<path class="st3" d="M299,56.9c-62.3,0-119.1,23.6-162.1,62.3c-0.3,0.3-0.6,0.5-0.9,0.8l0,0
									c-48.9,44.4-79.6,108.4-79.6,179.5c0,73.9,33.2,140.2,85.5,184.7c0.1,0.1,0.2,0.2,0.3,0.3c1.1,0.9,2.2,1.9,3.3,2.8
									c0.6,0.5,1.2,1,1.8,1.5c1,0.8,2,1.6,3,2.4c0,0,0.1,0.1,0.1,0.1c20.5,15.9,43.7,28.6,68.6,37.3c25,8.7,51.8,13.5,79.7,13.5
									c133.7,0,242.6-108.8,242.6-242.6S432.7,56.9,299,56.9z M519.5,240.7h-16.7c-1.9,0-3-2.1-2-3.7l11.8-17.7
									C515.3,226.3,517.6,233.4,519.5,240.7z M86.6,216l14,21c1,1.6-0.1,3.7-2,3.7H78.5C80.7,232.3,83.4,224,86.6,216z
									 M210.4,509.8l19.7-29.6c0.9-1.4,3-1.4,3.9,0l29.9,44.8C245.2,522.1,227.3,517,210.4,509.8z M229.4,399.2
									c-3.4-0.9-6.1-3.6-7-7c-2-7.7,4.8-14.5,12.4-12.5c3.4,0.9,6.1,3.6,7,7C243.8,394.5,237,401.3,229.4,399.2z M499.1,348.1
									c-3.4-0.9-6.1-3.6-7-7c-2-7.7,4.8-14.5,12.4-12.5c3.4,0.9,6.1,3.6,7,7C513.5,343.4,506.7,350.2,499.1,348.1z M507.3,364.1
									c0-2.9,1.7-5.5,4.2-6.9c7.8-4.1,12.8-12.9,11-22.6c-1.5-8.5-8.3-15.3-16.8-16.9c-13.4-2.5-25.2,7.8-25.2,20.8
									c0,8.1,4.6,15.2,11.4,18.7c2.6,1.3,4.2,4,4.2,6.9v46.2c0,2.8-0.8,5.5-2.4,7.8l-10.7,16c-10.5,14.3-22.6,27.4-36.1,38.9
									l-42.9-42.8c-2-2-2.6-4.9-1.8-7.6c0.9-3,1.2-6.3,0.6-9.7c-1.5-8.8-8.5-15.8-17.3-17.2c-14.4-2.4-26.8,9.9-24.4,24.3
									c1.4,8.4,7.9,15.4,16.3,17.2c4,0.9,7.8,0.6,11.2-0.6c2.8-0.9,5.8-0.3,7.8,1.7l41.8,41.8c-38.6,29.9-87,47.7-139.5,47.7h-0.2
									l38.5-38.5c2-2,5-2.6,7.8-1.7c3.4,1.1,7.2,1.4,11.2,0.6c8.4-1.8,14.9-8.7,16.3-17.2c2.3-14.4-10-26.7-24.4-24.3
									c-8.7,1.4-15.8,8.5-17.3,17.2c-0.6,3.4-0.3,6.7,0.6,9.7c0.8,2.7,0.2,5.6-1.8,7.6l-46.1,46.1c-1.7-0.1-3.5-0.3-5.3-0.4
									L240,469.2c-1.6-2.3-2.4-5-2.4-7.8v-46.2c0-2.9,1.6-5.5,4.2-6.9c7.8-4.1,12.7-12.9,11-22.6c-1.5-8.5-8.3-15.3-16.8-16.9
									c-13.4-2.5-25.2,7.8-25.2,20.8c0,8.1,4.6,15.2,11.3,18.7c2.6,1.3,4.3,4,4.3,6.9v46.2c0,2.8-0.8,5.5-2.4,7.8l-24,36
									c-13.9-6.7-27.1-14.9-39.3-24.2l0.8-0.8c2.1-2.1,5.1-2.6,7.8-1.7c3.4,1.1,7.3,1.4,11.2,0.6c8.3-1.8,14.9-8.7,16.3-17.2
									c2.3-14.4-10-26.7-24.4-24.3c-8.8,1.4-15.8,8.5-17.3,17.3c-0.6,3.4-0.3,6.7,0.6,9.7c0.8,2.7,0.2,5.6-1.8,7.6l-1.9,1.9
									c-29-24.5-52-56-65.9-92l17.6-17.7c2.1-2,5.1-2.6,7.8-1.7c3.4,1.2,7.2,1.4,11.2,0.6c8.3-1.8,14.9-8.7,16.3-17.2
									c2.3-14.4-10-26.7-24.4-24.3c-8.8,1.4-15.8,8.5-17.3,17.2c-0.6,3.4-0.3,6.7,0.6,9.7c0.8,2.7,0.2,5.6-1.8,7.6l-14.2,14.2
									c-7.3-22.3-11.3-46.2-11.3-71c0-16.3,1.7-32.3,5-47.7h29.4c3.8,0,7.3,1.5,10,4.1l31.2,31.2c2,2,2.6,5,1.7,7.7
									c-1,3-1.3,6.4-0.7,9.9c1.5,8.8,8.6,16,17.4,17.4c14.4,2.3,26.7-10,24.3-24.3c-1.4-8.8-8.5-15.9-17.4-17.4
									c-3.5-0.6-6.8-0.3-9.9,0.7c-2.7,0.9-5.7,0.3-7.7-1.7l-35.6-35.6c-0.7-0.7-1.3-1.4-1.8-2.1l-25.2-37.7
									c13-28.1,31.6-53.2,54.4-73.7l0.8,0.8c2,2,2.6,5,1.7,7.7c-1,3-1.3,6.4-0.7,9.9c1.4,8.8,8.5,15.9,17.4,17.4
									c14.4,2.3,26.6-10,24.3-24.3c-1.4-8.8-8.5-15.9-17.4-17.4c-3.5-0.6-6.8-0.3-9.9,0.7c-2.7,0.9-5.7,0.3-7.7-1.7l-0.2-0.2
									c28.7-23.5,63.2-40.2,101-47.5l-27.3,27.3c-2,2-5,2.6-7.7,1.7c-3-1-6.4-1.3-9.9-0.7c-8.8,1.5-16,8.6-17.4,17.4
									c-2.3,14.4,10,26.7,24.3,24.3c8.8-1.4,15.9-8.5,17.4-17.4c0.6-3.5,0.3-6.8-0.7-9.9c-0.9-2.7-0.3-5.7,1.7-7.7l31.2-31.2
									c0.6-0.6,1.2-1.1,1.9-1.6c0.8-0.6,1.7-1.1,2.6-1.4c0.1,0,0.1-0.1,0.2-0.1c5.6-2.7,13.5-4.9,24.4-4.9
									c29.4,0,44.3,3.8,44.3,3.8c9,1.7,17.9,3.9,26.5,6.6v40.2c0,2.8-1.6,5.3-4.1,6.6c-2.7,1.4-5.1,3.4-7,5.8
									c-2.9,3.6-4.5,8.2-4.5,13.2c0.1,11.2,9.3,20.7,20.6,21c11.9,0.3,21.7-9.3,21.7-21.1c0-4.9-1.7-9.5-4.5-13.1
									c-1.9-2.4-4.3-4.4-7-5.8c-2.5-1.3-4.1-3.8-4.1-6.6V85.5c45.9,17.1,84.9,48.6,111.4,89L478.3,186c-2,2-5,2.6-7.7,1.7
									c-3-1-6.4-1.3-9.9-0.7c-8.8,1.5-16,8.6-17.4,17.4c-2.3,14.4,10,26.6,24.3,24.3c8.8-1.4,15.9-8.5,17.4-17.4
									c0.6-3.5,0.3-6.8-0.7-9.9c-0.9-2.7-0.3-5.7,1.7-7.7l9.7-9.7c4.3,7.3,8.3,15,11.8,22.8l-23.1,34.6c-0.5,0.8-1.1,1.5-1.8,2.2
									l-35.6,35.6c-2,2-5,2.6-7.7,1.7c-3.1-1-6.4-1.3-9.9-0.7c-8.8,1.5-15.9,8.6-17.4,17.4c-2.3,14.4,10,26.6,24.3,24.3
									c8.8-1.4,15.9-8.5,17.4-17.4c0.6-3.5,0.3-6.8-0.7-9.9c-0.9-2.7-0.3-5.7,1.7-7.7l31.2-31.2c2.6-2.6,6.3-4.1,10-4.1h26
									c3.3,15.4,5,31.3,5,47.7c0,33.2-7.1,64.7-19.9,93.2V364.1z M392,419.2c-0.9,3.4-3.6,6.1-7,7c-7.7,2-14.5-4.8-12.4-12.4
									c0.9-3.4,3.6-6.1,7-7C387.2,404.7,394,411.5,392,419.2z M342.1,464.7c0.9-3.4,3.6-6.1,7-7c7.7-2,14.5,4.8,12.4,12.5
									c-0.9,3.3-3.6,6.1-7,7C346.8,479.2,340,472.3,342.1,464.7z M166.4,455.7c0.9-3.3,3.6-6.1,7-7c7.7-2,14.5,4.8,12.4,12.5
									c-0.9,3.4-3.6,6.1-7,7C171.2,470.1,164.4,463.3,166.4,455.7z M108.6,339.8c0.9-3.4,3.6-6.1,7-7c7.7-2,14.5,4.8,12.4,12.4
									c-0.9,3.4-3.6,6.1-7,7C113.4,354.3,106.6,347.5,108.6,339.8z M158.7,298.5c0.9-3.4,3.6-6.1,7-7c7.7-2,14.5,4.8,12.5,12.4
									c-0.9,3.4-3.6,6.1-7,7C163.5,313,156.7,306.2,158.7,298.5z M159.1,142.3c0.9-3.4,3.6-6.1,7-7c7.7-2,14.5,4.8,12.4,12.4
									c-0.9,3.4-3.6,6.1-7,7C163.9,156.8,157.1,150,159.1,142.3z M223.9,127.3c-0.9,3.4-3.6,6.1-7,7c-7.7,2-14.5-4.8-12.4-12.5
									c0.9-3.3,3.6-6.1,7-7C219.1,112.9,226,119.7,223.9,127.3z M372.9,137.3c3.9,0,7.3,2.3,9,5.6c0.7,1.4,1.1,2.9,1.1,4.5
									c0,6-5.3,10.8-11.5,10c-3.2-0.5-6.1-2.5-7.5-5.4c-1.6-3.1-1.3-6.4,0-9.1C365.6,139.5,369,137.3,372.9,137.3z M474,210.6
									c-0.9,3.4-3.6,6.1-7,7c-7.7,2-14.5-4.8-12.4-12.4c0.9-3.4,3.6-6.1,7-7C469.2,196.1,476,203,474,210.6z M442.8,304
									c-0.9,3.4-3.6,6.1-7,7c-7.7,2-14.5-4.8-12.4-12.4c0.9-3.4,3.6-6.1,7-7C438,289.5,444.8,296.3,442.8,304z"/>
							</g>
						</g>
					</g>
					<g>
						<path class="st3" d="M152.1,258.6L152.1,258.6c-7.7,2-14.5-4.8-12.4-12.4c0.9-3.4,3.6-6.1,7-7c7.7-2,14.5,4.8,12.4,12.4
							C158.2,254.9,155.5,257.7,152.1,258.6"/>
					</g>
					<g>
						<path class="st3" d="M206.9,173.8L206.9,173.8c-7.7,2-14.5-4.8-12.4-12.4c0.9-3.4,3.6-6.1,7-7c7.7-2,14.5,4.8,12.4,12.4
							C213,170.1,210.3,172.9,206.9,173.8"/>
					</g>
					<g>
						<path class="st3" d="M132,238.4L132,238.4c-7.7,2-14.5-4.8-12.4-12.4c0.9-3.4,3.6-6.1,7-7c7.7-2,14.5,4.8,12.4,12.4
							C138.1,234.8,135.4,237.5,132,238.4"/>
					</g>
					<g>
						<path class="st3" d="M347.3,437.3L347.3,437.3c-7.7,2-14.5-4.8-12.4-12.4c0.9-3.4,3.6-6.1,7-7c7.7-2,14.5,4.8,12.4,12.4
							C353.3,433.7,350.6,436.4,347.3,437.3"/>
					</g>
					<g>
						<path class="st3" d="M497.9,284.5L497.9,284.5c-7.7,2-14.5-4.8-12.4-12.4c0.9-3.4,3.6-6.1,7-7c7.7-2,14.5,4.8,12.4,12.4
							C503.9,280.9,501.2,283.6,497.9,284.5"/>
					</g>
					<g>
						<path class="st3" d="M477.1,302.9L477.1,302.9c-7.7,2-14.5-4.8-12.4-12.4c0.9-3.4,3.6-6.1,7-7c7.7-2,14.5,4.8,12.4,12.4
							C483.1,299.3,480.4,302,477.1,302.9"/>
					</g>
					<g>
						<path class="st3" d="M352.5,103.1L352.5,103.1c-7.7,2-14.5-4.8-12.4-12.4c0.9-3.4,3.6-6.1,7-7c7.7-2,14.5,4.8,12.4,12.4
							C358.6,99.5,355.9,102.2,352.5,103.1"/>
					</g>
					<g>
						<path class="st3" d="M354.5,238.1L354.5,238.1c-7.7,2-14.5-4.8-12.4-12.4c0.9-3.4,3.6-6.1,7-7c7.7-2,14.5,4.8,12.4,12.4
							C360.6,234.5,357.8,237.2,354.5,238.1"/>
					</g>
					<g>
						<path class="st3" d="M375.6,210.7L375.6,210.7c-7.7,2-14.5-4.8-12.4-12.4c0.9-3.4,3.6-6.1,7-7c7.7-2,14.5,4.8,12.4,12.4
							C381.7,207.1,379,209.8,375.6,210.7"/>
					</g>
					<g>
						<path class="st3" d="M182.2,426.1L182.2,426.1c-7.7,2-14.5-4.8-12.4-12.4c0.9-3.4,3.6-6.1,7-7c7.7-2,14.5,4.8,12.4,12.4
							C188.3,422.5,185.6,425.3,182.2,426.1"/>
					</g>
					<g>
						<path class="st3" d="M103.7,312.2L103.7,312.2c-7.7,2-14.5-4.8-12.4-12.4c0.9-3.4,3.6-6.1,7-7c7.7-2,14.5,4.8,12.4,12.4
							C109.8,308.6,107.1,311.3,103.7,312.2"/>
					</g>
					<g>
						<path class="st3" d="M103.7,284L103.7,284c-7.7,2-14.5-4.8-12.4-12.4c0.9-3.4,3.6-6.1,7-7c7.7-2,14.5,4.8,12.4,12.4
							C109.8,280.4,107.1,283.1,103.7,284"/>
					</g>
					<g>
						<path class="st3" d="M391.6,467.1L391.6,467.1c-7.7,2-14.5-4.8-12.4-12.4c0.9-3.4,3.6-6.1,7-7c7.7-2,14.5,4.8,12.4,12.4
							C397.7,463.4,395,466.2,391.6,467.1"/>
					</g>
					<g>
						<path class="st3" d="M421.4,426.1L421.4,426.1c-7.7,2-14.5-4.8-12.4-12.4c0.9-3.4,3.6-6.1,7-7c7.7-2,14.5,4.8,12.4,12.4
							C427.5,422.5,424.8,425.3,421.4,426.1"/>
					</g>
					<g>
						<path class="st3" d="M411.3,483.4L411.3,483.4c-7.7,2-14.5-4.8-12.4-12.4c0.9-3.4,3.6-6.1,7-7c7.7-2,14.5,4.8,12.4,12.4
							C417.4,479.8,414.7,482.5,411.3,483.4"/>
					</g>
					<g>
						<path class="st3" d="M286.1,511.8L286.1,511.8c-7.7,2-14.5-4.8-12.4-12.4c0.9-3.4,3.6-6.1,7-7c7.7-2,14.5,4.8,12.4,12.4
							C292.1,508.2,289.4,510.9,286.1,511.8"/>
					</g>
					<g>
						<path class="st3" d="M328.9,103.1L328.9,103.1c-7.7,2-14.5-4.8-12.4-12.4c0.9-3.4,3.6-6.1,7-7c7.7-2,14.5,4.8,12.4,12.4
							C335,99.5,332.3,102.2,328.9,103.1"/>
					</g>
					<rect x="62.6" y="268.8" class="st3" width="31.8" height="11.1"/>
					<rect x="495.9" y="269.2" class="st3" width="31.8" height="11.1"/>
					<rect x="403.1" y="476.1" class="st3" width="11.1" height="31.8"/>
					<path class="st3" d="M346.2,223.8V194c0-0.5,0.4-1,1-1h9.1c0.5,0,1,0.4,1,1v29.9c0,0.5-0.4,1-1,1h-9.1
						C346.6,224.8,346.2,224.4,346.2,223.8z"/>
					<path class="st3" d="M174.4,254.4h-29.9c-0.5,0-1-0.4-1-1v-9.1c0-0.5,0.4-1,1-1h29.9c0.5,0,1,0.4,1,1v9.1
						C175.4,254,174.9,254.4,174.4,254.4z"/>
					<path class="st3" d="M265.7,169.6h-60.6c-0.5,0-1-0.4-1-1v-9.1c0-0.5,0.4-1,1-1h60.6c0.5,0,1,0.4,1,1v9.1
						C266.7,169.2,266.2,169.6,265.7,169.6z"/>
					<path class="st3" d="M468.8,326.3v-29.9c0-0.5,0.4-1,1-1h9.1c0.5,0,1,0.4,1,1v29.9c0,0.5-0.4,1-1,1h-9.1
						C469.2,327.2,468.8,326.8,468.8,326.3z"/>
					<path class="st3" d="M277,497.9V468c0-0.5,0.4-1,1-1h9.1c0.5,0,1,0.4,1,1v29.9c0,0.5-0.4,1-1,1h-9.1
						C277.4,498.9,277,498.4,277,497.9z"/>
					<rect x="123.7" y="134.7" class="st3" width="11.1" height="91.9"/>
					<rect x="320.6" y="63.2" class="st3" width="11.1" height="33.4"/>
				</g>
			</g>
		</g>
		<g>
			<path class="st4" d="M151.6,485.7c-3.5,0-6.4-2.9-6.4-6.4v-73.6c0-3.5,2.9-6.4,6.4-6.4h306c3.5,0,6.4,2.9,6.4,6.4v73.6
				c0,3.5-2.9,6.4-6.4,6.4H151.6z"/>
			<path class="st5" d="M457.6,402.4c1.9,0,3.4,1.5,3.4,3.4v73.6c0,1.9-1.5,3.4-3.4,3.4h-306c-1.9,0-3.4-1.5-3.4-3.4v-73.6
				c0-1.9,1.5-3.4,3.4-3.4H457.6 M457.6,396.3h-306c-5.2,0-9.4,4.2-9.4,9.4v73.6c0,5.2,4.2,9.4,9.4,9.4h306c5.2,0,9.4-4.2,9.4-9.4
				v-73.6C467,400.5,462.8,396.3,457.6,396.3L457.6,396.3z"/>
		</g>
		<g>
			<path class="st2" d="M164,473.6V410h18.2v9.1h9.1v9.1h9.1v9.1h9.1V410h18.2v63.6h-18.2v-18.2h-9.1v-9.1h-9.1v-9.1h-9.1v36.3H164z
				"/>
			<path class="st2" d="M236.7,473.6V410h63.6v9.1h-45.4v18.2h36.3v9.1h-36.3v18.2h45.4v9.1H236.7z"/>
			<path class="st2" d="M318.4,473.6v-9.1h-9.1V410h18.2v36.3h9.1V410h9.1v36.3h9.1V410h18.2v54.5h-9.1v9.1h-9.1v-9.1h-9.1v-9.1
				h-9.1v9.1h-9.1v9.1H318.4z"/>
			<path class="st2" d="M391,473.6v-9.1h-9.1v-9.1h18.2v9.1h27.2v-18.2H391v-9.1h-9.1v-18.2h9.1V410h45.4v9.1h9.1v9.1h-18.2v-9.1
				h-27.2v18.2h36.3v9.1h9.1v18.2h-9.1v9.1H391z"/>
		</g>
	</g>
</g>
</svg>
