<?xml version="1.0" encoding="utf-8"?>
<!-- Generator: Adobe Illustrator 25.2.1, SVG Export Plug-In . SVG Version: 6.00 Build 0)  -->
<svg version="1.1" id="Capa_1" xmlns="http://www.w3.org/2000/svg" xmlns:xlink="http://www.w3.org/1999/xlink" x="0px" y="0px"
	 viewBox="0 0 513 607.1" style="enable-background:new 0 0 513 607.1;" xml:space="preserve">
<style type="text/css">
	.st0{fill:#00AAAA;}
	.st1{fill:#FFFFFF;}
	.st2{fill:#11726B;}
	.st3{enable-background:new    ;}
</style>
<g>
	<g>
		<circle class="st0" cx="256.5" cy="256.5" r="256.5"/>
		<path class="st1" d="M422.1,345.5c-3.5-0.6-7-0.3-10.1,0.7c-2.8,0.9-5.8,0.3-7.9-1.8l-36.3-36.3c-0.7-0.7-1.3-1.4-1.8-2.2L314,228
			c-0.9-1.3-0.7-3.1,0.4-4.2l6.2-6.2l43.3-43.3c2.1-2.1,5.2-2.7,8-1.7c3.5,1.2,7.4,1.5,11.4,0.6c8.5-1.8,15.2-8.9,16.6-17.5
			c2.4-14.7-10.2-27.3-24.9-24.9c-8.9,1.5-16.1,8.7-17.6,17.6c-0.6,3.5-0.3,6.8,0.6,9.9c0.8,2.7,0.2,5.7-1.8,7.7l-41.9,41.9
			l-5.7,5.7c-1.3,1.3-3.4,1.1-4.4-0.4l-39.6-59.4c-1.6-2.4-2.4-5.2-2.4-8V98.6c0-3,1.7-5.7,4.3-7c8-4.2,13-13.2,11.2-23.1
			c-1.6-8.7-8.5-15.6-17.1-17.2c-13.7-2.6-25.7,8-25.7,21.2c0,8.3,4.7,15.5,11.6,19.1c2.6,1.4,4.3,4.1,4.3,7v47.1
			c0,2.8-0.8,5.6-2.4,8l-39.6,59.4c-1,1.5-3.1,1.7-4.4,0.4L156.9,166c-2-2-2.6-5-1.8-7.8c0.9-3.1,1.2-6.4,0.6-9.9
			c-1.5-8.9-8.7-16.1-17.6-17.6c-14.7-2.4-27.3,10.2-24.9,24.9c1.4,8.6,8.1,15.7,16.6,17.5c4.1,0.9,7.9,0.6,11.4-0.6
			c2.8-0.9,5.9-0.4,8,1.7l98.1,98.1c2.2,2.2,3.5,5.3,3.5,8.4V305h-85.1c-1.9,0-3.1-2.2-2-3.8l35.8-53.8c1.2-1.9,1.5-4.3,0.3-6.2
			c-2.3-3.7-7.3-3.6-9.6-0.3L147,305.8c-0.5,0.8-1.1,1.5-1.8,2.2l-36.4,36.4c-2.1,2.1-5.1,2.7-7.9,1.8c-3.1-1-6.5-1.3-10.1-0.7
			c-9,1.5-16.3,8.7-17.7,17.7c-2.4,14.7,10.2,27.2,24.8,24.9c9-1.4,16.3-8.7,17.7-17.7c0.6-3.6,0.3-7-0.7-10.1
			c-0.9-2.8-0.3-5.8,1.8-7.9l31.9-31.9c2.7-2.7,6.4-4.2,10.2-4.2h91.9V364c0,2.8-1.6,5.4-4.1,6.7c-2.8,1.4-5.2,3.5-7.2,5.9
			c-2.9,3.7-4.6,8.4-4.6,13.4c0.1,11.5,9.5,21.1,21,21.5c12.2,0.3,22.2-9.5,22.2-21.6c0-5-1.7-9.7-4.6-13.4
			c-1.9-2.4-4.4-4.5-7.2-5.9c-2.5-1.3-4.2-3.9-4.2-6.7v-83.1c0-3.2,1.3-6.2,3.5-8.4l7.8-7.8l19.2-19.2c1.7-1.7,2.4-4.3,1.4-6.5
			c-1.7-3.7-6.4-4.5-9.2-1.7l-26.4,26.4c-1.1,1.1-2.9,1.1-4,0L217,226.2c-1.1-1.1-1.3-2.9-0.4-4.2l37.9-56.8c1-1.4,3.1-1.4,4,0
			l90.8,136.1c1.1,1.6-0.1,3.8-2,3.8h-67.9c-2.6,0-5.1,1.7-5.8,4.3c-0.9,3.7,1.9,7.1,5.5,7.1H354c3.8,0,7.5,1.5,10.2,4.2l31.9,31.9
			c2.1,2.1,2.7,5.1,1.8,7.9c-1,3.1-1.3,6.5-0.7,10.1c1.5,9,8.7,16.3,17.7,17.7c14.7,2.4,27.2-10.2,24.9-24.9
			C438.3,354.2,431.1,346.9,422.1,345.5L422.1,345.5z M375.9,142.1c7.8-2.1,14.8,4.9,12.7,12.7c-0.9,3.4-3.7,6.2-7.1,7.1
			c-7.8,2.1-14.8-4.9-12.7-12.7C369.7,145.8,372.4,143,375.9,142.1L375.9,142.1z M137.3,162c-7.8,2.1-14.8-4.9-12.7-12.7
			c0.9-3.4,3.7-6.2,7.1-7.1c7.8-2.1,14.8,4.9,12.7,12.7C143.5,158.3,140.7,161.1,137.3,162L137.3,162z M97.3,376.7
			c-7.8,2.1-14.8-4.9-12.7-12.7c0.9-3.4,3.7-6.2,7.1-7.1c7.8-2.1,14.8,4.9,12.7,12.7C103.5,373,100.7,375.8,97.3,376.7L97.3,376.7z
			 M265.7,385.4c0.7,1.4,1.1,3,1.1,4.6c0,6.1-5.4,11-11.8,10.2c-3.3-0.5-6.2-2.6-7.7-5.5c-1.6-3.2-1.3-6.6,0-9.3
			c1.7-3.3,5.2-5.7,9.2-5.7C260.5,379.7,264,382,265.7,385.4L265.7,385.4z M246.6,75.3c-2.1-7.8,4.9-14.8,12.7-12.7
			c3.4,0.9,6.2,3.7,7.1,7.1c2.1,7.8-4.9,14.8-12.7,12.7C250.3,81.5,247.5,78.7,246.6,75.3L246.6,75.3z M421.3,376.7
			c-7.8,2.1-14.8-4.9-12.7-12.7c0.9-3.4,3.7-6.2,7.1-7.1c7.8-2.1,14.8,4.9,12.7,12.7C427.5,373,424.7,375.8,421.3,376.7"/>
		<g>
			<g>
				<g>
					<g>
						<g>
							<path class="st2" d="M256.5,8.9c-63.6,0-121.6,24-165.5,63.6c-0.3,0.3-0.6,0.5-0.9,0.8l0,0C40.2,118.6,8.9,184,8.9,256.5
								c0,75.4,33.9,143.1,87.3,188.6c0.1,0.1,0.2,0.2,0.3,0.3c1.1,1,2.3,1.9,3.4,2.8c0.6,0.5,1.2,1,1.9,1.5c1,0.8,2.1,1.7,3.1,2.5
								l0.1,0.1c21,16.2,44.6,29.2,70.1,38.1s52.9,13.8,81.4,13.8c136.5,0,247.6-111.1,247.6-247.6S393,8.9,256.5,8.9z M481.6,196.5
								h-17.1c-1.9,0-3.1-2.2-2-3.8l12.1-18.1C477.3,181.7,479.7,189,481.6,196.5z M39.6,171.3l14.3,21.4c1.1,1.6-0.1,3.8-2,3.8
								H31.3C33.6,187.9,36.4,179.5,39.6,171.3z M166,471.2l20.1-30.2c0.9-1.4,3.1-1.4,4,0l30.5,45.7
								C201.6,483.8,183.3,478.5,166,471.2z M185.4,358.3c-3.4-0.9-6.2-3.7-7.1-7.1c-2.1-7.8,4.9-14.8,12.7-12.7
								c3.4,0.9,6.2,3.7,7.1,7.1C200.2,353.4,193.2,360.4,185.4,358.3z M460.7,306.1c-3.4-0.9-6.2-3.7-7.1-7.1
								c-2.1-7.8,4.9-14.8,12.7-12.7c3.4,0.9,6.2,3.7,7.1,7.1C475.5,301.3,468.5,308.2,460.7,306.1z M469.2,322.4c0-3,1.7-5.6,4.3-7
								c8-4.2,13-13.2,11.2-23.1c-1.5-8.6-8.5-15.6-17.1-17.2c-13.7-2.5-25.7,7.9-25.7,21.2c0,8.3,4.7,15.5,11.6,19.1
								c2.6,1.4,4.3,4.1,4.3,7v47.1c0,2.9-0.8,5.6-2.4,8l-10.9,16.4c-10.7,14.6-23.1,27.9-36.8,39.7L364,389.9c-2-2-2.6-5-1.8-7.8
								c0.9-3.1,1.2-6.4,0.6-9.9c-1.5-8.9-8.7-16.1-17.7-17.6c-14.7-2.4-27.3,10.2-24.9,24.9c1.4,8.6,8.1,15.7,16.6,17.5
								c4.1,0.9,7.9,0.6,11.4-0.6c2.8-0.9,5.9-0.4,8,1.7l42.7,42.7c-39.4,30.5-88.8,48.7-142.4,48.7h-0.2l39.3-39.3
								c2.1-2.1,5.2-2.7,8-1.7c3.5,1.2,7.4,1.5,11.4,0.6c8.5-1.8,15.2-8.9,16.6-17.5c2.4-14.7-10.2-27.3-24.9-24.9
								c-8.9,1.5-16.1,8.7-17.6,17.6c-0.6,3.5-0.3,6.9,0.6,9.9c0.8,2.7,0.2,5.7-1.8,7.8l-47,47c-1.8-0.1-3.6-0.3-5.4-0.4l-39.2-58.8
								c-1.6-2.4-2.4-5.2-2.4-8v-47.2c0-3,1.7-5.6,4.3-7c8-4.2,13-13.2,11.2-23.1c-1.6-8.7-8.5-15.6-17.1-17.2
								c-13.7-2.5-25.7,7.9-25.7,21.2c0,8.3,4.7,15.5,11.6,19.1c2.7,1.4,4.4,4.1,4.4,7v47.1c0,2.9-0.8,5.6-2.4,8l-24.5,36.8
								c-14.2-6.9-27.6-15.2-40.1-24.7l0.8-0.8c2.1-2.1,5.2-2.7,8-1.7c3.5,1.2,7.4,1.5,11.4,0.6c8.5-1.8,15.2-8.9,16.6-17.5
								c2.4-14.7-10.2-27.3-24.9-24.9c-8.9,1.5-16.2,8.7-17.7,17.6c-0.6,3.5-0.3,6.8,0.6,9.9c0.8,2.7,0.2,5.7-1.8,7.7l-1.9,1.9
								c-29.7-25-53-57.2-67.3-93.9l18-18c2.1-2.1,5.2-2.7,8-1.7c3.5,1.2,7.4,1.5,11.4,0.6c8.5-1.9,15.2-8.9,16.6-17.5
								c2.4-14.7-10.2-27.3-24.9-24.9c-8.9,1.5-16.1,8.7-17.6,17.6c-0.6,3.5-0.3,6.8,0.6,9.9c0.8,2.7,0.2,5.7-1.8,7.7l-14.5,14.5
								c-7.5-22.8-11.6-47.2-11.6-72.4c0-16.7,1.8-33,5.1-48.7h30.1c3.8,0,7.5,1.5,10.2,4.2l31.9,31.9c2.1,2.1,2.7,5.1,1.8,7.9
								c-1,3.1-1.3,6.5-0.7,10.1c1.5,9,8.7,16.3,17.7,17.7c14.7,2.3,27.2-10.2,24.9-24.9c-1.4-9-8.7-16.3-17.7-17.7
								c-3.5-0.6-7-0.3-10.1,0.7c-2.8,0.9-5.8,0.3-7.9-1.8l-36.3-36.4c-0.7-0.7-1.3-1.4-1.8-2.2L45,158.9
								c13.3-28.7,32.3-54.3,55.5-75.2l0.8,0.8c2.1,2.1,2.7,5.1,1.8,7.9c-1,3.1-1.3,6.5-0.7,10.1c1.5,9,8.7,16.3,17.7,17.7
								c14.7,2.3,27.2-10.2,24.9-24.9c-1.5-9-8.7-16.3-17.7-17.7c-3.5-0.6-7-0.3-10.1,0.7c-2.8,0.9-5.8,0.3-7.9-1.8l-0.2-0.2
								c29.3-24,64.5-41.1,103.1-48.5l-27.8,27.8c-2.1,2.1-5.1,2.7-7.9,1.8c-3.1-1-6.5-1.3-10.1-0.7c-9,1.5-16.3,8.7-17.7,17.7
								c-2.4,14.7,10.2,27.2,24.8,24.9c9-1.4,16.3-8.7,17.7-17.7c0.6-3.5,0.3-7-0.7-10.1c-0.9-2.8-0.3-5.8,1.8-7.9l31.9-31.9
								c0.6-0.6,1.2-1.1,1.9-1.6c0.8-0.6,1.7-1.1,2.7-1.5c0.1,0,0.1-0.1,0.2-0.1c5.7-2.8,13.8-5,24.9-5c30,0,45.3,3.9,45.3,3.9
								c9.2,1.7,18.3,4,27.1,6.7v41c0,2.8-1.6,5.4-4.2,6.7c-2.8,1.5-5.2,3.5-7.2,5.9c-2.9,3.7-4.6,8.4-4.6,13.4
								c0.1,11.5,9.5,21.2,21,21.5c12.2,0.3,22.2-9.5,22.2-21.6c0-5-1.7-9.7-4.6-13.3c-1.9-2.5-4.4-4.5-7.2-5.9
								c-2.5-1.3-4.2-3.9-4.2-6.7v-37c46.9,17.5,86.6,49.6,113.7,90.8l-11.7,11.7c-2.1,2.1-5.1,2.7-7.9,1.8c-3.1-1-6.5-1.3-10.1-0.7
								c-9,1.5-16.3,8.7-17.7,17.8c-2.3,14.7,10.2,27.2,24.9,24.9c9-1.5,16.3-8.7,17.7-17.7c0.6-3.6,0.3-7-0.7-10.1
								c-0.9-2.8-0.3-5.8,1.8-7.9l9.9-9.9c4.4,7.5,8.4,15.3,12,23.3l-23.6,35.4c-0.5,0.8-1.1,1.5-1.8,2.2l-36.4,36.4
								c-2.1,2.1-5.1,2.7-7.9,1.8c-3.1-1-6.5-1.3-10.1-0.7c-9,1.5-16.3,8.7-17.7,17.8c-2.3,14.7,10.2,27.2,24.9,24.9
								c9-1.5,16.3-8.7,17.7-17.7c0.6-3.6,0.3-7-0.7-10.1c-0.9-2.8-0.3-5.8,1.8-7.9l31.9-31.9c2.7-2.7,6.4-4.2,10.2-4.2h26.6
								c3.3,15.7,5.1,32,5.1,48.7c0,33.9-7.3,66.1-20.3,95.1v-29.5H469.2z M351.4,378.7c-0.9,3.4-3.7,6.2-7.1,7.1
								c-7.8,2.1-14.8-4.9-12.7-12.7c0.9-3.4,3.7-6.2,7.1-7.1C346.5,363.9,353.5,370.9,351.4,378.7z M300.4,425.1
								c0.9-3.4,3.7-6.2,7.1-7.1c7.8-2.1,14.8,4.9,12.7,12.7c-0.9,3.4-3.7,6.2-7.1,7.1C305.3,439.9,298.4,432.9,300.4,425.1z
								 M121.1,415.9c0.9-3.4,3.7-6.2,7.1-7.1c7.8-2.1,14.8,4.9,12.7,12.7c-0.9,3.4-3.7,6.2-7.1,7.1
								C126,430.7,119,423.7,121.1,415.9z M62.1,297.7c0.9-3.4,3.7-6.2,7.1-7.1c7.8-2.1,14.8,4.9,12.7,12.7
								c-0.9,3.4-3.7,6.2-7.1,7.1C67,312.4,60,305.5,62.1,297.7z M113.2,255.5c0.9-3.4,3.7-6.2,7.1-7.1c7.8-2.1,14.8,4.9,12.7,12.7
								c-0.9,3.4-3.7,6.2-7.1,7.1C118.1,270.3,111.2,263.3,113.2,255.5z M113.7,96.1c0.9-3.4,3.7-6.2,7.1-7.1
								c7.8-2.1,14.8,4.9,12.7,12.7c-0.9,3.4-3.7,6.2-7.1,7.1C118.6,110.8,111.6,103.9,113.7,96.1z M179.9,80.7
								c-0.9,3.4-3.7,6.2-7.1,7.1c-7.8,2.1-14.8-4.9-12.7-12.7c0.9-3.4,3.7-6.2,7.1-7.1C175,65.9,181.9,72.9,179.9,80.7z
								 M331.9,90.9c4,0,7.5,2.3,9.2,5.7c0.7,1.4,1.1,3,1.1,4.6c0,6.1-5.4,11-11.8,10.2c-3.3-0.5-6.2-2.6-7.7-5.6
								c-1.6-3.2-1.3-6.6,0-9.3C324.5,93.2,327.9,90.9,331.9,90.9z M435.1,165.7c-0.9,3.4-3.7,6.2-7.1,7.1
								c-7.8,2.1-14.8-4.9-12.7-12.7c0.9-3.4,3.7-6.2,7.1-7.1C430.2,151,437.2,157.9,435.1,165.7z M403.2,261.1
								c-0.9,3.4-3.7,6.2-7.1,7.1c-7.8,2.1-14.8-4.9-12.7-12.7c0.9-3.4,3.7-6.2,7.1-7.1C398.4,246.3,405.3,253.3,403.2,261.1z"/>
						</g>
					</g>
				</g>
				<g>
					<path class="st2" d="M106.6,214.7L106.6,214.7c-7.8,2.1-14.8-4.9-12.7-12.7c0.9-3.4,3.7-6.2,7.1-7.1
						c7.8-2.1,14.8,4.9,12.7,12.7C112.8,211,110,213.8,106.6,214.7"/>
				</g>
				<g>
					<path class="st2" d="M162.5,128.1L162.5,128.1c-7.8,2.1-14.8-4.9-12.7-12.7c0.9-3.4,3.7-6.2,7.1-7.1
						c7.8-2.1,14.8,4.9,12.7,12.7C168.7,124.4,165.9,127.2,162.5,128.1"/>
				</g>
				<g>
					<path class="st2" d="M86,194.1L86,194.1c-7.8,2.1-14.8-4.9-12.7-12.7c0.9-3.4,3.7-6.2,7.1-7.1c7.8-2.1,14.8,4.9,12.7,12.7
						C92.2,190.5,89.4,193.2,86,194.1"/>
				</g>
				<g>
					<path class="st2" d="M305.8,397.2L305.8,397.2c-7.8,2.1-14.8-4.9-12.7-12.7c0.9-3.4,3.7-6.2,7.1-7.1
						c7.8-2.1,14.8,4.9,12.7,12.7C312,393.5,309.2,396.3,305.8,397.2"/>
				</g>
				<g>
					<path class="st2" d="M459.5,241.1L459.5,241.1c-7.8,2.1-14.8-4.9-12.7-12.7c0.9-3.4,3.7-6.2,7.1-7.1
						c7.8-2.1,14.8,4.9,12.7,12.7C465.7,237.5,462.9,240.2,459.5,241.1"/>
				</g>
				<g>
					<path class="st2" d="M438.3,260L438.3,260c-7.8,2.1-14.8-4.9-12.7-12.7c0.9-3.4,3.7-6.2,7.1-7.1c7.8-2.1,14.8,4.9,12.7,12.7
						C444.5,256.3,441.7,259.1,438.3,260"/>
				</g>
				<g>
					<path class="st2" d="M311.2,56L311.2,56c-7.8,2.1-14.8-4.9-12.7-12.7c0.9-3.4,3.7-6.2,7.1-7.1c7.8-2.1,14.8,4.9,12.7,12.7
						C317.4,52.3,314.6,55.1,311.2,56"/>
				</g>
				<g>
					<path class="st2" d="M313.1,193.8L313.1,193.8c-7.8,2.1-14.8-4.9-12.7-12.7c0.9-3.4,3.7-6.2,7.1-7.1
						c7.8-2.1,14.8,4.9,12.7,12.7C319.3,190.1,316.6,192.9,313.1,193.8"/>
				</g>
				<g>
					<path class="st2" d="M334.7,165.8L334.7,165.8c-7.8,2.1-14.8-4.9-12.7-12.7c0.9-3.4,3.7-6.2,7.1-7.1
						c7.8-2.1,14.8,4.9,12.7,12.7C340.9,162.1,338.2,164.9,334.7,165.8"/>
				</g>
				<g>
					<path class="st2" d="M137.3,385.8L137.3,385.8c-7.8,2.1-14.8-4.9-12.7-12.7c0.9-3.4,3.7-6.2,7.1-7.1
						c7.8-2.1,14.8,4.9,12.7,12.7C143.5,382.1,140.7,384.9,137.3,385.8"/>
				</g>
				<g>
					<path class="st2" d="M57.1,269.4L57.1,269.4c-7.8,2.1-14.8-4.9-12.7-12.7c0.9-3.4,3.7-6.2,7.1-7.1c7.8-2.1,14.8,4.9,12.7,12.7
						C63.3,265.8,60.6,268.5,57.1,269.4"/>
				</g>
				<g>
					<path class="st2" d="M57.1,240.7L57.1,240.7c-7.8,2.1-14.8-4.9-12.7-12.7c0.9-3.4,3.7-6.2,7.1-7.1c7.8-2.1,14.8,4.9,12.7,12.7
						C63.3,237,60.6,239.8,57.1,240.7"/>
				</g>
				<g>
					<path class="st2" d="M351,427.5L351,427.5c-7.8,2.1-14.8-4.9-12.7-12.7c0.9-3.4,3.7-6.2,7.1-7.1c7.8-2.1,14.8,4.9,12.7,12.7
						C357.3,423.9,354.5,426.6,351,427.5"/>
				</g>
				<g>
					<path class="st2" d="M381.4,385.8L381.4,385.8c-7.8,2.1-14.8-4.9-12.7-12.7c0.9-3.4,3.7-6.2,7.1-7.1
						c7.8-2.1,14.8,4.9,12.7,12.7C387.7,382.1,384.9,384.9,381.4,385.8"/>
				</g>
				<g>
					<path class="st2" d="M371.2,444.2L371.2,444.2c-7.8,2.1-14.8-4.9-12.7-12.7c0.9-3.4,3.7-6.2,7.1-7.1
						c7.8-2.1,14.8,4.9,12.7,12.7C377.4,440.6,374.6,443.3,371.2,444.2"/>
				</g>
				<g>
					<path class="st2" d="M243.3,473.2L243.3,473.2c-7.8,2.1-14.8-4.9-12.7-12.7c0.9-3.4,3.7-6.2,7.1-7.1
						c7.8-2.1,14.8,4.9,12.7,12.7C249.5,469.6,246.7,472.3,243.3,473.2"/>
				</g>
				<g>
					<path class="st2" d="M287,56L287,56c-7.8,2.1-14.8-4.9-12.7-12.7c0.9-3.4,3.7-6.2,7.1-7.1c7.8-2.1,14.8,4.9,12.7,12.7
						C293.2,52.3,290.4,55.1,287,56"/>
				</g>
				<rect x="15.1" y="225.1" class="st2" width="32.5" height="11.3"/>
				<rect x="457.5" y="225.6" class="st2" width="32.5" height="11.3"/>
				<rect x="362.7" y="436.8" class="st2" width="11.3" height="32.5"/>
				<path class="st2" d="M304.7,179.3v-30.5c0-0.5,0.4-1,1-1h9.4c0.5,0,1,0.4,1,1v30.5c0,0.5-0.4,1-1,1h-9.4
					C305.1,180.2,304.7,179.8,304.7,179.3z"/>
				<path class="st2" d="M129.3,210.4H98.8c-0.5,0-1-0.4-1-1V200c0-0.5,0.4-1,1-1h30.5c0.5,0,1,0.4,1,1v9.4
					C130.3,210,129.8,210.4,129.3,210.4z"/>
				<path class="st2" d="M222.5,123.9h-61.9c-0.5,0-1-0.4-1-1v-9.4c0-0.5,0.4-1,1-1h61.9c0.5,0,1,0.4,1,1v9.4
					C223.5,123.4,223.1,123.9,222.5,123.9z"/>
				<path class="st2" d="M429.8,283.8v-30.5c0-0.5,0.4-1,1-1h9.4c0.5,0,1,0.4,1,1v30.5c0,0.5-0.4,1-1,1h-9.4
					C430.3,284.8,429.8,284.4,429.8,283.8z"/>
				<path class="st2" d="M234,459.1v-30.5c0-0.5,0.4-1,1-1h9.4c0.5,0,1,0.4,1,1v30.5c0,0.5-0.4,1-1,1H235
					C234.4,460,234,459.6,234,459.1z"/>
				<rect x="77.5" y="88.2" class="st2" width="11.3" height="93.9"/>
				<rect x="278.6" y="15.3" class="st2" width="11.3" height="34.1"/>
			</g>
		</g>
	</g>
	<g>
		<g class="st3">
			<path d="M67.1,585.3v-3.8h-3.8v-3.8h7.6v3.8h11.4v-7.6H67.1v-3.8h-3.8v-7.6h3.8v-3.8h19v3.8h3.8v3.8h-7.6v-3.8H70.9v7.6H86v3.8
				h3.8v7.6H86v3.8H67.1z"/>
			<path d="M93.6,585.3v-19h3.8v-3.8h3.8v-3.8h11.4v3.8h3.8v3.8h3.8v19h-7.6v-7.6h-11.4v7.6H93.6z M101.2,573.9h11.4v-7.6h-3.8v-3.8
				H105v3.8h-3.8V573.9z"/>
			<path d="M124,585.3v-26.6h26.6v3.8h-19v7.6h15.2v3.8h-15.2v11.4H124z"/>
			<path d="M158.1,585.3v-3.8h-3.8v-22.8h7.6v22.8h11.4v-22.8h7.6v22.8h-3.8v3.8H158.1z"/>
			<path d="M196.1,585.3v-11.4h-3.8v-3.8h-3.8v-11.4h7.6v11.4h7.6v-11.4h7.6v11.4h-3.8v3.8h-3.8v11.4H196.1z"/>
			<path d="M218.8,585.3v-3.8h7.6v-19h-7.6v-3.8h22.8v3.8H234v19h7.6v3.8H218.8z"/>
			<path d="M245.4,585.3v-26.6H272v3.8h-19v7.6h15.2v3.8H253v7.6h19v3.8H245.4z"/>
			<path d="M279.6,585.3v-26.6h7.6v22.8h15.2v3.8H279.6z"/>
			<path d="M306.1,585.3v-26.6h19v3.8h3.8v3.8h3.8v11.4h-3.8v3.8h-3.8v3.8H306.1z M313.7,581.5h7.6v-3.8h3.8v-11.4h-3.8v-3.8h-7.6
				V581.5z"/>
			<path d="M344.1,585.3v-7.6h7.6v7.6H344.1z"/>
			<path d="M374.4,585.3v-3.8h-3.8v-3.8h-3.8v-11.4h3.8v-3.8h3.8v-3.8h15.2v3.8h3.8v3.8h-7.6v-3.8h-7.6v3.8h-3.8v11.4h3.8v3.8h7.6
				v-3.8h7.6v3.8h-3.8v3.8H374.4z"/>
			<path d="M401,585.3v-3.8h-3.8v-19h3.8v-3.8h19v3.8h3.8v19H420v3.8H401z M404.8,581.5h11.4v-19h-11.4V581.5z"/>
			<path d="M427.5,585.3v-26.6h7.6v3.8h3.8v3.8h3.8v-3.8h3.8v-3.8h7.6v26.6h-7.6v-15.2h-3.8v7.6h-3.8v-7.6h-3.8v15.2H427.5z"/>
		</g>
		<g class="st3">
			<path class="st1" d="M64.1,580.6v-3.8h-3.8V573h7.6v3.8h11.4v-7.6H64.1v-3.8h-3.8v-7.6h3.8V554h19v3.8h3.8v3.8h-7.6v-3.8H67.9
				v7.6H83v3.8h3.8v7.6H83v3.8H64.1z"/>
			<path class="st1" d="M90.6,580.6v-19h3.8v-3.8h3.8V554h11.4v3.8h3.8v3.8h3.8v19h-7.6V573H98.2v7.6H90.6z M98.2,569.2h11.4v-7.6
				h-3.8v-3.8H102v3.8h-3.8V569.2z"/>
			<path class="st1" d="M121,580.6V554h26.6v3.8h-19v7.6h15.2v3.8h-15.2v11.4H121z"/>
			<path class="st1" d="M155.1,580.6v-3.8h-3.8V554h7.6v22.8h11.4V554h7.6v22.8h-3.8v3.8H155.1z"/>
			<path class="st1" d="M193.1,580.6v-11.4h-3.8v-3.8h-3.8V554h7.6v11.4h7.6V554h7.6v11.4h-3.8v3.8h-3.8v11.4H193.1z"/>
			<path class="st1" d="M215.8,580.6v-3.8h7.6v-19h-7.6V554h22.8v3.8H231v19h7.6v3.8H215.8z"/>
			<path class="st1" d="M242.4,580.6V554H269v3.8h-19v7.6h15.2v3.8H250v7.6h19v3.8H242.4z"/>
			<path class="st1" d="M276.6,580.6V554h7.6v22.8h15.2v3.8H276.6z"/>
			<path class="st1" d="M303.1,580.6V554h19v3.8h3.8v3.8h3.8V573h-3.8v3.8h-3.8v3.8H303.1z M310.7,576.8h7.6V573h3.8v-11.4h-3.8
				v-3.8h-7.6V576.8z"/>
			<path class="st1" d="M341.1,580.6V573h7.6v7.6H341.1z"/>
			<path class="st1" d="M371.4,580.6v-3.8h-3.8V573h-3.8v-11.4h3.8v-3.8h3.8V554h15.2v3.8h3.8v3.8h-7.6v-3.8h-7.6v3.8h-3.8V573h3.8
				v3.8h7.6V573h7.6v3.8h-3.8v3.8H371.4z"/>
			<path class="st1" d="M398,580.6v-3.8h-3.8v-19h3.8V554h19v3.8h3.8v19H417v3.8H398z M401.8,576.8h11.4v-19h-11.4V576.8z"/>
			<path class="st1" d="M424.5,580.6V554h7.6v3.8h3.8v3.8h3.8v-3.8h3.8V554h7.6v26.6h-7.6v-15.2h-3.8v7.6h-3.8v-7.6h-3.8v15.2H424.5
				z"/>
		</g>
	</g>
</g>
</svg>
