<?xml version="1.0" encoding="utf-8"?>
<!-- Generator: Adobe Illustrator 25.2.1, SVG Export Plug-In . SVG Version: 6.00 Build 0)  -->
<svg version="1.1" id="Capa_1" xmlns="http://www.w3.org/2000/svg" xmlns:xlink="http://www.w3.org/1999/xlink" x="0px" y="0px"
	 viewBox="0 0 600 600" style="enable-background:new 0 0 600 600;" xml:space="preserve">
<style type="text/css">
	.st0{fill:#191919;}
	.st1{fill:#00AAAA;}
	.st2{fill:#FFFFFF;}
	.st3{fill:#11726B;}
	.st4{fill:#0C0C0C;}
</style>
<g>
	<g>
		<g>
			<g>
				<path class="st0" d="M300,15C142.6,15,15,142.6,15,300s127.6,285,285,285s285-127.6,285-285S457.4,15,300,15z M300,524.1
					C176.2,524.1,75.9,423.8,75.9,300S176.2,75.9,300,75.9S524.1,176.2,524.1,300S423.9,524.1,300,524.1z"/>
			</g>
			<path class="st1" d="M300,22.2C146.6,22.2,22.2,146.6,22.2,300S146.6,577.8,300,577.8S577.8,453.4,577.8,300S453.4,22.2,300,22.2
				z M300,518.4c-120.7,0-218.4-97.8-218.4-218.4S179.3,81.6,300,81.6S518.4,179.3,518.4,300S420.8,518.4,300,518.4z"/>
		</g>
	</g>
	<g>
		<g>
			<circle class="st1" cx="300" cy="300" r="203.6"/>
		</g>
		<g>
			<path class="st2" d="M431.4,370.6c-2.8-0.4-5.6-0.2-8,0.6c-2.1,0.7-4.7,0.2-6.3-1.4l-28.9-28.8c-0.6-0.6-1.1-1.2-1.4-1.8
				l-41.1-61.8c-0.7-1.1-0.6-2.4,0.3-3.3l4.9-4.9l34.3-34.3c1.7-1.7,4.1-2.1,6.3-1.3c2.8,1,5.9,1.2,9.1,0.4
				c6.8-1.4,12.1-7.1,13.2-13.9c2-11.7-8.1-21.7-19.8-19.8c-7.1,1.2-12.9,6.9-14,14c-0.4,2.8-0.3,5.6,0.4,7.9
				c0.7,2.1,0.2,4.6-1.4,6.2l-33.2,33.2l-4.6,4.4c-1.1,1.1-2.7,0.9-3.4-0.4l-31.4-47.1c-1.3-2-2-4.1-2-6.3v-37.4
				c0-2.3,1.3-4.6,3.4-5.6c6.3-3.3,10.4-10.6,8.9-18.3c-1.3-6.9-6.7-12.3-13.7-13.8c-10.8-2.1-20.4,6.3-20.4,16.8
				c0,6.6,3.8,12.2,9.2,15.1c2.1,1.1,3.4,3.2,3.4,5.6v37.4c0,2.2-0.7,4.6-2,6.3l-31.1,47.2c-0.8,1.2-2.4,1.3-3.4,0.4l-37.7-37.7
				c-1.7-1.7-2.1-3.9-1.4-6.2c0.8-2.3,1-5.1,0.4-7.9c-1.2-7.1-6.9-12.9-14-14c-11.7-2-21.7,8-19.8,19.8c1.1,6.8,6.3,12.4,13.2,13.9
				c3.2,0.7,6.3,0.4,9.1-0.4c2.1-0.8,4.7-0.3,6.3,1.3l77.9,77.9c1.9,1.9,2.8,4.2,2.8,6.7v19.1h-67.6c-1.6,0-2.4-1.8-1.7-2.9
				l28.4-42.7c1-1.4,1.2-3.4,0.3-4.9c-1.9-2.9-5.9-2.9-7.6-0.2l-34.3,51.4c-0.4,0.7-0.9,1.3-1.4,1.8L183,369.8
				c-1.7,1.7-4,2.1-6.3,1.4c-2.4-0.8-5.2-1.1-8-0.6c-7.1,1.2-13,6.9-14.1,14.1c-1.9,11.6,8,21.6,19.8,19.8c7.1-1.2,13-6.9,14.1-14.1
				c0.4-2.8,0.2-5.6-0.6-8c-0.7-2.1-0.2-4.7,1.4-6.3l25.3-25.3c2.1-2.1,5.1-3.3,8-3.3h72.9v37.9c0,2.2-1.3,4.3-3.2,5.4
				c-2.1,1.2-4.1,2.8-5.7,4.7c-2.2,2.9-3.7,6.6-3.7,10.7c0.1,9.1,7.6,16.8,16.7,17.1c9.7,0.3,17.7-7.4,17.7-17.2
				c0-4-1.3-7.7-3.7-10.6c-1.6-2-3.4-3.6-5.7-4.7c-2.1-1.1-3.2-3-3.2-5.4v-66c0-2.4,1-4.9,2.8-6.7l6.3-6.3l15.2-15.2
				c1.3-1.3,2-3.4,1.1-5.2c-1.3-2.9-5.1-3.6-7.2-1.3l-21,21c-0.9,0.9-2.2,0.9-3.2,0L269,275.8c-0.9-0.9-1.1-2.2-0.3-3.3l30.1-45
				c0.8-1.2,2.3-1.2,3.1,0l72,108.1c0.9,1.3-0.1,2.9-1.7,2.9h-53.8c-2.1,0-4.1,1.3-4.7,3.3c-0.7,2.9,1.6,5.6,4.3,5.6h59.4
				c3,0,6,1.3,8,3.3l25.3,25.3c1.7,1.7,2.1,4,1.4,6.3c-0.8,2.4-1.1,5.2-0.6,8c1.2,7.1,6.9,13,14.1,14.1c11.6,1.9,21.6-8,19.8-19.8
				C444.3,377.6,438.6,371.8,431.4,370.6L431.4,370.6z M394.8,209.1c6.3-1.7,11.7,3.9,10.1,10.1c-0.8,2.7-2.9,4.9-5.7,5.7
				c-6.3,1.7-11.7-3.8-10.1-10.1C389.9,212.1,392.1,209.9,394.8,209.1L394.8,209.1z M205.3,225c-6.3,1.7-11.7-3.8-10.1-10.1
				c0.8-2.7,2.9-4.9,5.7-5.7c6.3-1.7,11.7,3.8,10.1,10.1C210.3,222,208.1,224.3,205.3,225L205.3,225z M173.7,395.4
				c-6.3,1.7-11.7-3.8-10.1-10.1c0.8-2.7,2.9-4.9,5.7-5.7c6.3-1.7,11.7,3.8,10.1,10.1C178.6,392.4,176.3,394.7,173.7,395.4
				L173.7,395.4z M307.2,402.2c0.6,1.2,0.9,2.3,0.9,3.7c0,4.9-4.3,8.8-9.3,8c-2.6-0.4-4.9-2.1-6.2-4.4c-1.3-2.6-1.1-5.2,0-7.3
				c1.3-2.7,4.1-4.6,7.2-4.6C303.1,397.9,306,399.7,307.2,402.2L307.2,402.2z M292.1,156.2c-1.7-6.3,3.8-11.7,10.1-10.1
				c2.7,0.8,4.9,2.9,5.7,5.7c1.7,6.3-3.8,11.7-10.1,10.1C295.1,161.1,292.9,158.9,292.1,156.2L292.1,156.2z M430.9,395.4
				c-6.3,1.7-11.7-3.8-10.1-10.1c0.8-2.7,2.9-4.9,5.7-5.7c6.3-1.7,11.7,3.8,10.1,10.1C435.8,392.4,433.6,394.7,430.9,395.4"/>
		</g>
		<g>
			<g>
				<g>
					<path class="st3" d="M300,103.3c-50.4,0-96.4,19.1-131.3,50.4c-0.2,0.2-0.4,0.4-0.8,0.6l0,0c-39.6,36.1-64.4,87.9-64.4,145.6
						c0,59.9,27,113.6,69.3,149.7c0.1,0.1,0.2,0.1,0.3,0.2c0.9,0.8,1.9,1.6,2.7,2.1c0.4,0.4,1,0.8,1.6,1.3c0.8,0.7,1.7,1.3,2.4,2
						l0.1,0.1c16.6,12.9,35.4,23.2,55.7,30.2c20.2,7.1,42,10.9,64.7,10.9c108.4,0,196.6-88.1,196.6-196.6S408.4,103.3,300,103.3z
						 M478.8,252.3h-13.6c-1.6,0-2.3-1.8-1.7-2.9l9.7-14.4C475.3,240.6,477.1,246.4,478.8,252.3z M127.8,232.3l11.3,17
						c0.9,1.3-0.1,2.9-1.7,2.9h-16.3C123.1,245.6,125.3,238.8,127.8,232.3z M228.2,470.4l16-24c0.8-1.2,2.3-1.2,3.1,0l24.1,36.2
						C256.4,480.4,242,476.2,228.2,470.4z M243.6,380.9c-2.7-0.8-4.9-2.9-5.7-5.7c-1.7-6.3,3.8-11.7,10.1-10.1
						c2.7,0.8,4.9,2.9,5.7,5.7C255.3,376.9,249.9,382.6,243.6,380.9z M462.1,339.4c-2.7-0.7-4.9-2.9-5.7-5.7
						c-1.7-6.3,3.8-11.7,10.1-10.1c2.7,0.8,4.9,2.9,5.7,5.7C473.8,335.6,468.3,341,462.1,339.4z M468.8,352.3c0-2.3,1.3-4.6,3.4-5.6
						c6.3-3.3,10.4-10.6,8.9-18.3c-1.3-6.8-6.7-12.3-13.7-13.8c-10.8-2.1-20.4,6.3-20.4,16.8c0,6.6,3.8,12.2,9.2,15.1
						c2.1,1.1,3.4,3.2,3.4,5.6v37.4c0,2.2-0.7,4.6-2,6.3l-8.7,13c-8.6,11.6-18.3,22.2-29.2,31.6l-34.7-34.8c-1.7-1.7-2.1-4-1.4-6.2
						c0.8-2.3,1-5.1,0.4-7.9c-1.2-7.1-6.9-12.8-14-14c-11.7-2-21.7,8-19.8,19.8c1.1,6.8,6.3,12.4,13.2,13.9c3.2,0.7,6.3,0.4,9.1-0.4
						c2.1-0.8,4.7-0.3,6.3,1.3l33.9,33.9c-31.3,24.2-70.4,38.7-113,38.7h-0.2l31.3-31.3c1.7-1.7,4.1-2.1,6.3-1.3
						c2.8,1,5.9,1.2,9.1,0.4c6.8-1.4,12.1-7.1,13.2-13.9c2-11.7-8.1-21.7-19.8-19.8c-7.1,1.2-12.8,6.9-14,14
						c-0.4,2.8-0.3,5.6,0.4,7.9c0.7,2.1,0.2,4.6-1.4,6.2l-37.4,37.4c-1.4-0.1-2.9-0.2-4.2-0.4l-30.7-46.6c-1.3-2-2-4.1-2-6.3v-37.4
						c0-2.3,1.3-4.6,3.4-5.6c6.3-3.3,10.4-10.6,8.9-18.3c-1.3-6.9-6.7-12.3-13.7-13.8c-10.9-2.1-20.4,6.3-20.4,16.8
						c0,6.6,3.8,12.2,9.2,15.1c2.1,1.1,3.4,3.2,3.4,5.6v37.4c0,2.2-0.7,4.6-2,6.3L220,466.2c-11.3-5.6-22-12.1-31.9-19.6l0.7-0.7
						c1.7-1.7,4.1-2.1,6.3-1.3c2.8,1,5.9,1.2,9.1,0.4c6.8-1.4,12.1-7.1,13.1-13.9c2-11.7-8.1-21.7-19.8-19.8
						c-7.1,1.2-12.9,6.9-14,14c-0.4,2.8-0.3,5.4,0.4,7.9c0.7,2.1,0.2,4.6-1.4,6.2l-1.6,1.6c-23.4-19.8-42.1-45.3-53.4-74.4
						l14.3-14.3c1.7-1.7,4.1-2.1,6.3-1.3c2.8,1,5.9,1.2,9.1,0.4c6.8-1.4,12.1-7.1,13.2-13.9c2-11.7-8.1-21.7-19.8-19.8
						c-7.1,1.2-12.8,6.9-14,14c-0.4,2.8-0.3,5.4,0.4,7.9c0.7,2.1,0.2,4.6-1.4,6.2l-11.4,11.4c-6-18.1-9.2-37.4-9.2-57.4
						c0-13.2,1.4-26.2,4-38.7H143c3,0,6,1.3,8.1,3.3l25.3,25.3c1.7,1.7,2.1,4,1.4,6.3c-0.8,2.4-1.1,5.2-0.6,8
						c1.2,7.1,6.9,13,14.1,14.1c11.6,1.9,21.6-8,19.8-19.8c-1.2-7.1-6.9-13-14.1-14.1c-2.8-0.4-5.6-0.2-8,0.6
						c-2.1,0.7-4.7,0.2-6.3-1.4l-28.4-28.9c-0.6-0.6-1.1-1.2-1.4-1.8l-20.7-30.7c10.6-22.9,25.7-43.1,44.1-59.7l0.7,0.7
						c1.7,1.7,2.1,4,1.4,6.3c-0.8,2.4-1.1,5.2-0.6,8c1.2,7.1,6.9,13,14.1,14.1c11.6,1.9,21.6-8,19.8-19.8c-1.2-7.1-6.9-13-14.1-14.1
						c-2.8-0.4-5.6-0.2-8,0.6c-2.1,0.7-4.7,0.2-6.3-1.4l-0.2-0.2c23.2-19.1,51.2-32.6,81.9-38.6l-22.1,22.1c-1.7,1.7-4,2.1-6.3,1.4
						c-2.4-0.8-5.2-1.1-8-0.6c-7.1,1.2-13,6.9-14.1,14.1c-2,11.6,8,21.6,19.8,19.8c7.1-1.2,13-6.9,14.1-14.1c0.4-2.8,0.2-5.6-0.6-8
						c-0.7-2.1-0.2-4.7,1.4-6.3l25.3-25.3c0.4-0.4,1-0.9,1.6-1.3c0.7-0.4,1.3-0.9,2.1-1.2c0.1,0,0.1-0.1,0.2-0.1
						c4.6-2.1,10.9-3.9,19.8-3.9c23.9,0,35.9,3,35.9,3c7.2,1.3,14.6,3.1,21.4,5.4v32.6c0,2.1-1.3,4.3-3.2,5.4
						c-2.1,1.2-4.1,2.8-5.7,4.7c-2.2,2.9-3.7,6.6-3.7,10.7c0.1,9.1,7.6,16.8,16.7,17.1c9.7,0.3,17.7-7.4,17.7-17.2
						c0-4-1.3-7.7-3.7-10.6c-1.6-2-3.4-3.6-5.7-4.7c-2.1-1.1-3.2-3-3.2-5.4v-29.4c37.2,13.9,68.8,39.3,90.3,72l-9.3,9.3
						c-1.7,1.7-4,2.1-6.3,1.4c-2.4-0.8-5.2-1.1-8-0.6c-7.1,1.2-13,6.9-14.1,14.1c-1.9,11.6,8,21.6,19.8,19.8
						c7.1-1.2,13-6.9,14.1-14.1c0.4-2.9,0.2-5.6-0.6-8c-0.7-2.1-0.2-4.7,1.4-6.3l7.9-7.9c3.6,6,6.7,12.1,9.6,18.6l-18.8,28.1
						c-0.4,0.7-0.9,1.3-1.4,1.8l-29.6,29c-1.7,1.7-4,2.1-6.3,1.4c-2.4-0.8-5.2-1.1-8-0.6c-7.1,1.2-13,6.9-14.1,14.1
						c-1.9,11.6,8,21.6,19.8,19.8c7.1-1.2,13-6.9,14.1-14.1c0.4-2.9,0.2-5.6-0.6-8c-0.7-2.1-0.2-4.7,1.4-6.3l25.3-25.3
						c2.1-2.1,5.1-3.3,8-3.3h21.1c2.7,12.4,4,25.4,4,38.7c0,26.9-5.8,52.6-16.1,75.4L468.8,352.3L468.8,352.3z M375.3,397
						c-0.8,2.7-2.9,4.9-5.7,5.7c-6.3,1.7-11.7-3.8-10.1-10.1c0.8-2.7,2.9-4.9,5.7-5.7C371.4,385.2,377,390.8,375.3,397z M335,433.9
						c0.7-2.7,2.9-4.9,5.7-5.7c6.3-1.7,11.7,3.8,10.1,10.1c-0.8,2.7-2.9,4.9-5.7,5.7C338.8,445.7,333.2,440,335,433.9z M192.6,426.4
						c0.8-2.7,2.9-4.9,5.7-5.7c6.3-1.7,11.7,3.9,10.1,10.1c-0.8,2.7-2.9,4.9-5.7,5.7C196.4,438.2,191,432.8,192.6,426.4z
						 M145.7,332.7c0.8-2.7,2.9-4.9,5.7-5.7c6.3-1.7,11.7,3.8,10.1,10.1c-0.8,2.7-2.9,4.9-5.7,5.7
						C149.6,344.4,144.1,338.9,145.7,332.7z M186.3,299.2c0.7-2.7,2.9-4.9,5.7-5.7c6.3-1.7,11.7,3.8,10.1,10.1
						c-0.8,2.7-2.9,4.9-5.7,5.7C190.2,310.9,184.7,305.3,186.3,299.2z M186.8,172.6c0.8-2.7,2.9-4.9,5.7-5.7
						c6.3-1.7,11.7,3.8,10.1,10.1c-0.8,2.7-2.9,4.9-5.7,5.7C190.6,184.3,185.1,178.8,186.8,172.6z M239.1,160.6
						c-0.8,2.7-2.9,4.9-5.7,5.7c-6.3,1.7-11.7-3.9-10.1-10.1c0.8-2.7,2.9-4.9,5.7-5.7C235.3,148.8,240.8,154.2,239.1,160.6z
						 M359.9,168.6c3.1,0,6,1.9,7.2,4.6c0.6,1.2,0.9,2.3,0.9,3.7c0,4.9-4.3,8.8-9.3,8c-2.6-0.4-4.9-2.1-6.2-4.4
						c-1.3-2.6-1.1-5.2,0-7.3C354,170.3,356.8,168.6,359.9,168.6z M441.9,227.9c-0.8,2.7-2.9,4.9-5.7,5.7
						c-6.3,1.7-11.7-3.8-10.1-10.1c0.8-2.7,2.9-4.9,5.7-5.7C438,216.2,443.4,221.7,441.9,227.9z M416.7,303.6
						c-0.8,2.7-2.9,4.9-5.7,5.7c-6.3,1.7-11.7-3.8-10.1-10.1c0.8-2.7,2.9-4.9,5.7-5.7C412.7,291.9,418.2,297.4,416.7,303.6z"/>
				</g>
			</g>
			<g>
				<g>
					<path class="st3" d="M181,266.8L181,266.8c-6.3,1.7-11.7-3.8-10.1-10.1c0.8-2.7,2.9-4.9,5.7-5.7c6.3-1.7,11.7,3.8,10.1,10.1
						C186,263.9,183.7,266.1,181,266.8"/>
				</g>
			</g>
			<g>
				<g>
					<path class="st3" d="M225.4,198.1L225.4,198.1c-6.3,1.7-11.7-3.8-10.1-10.1c0.8-2.7,2.9-4.9,5.7-5.7
						c6.3-1.7,11.7,3.8,10.1,10.1C230.3,195.1,228.1,197.3,225.4,198.1"/>
				</g>
			</g>
			<g>
				<g>
					<path class="st3" d="M164.8,250.6L164.8,250.6c-6.3,1.7-11.7-3.8-10.1-10.1c0.8-2.7,2.9-4.9,5.7-5.7
						c6.3-1.7,11.7,3.8,10.1,10.1C169.7,247.6,167.4,249.8,164.8,250.6"/>
				</g>
			</g>
			<g>
				<g>
					<path class="st3" d="M339.1,411.7L339.1,411.7c-6.3,1.7-11.7-3.8-10.1-10.1c0.8-2.7,2.9-4.9,5.7-5.7
						c6.3-1.7,11.7,3.8,10.1,10.1C344.1,408.8,341.8,411,339.1,411.7"/>
				</g>
			</g>
			<g>
				<g>
					<path class="st3" d="M461.1,287.8L461.1,287.8c-6.3,1.7-11.7-3.8-10.1-10.1c0.8-2.7,2.9-4.9,5.7-5.7
						c6.3-1.7,11.7,3.8,10.1,10.1C466.1,285,463.8,287,461.1,287.8"/>
				</g>
			</g>
			<g>
				<g>
					<path class="st3" d="M444.3,302.8L444.3,302.8c-6.3,1.7-11.7-3.8-10.1-10.1c0.8-2.7,2.9-4.9,5.7-5.7
						c6.3-1.7,11.7,3.8,10.1,10.1C449.3,299.9,447,302.1,444.3,302.8"/>
				</g>
			</g>
			<g>
				<g>
					<path class="st3" d="M343.4,140.8L343.4,140.8c-6.3,1.7-11.7-3.8-10.1-10.1c0.8-2.7,2.9-4.9,5.7-5.7
						c6.3-1.7,11.7,3.8,10.1,10.1C348.4,137.8,346.1,140.1,343.4,140.8"/>
				</g>
			</g>
			<g>
				<g>
					<path class="st3" d="M345,250.2L345,250.2c-6.3,1.7-11.7-3.8-10.1-10.1c0.8-2.7,2.9-4.9,5.7-5.7c6.3-1.7,11.7,3.8,10.1,10.1
						C349.9,247.2,347.7,249.6,345,250.2"/>
				</g>
			</g>
			<g>
				<g>
					<path class="st3" d="M362.1,228L362.1,228c-6.3,1.7-11.7-3.8-10.1-10.1c0.8-2.7,2.9-4.9,5.7-5.7c6.3-1.7,11.7,3.8,10.1,10.1
						C367,225.1,364.9,227.2,362.1,228"/>
				</g>
			</g>
			<g>
				<g>
					<path class="st3" d="M205.3,402.7L205.3,402.7c-6.3,1.7-11.7-3.8-10.1-10.1c0.8-2.7,2.9-4.9,5.7-5.7
						c6.3-1.7,11.7,3.8,10.1,10.1C210.3,399.7,208.1,401.9,205.3,402.7"/>
				</g>
			</g>
			<g>
				<g>
					<path class="st3" d="M141.8,310.3L141.8,310.3c-6.3,1.7-11.7-3.8-10.1-10.1c0.8-2.7,2.9-4.9,5.7-5.7
						c6.3-1.7,11.7,3.8,10.1,10.1C146.7,307.3,144.6,309.6,141.8,310.3"/>
				</g>
			</g>
			<g>
				<g>
					<path class="st3" d="M141.8,287.4L141.8,287.4c-6.3,1.7-11.7-3.8-10.1-10.1c0.8-2.7,2.9-4.9,5.7-5.7
						c6.3-1.7,11.7,3.8,10.1,10.1C146.7,284.6,144.6,286.8,141.8,287.4"/>
				</g>
			</g>
			<g>
				<g>
					<path class="st3" d="M375.1,435.8L375.1,435.8c-6.3,1.7-11.7-3.8-10.1-10.1c0.8-2.7,2.9-4.9,5.7-5.7
						c6.3-1.7,11.7,3.8,10.1,10.1C380,432.9,377.9,435,375.1,435.8"/>
				</g>
			</g>
			<g>
				<g>
					<path class="st3" d="M399.2,402.7L399.2,402.7c-6.3,1.7-11.7-3.8-10.1-10.1c0.8-2.7,2.9-4.9,5.7-5.7
						c6.3-1.7,11.7,3.8,10.1,10.1C404.2,399.7,402,401.9,399.2,402.7"/>
				</g>
			</g>
			<g>
				<g>
					<path class="st3" d="M391.1,449L391.1,449c-6.3,1.7-11.7-3.8-10.1-10.1c0.8-2.7,2.9-4.9,5.7-5.7c6.3-1.7,11.7,3.8,10.1,10.1
						C395.9,446.1,393.9,448.3,391.1,449"/>
				</g>
			</g>
			<g>
				<g>
					<path class="st3" d="M289.4,472L289.4,472c-6.3,1.7-11.7-3.8-10.1-10.1c0.8-2.7,2.9-4.9,5.7-5.7c6.3-1.7,11.7,3.8,10.1,10.1
						C294.4,469.1,292.2,471.3,289.4,472"/>
				</g>
			</g>
			<g>
				<g>
					<path class="st3" d="M324.2,140.8L324.2,140.8c-6.3,1.7-11.7-3.8-10.1-10.1c0.8-2.7,2.9-4.9,5.7-5.7
						c6.3-1.7,11.7,3.8,10.1,10.1C329.1,137.8,327,140.1,324.2,140.8"/>
				</g>
			</g>
			<g>
				<rect x="108.4" y="275.1" class="st3" width="25.8" height="9"/>
			</g>
			<g>
				<rect x="459.6" y="275.4" class="st3" width="25.8" height="9"/>
			</g>
			<g>
				<rect x="384.3" y="443.1" class="st3" width="9" height="25.8"/>
			</g>
			<g>
				<path class="st3" d="M338.3,234.9v-16.8c0-2.4,2.1-4.6,4.6-4.6l0,0c2.4,0,4.6,2.1,4.6,4.6v16.8c0,2.4-2.1,4.6-4.6,4.6l0,0
					C340.3,239.4,338.3,237.4,338.3,234.9z"/>
			</g>
			<g>
				<path class="st3" d="M195.3,263.4h-16.8c-2.4,0-4.6-2.1-4.6-4.6l0,0c0-2.4,2.1-4.6,4.6-4.6h16.8c2.4,0,4.6,2.1,4.6,4.6l0,0
					C199.9,261.4,197.8,263.4,195.3,263.4z"/>
			</g>
			<g>
				<path class="st3" d="M269.2,194.8h-41.7c-2.4,0-4.6-2.1-4.6-4.6l0,0c0-2.4,2.1-4.6,4.6-4.6h41.7c2.4,0,4.6,2.1,4.6,4.6l0,0
					C273.8,192.7,271.9,194.8,269.2,194.8z"/>
			</g>
			<g>
				<path class="st3" d="M437.7,318v-16.8c0-2.4,2.1-4.6,4.6-4.6l0,0c2.4,0,4.6,2.1,4.6,4.6V318c0,2.4-2.1,4.6-4.6,4.6l0,0
					C439.6,322.4,437.7,320.4,437.7,318z"/>
			</g>
			<g>
				<path class="st3" d="M282.1,457v-16.8c0-2.4,2.1-4.6,4.6-4.6l0,0c2.4,0,4.6,2.1,4.6,4.6V457c0,2.4-2.1,4.6-4.6,4.6l0,0
					C284.2,461.6,282.1,459.6,282.1,457z"/>
			</g>
			<g>
				<rect x="158" y="166.3" class="st3" width="9" height="74.4"/>
			</g>
			<g>
				<rect x="317.6" y="108.4" class="st3" width="9" height="27.1"/>
			</g>
		</g>
	</g>
	<g>
		<path class="st4" d="M69.9,308.1l-4.8-0.1l-0.1,4.8l-4.8-0.1l0.3-9.7l4.8,0.1l0.4-14.6l-9.7-0.3l-0.6,19.4l-4.8-0.1l-0.1,4.8
			L41,312l0.1-4.8l-4.8-0.1L37,283l4.8,0.1l0.1-4.8l4.8,0.1l-0.3,9.7l-4.8-0.1l-0.4,14.6l9.7,0.3l0.4-19.2l4.8,0.1l0.1-4.8l9.7,0.3
			l-0.1,4.8l4.8,0.1L69.9,308.1z"/>
		<path class="st4" d="M70.8,275l-23.7-4.7l1-4.7l-4.7-1l1-4.7l-4.7-1l2.8-14.2l4.7,1l1-4.7l4.7,1l1-4.7l23.7,4.7l-1.9,9.6l-9.6-1.9
			l-2.9,14l9.4,1.7L70.8,275z M58.4,262.7l2.8-14.2l-9.6-1.9l-1,4.7l-4.7-1l-1,4.7l4.7,1l-1,4.7L58.4,262.7z"/>
		<path class="st4" d="M78.1,237.2l-31.7-11.9l11.9-31.7l4.6,1.8L54.4,218l9,3.3l6.8-18.1l4.6,1.8l-6.7,18.1l13.6,5.1L78.1,237.2z"
			/>
		<path class="st4" d="M93.9,197.2l-4.2-2.3l-2.3,4.2l-25-14.7l4.9-8.3l25,14.7l7.2-12.6l-25-14.7l4.9-8.3l25,14.7l-2.3,4.2l4.2,2.3
			L93.9,197.2z"/>
		<path class="st4" d="M119.9,157.3l-11.1-9.2l-3,3.8l-3.8-3l-3,3.8l-11.1-9.2l6.2-7.4l11.1,9.2l6.2-7.4l-11.1-9.2l6.2-7.4l11.1,9.2
			l-3,3.8l3.8,3l-3,3.8l11.1,9.2L119.9,157.3z"/>
		<path class="st4" d="M138.8,135.8l-3.1-3.7l7.2-6.3l-15.8-18.2l-7.2,6.3l-3.1-3.7l21.8-19l3.1,3.7l-7.2,6.3l15.8,18.2l7.2-6.3
			l3.1,3.7L138.8,135.8z"/>
		<path class="st4" d="M164,113.9L146.3,85l28.8-17.7l2.4,4.1L157,84.1l5,8.2l16.4-10.1l2.4,4.1l-16.3,10.2l5,8.2l20.6-12.6l2.4,4.1
			L164,113.9z"/>
		<path class="st4" d="M201,92.1l-12.6-31.4l8.9-3.7l10.8,26.9l18-7.1l1.9,4.6L201,92.1z"/>
		<path class="st4" d="M232.1,79.7l-7.1-33l23.6-5.2l1.1,4.7l4.7-1.1l1.1,4.7l4.7-1.1l3,14.2l-4.7,1.1l1.1,4.7l-4.7,1.1l1.1,4.7
			L232.1,79.7z M240.4,72.8l9.4-2.1l-1.1-4.7l4.7-1.1l-3-14.2l-4.7,1.1l-1.1-4.7l-9.4,2.1L240.4,72.8z"/>
		<path class="st4" d="M307.6,69.6l3.9-33.6l9.7,1.2l-0.6,4.8l4.8,0.6l-0.6,4.8l4.8,0.6l0.6-4.8l4.8,0.6l0.6-4.8l9.7,1.2l-4,33.4
			l-9.7-1.2l2.1-19.1l-4.8-0.6l-1.2,9.7l-4.8-0.6l1.2-9.7l-4.8-0.6l-2.1,19.1L307.6,69.6z"/>
		<path class="st4" d="M350.1,75.3l1.3-4.7l-4.7-1.3l6.7-23.2l4.7,1.3l1.3-4.7l23.2,6.7l-1.3,4.7l4.7,1.3l-6.7,23.2l-4.7-1.3
			l-1.3,4.7L350.1,75.3z M356.2,72l13.9,4l6.7-23.2l-13.9-4L356.2,72z"/>
		<path class="st4" d="M386.8,86.7l2.1-4.3l-4.3-2.1l10.6-21.8l4.3,2.1l2.1-4.3l21.8,10.6l-2.1,4.3l4.3,2.1L415,95l-4.3-2.1
			l-2.1,4.3L386.8,86.7z M393.1,84.4l13,6.3L416.7,69l-13-6.3L393.1,84.4z"/>
		<path class="st4" d="M416.9,101.2l19.4-27.7l7.9,5.6l-2.8,3.9l3.9,2.8l-2.8,3.9l3.9,2.8l-2.8,3.9l3.9,2.8l8.3-11.8l7.9,5.6
			l-19.6,27.7l-7.9-5.6l5.6-7.9l-3.9-2.8l2.8-3.9l-3.9-2.8l2.8-3.9l-3.9-2.8l-11.1,15.7L416.9,101.2z"/>
		<path class="st4" d="M448,123.2l17-17.2l3.4,3.3l3.3-3.4l3.4,3.3l3.3-3.4l10.3,10.2l-3.3,3.4l3.4,3.3l-3.3,3.4l3.4,3.3L472,146.9
			l-6.9-6.8l6.8-6.9L461.6,123l-6.8,6.9L448,123.2z M465.1,119.7l10.3,10.2l6.8-6.9l-3.4-3.3l3.3-3.4l-3.4-3.3l-3.3,3.4l-3.4-3.3
			L465.1,119.7z"/>
		<path class="st4" d="M475.2,150l27.4-19.8l17,23.4l-3.9,2.8l2.8,3.9l-11.8,8.4l-5.7-7.9l-3.9,2.8l2.8,3.9l-3.9,2.8l2.8,3.9
			L495,177l-8.4-11.8l3.9-2.8l-2.8-3.9l3.9-2.8l-2.8-3.9l-7.9,5.7L475.2,150z M492.6,149.3l5.7,7.9l3.9-2.8l2.8,3.9l7.9-5.7
			l-8.4-11.8L492.6,149.3z"/>
		<path class="st4" d="M497.7,181.2l30.3-14.9l4.3,8.7l-4.3,2.1l2.1,4.3l-4.3,2.1l2.1,4.3l4.3-2.1l2.1,4.3l4.3-2.1l4.3,8.7
			l-30.3,14.9l-4.3-8.7l17.3-8.6l-2.1-4.3l-8.7,4.3l-2.1-4.3l8.7-4.3l-2.1-4.3l-17.3,8.6L497.7,181.2z"/>
		<path class="st4" d="M518.8,229.3l13.9-4.1l-1.3-4.7l4.7-1.3l-1.3-4.7l13.9-4.1l2.8,9.2l-13.9,4.1l2.8,9.2l13.9-4.1l2.8,9.2
			l-13.9,4.1l-1.3-4.7l-4.7,1.3l-1.3-4.7l-13.9,4.1L518.8,229.3z"/>
		<path class="st4" d="M530.2,294.7l4.8,0.2l0.2-4.8l4.8,0.2l-0.4,9.7l-4.8-0.2l-0.6,14.6l9.7,0.4l0.8-19.2l4.8,0.2l0.2-4.8l9.7,0.4
			l-0.2,4.8l4.8,0.2l-1,24.1l-4.8-0.2l-0.2,4.8l-4.8-0.2l0.4-9.7l4.8,0.2l0.6-14.6l-9.7-0.4l-0.8,19.2l-4.8-0.2l-0.2,4.8l-9.7-0.4
			l0.2-4.8l-4.8-0.2L530.2,294.7z"/>
		<path class="st4" d="M528.9,328.2l23.6,4.9l-1,4.7l4.7,1l-1,4.7l4.7,1l-2.9,14.2l-4.7-1l-1,4.7l-4.7-1l-1,4.7l-23.6-4.9l2.1-9.6
			l9.6,2.1l2.9-14.2l-9.6-2.1L528.9,328.2z M541.1,340.6l-2.9,14.2l9.6,2.1l1-4.7l4.7,1l1-4.7l-4.7-1l1-4.7L541.1,340.6z"/>
		<path class="st4" d="M521.1,365.7l31.6,12.2l-12.2,31.6l-4.6-1.8l8.9-22.6l-9-3.6l-7,18.1l-4.6-1.8l7-18.1l-13.6-5.3L521.1,365.7z
			"/>
		<path class="st4" d="M504.8,405.3l4.1,2.4l2.4-4.1l24.8,14.9l-5,8.2l-24.8-14.9l-7.4,12.4l24.8,14.9l-5,8.2l-24.8-14.9l2.4-4.1
			l-4.1-2.4L504.8,405.3z"/>
		<path class="st4" d="M478.2,445l11,9.4l3.1-3.7l3.7,3.1l3.1-3.7l11,9.4l-6.3,7.3l-11-9.4l-6.3,7.3l11,9.4l-6.3,7.3l-11-9.4
			l3.1-3.7l-3.7-3.1l3.1-3.7l-11-9.4L478.2,445z"/>
		<path class="st4" d="M459.1,466.3l3,3.7l-7.3,6.3l15.6,18.4l7.3-6.3l3,3.8L458.4,511l-3-3.8l7.3-6.3l-15.6-18.4l-7.3,6.3l-3-3.7
			L459.1,466.3z"/>
		<path class="st4" d="M433.6,488l17.2,29l-29,17.2l-2.4-4.1l20.8-12.2l-4.9-8.3l-16.6,9.9l-2.4-4.1l16.6-9.9l-4.9-8.3l-20.8,12.2
			l-2.4-4.1L433.6,488z"/>
		<path class="st4" d="M396.1,509.2l12.2,31.6l-9,3.4l-10.6-27.1l-18.1,6.9l-1.8-4.6L396.1,509.2z"/>
		<path class="st4" d="M365.1,521.2l6.7,33.1l-23.7,4.8l-1-4.7l-4.7,1l-1-4.7l-4.7,1l-2.9-14.2l4.7-1l-1-4.7l4.7-1l-1-4.7
			L365.1,521.2z M356.7,527.9l-9.6,2l1,4.7l-4.7,1l2.9,14.2l4.7-1l1,4.7l9.6-2L356.7,527.9z"/>
		<path class="st4" d="M289.3,530.3l-4.3,33.6l-9.7-1.3l0.6-4.8l-4.8-0.6l0.6-4.8l-4.8-0.6l-0.6,4.8l-4.8-0.6l-0.6,4.8l-9.7-1.3
			l4.3-33.6l9.7,1.3l-2.4,19.1l4.8,0.6l1.3-9.7l4.8,0.6l-1.3,9.7l4.8,0.6l2.4-19.1L289.3,530.3z"/>
		<path class="st4" d="M246.8,524l-1.4,4.7l4.7,1.4l-7,23.2l-4.7-1.4l-1.4,4.7l-23.2-7l1.4-4.7l-4.7-1.4l7-23.2l4.7,1.4l1.4-4.7
			L246.8,524z M240.7,527.2l-13.9-4.2l-7,23.2l13.9,4.2L240.7,527.2z"/>
		<path class="st4" d="M210.6,512.2l-2.1,4.3l4.3,2.1l-10.7,21.6l-4.3-2.1l-2.1,4.3l-21.8-10.7l2.1-4.3l-4.3-2.1l10.7-21.6l4.3,2.1
			l2.1-4.3L210.6,512.2z M204.1,514.3l-13-6.4l-10.7,21.6l13,6.3L204.1,514.3z"/>
		<path class="st4" d="M180.7,497.3l-19.8,27.4l-7.8-5.7l2.9-3.9l-3.9-2.9l2.9-3.9l-3.9-2.9l2.9-3.9l-3.9-2.9l-8.6,11.7l-7.8-5.7
			l19.8-27.4l7.8,5.7l-5.7,7.8l3.9,2.9l-2.9,3.9l3.9,2.9l-2.9,3.9l3.9,2.9l11.3-15.6L180.7,497.3z"/>
		<path class="st4" d="M149.7,474.8l-17.2,16.9l-3.3-3.4l-3.4,3.3l-3.3-3.4l-3.4,3.3L108.7,481l3.4-3.3l-3.3-3.4l3.4-3.3l-3.3-3.4
			l17.2-16.9l6.8,6.9l-6.9,6.8l10.2,10.4l6.9-6.8L149.7,474.8z M132.6,478l-10.2-10.4l-6.9,6.8l3.3,3.4l-3.4,3.3l3.3,3.4l3.4-3.3
			l3.3,3.4L132.6,478z"/>
		<path class="st4" d="M122.9,447.6l-27.7,19.2l-16.6-23.7l3.9-2.8l-2.8-3.9l11.9-8.3l5.6,7.9l3.9-2.8l-2.8-3.9l3.9-2.8l-2.8-3.9
			l3.9-2.8l8.3,11.9l-3.9,2.8l2.8,3.9l-3.9,2.8l2.8,3.9l7.9-5.6L122.9,447.6z M105.4,447.9l-5.6-7.9l-3.9,2.8l-2.8-3.9l-7.9,5.6
			l8.3,11.9L105.4,447.9z"/>
		<path class="st4" d="M101,416.3l-30.6,14.6l-4.1-8.8l4.3-2.1l-2.1-4.3l4.3-2.1l-2.1-4.3l-4.3,2.1l-2.1-4.3l-4.3,2.1l-4.1-8.8
			l30.6-14.7l4.1,8.8L72.9,403l2.1,4.3l8.8-4.1l2.1,4.3l-8.8,4.1l2.1,4.3l17.4-8.3L101,416.3z"/>
		<path class="st4" d="M80.4,367.7l-13.9,3.9l1.3,4.7l-4.7,1.3l1.3,4.7l-13.9,3.9l-2.7-9.3l13.9-3.9l-2.7-9.3l-14,4l-2.7-9.3
			l13.9-3.9l1.3,4.7l4.7-1.3l1.3,4.7l13.9-3.9L80.4,367.7z"/>
	</g>
</g>
</svg>
