<?xml version="1.0" encoding="utf-8"?>
<!-- Generator: Adobe Illustrator 25.2.1, SVG Export Plug-In . SVG Version: 6.00 Build 0)  -->
<svg version="1.1" id="Capa_1" xmlns="http://www.w3.org/2000/svg" xmlns:xlink="http://www.w3.org/1999/xlink" x="0px" y="0px"
	 viewBox="0 0 600 600" style="enable-background:new 0 0 600 600;" xml:space="preserve">
<style type="text/css">
	.st0{fill:#00AAAA;}
</style>
<g>
	<polygon points="574,114.8 574,105.9 574,94.7 574,83.7 574,70.5 560.7,70.5 549.6,70.5 536.4,70.5 536.4,81.5 527.4,81.5 
		516.3,81.5 507.4,81.5 494.1,81.5 485.2,81.5 485.2,70.5 471.9,70.5 463,70.5 463,59.3 449.8,59.3 438.6,59.3 427.6,59.3 
		416.5,59.3 405.4,59.3 394.3,59.3 383.2,59.3 372.1,59.3 358.9,59.3 358.9,70.5 350,70.5 336.7,70.5 336.7,81.5 327.7,81.5 
		314.4,81.5 314.4,94.7 314.4,103.8 303.4,103.8 303.4,114.8 292.3,114.8 292.3,128.1 292.3,137 281.2,137 281.2,150.2 281.2,161.4 
		281.2,172.5 281.2,183.5 281.2,192.5 272.3,192.5 261.2,192.5 250,192.5 241.1,192.5 241.1,181.4 227.9,181.4 216.8,181.4 
		205.7,181.4 196.8,181.4 196.8,170.3 183.5,170.3 174.6,170.3 174.6,159.3 163.5,159.3 163.5,148.1 150.2,148.1 141.3,148.1 
		141.3,137 130.1,137 130.1,126 119.1,126 119.1,114.8 108,114.8 108,103.8 96.9,103.8 96.9,92.6 85.8,92.6 85.8,81.5 72.6,81.5 
		61.4,81.5 50.4,81.5 37.2,81.5 37.2,94.7 37.2,103.8 26,103.8 26,117 26,128.1 26,139.2 26,150.2 26,161.4 26,172.5 26,183.5 
		26,196.8 37.2,196.8 37.2,205.7 37.2,218.9 48.2,218.9 48.2,225.8 39.3,225.8 26,225.8 26,239 26,250.1 26,261.2 26,272.3 
		26,285.6 37.2,285.6 37.2,294.5 37.2,307.7 48.2,307.7 48.2,318.9 59.3,318.9 59.3,329.9 70.5,329.9 70.5,341 70.5,350 70.5,361.1 
		70.5,372.1 70.5,385.4 81.5,385.4 81.5,396.5 92.6,396.5 92.6,405.4 92.6,418.7 105.9,418.7 114.8,418.7 114.8,429.7 128.1,429.7 
		137,429.7 137,436.5 125.8,436.5 125.8,447.7 116.9,447.7 103.7,447.7 103.7,458.7 94.7,458.7 83.7,458.7 72.6,458.7 61.4,458.7 
		50.4,458.7 39.3,458.7 28.2,458.7 15,458.7 15,471.9 15,483.1 15,494.2 15,507.5 28.2,507.5 37.2,507.5 37.2,518.5 50.4,518.5 
		61.4,518.5 72.6,518.5 81.5,518.5 81.5,529.6 94.7,529.6 105.9,529.6 114.8,529.6 114.8,540.7 128.1,540.7 139.1,540.7 
		150.2,540.7 161.4,540.7 172.4,540.7 183.5,540.7 194.6,540.7 205.7,540.7 216.8,540.7 227.9,540.7 239,540.7 250,540.7 
		261.2,540.7 274.4,540.7 274.4,529.6 283.3,529.6 294.5,529.6 305.5,529.6 316.7,529.6 329.9,529.6 329.9,518.5 338.8,518.5 
		352.1,518.5 352.1,507.5 361,507.5 374.2,507.5 374.2,496.3 385.4,496.3 385.4,485.2 394.3,485.2 407.5,485.2 407.5,474.2 
		418.7,474.2 418.7,463 429.7,463 429.7,452 440.8,452 440.8,440.8 451.9,440.8 451.9,429.7 463,429.7 463,418.7 474.2,418.7 
		474.2,407.5 485.2,407.5 485.2,394.3 485.2,385.4 496.3,385.4 496.3,372.1 496.3,363.2 507.4,363.2 507.4,350 507.4,341 518.5,341 
		518.5,327.8 518.5,316.7 518.5,307.7 529.5,307.7 529.5,294.5 529.5,283.3 529.5,272.3 529.5,263.4 540.7,263.4 540.7,250.1 
		540.7,239 540.7,227.9 540.7,216.8 540.7,205.7 540.7,194.7 540.7,185.7 549.6,185.7 562.8,185.7 562.8,174.6 574,174.6 574,163.5 
		585,163.5 585,150.2 585,139.2 585,128.1 585,114.8 	"/>
	<polygon class="st0" points="560.7,128.1 560.7,139.2 549.6,139.2 538.6,139.2 527.4,139.2 527.4,128.1 538.6,128.1 538.6,117 
		549.6,117 549.6,105.9 560.7,105.9 560.7,94.7 560.7,83.7 549.6,83.7 549.6,94.7 538.6,94.7 527.4,94.7 516.3,94.7 516.3,105.9 
		505.3,105.9 494.1,105.9 494.1,94.7 483.1,94.7 471.9,94.7 471.9,83.7 460.9,83.7 449.8,83.7 449.8,72.6 438.6,72.6 427.6,72.6 
		416.5,72.6 405.4,72.6 394.3,72.6 383.2,72.6 372.1,72.6 372.1,83.7 361,83.7 350,83.7 350,94.7 338.8,94.7 327.7,94.7 
		327.7,105.9 327.7,117 316.7,117 316.7,128.1 305.5,128.1 305.5,139.2 305.5,150.2 294.5,150.2 294.5,161.4 294.5,172.5 
		294.5,183.5 294.5,194.7 294.5,205.7 283.3,205.7 272.3,205.7 261.2,205.7 250,205.7 239,205.7 227.9,205.7 227.9,194.7 
		216.8,194.7 205.7,194.7 194.6,194.7 183.5,194.7 183.5,183.5 172.4,183.5 161.4,183.5 161.4,172.5 150.2,172.5 150.2,161.4 
		139.1,161.4 128.1,161.4 128.1,150.2 116.9,150.2 116.9,139.2 105.9,139.2 105.9,128.1 94.7,128.1 94.7,117 83.7,117 83.7,105.9 
		72.6,105.9 72.6,94.7 61.4,94.7 50.4,94.7 50.4,105.9 50.4,117 39.3,117 39.3,128.1 39.3,139.2 39.3,150.2 39.3,161.4 39.3,172.5 
		39.3,183.5 50.4,183.5 50.4,194.7 50.4,205.7 61.4,205.7 61.4,216.8 72.6,216.8 72.6,227.9 72.6,239 61.4,239 50.4,239 39.3,239 
		39.3,250.1 39.3,261.2 39.3,272.3 50.4,272.3 50.4,283.3 50.4,294.5 61.4,294.5 61.4,305.6 72.6,305.6 72.6,316.7 83.7,316.7 
		83.7,327.8 94.7,327.8 105.9,327.8 105.9,338.8 116.9,338.8 128.1,338.8 128.1,350 116.9,350 105.9,350 94.7,350 83.7,350 
		83.7,361.1 83.7,372.1 94.7,372.1 94.7,383.3 105.9,383.3 105.9,394.3 105.9,405.4 116.9,405.4 128.1,405.4 128.1,416.5 
		139.1,416.5 150.2,416.5 150.2,427.6 161.4,427.6 172.4,427.6 172.4,438.7 161.4,438.7 161.4,449.8 150.2,449.8 139.1,449.8 
		139.1,460.9 128.1,460.9 116.9,460.9 116.9,471.9 105.9,471.9 94.7,471.9 83.7,471.9 72.6,471.9 61.4,471.9 50.4,471.9 39.3,471.9 
		28.2,471.9 28.2,483.1 28.2,494.2 39.3,494.2 50.4,494.2 50.4,505.3 61.4,505.3 72.6,505.3 83.7,505.3 94.7,505.3 94.7,516.4 
		105.9,516.4 116.9,516.4 128.1,516.4 128.1,527.4 139.1,527.4 150.2,527.4 161.4,527.4 172.4,527.4 183.5,527.4 194.6,527.4 
		205.7,527.4 216.8,527.4 227.9,527.4 239,527.4 250,527.4 261.2,527.4 261.2,516.4 272.3,516.4 283.3,516.4 294.5,516.4 
		305.5,516.4 316.7,516.4 316.7,505.3 327.7,505.3 338.8,505.3 338.8,494.2 350,494.2 361,494.2 361,483.1 372.1,483.1 372.1,471.9 
		383.2,471.9 394.3,471.9 394.3,460.9 405.4,460.9 405.4,449.8 416.5,449.8 416.5,438.7 427.6,438.7 427.6,427.6 438.6,427.6 
		438.6,416.5 449.8,416.5 449.8,405.4 460.9,405.4 460.9,394.3 471.9,394.3 471.9,383.3 471.9,372.1 483.1,372.1 483.1,361.1 
		483.1,350 494.1,350 494.1,338.8 494.1,327.8 505.3,327.8 505.3,316.7 505.3,305.6 505.3,294.5 516.3,294.5 516.3,283.3 
		516.3,272.3 516.3,261.2 516.3,250.1 527.4,250.1 527.4,239 527.4,227.9 527.4,216.8 527.4,205.7 527.4,194.7 527.4,183.5 
		527.4,172.5 538.6,172.5 549.6,172.5 549.6,161.4 560.7,161.4 560.7,150.2 571.8,150.2 571.8,139.2 571.8,128.1 	"/>
</g>
</svg>
