<?xml version="1.0" encoding="utf-8"?>
<!-- Generator: Adobe Illustrator 25.2.1, SVG Export Plug-In . SVG Version: 6.00 Build 0)  -->
<svg version="1.1" id="Capa_1" xmlns="http://www.w3.org/2000/svg" xmlns:xlink="http://www.w3.org/1999/xlink" x="0px" y="0px"
	 viewBox="0 0 575.6 698.9" style="enable-background:new 0 0 575.6 698.9;" xml:space="preserve">
<style type="text/css">
	.st0{fill-rule:evenodd;clip-rule:evenodd;fill:#FFFFFF;}
	.st1{fill-rule:evenodd;clip-rule:evenodd;fill:#00AAAA;}
	.st2{fill-rule:evenodd;clip-rule:evenodd;fill:#FF3F18;}
	.st3{enable-background:new    ;}
	.st4{fill:#FFFFFF;}
</style>
<g>
	<g>
		<g>
			<path class="st0" d="M442.5,147.1c0-18-14.6-32.5-32.5-32.5c-13.6,0-25.2,8.3-30.1,20.2c-1.6,3.8-2.4,8-2.4,12.3
				c0,18,14.6,32.5,32.5,32.5C428,179.6,442.5,165,442.5,147.1z"/>
			<path class="st1" d="M379.9,134.7c4.9-11.8,16.5-20.2,30.1-20.2c18,0,32.5,14.6,32.5,32.5c0,18-14.6,32.5-32.5,32.5
				c-18,0-32.5-14.6-32.5-32.5C377.5,142.7,378.3,138.6,379.9,134.7z M291.4,195.7c53.1,0.7,101,17,135.5,42.9
				c8.3-12.2,22.2-20.1,38.1-20.1c25.4,0,46,20.6,46,46c0,20.8-13.8,38.4-32.8,44.1c2.8,9.6,4.2,19.5,4.2,29.7
				c0,78.8-87.2,142.7-194.7,142.7S93.1,417.2,93.1,338.4c0-10.2,1.5-20.2,4.2-29.7c-19-5.7-32.8-23.3-32.8-44.1
				c0-25.4,20.6-46,46-46c15.8,0,29.8,8,38.1,20.1c35.3-26.5,84.6-42.9,139.2-42.9C289,195.7,290.2,195.7,291.4,195.7z M554.4,297.8
				c0-147.3-119.4-266.6-266.6-266.6S21.1,150.6,21.1,297.8s119.4,266.6,266.6,266.6S554.4,445.1,554.4,297.8z"/>
			<path class="st0" d="M148.6,238.6c-8.3-12.2-22.2-20.1-38.1-20.1c-25.4,0-46,20.6-46,46c0,20.8,13.8,38.4,32.8,44.1
				C105.1,281.7,123.3,257.6,148.6,238.6z"/>
			<path class="st0" d="M287.8,195.7c-54.5,0-103.8,16.4-139.2,42.9c-25.3,19-43.5,43.1-51.3,70c-2.8,9.6-4.2,19.5-4.2,29.7
				c0,78.8,87.2,142.7,194.7,142.7s194.7-63.9,194.7-142.7c0-10.2-1.5-20.1-4.2-29.7c-7.8-26.9-26-51.1-51.3-70
				c-34.6-25.9-82.4-42.2-135.5-42.9C290.2,195.7,289,195.7,287.8,195.7z M212.7,277.9c13.9,0,25.2,11.3,25.2,25.2
				c0,13.9-11.3,25.2-25.2,25.2s-25.2-11.3-25.2-25.2C187.5,289.2,198.8,277.9,212.7,277.9z M337.7,303.1
				c0-13.9,11.3-25.2,25.2-25.2s25.2,11.3,25.2,25.2c0,13.9-11.3,25.2-25.2,25.2S337.7,317,337.7,303.1z"/>
			<path class="st2" d="M388,303.1c0,13.9-11.3,25.2-25.2,25.2s-25.2-11.3-25.2-25.2c0-13.9,11.3-25.2,25.2-25.2
				S388,289.2,388,303.1z"/>
			<path class="st2" d="M237.9,303.1c0,13.9-11.3,25.2-25.2,25.2s-25.2-11.3-25.2-25.2c0-13.9,11.3-25.2,25.2-25.2
				C226.6,277.9,237.9,289.2,237.9,303.1z"/>
			<path class="st0" d="M427,238.6c25.3,19,43.5,43.1,51.3,70c19-5.7,32.8-23.3,32.8-44.1c0-25.4-20.6-46-46-46
				C449.2,218.5,435.2,226.4,427,238.6z"/>
		</g>
		<path d="M521.9,264.5c0-31.4-25.5-56.9-56.9-56.9c-15.2,0-29.5,6-40.1,16.5c-32.5-21.8-74.3-36-120.3-38.8l4.9-23.4
			c1.8-8.7,7.5-16.4,15.6-21.1c8.4-4.9,18.3-6.2,27.1-3.4L367,142c-0.2,1.7-0.3,3.3-0.3,5c0,23.9,19.5,43.4,43.4,43.4
			s43.4-19.4,43.4-43.4c0-23.9-19.5-43.4-43.4-43.4c-14.5,0-27.3,7.1-35.2,18.1l-16.1-5.1c-14.7-4.6-30.9-2.6-44.6,5.4
			c-13.4,7.9-22.8,20.8-25.8,35.4l-5.7,27.4c-50.6,0.9-96.8,15.6-132,39.3c-10.6-10.5-24.9-16.5-40.1-16.5
			c-31.4,0-56.9,25.5-56.9,56.9c0,21.4,12.3,41,31,50.6c-1.5,7.6-2.4,15.4-2.4,23.3c0,84.7,92.2,153.5,205.5,153.5
			S493.3,423,493.3,338.4c0-7.9-0.8-15.7-2.4-23.3C509.6,305.5,521.9,286,521.9,264.5z M410,125.4c12,0,21.7,9.7,21.7,21.7
			s-9.7,21.7-21.7,21.7s-21.7-9.7-21.7-21.7S398,125.4,410,125.4z M465,229.3c19.4,0,35.2,15.8,35.2,35.2c0,11.9-6.2,22.9-15.8,29.3
			c-8.6-21.1-23-40.2-41.9-56.4C448.8,232.3,456.7,229.3,465,229.3z M75.3,264.5c0-19.4,15.8-35.2,35.2-35.2c8.3,0,16.2,3,22.5,8.1
			c-18.9,16.2-33.4,35.3-41.9,56.4C81.5,287.4,75.3,276.4,75.3,264.5z M418.9,430.5c-35,25.7-81.6,39.8-131.1,39.8
			s-96.1-14.1-131.1-39.8c-34-24.9-52.7-57.6-52.7-92.1s18.7-67.2,52.7-92.1c35-25.7,81.6-39.8,131.1-39.8s96.2,14.1,131.1,39.8
			c34,24.9,52.7,57.6,52.7,92.1S452.9,405.6,418.9,430.5z"/>
		<path d="M248.7,303.1c0-19.9-16.2-36-36-36s-36,16.2-36,36c0,19.9,16.2,36,36,36S248.7,323,248.7,303.1z M198.4,303.1
			c0-7.9,6.4-14.3,14.3-14.3c7.9,0,14.3,6.4,14.3,14.3s-6.4,14.3-14.3,14.3C204.8,317.5,198.4,311,198.4,303.1z"/>
		<path d="M362.9,267.1c-19.9,0-36,16.2-36,36c0,19.9,16.2,36,36,36s36-16.2,36-36C398.9,283.3,382.7,267.1,362.9,267.1z
			 M362.9,317.5c-7.9,0-14.3-6.4-14.3-14.3s6.4-14.3,14.3-14.3s14.3,6.4,14.3,14.3C377.2,311,370.8,317.5,362.9,317.5z"/>
		<path d="M361.1,365.8c-19.6,19.6-45.6,30.4-73.3,30.4s-53.7-10.8-73.3-30.4c-4.2-4.2-11.1-4.2-15.3,0s-4.2,11.1,0,15.3
			c23.7,23.7,55.2,36.7,88.6,36.7c33.5,0,65-13,88.6-36.7c4.2-4.2,4.2-11.1,0-15.3C372.2,361.6,365.3,361.6,361.1,365.8z"/>
		<path d="M436.8,505.7c-43.6,31.3-95.2,47.9-149.1,47.9C146.7,553.6,32,438.9,32,297.8c0-53.9,16.6-105.4,47.9-149.1
			c3.5-4.9,2.4-11.6-2.5-15.1s-11.6-2.4-15.1,2.5c-34,47.3-52,103.3-52,161.7c0,74.1,28.9,143.8,81.3,196.2s122.1,81.3,196.2,81.3
			c58.5,0,114.4-18,161.7-52c4.9-3.5,6-10.3,2.5-15.1C448.5,503.3,441.7,502.2,436.8,505.7z"/>
		<path d="M484,101.6c-52.4-52.4-122.1-81.3-196.2-81.3c-58.5,0-114.4,18-161.7,52c-4.9,3.5-6,10.3-2.5,15.1
			c3.5,4.9,10.3,6,15.1,2.5C182.3,58.6,233.9,42,287.8,42c141.1,0,255.8,114.8,255.8,255.8c0,53.9-16.6,105.4-47.9,149.1
			c-3.5,4.9-2.4,11.6,2.5,15.1c1.9,1.4,4.1,2,6.3,2c3.4,0,6.7-1.6,8.8-4.5c34-47.3,52-103.3,52-161.7
			C565.3,223.7,536.4,154,484,101.6z"/>
		<path d="M99.2,120.1c2.9,0,5.9-1.2,8-3.6c4-4.4,3.7-11.3-0.7-15.3s-11.3-3.7-15.3,0.7l0,0c-4,4.4-3.7,11.3,0.7,15.3
			C94,119.2,96.6,120.1,99.2,120.1z"/>
		<path d="M468.3,479.1L468.3,479.1c-4,4.4-3.7,11.3,0.7,15.3c2.1,1.9,4.7,2.8,7.3,2.8c2.9,0,5.9-1.2,8-3.5c4-4.4,3.7-11.3-0.7-15.3
			C479.2,474.3,472.3,474.6,468.3,479.1z"/>
	</g>
	<g>
		<g class="st3">
			<path d="M86.4,663.4v-3.8h-3.8v-3.8h7.6v3.8h11.4V652H86.4v-3.8h-3.8v-7.6h3.8v-3.8h19v3.8h3.8v3.8h-7.6v-3.8H90.2v7.6h15.2v3.8
				h3.8v7.6h-3.8v3.8H86.4z"/>
			<path d="M116.8,663.4v-3.8H113v-22.8h7.6v22.8H132v-22.8h7.6v22.8h-3.8v3.8H116.8z"/>
			<path d="M143.4,663.4v-26.6h22.8v3.8h3.8V652h-7.6v3.8h3.8v3.8h3.8v3.8h-11.4v-3.8h-3.8v-3.8H151v7.6H143.4z M151,652h7.6v-3.8
				h3.8v-7.6H151V652z"/>
			<path d="M173.7,663.4v-26.6h22.8v3.8h3.8V652h-7.6v3.8h3.8v3.8h3.8v3.8h-11.4v-3.8h-3.8v-3.8h-3.8v7.6H173.7z M181.3,652h7.6
				v-3.8h3.8v-7.6h-11.4V652z"/>
			<path d="M204.1,663.4v-26.6h26.6v3.8h-19v7.6h15.2v3.8h-15.2v7.6h19v3.8H204.1z"/>
			<path d="M234.4,663.4v-26.6h19v3.8h3.8v3.8h3.8v11.4h-3.8v3.8h-3.8v3.8H234.4z M242,659.6h7.6v-3.8h3.8v-11.4h-3.8v-3.8H242
				V659.6z"/>
			<path d="M264.8,663.4v-26.6h19v3.8h3.8v3.8h3.8v11.4h-3.8v3.8h-3.8v3.8H264.8z M272.4,659.6h7.6v-3.8h3.8v-11.4H280v-3.8h-7.6
				V659.6z"/>
			<path d="M298.9,663.4v-3.8h7.6v-19h-7.6v-3.8h22.8v3.8h-7.6v19h7.6v3.8H298.9z"/>
			<path d="M336.9,663.4v-22.8h-7.6v-3.8h22.8v3.8h-7.6v22.8H336.9z"/>
			<path d="M390,663.4v-3.8h-3.8v-3.8h7.6v3.8h11.4V652H390v-3.8h-3.8v-7.6h3.8v-3.8h19v3.8h3.8v3.8h-7.6v-3.8h-11.4v7.6H409v3.8
				h3.8v7.6H409v3.8H390z"/>
			<path d="M416.6,663.4v-19h3.8v-3.8h3.8v-3.8h11.4v3.8h3.8v3.8h3.8v19h-7.6v-7.6h-11.4v7.6H416.6z M424.2,652h11.4v-7.6h-3.8v-3.8
				H428v3.8h-3.8V652z"/>
			<path d="M446.9,663.4v-26.6h26.6v3.8h-19v7.6h15.2v3.8h-15.2v11.4H446.9z"/>
			<path d="M481.1,663.4v-3.8h-3.8v-22.8h7.6v22.8h11.4v-22.8h7.6v22.8h-3.8v3.8H481.1z"/>
		</g>
		<g class="st3">
			<path class="st4" d="M86.4,657.7v-3.8h-3.8v-3.8h7.6v3.8h11.4v-7.6H86.4v-3.8h-3.8v-7.6h3.8v-3.8h19v3.8h3.8v3.8h-7.6v-3.8H90.2
				v7.6h15.2v3.8h3.8v7.6h-3.8v3.8H86.4z"/>
			<path class="st4" d="M116.8,657.7v-3.8H113v-22.8h7.6v22.8H132v-22.8h7.6v22.8h-3.8v3.8H116.8z"/>
			<path class="st4" d="M143.4,657.7v-26.6h22.8v3.8h3.8v11.4h-7.6v3.8h3.8v3.8h3.8v3.8h-11.4v-3.8h-3.8v-3.8H151v7.6H143.4z
				 M151,646.3h7.6v-3.8h3.8v-7.6H151V646.3z"/>
			<path class="st4" d="M173.7,657.7v-26.6h22.8v3.8h3.8v11.4h-7.6v3.8h3.8v3.8h3.8v3.8h-11.4v-3.8h-3.8v-3.8h-3.8v7.6H173.7z
				 M181.3,646.3h7.6v-3.8h3.8v-7.6h-11.4V646.3z"/>
			<path class="st4" d="M204.1,657.7v-26.6h26.6v3.8h-19v7.6h15.2v3.8h-15.2v7.6h19v3.8H204.1z"/>
			<path class="st4" d="M234.4,657.7v-26.6h19v3.8h3.8v3.8h3.8v11.4h-3.8v3.8h-3.8v3.8H234.4z M242,653.9h7.6v-3.8h3.8v-11.4h-3.8
				v-3.8H242V653.9z"/>
			<path class="st4" d="M264.8,657.7v-26.6h19v3.8h3.8v3.8h3.8v11.4h-3.8v3.8h-3.8v3.8H264.8z M272.4,653.9h7.6v-3.8h3.8v-11.4H280
				v-3.8h-7.6V653.9z"/>
			<path class="st4" d="M298.9,657.7v-3.8h7.6v-19h-7.6v-3.8h22.8v3.8h-7.6v19h7.6v3.8H298.9z"/>
			<path class="st4" d="M336.9,657.7v-22.8h-7.6v-3.8h22.8v3.8h-7.6v22.8H336.9z"/>
			<path class="st4" d="M390,657.7v-3.8h-3.8v-3.8h7.6v3.8h11.4v-7.6H390v-3.8h-3.8v-7.6h3.8v-3.8h19v3.8h3.8v3.8h-7.6v-3.8h-11.4
				v7.6H409v3.8h3.8v7.6H409v3.8H390z"/>
			<path class="st4" d="M416.6,657.7v-19h3.8v-3.8h3.8v-3.8h11.4v3.8h3.8v3.8h3.8v19h-7.6v-7.6h-11.4v7.6H416.6z M424.2,646.3h11.4
				v-7.6h-3.8v-3.8H428v3.8h-3.8V646.3z"/>
			<path class="st4" d="M446.9,657.7v-26.6h26.6v3.8h-19v7.6h15.2v3.8h-15.2v11.4H446.9z"/>
			<path class="st4" d="M481.1,657.7v-3.8h-3.8v-22.8h7.6v22.8h11.4v-22.8h7.6v22.8h-3.8v3.8H481.1z"/>
		</g>
	</g>
</g>
</svg>
