<?xml version="1.0" encoding="utf-8"?>
<!-- Generator: Adobe Illustrator 25.2.1, SVG Export Plug-In . SVG Version: 6.00 Build 0)  -->
<svg version="1.1" id="Capa_1" xmlns="http://www.w3.org/2000/svg" xmlns:xlink="http://www.w3.org/1999/xlink" x="0px" y="0px"
	 viewBox="0 0 600 600" style="enable-background:new 0 0 600 600;" xml:space="preserve">
<style type="text/css">
	.st0{fill:#002B2A;}
	.st1{fill:#0CE8E2;}
	.st2{fill:#00AAAA;}
</style>
<g>
	<g>
		<path class="st0" d="M580.1,348c-2.4-50.9-47.8-103.2-122.3-134.8l20.8-115.7c0.2-2.4,0.4-4.8,0.4-7.3c0-40.7-33-73.8-73.8-73.8
			c-39.6,0-72,31.3-73.7,70.6l0,0l-2.3,97.1c-9.4-0.5-19.1-0.9-28.9-0.9c-11.2,0-22.5,0.4-33.5,1.3v-101l-0.2-0.1
			C263.5,45.1,231.7,15,192.7,15c-40.7,0-73.8,33-73.8,73.8c0,3.5,0.3,7.1,0.8,10.5l0,0l22.1,114.8l0,0
			C70.1,244.7,22.4,294.6,20.2,348h-0.3v72.6H20C24.3,511.8,148,585,300,585s275.7-73.1,280-164.4h0.1L580.1,348L580.1,348
			L580.1,348z"/>
		<path class="st1" d="M556,363.3v54.2h-0.1c-4,83.3-134,144.4-257.4,144.4C189.8,561.8,41,488.3,41,417.5h-0.1v-54.2
			c0-42.5,27.6-80.9,72.5-109.2c0.1-0.1,0.2-0.1,0.3-0.2c44.1-26.5,103.8-44.2,166-47.3c1.6-0.1,3.4-0.2,5.1-0.2
			c4.5-0.2,9.2-0.3,13.7-0.3c19.3,0,37.9,1.2,55.6,3.4c28.5,3.5,54.6,9.7,78,18c-0.1,0.4-0.2,0.9-0.3,1.3
			C506.2,256.5,556,306.4,556,363.3z"/>
		<path class="st2" d="M556,363.3c0,86.7-115.2,157.2-257.5,157.2S40.9,450.1,40.9,363.3c0-42.5,27.6-80.9,72.5-109.2
			c0.1-0.1,0.2-0.1,0.3-0.2c15.3-9.6,32.8-18.1,51.8-25.1L141.9,96l0.2-0.1c-0.1-1.4-0.2-2.9-0.2-4.5c0-28.6,23.2-51.7,51.7-51.7
			c25.9,0,47.3,19,51.1,43.8l0.4,125.9c11.2-1.4,22.9-2.4,34.7-2.9c1.6-0.1,3.4-0.2,5.1-0.2c4.5-0.2,9.2-0.2,13.7-0.2
			c19.1,0,37.7,1.3,55.5,3.6l0.1-0.3v-0.3l1.1-125.3c3.6-25,25.1-44.1,51.1-44.1c28.5,0,51.7,23,51.7,51.7c0,0.9-16.3,85.8-25.9,136
			c-0.1,0.4-0.2,0.9-0.3,1.3C506.2,256.5,556,306.4,556,363.3z"/>
		<g>
			<path class="st0" d="M199.1,309.1c-15.4,0-28,19.8-28,44c0,24.4,12.6,44,28,44s28-19.8,28-44C227,328.8,214.6,309.1,199.1,309.1z
				"/>
			<path class="st0" d="M395.8,309.1c-15.4,0-28,19.8-28,44c0,24.4,12.6,44,28,44s28-19.8,28-44C424,328.8,411.3,309.1,395.8,309.1z
				"/>
		</g>
	</g>
</g>
</svg>
