<?xml version="1.0" encoding="utf-8"?>
<!-- Generator: Adobe Illustrator 25.2.1, SVG Export Plug-In . SVG Version: 6.00 Build 0)  -->
<svg version="1.1" id="Capa_1" xmlns="http://www.w3.org/2000/svg" xmlns:xlink="http://www.w3.org/1999/xlink" x="0px" y="0px"
	 viewBox="0 0 600 600" style="enable-background:new 0 0 600 600;" xml:space="preserve">
<style type="text/css">
	.st0{fill:#00AAAA;}
	.st1{fill:#FFFFFF;}
</style>
<g>
	<polygon points="548.4,75.6 548.4,67.5 548.4,57.4 548.4,47.4 548.4,35.4 536.4,35.4 526.3,35.4 514.3,35.4 514.3,45.4 506.2,45.4 
		496.1,45.4 488,45.4 476,45.4 467.9,45.4 467.9,35.4 455.9,35.4 447.8,35.4 447.8,25.3 435.8,25.3 425.7,25.3 415.7,25.3 
		405.6,25.3 395.6,25.3 385.5,25.3 375.4,25.3 365.4,25.3 353.4,25.3 353.4,35.4 345.3,35.4 333.3,35.4 333.3,45.4 325.1,45.4 
		313.1,45.4 313.1,57.4 313.1,65.6 303.1,65.6 303.1,75.6 293,75.6 293,87.6 293,95.7 283,95.7 283,107.7 283,117.8 283,127.9 
		283,137.9 283,146 274.9,146 264.8,146 254.7,146 246.6,146 246.6,136 234.6,136 224.6,136 214.5,136 206.4,136 206.4,125.9 
		194.4,125.9 186.3,125.9 186.3,115.9 176.2,115.9 176.2,105.8 164.2,105.8 156.1,105.8 156.1,95.7 146,95.7 146,85.7 136,85.7 
		136,75.6 125.9,75.6 125.9,65.6 115.9,65.6 115.9,55.5 105.8,55.5 105.8,45.4 93.8,45.4 83.7,45.4 73.7,45.4 61.7,45.4 61.7,57.4 
		61.7,65.6 51.6,65.6 51.6,77.6 51.6,87.6 51.6,97.7 51.6,107.7 51.6,117.8 51.6,127.9 51.6,137.9 51.6,149.9 61.7,149.9 61.7,158 
		61.7,170 71.7,170 71.7,176.2 63.6,176.2 51.6,176.2 51.6,188.2 51.6,198.3 51.6,208.3 51.6,218.4 51.6,230.4 61.7,230.4 
		61.7,238.5 61.7,250.5 71.7,250.5 71.7,260.6 81.8,260.6 81.8,270.6 91.9,270.6 91.9,280.7 91.9,288.8 91.9,298.9 91.9,308.9 
		91.9,320.9 101.9,320.9 101.9,331 112,331 112,339.1 112,351.1 124,351.1 132.1,351.1 132.1,361.1 144.1,361.1 152.2,361.1 
		152.2,367.3 142.1,367.3 142.1,377.4 134,377.4 122,377.4 122,387.4 113.9,387.4 103.9,387.4 93.8,387.4 83.7,387.4 73.7,387.4 
		63.6,387.4 53.6,387.4 41.6,387.4 41.6,399.4 41.6,409.5 41.6,419.6 41.6,431.6 53.6,431.6 61.7,431.6 61.7,441.6 73.7,441.6 
		83.7,441.6 93.8,441.6 101.9,441.6 101.9,451.7 113.9,451.7 124,451.7 132.1,451.7 132.1,461.7 144.1,461.7 154.1,461.7 
		164.2,461.7 174.3,461.7 184.3,461.7 194.4,461.7 204.4,461.7 214.5,461.7 224.6,461.7 234.6,461.7 244.7,461.7 254.7,461.7 
		264.8,461.7 276.8,461.7 276.8,451.7 284.9,451.7 295,451.7 305,451.7 315.1,451.7 327.1,451.7 327.1,441.6 335.2,441.6 
		347.2,441.6 347.2,431.6 355.3,431.6 367.3,431.6 367.3,421.5 377.4,421.5 377.4,411.4 385.5,411.4 397.5,411.4 397.5,401.4 
		407.6,401.4 407.6,391.3 417.6,391.3 417.6,381.3 427.7,381.3 427.7,371.2 437.7,371.2 437.7,361.1 447.8,361.1 447.8,351.1 
		457.9,351.1 457.9,341 467.9,341 467.9,329 467.9,320.9 478,320.9 478,308.9 478,300.8 488,300.8 488,288.8 488,280.7 498.1,280.7 
		498.1,268.7 498.1,258.6 498.1,250.5 508.1,250.5 508.1,238.5 508.1,228.4 508.1,218.4 508.1,210.3 518.2,210.3 518.2,198.3 
		518.2,188.2 518.2,178.1 518.2,168.1 518.2,158 518.2,148 518.2,139.9 526.3,139.9 538.3,139.9 538.3,129.8 548.4,129.8 
		548.4,119.7 558.4,119.7 558.4,107.7 558.4,97.7 558.4,87.6 558.4,75.6 	"/>
	<polygon class="st0" points="536.4,87.6 536.4,97.7 526.3,97.7 516.3,97.7 506.2,97.7 506.2,87.6 516.3,87.6 516.3,77.6 
		526.3,77.6 526.3,67.5 536.4,67.5 536.4,57.4 536.4,47.4 526.3,47.4 526.3,57.4 516.3,57.4 506.2,57.4 496.1,57.4 496.1,67.5 
		486.1,67.5 476,67.5 476,57.4 466,57.4 455.9,57.4 455.9,47.4 445.9,47.4 435.8,47.4 435.8,37.3 425.7,37.3 415.7,37.3 405.6,37.3 
		395.6,37.3 385.5,37.3 375.4,37.3 365.4,37.3 365.4,47.4 355.3,47.4 345.3,47.4 345.3,57.4 335.2,57.4 325.1,57.4 325.1,67.5 
		325.1,77.6 315.1,77.6 315.1,87.6 305,87.6 305,97.7 305,107.7 295,107.7 295,117.8 295,127.9 295,137.9 295,148 295,158 
		284.9,158 274.9,158 264.8,158 254.7,158 244.7,158 234.6,158 234.6,148 224.6,148 214.5,148 204.4,148 194.4,148 194.4,137.9 
		184.3,137.9 174.3,137.9 174.3,127.9 164.2,127.9 164.2,117.8 154.1,117.8 144.1,117.8 144.1,107.7 134,107.7 134,97.7 124,97.7 
		124,87.6 113.9,87.6 113.9,77.6 103.9,77.6 103.9,67.5 93.8,67.5 93.8,57.4 83.7,57.4 73.7,57.4 73.7,67.5 73.7,77.6 63.6,77.6 
		63.6,87.6 63.6,97.7 63.6,107.7 63.6,117.8 63.6,127.9 63.6,137.9 73.7,137.9 73.7,148 73.7,158 83.7,158 83.7,168.1 93.8,168.1 
		93.8,178.1 93.8,188.2 83.7,188.2 73.7,188.2 63.6,188.2 63.6,198.3 63.6,208.3 63.6,218.4 73.7,218.4 73.7,228.4 73.7,238.5 
		83.7,238.5 83.7,248.6 93.8,248.6 93.8,258.6 103.9,258.6 103.9,268.7 113.9,268.7 124,268.7 124,278.7 134,278.7 144.1,278.7 
		144.1,288.8 134,288.8 124,288.8 113.9,288.8 103.9,288.8 103.9,298.9 103.9,308.9 113.9,308.9 113.9,319 124,319 124,329 
		124,339.1 134,339.1 144.1,339.1 144.1,349.1 154.1,349.1 164.2,349.1 164.2,359.2 174.3,359.2 184.3,359.2 184.3,369.3 
		174.3,369.3 174.3,379.3 164.2,379.3 154.1,379.3 154.1,389.4 144.1,389.4 134,389.4 134,399.4 124,399.4 113.9,399.4 103.9,399.4 
		93.8,399.4 83.7,399.4 73.7,399.4 63.6,399.4 53.6,399.4 53.6,409.5 53.6,419.6 63.6,419.6 73.7,419.6 73.7,429.6 83.7,429.6 
		93.8,429.6 103.9,429.6 113.9,429.6 113.9,439.7 124,439.7 134,439.7 144.1,439.7 144.1,449.7 154.1,449.7 164.2,449.7 
		174.3,449.7 184.3,449.7 194.4,449.7 204.4,449.7 214.5,449.7 224.6,449.7 234.6,449.7 244.7,449.7 254.7,449.7 264.8,449.7 
		264.8,439.7 274.9,439.7 284.9,439.7 295,439.7 305,439.7 315.1,439.7 315.1,429.6 325.1,429.6 335.2,429.6 335.2,419.6 
		345.3,419.6 355.3,419.6 355.3,409.5 365.4,409.5 365.4,399.4 375.4,399.4 385.5,399.4 385.5,389.4 395.6,389.4 395.6,379.3 
		405.6,379.3 405.6,369.3 415.7,369.3 415.7,359.2 425.7,359.2 425.7,349.1 435.8,349.1 435.8,339.1 445.9,339.1 445.9,329 
		455.9,329 455.9,319 455.9,308.9 466,308.9 466,298.9 466,288.8 476,288.8 476,278.7 476,268.7 486.1,268.7 486.1,258.6 
		486.1,248.6 486.1,238.5 496.1,238.5 496.1,228.4 496.1,218.4 496.1,208.3 496.1,198.3 506.2,198.3 506.2,188.2 506.2,178.1 
		506.2,168.1 506.2,158 506.2,148 506.2,137.9 506.2,127.9 516.3,127.9 526.3,127.9 526.3,117.8 536.4,117.8 536.4,107.7 
		546.4,107.7 546.4,97.7 546.4,87.6 	"/>
</g>
<g>
	<g>
		<path d="M32.5,579.3v-36h-12v-6h36v6h-12v36H32.5z"/>
		<path d="M68.5,579.3v-6h-6v-36h12v24h6v-24h6v24h6v-24h12v36h-6v6h-6v-6h-6v-6h-6v6h-6v6H68.5z"/>
		<path d="M116.5,579.3v-6h12v-30h-12v-6h36v6h-12v30h12v6H116.5z"/>
		<path d="M176.5,579.3v-36h-12v-6h36v6h-12v36H176.5z"/>
		<path d="M224.5,579.3v-36h-12v-6h36v6h-12v36H224.5z"/>
		<path d="M254.5,579.3v-42h42v6h-30v12h24v6h-24v12h30v6H254.5z"/>
		<path d="M302.5,579.3v-42h36v6h6v18h-12v6h6v6h6v6h-18v-6h-6v-6h-6v12H302.5z M314.5,561.3h12v-6h6v-12h-18V561.3z"/>
		<path d="M398.5,579.3v-42h12v6h6v6h6v-6h6v-6h12v42h-12v-24h-6v12h-6v-12h-6v24H398.5z"/>
		<path d="M446.5,579.3v-30h6v-6h6v-6h18v6h6v6h6v30h-12v-12h-18v12H446.5z M458.5,561.3h18v-12h-6v-6h-6v6h-6V561.3z"/>
		<path d="M500.5,579.3v-6h12v-30h-12v-6h36v6h-12v30h12v6H500.5z"/>
		<path d="M542.5,579.3v-42h12v6h6v6h6v6h6v-18h12v42h-12v-12h-6v-6h-6v-6h-6v24H542.5z"/>
	</g>
	<g>
		<path class="st1" d="M27.5,574.3v-36h-12v-6h36v6h-12v36H27.5z"/>
		<path class="st1" d="M63.5,574.3v-6h-6v-36h12v24h6v-24h6v24h6v-24h12v36h-6v6h-6v-6h-6v-6h-6v6h-6v6H63.5z"/>
		<path class="st1" d="M111.5,574.3v-6h12v-30h-12v-6h36v6h-12v30h12v6H111.5z"/>
		<path class="st1" d="M171.5,574.3v-36h-12v-6h36v6h-12v36H171.5z"/>
		<path class="st1" d="M219.5,574.3v-36h-12v-6h36v6h-12v36H219.5z"/>
		<path class="st1" d="M249.5,574.3v-42h42v6h-30v12h24v6h-24v12h30v6H249.5z"/>
		<path class="st1" d="M297.5,574.3v-42h36v6h6v18h-12v6h6v6h6v6h-18v-6h-6v-6h-6v12H297.5z M309.5,556.3h12v-6h6v-12h-18V556.3z"/>
		<path class="st1" d="M393.5,574.3v-42h12v6h6v6h6v-6h6v-6h12v42h-12v-24h-6v12h-6v-12h-6v24H393.5z"/>
		<path class="st1" d="M441.5,574.3v-30h6v-6h6v-6h18v6h6v6h6v30h-12v-12h-18v12H441.5z M453.5,556.3h18v-12h-6v-6h-6v6h-6V556.3z"
			/>
		<path class="st1" d="M495.5,574.3v-6h12v-30h-12v-6h36v6h-12v30h12v6H495.5z"/>
		<path class="st1" d="M537.5,574.3v-42h12v6h6v6h6v6h6v-18h12v42h-12v-12h-6v-6h-6v-6h-6v24H537.5z"/>
	</g>
</g>
</svg>
