<?xml version="1.0" encoding="utf-8"?>
<!-- Generator: Adobe Illustrator 25.2.1, SVG Export Plug-In . SVG Version: 6.00 Build 0)  -->
<svg version="1.1" id="Capa_1" xmlns="http://www.w3.org/2000/svg" xmlns:xlink="http://www.w3.org/1999/xlink" x="0px" y="0px"
	 viewBox="0 0 575.6 698.9" style="enable-background:new 0 0 575.6 698.9;" xml:space="preserve">
<style type="text/css">
	.st0{enable-background:new    ;}
	.st1{fill:#FFFFFF;}
	.st2{opacity:0.73;}
	.st3{fill:#00AAAA;}
	.st4{fill:#11726B;}
	.st5{fill:#0C0C0C;}
</style>
<g>
	<g>
		<g class="st0">
			<path d="M26.6,682.6v-3.8h-3.8V675h7.6v3.8h11.4v-7.6H26.6v-3.8h-3.8v-7.6h3.8V656h19v3.8h3.8v3.8h-7.6v-3.8H30.4v7.6h15.2v3.8
				h3.8v7.6h-3.8v3.8H26.6z"/>
			<path d="M53.1,682.6v-19h3.8v-3.8h3.8V656h11.4v3.8h3.8v3.8h3.8v19h-7.6V675H60.7v7.6H53.1z M60.7,671.2h11.4v-7.6h-3.8v-3.8
				h-3.8v3.8h-3.8V671.2z"/>
			<path d="M83.5,682.6V656h26.6v3.8h-19v7.6h15.2v3.8H91.1v11.4H83.5z"/>
			<path d="M117.6,682.6v-3.8h-3.8V656h7.6v22.8h11.4V656h7.6v22.8h-3.8v3.8H117.6z"/>
			<path d="M155.6,682.6v-11.4h-3.8v-3.8H148V656h7.6v11.4h7.6V656h7.6v11.4H167v3.8h-3.8v11.4H155.6z"/>
			<path d="M178.4,682.6v-3.8h7.6v-19h-7.6V656h22.8v3.8h-7.6v19h7.6v3.8H178.4z"/>
			<path d="M204.9,682.6V656h26.6v3.8h-19v7.6h15.2v3.8h-15.2v7.6h19v3.8H204.9z"/>
			<path d="M239.1,682.6V656h7.6v22.8h15.2v3.8H239.1z"/>
			<path d="M265.6,682.6V656h19v3.8h3.8v3.8h3.8V675h-3.8v3.8h-3.8v3.8H265.6z M273.2,678.8h7.6V675h3.8v-11.4h-3.8v-3.8h-7.6V678.8
				z"/>
			<path d="M326.4,682.6V656h7.6v3.8h3.8v3.8h3.8v-3.8h3.8V656h7.6v26.6h-7.6v-15.2h-3.8v7.6h-3.8v-7.6h-3.8v15.2H326.4z"/>
			<path d="M360.5,682.6v-3.8h-3.8v-19h3.8V656h19v3.8h3.8v19h-3.8v3.8H360.5z M364.3,678.8h11.4v-19h-11.4V678.8z"/>
			<path d="M390.9,682.6v-3.8h-3.8v-19h3.8V656h19v3.8h3.8v19h-3.8v3.8H390.9z M394.7,678.8H406v-19h-11.4V678.8z"/>
			<path d="M417.4,682.6V656h7.6v3.8h3.8v3.8h3.8v3.8h3.8V656h7.6v26.6h-7.6V675h-3.8v-3.8h-3.8v-3.8H425v15.2H417.4z"/>
			<path d="M447.8,682.6v-19h3.8v-3.8h3.8V656h11.4v3.8h3.8v3.8h3.8v19h-7.6V675h-11.4v7.6H447.8z M455.4,671.2h11.4v-7.6H463v-3.8
				h-3.8v3.8h-3.8V671.2z"/>
			<path d="M478.1,682.6V656h22.8v3.8h3.8v11.4h-7.6v3.8h3.8v3.8h3.8v3.8h-11.4v-3.8h-3.8V675h-3.8v7.6H478.1z M485.7,671.2h7.6
				v-3.8h3.8v-7.6h-11.4V671.2z"/>
			<path d="M508.5,682.6V656h7.6v3.8h3.8v3.8h3.8v-3.8h3.8V656h7.6v26.6h-7.6v-15.2h-3.8v7.6h-3.8v-7.6h-3.8v15.2H508.5z"/>
			<path d="M550.2,682.6v-11.4h-3.8v-3.8h-3.8V656h7.6v11.4h7.6V656h7.6v11.4h-3.8v3.8h-3.8v11.4H550.2z"/>
		</g>
		<g class="st0">
			<path class="st1" d="M21.2,674.9v-3.8h-3.8v-3.8H25v3.8h11.4v-7.6H21.2v-3.8h-3.8v-7.6h3.8v-3.8h19v3.8h3.8v3.8h-7.6v-3.8H25v7.6
				h15.2v3.8h3.8v7.6h-3.8v3.8H21.2z"/>
			<path class="st1" d="M47.7,674.9v-19h3.8v-3.8h3.8v-3.8h11.4v3.8h3.8v3.8h3.8v19h-7.6v-7.6H55.3v7.6H47.7z M55.3,663.5h11.4v-7.6
				h-3.8v-3.8h-3.8v3.8h-3.8V663.5z"/>
			<path class="st1" d="M78.1,674.9v-26.6h26.6v3.8h-19v7.6h15.2v3.8H85.7v11.4H78.1z"/>
			<path class="st1" d="M112.2,674.9v-3.8h-3.8v-22.8h7.6v22.8h11.4v-22.8h7.6v22.8h-3.8v3.8H112.2z"/>
			<path class="st1" d="M150.2,674.9v-11.4h-3.8v-3.8h-3.8v-11.4h7.6v11.4h7.6v-11.4h7.6v11.4h-3.8v3.8h-3.8v11.4H150.2z"/>
			<path class="st1" d="M172.9,674.9v-3.8h7.6v-19h-7.6v-3.8h22.8v3.8h-7.6v19h7.6v3.8H172.9z"/>
			<path class="st1" d="M199.5,674.9v-26.6h26.6v3.8h-19v7.6h15.2v3.8h-15.2v7.6h19v3.8H199.5z"/>
			<path class="st1" d="M233.7,674.9v-26.6h7.6v22.8h15.2v3.8H233.7z"/>
			<path class="st1" d="M260.2,674.9v-26.6h19v3.8h3.8v3.8h3.8v11.4H283v3.8h-3.8v3.8H260.2z M267.8,671.1h7.6v-3.8h3.8v-11.4h-3.8
				v-3.8h-7.6V671.1z"/>
			<path class="st1" d="M320.9,674.9v-26.6h7.6v3.8h3.8v3.8h3.8v-3.8h3.8v-3.8h7.6v26.6h-7.6v-15.2h-3.8v7.6h-3.8v-7.6h-3.8v15.2
				H320.9z"/>
			<path class="st1" d="M355.1,674.9v-3.8h-3.8v-19h3.8v-3.8h19v3.8h3.8v19H374v3.8H355.1z M358.9,671.1h11.4v-19h-11.4V671.1z"/>
			<path class="st1" d="M385.4,674.9v-3.8h-3.8v-19h3.8v-3.8h19v3.8h3.8v19h-3.8v3.8H385.4z M389.2,671.1h11.4v-19h-11.4V671.1z"/>
			<path class="st1" d="M412,674.9v-26.6h7.6v3.8h3.8v3.8h3.8v3.8h3.8v-11.4h7.6v26.6H431v-7.6h-3.8v-3.8h-3.8v-3.8h-3.8v15.2H412z"
				/>
			<path class="st1" d="M442.4,674.9v-19h3.8v-3.8h3.8v-3.8h11.4v3.8h3.8v3.8h3.8v19h-7.6v-7.6h-11.4v7.6H442.4z M449.9,663.5h11.4
				v-7.6h-3.8v-3.8h-3.8v3.8h-3.8V663.5z"/>
			<path class="st1" d="M472.7,674.9v-26.6h22.8v3.8h3.8v11.4h-7.6v3.8h3.8v3.8h3.8v3.8h-11.4v-3.8h-3.8v-3.8h-3.8v7.6H472.7z
				 M480.3,663.5h7.6v-3.8h3.8v-7.6h-11.4V663.5z"/>
			<path class="st1" d="M503.1,674.9v-26.6h7.6v3.8h3.8v3.8h3.8v-3.8h3.8v-3.8h7.6v26.6H522v-15.2h-3.8v7.6h-3.8v-7.6h-3.8v15.2
				H503.1z"/>
			<path class="st1" d="M544.8,674.9v-11.4H541v-3.8h-3.8v-11.4h7.6v11.4h7.6v-11.4h7.6v11.4h-3.8v3.8h-3.8v11.4H544.8z"/>
		</g>
	</g>
</g>
<g>
	<g class="st2">
		<g>
			<path class="st3" d="M288.9,0C129,0-0.6,129.6-0.6,289.5C-0.6,449.4,129,579,288.9,579c159.9,0,289.5-129.6,289.5-289.5
				C578.4,129.6,448.8,0,288.9,0z M288.9,517.2c-125.7,0-227.7-101.9-227.7-227.7c0-125.7,101.9-227.7,227.7-227.7
				c125.7,0,227.7,101.9,227.7,227.7C516.6,415.2,414.7,517.2,288.9,517.2z"/>
		</g>
	</g>
	<g>
		<g>
			<circle class="st3" cx="288.9" cy="289.5" r="212.2"/>
		</g>
		<g>
			<path class="st1" d="M425.9,363.1c-2.9-0.5-5.8-0.2-8.3,0.6c-2.3,0.7-4.8,0.2-6.5-1.5L381,332.2c-0.6-0.6-1.1-1.2-1.5-1.8
				l-43-64.5c-0.7-1.1-0.6-2.6,0.3-3.5l5.1-5.1l35.8-35.8c1.7-1.7,4.3-2.2,6.6-1.4c2.9,1,6.1,1.2,9.5,0.5
				c7.1-1.5,12.6-7.4,13.8-14.5c2-12.2-8.5-22.6-20.6-20.6c-7.4,1.2-13.4,7.2-14.6,14.6c-0.5,2.9-0.3,5.7,0.5,8.2
				c0.7,2.3,0.2,4.7-1.5,6.4l-34.7,34.7L332,254c-1.1,1.1-2.8,0.9-3.6-0.4l-32.7-49.1c-1.3-2-2-4.3-2-6.6v-39c0-2.5,1.4-4.7,3.6-5.8
				c6.6-3.5,10.8-10.9,9.3-19.1c-1.3-7.2-7-12.9-14.2-14.3c-11.3-2.1-21.3,6.6-21.3,17.5c0,6.9,3.9,12.8,9.6,15.8
				c2.2,1.1,3.6,3.4,3.6,5.8v39c0,2.4-0.7,4.7-2,6.6l-32.8,49.1c-0.8,1.2-2.6,1.4-3.6,0.4l-39.3-39.3c-1.7-1.7-2.2-4.1-1.5-6.4
				c0.8-2.5,1-5.3,0.5-8.2c-1.2-7.4-7.2-13.4-14.6-14.6c-12.2-2-22.6,8.4-20.6,20.6c1.1,7.1,6.7,13,13.8,14.5
				c3.4,0.7,6.6,0.5,9.5-0.5c2.3-0.8,4.9-0.3,6.6,1.4l81.2,81.2c1.9,1.9,2.9,4.4,2.9,7v19.9h-70.4c-1.6,0-2.6-1.8-1.7-3.1l29.7-44.5
				c1-1.5,1.2-3.6,0.3-5.1c-1.9-3.1-6.1-3-7.9-0.2l-35.8,53.7c-0.4,0.7-0.9,1.3-1.5,1.8l-30.1,30.1c-1.7,1.7-4.2,2.2-6.5,1.5
				c-2.6-0.8-5.4-1.1-8.3-0.6c-7.5,1.2-13.5,7.2-14.7,14.7c-1.9,12.1,8.4,22.5,20.6,20.6c7.5-1.2,13.5-7.2,14.7-14.7
				c0.5-2.9,0.2-5.8-0.6-8.3c-0.7-2.3-0.2-4.8,1.5-6.5l26.4-26.4c2.2-2.2,5.3-3.5,8.4-3.5h76v39.5c0,2.4-1.3,4.5-3.4,5.6
				c-2.3,1.2-4.3,2.9-5.9,4.9c-2.4,3.1-3.8,6.9-3.8,11.1c0.1,9.5,7.9,17.5,17.4,17.8c10.1,0.3,18.4-7.8,18.4-17.9
				c0-4.2-1.4-8-3.8-11c-1.6-2-3.6-3.7-5.9-4.9c-2.1-1.1-3.4-3.2-3.4-5.6v-68.8c0-2.6,1-5.1,2.9-7l6.5-6.5l15.9-15.9
				c1.4-1.4,2-3.6,1.1-5.4c-1.4-3.1-5.3-3.7-7.6-1.4l-21.8,21.8c-0.9,0.9-2.4,0.9-3.4,0l-31-31c-0.9-0.9-1.1-2.4-0.3-3.5l31.4-47
				c0.8-1.2,2.5-1.2,3.3,0l75.1,112.6c0.9,1.3-0.1,3.1-1.7,3.1h-56.1c-2.2,0-4.3,1.4-4.8,3.5c-0.7,3.1,1.6,5.8,4.5,5.8h62
				c3.2,0,6.2,1.3,8.4,3.5l26.4,26.4c1.7,1.7,2.2,4.2,1.5,6.5c-0.8,2.6-1.1,5.4-0.6,8.3c1.2,7.5,7.2,13.5,14.7,14.7
				c12.1,1.9,22.5-8.4,20.6-20.6C439.4,370.3,433.4,364.3,425.9,363.1L425.9,363.1z M387.7,194.8c6.5-1.7,12.2,4.1,10.5,10.5
				c-0.8,2.8-3.1,5.1-5.9,5.9c-6.5,1.7-12.2-4-10.5-10.5C382.6,197.9,384.9,195.6,387.7,194.8L387.7,194.8z M190.3,211.3
				c-6.5,1.7-12.2-4-10.5-10.5c0.8-2.8,3-5.1,5.9-5.9c6.5-1.7,12.2,4,10.5,10.5C195.4,208.3,193.1,210.6,190.3,211.3L190.3,211.3z
				 M157.2,388.9c-6.5,1.7-12.2-4-10.5-10.5c0.8-2.8,3-5.1,5.9-5.9c6.5-1.7,12.2,4,10.5,10.5C162.3,385.9,160,388.2,157.2,388.9
				L157.2,388.9z M296.5,396.1c0.6,1.2,0.9,2.5,0.9,3.8c0,5.1-4.5,9.1-9.7,8.4c-2.7-0.4-5.1-2.1-6.4-4.6c-1.3-2.7-1.1-5.4,0-7.7
				c1.4-2.8,4.3-4.7,7.6-4.7C292.2,391.5,295.1,393.4,296.5,396.1L296.5,396.1z M280.7,139.6c-1.7-6.5,4-12.2,10.5-10.5
				c2.8,0.8,5.1,3,5.9,5.9c1.7,6.5-4,12.2-10.5,10.5C283.8,144.7,281.5,142.4,280.7,139.6L280.7,139.6z M425.3,388.9
				c-6.5,1.7-12.2-4-10.5-10.5c0.8-2.8,3-5.1,5.9-5.9c6.5-1.7,12.2,4,10.5,10.5C430.4,385.9,428.1,388.2,425.3,388.9"/>
		</g>
		<g>
			<g>
				<g>
					<path class="st4" d="M288.9,84.6c-52.6,0-100.6,19.9-136.9,52.6c-0.2,0.2-0.5,0.4-0.8,0.6l0,0C110,175.4,84,229.5,84,289.5
						c0,62.4,28.1,118.4,72.2,156c0.1,0.1,0.2,0.1,0.3,0.2c0.9,0.8,1.9,1.6,2.8,2.3c0.5,0.4,1,0.8,1.6,1.3c0.8,0.7,1.7,1.4,2.6,2
						c0,0,0.1,0.1,0.1,0.1c17.3,13.4,36.9,24.2,58,31.5c21.1,7.4,43.8,11.4,67.4,11.4c113,0,204.9-91.9,204.9-204.9
						S401.9,84.6,288.9,84.6z M475.2,239.9h-14.1c-1.6,0-2.5-1.8-1.7-3.1l10-15C471.6,227.6,473.6,233.7,475.2,239.9z M109.5,219
						l11.8,17.7c0.9,1.3-0.1,3.1-1.7,3.1h-17C104.5,232.7,106.8,225.8,109.5,219z M214.1,467.2l16.7-25c0.8-1.2,2.5-1.2,3.3,0
						l25.2,37.8C243.5,477.6,228.4,473.2,214.1,467.2z M230.1,373.8c-2.8-0.8-5.1-3-5.9-5.9c-1.7-6.5,4-12.2,10.5-10.5
						c2.8,0.8,5.1,3,5.9,5.9C242.3,369.7,236.6,375.5,230.1,373.8z M457.9,330.6c-2.8-0.7-5.1-3-5.9-5.9c-1.7-6.5,4-12.2,10.5-10.5
						c2.8,0.8,5.1,3,5.9,5.9C470.1,326.5,464.4,332.3,457.9,330.6z M464.9,344c0-2.5,1.4-4.7,3.6-5.8c6.6-3.5,10.8-10.9,9.3-19.1
						c-1.3-7.1-7-12.9-14.2-14.3c-11.3-2.1-21.3,6.6-21.3,17.5c0,6.9,3.9,12.8,9.6,15.8c2.2,1.1,3.6,3.4,3.6,5.8v39
						c0,2.4-0.7,4.7-2,6.6l-9,13.6c-8.9,12.1-19.1,23.1-30.5,32.8l-36.2-36.2c-1.7-1.7-2.2-4.2-1.5-6.4c0.8-2.5,1-5.3,0.5-8.2
						c-1.2-7.4-7.2-13.3-14.6-14.6c-12.2-2-22.6,8.4-20.6,20.6c1.1,7.1,6.7,13,13.8,14.5c3.4,0.7,6.6,0.5,9.5-0.5
						c2.3-0.8,4.9-0.3,6.6,1.4l35.3,35.3c-32.6,25.3-73.5,40.3-117.8,40.3h-0.2l32.6-32.6c1.7-1.7,4.3-2.2,6.6-1.4
						c2.9,1,6.1,1.2,9.5,0.5c7.1-1.5,12.6-7.4,13.8-14.5c2-12.2-8.5-22.6-20.6-20.6c-7.4,1.2-13.3,7.2-14.6,14.6
						c-0.5,2.9-0.3,5.7,0.5,8.2c0.7,2.3,0.2,4.7-1.5,6.4L276,481.8c-1.5-0.1-3-0.2-4.4-0.4l-32.4-48.7c-1.3-2-2-4.3-2-6.6v-39
						c0-2.5,1.4-4.7,3.6-5.8c6.6-3.5,10.8-10.9,9.3-19.1c-1.3-7.2-7-12.9-14.2-14.3c-11.4-2.1-21.3,6.6-21.3,17.5
						c0,6.9,3.9,12.8,9.6,15.8c2.2,1.1,3.6,3.4,3.6,5.8v39c0,2.4-0.7,4.7-2,6.6l-20.3,30.4c-11.8-5.7-22.9-12.6-33.2-20.4l0.7-0.7
						c1.7-1.7,4.3-2.2,6.6-1.4c2.9,1,6.1,1.2,9.5,0.5c7.1-1.5,12.6-7.4,13.7-14.5c2-12.2-8.5-22.6-20.6-20.6
						c-7.4,1.2-13.4,7.2-14.6,14.6c-0.5,2.9-0.3,5.6,0.5,8.2c0.7,2.3,0.2,4.7-1.5,6.4l-1.6,1.6c-24.5-20.7-43.9-47.3-55.7-77.7
						l14.9-14.9c1.7-1.7,4.3-2.2,6.6-1.4c2.9,1,6.1,1.2,9.5,0.5c7.1-1.5,12.6-7.4,13.8-14.5c2-12.2-8.5-22.6-20.6-20.6
						c-7.4,1.2-13.3,7.2-14.6,14.6c-0.5,2.9-0.3,5.6,0.5,8.2c0.7,2.3,0.2,4.7-1.5,6.4l-12,12c-6.2-18.9-9.6-39-9.6-59.9
						c0-13.8,1.5-27.3,4.2-40.3h24.9c3.2,0,6.2,1.3,8.5,3.5l26.4,26.4c1.7,1.7,2.2,4.2,1.5,6.5c-0.8,2.6-1.1,5.4-0.6,8.3
						c1.2,7.5,7.2,13.5,14.7,14.7c12.1,1.9,22.5-8.4,20.6-20.6c-1.2-7.5-7.2-13.5-14.7-14.7c-2.9-0.5-5.8-0.2-8.3,0.6
						c-2.3,0.7-4.8,0.2-6.5-1.5l-30.1-30.1c-0.6-0.6-1.1-1.2-1.5-1.8l-21.3-31.9c11-23.8,26.7-44.9,45.9-62.2l0.7,0.7
						c1.7,1.7,2.2,4.2,1.5,6.5c-0.8,2.6-1.1,5.4-0.6,8.3c1.2,7.4,7.2,13.5,14.7,14.7c12.1,1.9,22.5-8.4,20.6-20.6
						c-1.2-7.5-7.2-13.5-14.7-14.7c-2.9-0.5-5.8-0.2-8.3,0.6c-2.3,0.7-4.8,0.2-6.5-1.5l-0.2-0.2c24.2-19.9,53.4-34,85.3-40.2l-23,23
						c-1.7,1.7-4.2,2.2-6.5,1.5c-2.6-0.8-5.4-1.1-8.3-0.6c-7.5,1.2-13.5,7.2-14.7,14.7c-2,12.1,8.4,22.5,20.6,20.6
						c7.5-1.2,13.5-7.2,14.7-14.7c0.5-2.9,0.2-5.8-0.6-8.3c-0.7-2.3-0.2-4.8,1.5-6.5l26.4-26.4c0.5-0.5,1-0.9,1.6-1.3
						c0.7-0.5,1.4-0.9,2.2-1.2c0.1,0,0.1-0.1,0.2-0.1c4.7-2.3,11.4-4.1,20.6-4.1c24.9,0,37.4,3.2,37.4,3.2
						c7.6,1.4,15.1,3.3,22.4,5.6v34c0,2.3-1.3,4.5-3.4,5.6c-2.3,1.2-4.3,2.9-5.9,4.9c-2.4,3-3.8,6.9-3.8,11.1
						c0.1,9.5,7.9,17.5,17.4,17.8c10.1,0.3,18.4-7.8,18.4-17.9c0-4.2-1.4-8-3.8-11c-1.6-2-3.6-3.7-5.9-4.9c-2.1-1.1-3.4-3.2-3.4-5.6
						v-30.7c38.8,14.5,71.7,41,94.1,75.1l-9.7,9.7c-1.7,1.7-4.2,2.2-6.5,1.5c-2.6-0.8-5.4-1.1-8.3-0.6c-7.5,1.2-13.5,7.2-14.7,14.7
						c-1.9,12.1,8.4,22.5,20.6,20.6c7.5-1.2,13.5-7.2,14.7-14.7c0.5-3,0.2-5.8-0.6-8.3c-0.7-2.3-0.2-4.8,1.5-6.5l8.2-8.2
						c3.7,6.2,7,12.6,9.9,19.3l-19.5,29.3c-0.4,0.7-0.9,1.3-1.5,1.8L414,272.5c-1.7,1.7-4.2,2.2-6.5,1.5c-2.6-0.8-5.4-1.1-8.3-0.6
						c-7.4,1.2-13.5,7.2-14.7,14.7c-1.9,12.1,8.4,22.5,20.6,20.6c7.5-1.2,13.5-7.2,14.7-14.7c0.5-3,0.2-5.8-0.6-8.3
						c-0.7-2.3-0.2-4.8,1.5-6.5l26.4-26.4c2.2-2.2,5.3-3.5,8.4-3.5h22c2.8,13,4.2,26.5,4.2,40.3c0,28-6,54.7-16.8,78.7V344z
						 M367.4,390.6c-0.8,2.8-3,5.1-5.9,5.9c-6.5,1.7-12.2-4-10.5-10.5c0.8-2.8,3-5.1,5.9-5.9C363.4,378.4,369.2,384.1,367.4,390.6z
						 M325.3,429c0.7-2.8,3-5.1,5.9-5.9c6.5-1.7,12.2,4,10.5,10.5c-0.8,2.8-3,5.1-5.9,5.9C329.3,441.3,323.6,435.5,325.3,429z
						 M176.9,421.4c0.8-2.8,3-5.1,5.9-5.9c6.5-1.7,12.2,4.1,10.5,10.5c-0.8,2.8-3.1,5.1-5.9,5.9C181,433.6,175.2,427.9,176.9,421.4z
						 M128.1,323.6c0.8-2.8,3.1-5.1,5.9-5.9c6.5-1.7,12.2,4,10.5,10.5c-0.8,2.8-3,5.1-5.9,5.9C132.1,335.8,126.4,330,128.1,323.6z
						 M170.4,288.7c0.7-2.8,3-5.1,5.9-5.9c6.5-1.7,12.2,4,10.5,10.5c-0.8,2.8-3.1,5.1-5.9,5.9C174.4,300.9,168.7,295.1,170.4,288.7z
						 M170.8,156.7c0.8-2.8,3-5.1,5.9-5.9c6.5-1.7,12.2,4,10.5,10.5c-0.8,2.8-3,5.1-5.9,5.9C174.8,169,169.1,163.2,170.8,156.7z
						 M225.5,144.1c-0.8,2.8-3,5.1-5.9,5.9c-6.5,1.7-12.2-4.1-10.5-10.5c0.8-2.8,3-5.1,5.9-5.9C221.5,131.8,227.2,137.6,225.5,144.1
						z M351.3,152.5c3.3,0,6.2,1.9,7.6,4.7c0.6,1.2,0.9,2.5,0.9,3.8c0,5.1-4.5,9.1-9.7,8.4c-2.7-0.4-5.1-2.1-6.4-4.6
						c-1.3-2.7-1.1-5.4,0-7.7C345.2,154.4,348,152.5,351.3,152.5z M436.7,214.4c-0.8,2.8-3,5.1-5.9,5.9c-6.5,1.7-12.2-4-10.5-10.5
						c0.8-2.8,3-5.1,5.9-5.9C432.7,202.2,438.4,207.9,436.7,214.4z M410.4,293.3c-0.8,2.8-3,5.1-5.9,5.9c-6.5,1.7-12.2-4-10.5-10.5
						c0.8-2.8,3-5.1,5.9-5.9C406.3,281.1,412.1,286.8,410.4,293.3z"/>
				</g>
			</g>
			<g>
				<g>
					<path class="st4" d="M164.9,254.9L164.9,254.9c-6.5,1.7-12.2-4-10.5-10.5c0.8-2.8,3-5.1,5.9-5.9c6.5-1.7,12.2,4,10.5,10.5
						C170,251.9,167.7,254.2,164.9,254.9"/>
				</g>
			</g>
			<g>
				<g>
					<path class="st4" d="M211.1,183.3L211.1,183.3c-6.5,1.7-12.2-4-10.5-10.5c0.8-2.8,3-5.1,5.9-5.9c6.5-1.7,12.2,4,10.5,10.5
						C216.3,180.2,214,182.5,211.1,183.3"/>
				</g>
			</g>
			<g>
				<g>
					<path class="st4" d="M147.9,237.9L147.9,237.9c-6.5,1.7-12.2-4-10.5-10.5c0.8-2.8,3-5.1,5.9-5.9c6.5-1.7,12.2,4,10.5,10.5
						C153,234.9,150.7,237.2,147.9,237.9"/>
				</g>
			</g>
			<g>
				<g>
					<path class="st4" d="M329.7,405.9L329.7,405.9c-6.5,1.7-12.2-4-10.5-10.5c0.8-2.8,3-5.1,5.9-5.9c6.5-1.7,12.2,4,10.5,10.5
						C334.8,402.9,332.5,405.2,329.7,405.9"/>
				</g>
			</g>
			<g>
				<g>
					<path class="st4" d="M456.9,276.8L456.9,276.8c-6.5,1.7-12.2-4-10.5-10.5c0.8-2.8,3-5.1,5.9-5.9c6.5-1.7,12.2,4,10.5,10.5
						C462,273.8,459.7,276,456.9,276.8"/>
				</g>
			</g>
			<g>
				<g>
					<path class="st4" d="M439.3,292.4L439.3,292.4c-6.5,1.7-12.2-4-10.5-10.5c0.8-2.8,3-5.1,5.9-5.9c6.5-1.7,12.2,4,10.5,10.5
						C444.5,289.4,442.2,291.7,439.3,292.4"/>
				</g>
			</g>
			<g>
				<g>
					<path class="st4" d="M334.2,123.6L334.2,123.6c-6.5,1.7-12.2-4-10.5-10.5c0.8-2.8,3-5.1,5.9-5.9c6.5-1.7,12.2,4,10.5,10.5
						C339.3,120.5,337,122.8,334.2,123.6"/>
				</g>
			</g>
			<g>
				<g>
					<path class="st4" d="M335.8,237.6L335.8,237.6c-6.5,1.7-12.2-4-10.5-10.5c0.8-2.8,3-5.1,5.9-5.9c6.5-1.7,12.2,4,10.5,10.5
						C340.9,234.6,338.6,236.9,335.8,237.6"/>
				</g>
			</g>
			<g>
				<g>
					<path class="st4" d="M353.7,214.5L353.7,214.5c-6.5,1.7-12.2-4-10.5-10.5c0.8-2.8,3-5.1,5.9-5.9c6.5-1.7,12.2,4,10.5,10.5
						C358.8,211.4,356.5,213.7,353.7,214.5"/>
				</g>
			</g>
			<g>
				<g>
					<path class="st4" d="M190.3,396.5L190.3,396.5c-6.5,1.7-12.2-4-10.5-10.5c0.8-2.8,3-5.1,5.9-5.9c6.5-1.7,12.2,4,10.5,10.5
						C195.4,393.4,193.1,395.7,190.3,396.5"/>
				</g>
			</g>
			<g>
				<g>
					<path class="st4" d="M124,300.2L124,300.2c-6.5,1.7-12.2-4-10.5-10.5c0.8-2.8,3-5.1,5.9-5.9c6.5-1.7,12.2,4,10.5,10.5
						C129.1,297.2,126.8,299.5,124,300.2"/>
				</g>
			</g>
			<g>
				<g>
					<path class="st4" d="M124,276.4L124,276.4c-6.5,1.7-12.2-4-10.5-10.5c0.8-2.8,3-5.1,5.9-5.9c6.5-1.7,12.2,4,10.5,10.5
						C129.1,273.4,126.8,275.7,124,276.4"/>
				</g>
			</g>
			<g>
				<g>
					<path class="st4" d="M367.2,431L367.2,431c-6.5,1.7-12.2-4-10.5-10.5c0.8-2.8,3-5.1,5.9-5.9c6.5-1.7,12.2,4,10.5,10.5
						C372.3,428,370,430.3,367.2,431"/>
				</g>
			</g>
			<g>
				<g>
					<path class="st4" d="M392.3,396.5L392.3,396.5c-6.5,1.7-12.2-4-10.5-10.5c0.8-2.8,3-5.1,5.9-5.9c6.5-1.7,12.2,4,10.5,10.5
						C397.5,393.4,395.2,395.7,392.3,396.5"/>
				</g>
			</g>
			<g>
				<g>
					<path class="st4" d="M383.8,444.8L383.8,444.8c-6.5,1.7-12.2-4-10.5-10.5c0.8-2.8,3-5.1,5.9-5.9c6.5-1.7,12.2,4,10.5,10.5
						C388.9,441.8,386.7,444.1,383.8,444.8"/>
				</g>
			</g>
			<g>
				<g>
					<path class="st4" d="M278,468.8L278,468.8c-6.5,1.7-12.2-4-10.5-10.5c0.8-2.8,3-5.1,5.9-5.9c6.5-1.7,12.2,4,10.5,10.5
						C283.1,465.8,280.8,468.1,278,468.8"/>
				</g>
			</g>
			<g>
				<g>
					<path class="st4" d="M314.2,123.6L314.2,123.6c-6.5,1.7-12.2-4-10.5-10.5c0.8-2.8,3-5.1,5.9-5.9c6.5-1.7,12.2,4,10.5,10.5
						C319.3,120.5,317,122.8,314.2,123.6"/>
				</g>
			</g>
			<g>
				<rect x="89.2" y="263.6" class="st4" width="26.9" height="9.4"/>
			</g>
			<g>
				<rect x="455.3" y="263.9" class="st4" width="26.9" height="9.4"/>
			</g>
			<g>
				<rect x="376.8" y="438.7" class="st4" width="9.4" height="26.9"/>
			</g>
			<g>
				<path class="st4" d="M328.8,221.7v-17.5c0-2.6,2.1-4.7,4.7-4.7l0,0c2.6,0,4.7,2.1,4.7,4.7v17.5c0,2.6-2.1,4.7-4.7,4.7l0,0
					C330.9,226.4,328.8,224.3,328.8,221.7z"/>
			</g>
			<g>
				<path class="st4" d="M179.8,251.4h-17.5c-2.6,0-4.7-2.1-4.7-4.7v0c0-2.6,2.1-4.7,4.7-4.7h17.5c2.6,0,4.7,2.1,4.7,4.7v0
					C184.5,249.3,182.4,251.4,179.8,251.4z"/>
			</g>
			<g>
				<path class="st4" d="M256.9,179.8h-43.5c-2.6,0-4.7-2.1-4.7-4.7v0c0-2.6,2.1-4.7,4.7-4.7h43.5c2.6,0,4.7,2.1,4.7,4.7v0
					C261.6,177.7,259.5,179.8,256.9,179.8z"/>
			</g>
			<g>
				<path class="st4" d="M432.3,308.2v-17.5c0-2.6,2.1-4.7,4.7-4.7l0,0c2.6,0,4.7,2.1,4.7,4.7v17.5c0,2.6-2.1,4.7-4.7,4.7l0,0
					C434.4,312.9,432.3,310.8,432.3,308.2z"/>
			</g>
			<g>
				<path class="st4" d="M270.3,453.2v-17.5c0-2.6,2.1-4.7,4.7-4.7h0c2.6,0,4.7,2.1,4.7,4.7v17.5c0,2.6-2.1,4.7-4.7,4.7h0
					C272.4,457.9,270.3,455.8,270.3,453.2z"/>
			</g>
			<g>
				<rect x="140.9" y="150.3" class="st4" width="9.4" height="77.7"/>
			</g>
			<g>
				<rect x="307.2" y="89.9" class="st4" width="9.4" height="28.2"/>
			</g>
		</g>
	</g>
	<g>
		<path class="st5" d="M49.1,298l-5-0.1l-0.1,5l-5-0.1l0.3-10.1l5,0.1l0.4-15.1l-10.1-0.3L34,297.6l-5-0.1l-0.1,5l-10.1-0.3l0.1-5
			l-5-0.1l0.7-25.2l5,0.1l0.1-5l5,0.1l-0.3,10.1l-5-0.1l-0.4,15.1l10.1,0.3l0.5-20.1l5,0.1l0.1-5l10.1,0.3l-0.1,5l5,0.1L49.1,298z"
			/>
		<path class="st5" d="M50,263.4l-24.7-4.8l1-4.9l-4.9-1l1-4.9l-4.9-1l2.9-14.8l4.9,1l1-4.9l4.9,1l1-4.9l24.7,4.8l-1.9,9.9l-9.9-1.9
			L42,251.6l9.9,1.9L50,263.4z M37.1,250.6l2.9-14.8l-9.9-1.9l-1,4.9l-4.9-1l-1,4.9l4.9,1l-1,4.9L37.1,250.6z"/>
		<path class="st5" d="M57.6,224.1l-33-12.4l12.4-33l4.7,1.8l-8.9,23.6l9.4,3.5l7.1-18.9l4.7,1.8L47,209.4l14.1,5.3L57.6,224.1z"/>
		<path class="st5" d="M74.1,182.4l-4.4-2.5l-2.5,4.4l-26.1-15.2l5.1-8.7l26.1,15.2l7.6-13.1l-26.1-15.2l5.1-8.7L85,153.8l-2.5,4.4
			l4.4,2.5L74.1,182.4z"/>
		<path class="st5" d="M101.2,140.8l-11.6-9.6l-3.2,3.9l-3.9-3.2l-3.2,3.9l-11.6-9.6l6.4-7.8l11.6,9.6l6.4-7.8l-11.6-9.6l6.4-7.8
			l11.6,9.6l-3.2,3.9l3.9,3.2l-3.2,3.9l11.6,9.6L101.2,140.8z"/>
		<path class="st5" d="M120.8,118.3l-3.3-3.8l7.6-6.6l-16.5-19l-7.6,6.6l-3.3-3.8l22.8-19.8l3.3,3.8l-7.6,6.6l16.5,19l7.6-6.6
			l3.3,3.8L120.8,118.3z"/>
		<path class="st5" d="M147.1,95.5l-18.4-30.1L158.8,47l2.6,4.3L140,64.5l5.2,8.6l17.2-10.5l2.6,4.3l-17.2,10.5l5.2,8.6l21.5-13.1
			l2.6,4.3L147.1,95.5z"/>
		<path class="st5" d="M185.7,72.8l-13.1-32.7l9.3-3.8l11.3,28l18.7-7.5l1.9,4.7L185.7,72.8z"/>
		<path class="st5" d="M218.1,59.8l-7.5-34.4l24.6-5.4l1.1,4.9l4.9-1.1l1.1,4.9l4.9-1.1l3.2,14.8l-4.9,1.1l1.1,4.9l-4.9,1.1l1.1,4.9
			L218.1,59.8z M226.8,52.7l9.8-2.1l-1.1-4.9l4.9-1.1l-3.2-14.8l-4.9,1.1l-1.1-4.9l-9.8,2.1L226.8,52.7z"/>
		<path class="st5" d="M296.8,49.3l4.1-35l10,1.2l-0.6,5l5,0.6l-0.6,5l5,0.6l0.6-5l5,0.6l0.6-5l10,1.2l-4.1,35l-10-1.2l2.3-20
			l-5-0.6l-1.2,10l-5-0.6l1.2-10l-5-0.6l-2.3,20L296.8,49.3z"/>
		<path class="st5" d="M341.2,55.3l1.4-4.8l-4.8-1.4l7-24.2l4.8,1.4l1.4-4.8l24.2,7l-1.4,4.8l4.8,1.4l-7,24.2l-4.8-1.4l-1.4,4.8
			L341.2,55.3z M347.5,51.8L362,56l7-24.2l-14.5-4.2L347.5,51.8z"/>
		<path class="st5" d="M379.3,67.2l2.2-4.5l-4.5-2.2l10.9-22.7l4.5,2.2l2.2-4.5l22.7,10.9l-2.2,4.5l4.5,2.2l-10.9,22.7l-4.5-2.2
			l-2.2,4.5L379.3,67.2z M386,64.8l13.6,6.6l10.9-22.7L397,42.1L386,64.8z"/>
		<path class="st5" d="M410.7,82.3L431,53.5l8.2,5.8l-2.9,4.1l4.1,2.9l-2.9,4.1l4.1,2.9l-2.9,4.1l4.1,2.9l8.7-12.3l8.2,5.8
			l-20.4,28.8l-8.2-5.8l5.8-8.2l-4.1-2.9l2.9-4.1l-4.1-2.9l2.9-4.1l-4.1-2.9l-11.6,16.4L410.7,82.3z"/>
		<path class="st5" d="M443.2,105.2l17.7-17.9l3.6,3.5l3.5-3.6l3.6,3.5l3.5-3.6l10.7,10.6l-3.5,3.6l3.6,3.5l-3.5,3.6l3.6,3.5
			L468.2,130l-7.2-7.1l7.1-7.2l-10.7-10.6l-7.1,7.2L443.2,105.2z M461,101.6l10.7,10.6l7.1-7.2l-3.6-3.5l3.5-3.6l-3.6-3.5l-3.5,3.6
			l-3.6-3.5L461,101.6z"/>
		<path class="st5" d="M471.5,133.2l28.6-20.6l17.7,24.5l-4.1,2.9l2.9,4.1l-12.3,8.8l-5.9-8.2l-4.1,2.9l2.9,4.1l-4.1,2.9l2.9,4.1
			l-4.1,2.9l-8.8-12.3l4.1-2.9l-2.9-4.1l4.1-2.9l-2.9-4.1l-8.2,5.9L471.5,133.2z M489.6,132.5l5.9,8.2l4.1-2.9l2.9,4.1l8.2-5.9
			l-8.8-12.3L489.6,132.5z"/>
		<path class="st5" d="M494.9,165.7l31.6-15.6l4.5,9l-4.5,2.2l2.2,4.5l-4.5,2.2l2.2,4.5l4.5-2.2l2.2,4.5l4.5-2.2l4.5,9l-31.6,15.6
			l-4.5-9l18.1-8.9l-2.2-4.5l-9,4.5l-2.2-4.5l9-4.5l-2.2-4.5l-18.1,8.9L494.9,165.7z"/>
		<path class="st5" d="M516.9,215.8l14.5-4.3l-1.4-4.8l4.8-1.4l-1.4-4.8l14.5-4.3l2.9,9.6l-14.5,4.3l2.9,9.6l14.5-4.3l2.9,9.6
			l-14.5,4.3l-1.4-4.8l-4.8,1.4l-1.4-4.8l-14.5,4.3L516.9,215.8z"/>
		<path class="st5" d="M528.8,284l5,0.2l0.2-5l5,0.2l-0.4,10.1l-5-0.2l-0.6,15.1l10.1,0.4l0.8-20.1l5,0.2l0.2-5l10.1,0.4l-0.2,5
			l5,0.2l-1,25.2l-5-0.2l-0.2,5l-5-0.2l0.4-10.1l5,0.2l0.6-15.1l-10.1-0.4l-0.8,20.1l-5-0.2l-0.2,5l-10.1-0.4l0.2-5l-5-0.2
			L528.8,284z"/>
		<path class="st5" d="M527.5,319l24.6,5.1l-1,4.9l4.9,1l-1,4.9l4.9,1l-3.1,14.8l-4.9-1l-1,4.9l-4.9-1l-1,4.9l-24.6-5.1l2.1-9.9
			l9.9,2.1l3.1-14.8l-9.9-2.1L527.5,319z M540.2,331.9l-3.1,14.8l9.9,2.1l1-4.9l4.9,1l1-4.9l-4.9-1l1-4.9L540.2,331.9z"/>
		<path class="st5" d="M519.4,357.9l32.8,12.8l-12.8,32.8l-4.7-1.8l9.2-23.5l-9.4-3.7l-7.3,18.8l-4.7-1.8l7.3-18.8l-14.1-5.5
			L519.4,357.9z"/>
		<path class="st5" d="M502.3,399.3l4.3,2.6l2.6-4.3l25.9,15.5l-5.2,8.6l-25.9-15.5l-7.8,13l25.9,15.5l-5.2,8.6l-25.9-15.5l2.6-4.3
			l-4.3-2.6L502.3,399.3z"/>
		<path class="st5" d="M474.7,440.7l11.5,9.8l3.3-3.8l3.8,3.3l3.3-3.8l11.5,9.8l-6.5,7.7l-11.5-9.8l-6.5,7.7l11.5,9.8l-6.5,7.7
			l-11.5-9.8l3.3-3.8l-3.8-3.3l3.3-3.8l-11.5-9.8L474.7,440.7z"/>
		<path class="st5" d="M454.7,462.9l3.2,3.8l-7.7,6.5l16.2,19.2l7.7-6.5l3.2,3.9l-23.1,19.5l-3.2-3.9l7.7-6.5l-16.2-19.2l-7.7,6.5
			l-3.2-3.8L454.7,462.9z"/>
		<path class="st5" d="M428.1,485.4l18,30.3l-30.3,18l-2.6-4.3l21.7-12.8l-5.1-8.7l-17.3,10.3l-2.6-4.3l17.3-10.3l-5.1-8.7
			l-21.7,12.8l-2.6-4.3L428.1,485.4z"/>
		<path class="st5" d="M389.1,507.6l12.7,32.9l-9.4,3.6l-10.9-28.2l-18.8,7.2l-1.8-4.7L389.1,507.6z"/>
		<path class="st5" d="M356.7,520.1l7,34.5l-24.7,5l-1-4.9l-4.9,1l-1-4.9l-4.9,1l-3-14.8l4.9-1l-1-4.9l4.9-1l-1-4.9L356.7,520.1z
			 M347.9,527.1l-9.9,2l1,4.9l-4.9,1l3,14.8l4.9-1l1,4.9l9.9-2L347.9,527.1z"/>
		<path class="st5" d="M277.8,529.6l-4.5,35l-10-1.3l0.6-5l-5-0.6l0.6-5l-5-0.6l-0.6,5l-5-0.6l-0.6,5l-10-1.3l4.5-35l10,1.3l-2.6,20
			l5,0.6l1.3-10l5,0.6l-1.3,10l5,0.6l2.6-20L277.8,529.6z"/>
		<path class="st5" d="M233.4,523l-1.5,4.8l4.8,1.5l-7.3,24.1l-4.8-1.5l-1.5,4.8l-24.1-7.3l1.5-4.8l-4.8-1.5L203,519l4.8,1.5
			l1.5-4.8L233.4,523z M227.1,526.3l-14.4-4.4l-7.3,24.1l14.4,4.4L227.1,526.3z"/>
		<path class="st5" d="M195.7,510.7l-2.2,4.5l4.5,2.2l-11.2,22.5l-4.5-2.2l-2.2,4.5L157.4,531l2.2-4.5l-4.5-2.2l11.2-22.5l4.5,2.2
			l2.2-4.5L195.7,510.7z M188.9,512.9l-13.5-6.7l-11.2,22.5l13.5,6.7L188.9,512.9z"/>
		<path class="st5" d="M164.5,495.2l-20.7,28.5l-8.1-5.9l3-4.1l-4.1-3l3-4.1l-4.1-3l3-4.1l-4.1-3l-8.9,12.2l-8.1-5.9l20.7-28.5
			l8.1,5.9l-5.9,8.1l4.1,3l-3,4.1l4.1,3l-3,4.1l4.1,3l11.8-16.3L164.5,495.2z"/>
		<path class="st5" d="M132.2,471.7l-18,17.6l-3.5-3.6l-3.6,3.5l-3.5-3.6l-3.6,3.5l-10.6-10.8l3.6-3.5l-3.5-3.6l3.6-3.5l-3.5-3.6
			l18-17.6l7.1,7.2l-7.2,7.1l10.6,10.8l7.2-7.1L132.2,471.7z M114.4,475.1l-10.6-10.8l-7.2,7.1l3.5,3.6l-3.6,3.5l3.5,3.6l3.6-3.5
			l3.5,3.6L114.4,475.1z"/>
		<path class="st5" d="M104.3,443.3l-28.9,20.2l-17.3-24.7l4.1-2.9l-2.9-4.1l12.4-8.7l5.8,8.2l4.1-2.9l-2.9-4.1l4.1-2.9l-2.9-4.1
			l4.1-2.9l8.7,12.4l-4.1,2.9l2.9,4.1l-4.1,2.9l2.9,4.1l8.2-5.8L104.3,443.3z M86.1,443.7l-5.8-8.2l-4.1,2.9l-2.9-4.1l-8.2,5.8
			l8.7,12.4L86.1,443.7z"/>
		<path class="st5" d="M81.4,410.7l-31.8,15.2l-4.3-9.1l4.5-2.2l-2.2-4.5l4.5-2.2l-2.2-4.5l-4.5,2.2l-2.2-4.5l-4.5,2.2l-4.3-9.1
			l31.8-15.2l4.3,9.1l-18.2,8.7l2.2,4.5l9.1-4.3l2.2,4.5l-9.1,4.3l2.2,4.5l18.2-8.7L81.4,410.7z"/>
		<path class="st5" d="M60,360.1l-14.5,4.1l1.4,4.8l-4.8,1.4l1.4,4.8l-14.5,4.1l-2.8-9.7l14.5-4.1l-2.8-9.7L23.3,360l-2.8-9.7
			l14.5-4.1l1.4,4.8l4.8-1.4l1.4,4.8l14.5-4.1L60,360.1z"/>
	</g>
</g>
</svg>
