<?xml version="1.0" encoding="utf-8"?>
<!-- Generator: Adobe Illustrator 25.2.1, SVG Export Plug-In . SVG Version: 6.00 Build 0)  -->
<svg version="1.1" id="Capa_1" xmlns="http://www.w3.org/2000/svg" xmlns:xlink="http://www.w3.org/1999/xlink" x="0px" y="0px"
	 viewBox="0 0 600 600" style="enable-background:new 0 0 600 600;" xml:space="preserve">
<style type="text/css">
	.st0{fill:#002B2A;}
	.st1{fill:#00AAAA;}
	.st2{fill:#FFFFFF;}
	.st3{fill:#11726B;}
	.st4{fill:#0C0C0C;}
</style>
<g>
	<g>
		<g>
			<g>
				<path class="st0" d="M299,14.5c-157.4,0-285,127.6-285,285s127.6,285,285,285s285-127.6,285-285S456.4,14.5,299,14.5z
					 M299,523.6c-123.8,0-224.1-100.3-224.1-224.1S175.2,75.4,299,75.4s224.1,100.3,224.1,224.1S422.9,523.6,299,523.6z"/>
			</g>
			<path class="st1" d="M299,46.6c-139.6,0-252.9,113.2-252.9,252.9S159.4,552.4,299,552.4s252.9-113.2,252.9-252.9
				S438.6,46.6,299,46.6z M299,498.3c-109.9,0-198.8-89-198.8-198.8S189.1,100.7,299,100.7s198.8,88.9,198.8,198.8
				S409,498.3,299,498.3z"/>
		</g>
	</g>
	<g>
		<g>
			<circle class="st1" cx="299" cy="299.5" r="185.3"/>
		</g>
		<g>
			<path class="st2" d="M418.6,363.8c-2.5-0.4-5.1-0.2-7.3,0.5c-1.9,0.6-4.3,0.2-5.7-1.3l-26.3-26.2c-0.5-0.5-1-1.1-1.3-1.6
				l-37.4-56.3c-0.6-1-0.5-2.2,0.3-3l4.5-4.5l31.2-31.2c1.5-1.5,3.7-1.9,5.7-1.2c2.5,0.9,5.4,1.1,8.3,0.4c6.2-1.3,11-6.5,12-12.7
				c1.8-10.7-7.4-19.8-18-18c-6.5,1.1-11.7,6.3-12.7,12.7c-0.4,2.5-0.3,5.1,0.4,7.2c0.6,1.9,0.2,4.2-1.3,5.6l-30.2,30.2l-4.2,4
				c-1,1-2.5,0.8-3.1-0.4l-28.6-42.9c-1.2-1.8-1.8-3.7-1.8-5.7v-34c0-2.1,1.2-4.2,3.1-5.1c5.7-3,9.5-9.6,8.1-16.7
				c-1.2-6.3-6.1-11.2-12.5-12.6c-9.8-1.9-18.6,5.7-18.6,15.3c0,6,3.5,11.1,8.4,13.7c1.9,1,3.1,2.9,3.1,5.1v34c0,2-0.6,4.2-1.8,5.7
				l-28.3,43c-0.7,1.1-2.2,1.2-3.1,0.4l-34.3-34.3c-1.5-1.5-1.9-3.6-1.3-5.6c0.7-2.1,0.9-4.6,0.4-7.2c-1.1-6.5-6.3-11.7-12.7-12.7
				c-10.7-1.8-19.8,7.3-18,18c1,6.2,5.7,11.3,12,12.7c2.9,0.6,5.7,0.4,8.3-0.4c1.9-0.7,4.3-0.3,5.7,1.2l70.9,70.9
				c1.7,1.7,2.5,3.8,2.5,6.1v17.4h-61.5c-1.5,0-2.2-1.6-1.5-2.6l25.9-38.9c0.9-1.3,1.1-3.1,0.3-4.5c-1.7-2.6-5.4-2.6-6.9-0.2
				l-31.2,46.8c-0.4,0.6-0.8,1.2-1.3,1.6l-26,26.3c-1.5,1.5-3.6,1.9-5.7,1.3c-2.2-0.7-4.7-1-7.3-0.5c-6.5,1.1-11.8,6.3-12.8,12.8
				c-1.7,10.6,7.3,19.7,18,18c6.5-1.1,11.8-6.3,12.8-12.8c0.4-2.5,0.2-5.1-0.5-7.3c-0.6-1.9-0.2-4.3,1.3-5.7l23-23
				c1.9-1.9,4.6-3,7.3-3h66.4v34.5c0,2-1.2,3.9-2.9,4.9c-1.9,1.1-3.7,2.5-5.2,4.3c-2,2.6-3.4,6-3.4,9.7c0.1,8.3,6.9,15.3,15.2,15.6
				c8.8,0.3,16.1-6.7,16.1-15.7c0-3.6-1.2-7-3.4-9.6c-1.5-1.8-3.1-3.3-5.2-4.3c-1.9-1-2.9-2.7-2.9-4.9v-60.1c0-2.2,0.9-4.5,2.5-6.1
				l5.7-5.7l13.8-13.8c1.2-1.2,1.8-3.1,1-4.7c-1.2-2.6-4.6-3.3-6.6-1.2l-19.1,19.1c-0.8,0.8-2,0.8-2.9,0l-27-27.2
				c-0.8-0.8-1-2-0.3-3l27.4-41c0.7-1.1,2.1-1.1,2.8,0l65.5,98.4c0.8,1.2-0.1,2.6-1.5,2.6h-49c-1.9,0-3.7,1.2-4.3,3
				c-0.6,2.6,1.5,5.1,3.9,5.1h54.1c2.7,0,5.5,1.2,7.3,3l23,23c1.5,1.5,1.9,3.6,1.3,5.7c-0.7,2.2-1,4.7-0.5,7.3
				c1.1,6.5,6.3,11.8,12.8,12.8c10.6,1.7,19.7-7.3,18-18C430.4,370.1,425.2,364.9,418.6,363.8L418.6,363.8z M385.3,216.8
				c5.7-1.5,10.7,3.6,9.2,9.2c-0.7,2.5-2.6,4.5-5.2,5.2c-5.7,1.5-10.7-3.5-9.2-9.2C380.8,219.5,382.8,217.5,385.3,216.8L385.3,216.8
				z M212.8,231.2c-5.7,1.5-10.7-3.5-9.2-9.2c0.7-2.5,2.6-4.5,5.2-5.2c5.7-1.5,10.7,3.5,9.2,9.2
				C217.3,228.5,215.3,230.6,212.8,231.2L212.8,231.2z M184,386.3c-5.7,1.5-10.7-3.5-9.2-9.2c0.7-2.5,2.6-4.5,5.2-5.2
				c5.7-1.5,10.7,3.5,9.2,9.2C188.5,383.6,186.4,385.7,184,386.3L184,386.3z M305.6,392.5c0.5,1.1,0.8,2.1,0.8,3.4
				c0,4.5-3.9,8-8.5,7.3c-2.4-0.4-4.5-1.9-5.6-4c-1.2-2.4-1-4.7,0-6.6c1.2-2.5,3.7-4.2,6.6-4.2C301.8,388.6,304.5,390.3,305.6,392.5
				L305.6,392.5z M291.8,168.6c-1.5-5.7,3.5-10.7,9.2-9.2c2.5,0.7,4.5,2.6,5.2,5.2c1.5,5.7-3.5,10.7-9.2,9.2
				C294.5,173.1,292.5,171.1,291.8,168.6L291.8,168.6z M418.2,386.3c-5.7,1.5-10.7-3.5-9.2-9.2c0.7-2.5,2.6-4.5,5.2-5.2
				c5.7-1.5,10.7,3.5,9.2,9.2C422.6,383.6,420.6,385.7,418.2,386.3"/>
		</g>
		<g>
			<g>
				<g>
					<path class="st3" d="M299,120.4c-45.9,0-87.8,17.4-119.5,45.9c-0.2,0.2-0.4,0.4-0.7,0.5l0,0c-36,32.9-58.6,80-58.6,132.5
						c0,54.5,24.6,103.4,63.1,136.3c0.1,0.1,0.2,0.1,0.3,0.2c0.8,0.7,1.7,1.5,2.5,1.9c0.4,0.4,0.9,0.7,1.5,1.2
						c0.7,0.6,1.5,1.2,2.2,1.8l0.1,0.1c15.1,11.7,32.2,21.1,50.7,27.5c18.4,6.5,38.2,9.9,58.9,9.9c98.7,0,179-80.2,179-179
						S397.7,120.4,299,120.4z M461.8,256.1h-12.4c-1.5,0-2.1-1.6-1.5-2.6l8.8-13.1C458.6,245.4,460.2,250.7,461.8,256.1z
						 M142.2,237.9l10.3,15.5c0.8,1.2-0.1,2.6-1.5,2.6h-14.8C138,250,140,243.8,142.2,237.9z M233.6,454.6l14.6-21.8
						c0.7-1.1,2.1-1.1,2.8,0l21.9,33C259.3,463.7,246.2,459.9,233.6,454.6z M247.7,373.1c-2.5-0.7-4.5-2.6-5.2-5.2
						c-1.5-5.7,3.5-10.7,9.2-9.2c2.5,0.7,4.5,2.6,5.2,5.2C258.3,369.5,253.4,374.7,247.7,373.1z M446.6,335.4
						c-2.5-0.6-4.5-2.6-5.2-5.2c-1.5-5.7,3.5-10.7,9.2-9.2c2.5,0.7,4.5,2.6,5.2,5.2C457.2,331.9,452.2,336.8,446.6,335.4z
						 M452.7,347.1c0-2.1,1.2-4.2,3.1-5.1c5.7-3,9.5-9.6,8.1-16.7c-1.2-6.2-6.1-11.2-12.5-12.6c-9.8-1.9-18.6,5.7-18.6,15.3
						c0,6,3.5,11.1,8.4,13.7c1.9,1,3.1,2.9,3.1,5.1v34c0,2-0.6,4.2-1.8,5.7l-7.9,11.8c-7.8,10.6-16.7,20.2-26.6,28.8l-31.6-31.7
						c-1.5-1.5-1.9-3.6-1.3-5.6c0.7-2.1,0.9-4.6,0.4-7.2c-1.1-6.5-6.3-11.7-12.7-12.7c-10.7-1.8-19.8,7.3-18,18
						c1,6.2,5.7,11.3,12,12.7c2.9,0.6,5.7,0.4,8.3-0.4c1.9-0.7,4.3-0.3,5.7,1.2l30.9,30.9c-28.5,22-64.1,35.2-102.9,35.2h-0.2
						l28.5-28.5c1.5-1.5,3.7-1.9,5.7-1.2c2.5,0.9,5.4,1.1,8.3,0.4c6.2-1.3,11-6.5,12-12.7c1.8-10.7-7.4-19.8-18-18
						c-6.5,1.1-11.7,6.3-12.7,12.7c-0.4,2.5-0.3,5.1,0.4,7.2c0.6,1.9,0.2,4.2-1.3,5.6l-34,34c-1.3-0.1-2.6-0.2-3.8-0.4l-27.9-42.4
						c-1.2-1.8-1.8-3.7-1.8-5.7v-34c0-2.1,1.2-4.2,3.1-5.1c5.7-3,9.5-9.6,8.1-16.7c-1.2-6.3-6.1-11.2-12.5-12.6
						c-9.9-1.9-18.6,5.7-18.6,15.3c0,6,3.5,11.1,8.4,13.7c1.9,1,3.1,2.9,3.1,5.1v34c0,2-0.6,4.2-1.8,5.7l-17.4,26.5
						c-10.3-5.1-20-11-29-17.8l0.6-0.6c1.5-1.5,3.7-1.9,5.7-1.2c2.5,0.9,5.4,1.1,8.3,0.4c6.2-1.3,11-6.5,11.9-12.7
						c1.8-10.7-7.4-19.8-18-18c-6.5,1.1-11.7,6.3-12.7,12.7c-0.4,2.5-0.3,4.9,0.4,7.2c0.6,1.9,0.2,4.2-1.3,5.6l-1.5,1.5
						c-21.3-18-38.3-41.2-48.6-67.7l13-13c1.5-1.5,3.7-1.9,5.7-1.2c2.5,0.9,5.4,1.1,8.3,0.4c6.2-1.3,11-6.5,12-12.7
						c1.8-10.7-7.4-19.8-18-18c-6.5,1.1-11.7,6.3-12.7,12.7c-0.4,2.5-0.3,4.9,0.4,7.2c0.6,1.9,0.2,4.2-1.3,5.6L139,351.6
						c-5.5-16.5-8.4-34-8.4-52.3c0-12,1.3-23.9,3.6-35.2h21.8c2.7,0,5.5,1.2,7.4,3l23,23c1.5,1.5,1.9,3.6,1.3,5.7
						c-0.7,2.2-1,4.7-0.5,7.3c1.1,6.5,6.3,11.8,12.8,12.8c10.6,1.7,19.7-7.3,18-18c-1.1-6.5-6.3-11.8-12.8-12.8
						c-2.5-0.4-5.1-0.2-7.3,0.5c-1.9,0.6-4.3,0.2-5.7-1.3l-25.9-26.3c-0.5-0.5-1-1.1-1.3-1.6l-18.8-27.9
						c9.6-20.8,23.4-39.2,40.1-54.3l0.6,0.6c1.5,1.5,1.9,3.6,1.3,5.7c-0.7,2.2-1,4.7-0.5,7.3c1.1,6.5,6.3,11.8,12.8,12.8
						c10.6,1.7,19.7-7.3,18-18c-1.1-6.5-6.3-11.8-12.8-12.8c-2.5-0.4-5.1-0.2-7.3,0.5c-1.9,0.6-4.3,0.2-5.7-1.3l-0.2-0.2
						c21.1-17.4,46.6-29.7,74.6-35.1L247,153.9c-1.5,1.5-3.6,1.9-5.7,1.3c-2.2-0.7-4.7-1-7.3-0.5c-6.5,1.1-11.8,6.3-12.8,12.8
						c-1.8,10.6,7.3,19.7,18,18c6.5-1.1,11.8-6.3,12.8-12.8c0.4-2.5,0.2-5.1-0.5-7.3c-0.6-1.9-0.2-4.3,1.3-5.7l23-23
						c0.4-0.4,0.9-0.8,1.5-1.2c0.6-0.4,1.2-0.8,1.9-1.1c0.1,0,0.1-0.1,0.2-0.1c4.2-1.9,9.9-3.6,18-3.6c21.8,0,32.7,2.7,32.7,2.7
						c6.6,1.2,13.3,2.8,19.5,4.9V168c0,1.9-1.2,3.9-2.9,4.9c-1.9,1.1-3.7,2.5-5.2,4.3c-2,2.6-3.4,6-3.4,9.7
						c0.1,8.3,6.9,15.3,15.2,15.6c8.8,0.3,16.1-6.7,16.1-15.7c0-3.6-1.2-7-3.4-9.6c-1.5-1.8-3.1-3.3-5.2-4.3c-1.9-1-2.9-2.7-2.9-4.9
						v-26.8c33.9,12.7,62.6,35.8,82.2,65.5l-8.5,8.5c-1.5,1.5-3.6,1.9-5.7,1.3c-2.2-0.7-4.7-1-7.3-0.5c-6.5,1.1-11.8,6.3-12.8,12.8
						c-1.7,10.6,7.3,19.7,18,18c6.5-1.1,11.8-6.3,12.8-12.8c0.4-2.6,0.2-5.1-0.5-7.3c-0.6-1.9-0.2-4.3,1.3-5.7l7.2-7.2
						c3.3,5.5,6.1,11,8.7,16.9l-17.1,25.6c-0.4,0.6-0.8,1.2-1.3,1.6L408,284.3c-1.5,1.5-3.6,1.9-5.7,1.3c-2.2-0.7-4.7-1-7.3-0.5
						c-6.5,1.1-11.8,6.3-12.8,12.8c-1.7,10.6,7.3,19.7,18,18c6.5-1.1,11.8-6.3,12.8-12.8c0.4-2.6,0.2-5.1-0.5-7.3
						c-0.6-1.9-0.2-4.3,1.3-5.7l23-23c1.9-1.9,4.6-3,7.3-3h19.2c2.5,11.3,3.6,23.1,3.6,35.2c0,24.5-5.3,47.9-14.7,68.6L452.7,347.1
						L452.7,347.1z M367.5,387.8c-0.7,2.5-2.6,4.5-5.2,5.2c-5.7,1.5-10.7-3.5-9.2-9.2c0.7-2.5,2.6-4.5,5.2-5.2
						C364,377.1,369.1,382.2,367.5,387.8z M330.9,421.4c0.6-2.5,2.6-4.5,5.2-5.2c5.7-1.5,10.7,3.5,9.2,9.2c-0.7,2.5-2.6,4.5-5.2,5.2
						C334.3,432.1,329.2,426.9,330.9,421.4z M201.2,414.6c0.7-2.5,2.6-4.5,5.2-5.2c5.7-1.5,10.7,3.6,9.2,9.2
						c-0.7,2.5-2.6,4.5-5.2,5.2C204.7,425.3,199.8,420.4,201.2,414.6z M158.5,329.3c0.7-2.5,2.6-4.5,5.2-5.2
						c5.7-1.5,10.7,3.5,9.2,9.2c-0.7,2.5-2.6,4.5-5.2,5.2C162.1,339.9,157.1,334.9,158.5,329.3z M195.5,298.8
						c0.6-2.5,2.6-4.5,5.2-5.2c5.7-1.5,10.7,3.5,9.2,9.2c-0.7,2.5-2.6,4.5-5.2,5.2C199,309.4,194,304.3,195.5,298.8z M196,183.5
						c0.7-2.5,2.6-4.5,5.2-5.2c5.7-1.5,10.7,3.5,9.2,9.2c-0.7,2.5-2.6,4.5-5.2,5.2C199.4,194.2,194.4,189.2,196,183.5z M243.6,172.6
						c-0.7,2.5-2.6,4.5-5.2,5.2c-5.7,1.5-10.7-3.6-9.2-9.2c0.7-2.5,2.6-4.5,5.2-5.2C240.1,161.9,245.1,166.8,243.6,172.6z
						 M353.5,179.9c2.8,0,5.5,1.7,6.6,4.2c0.5,1.1,0.8,2.1,0.8,3.4c0,4.5-3.9,8-8.5,7.3c-2.4-0.4-4.5-1.9-5.6-4
						c-1.2-2.4-1-4.7,0-6.6C348.2,181.4,350.7,179.9,353.5,179.9z M428.2,233.9c-0.7,2.5-2.6,4.5-5.2,5.2c-5.7,1.5-10.7-3.5-9.2-9.2
						c0.7-2.5,2.6-4.5,5.2-5.2C424.6,223.2,429.5,228.2,428.2,233.9z M405.2,302.8c-0.7,2.5-2.6,4.5-5.2,5.2
						c-5.7,1.5-10.7-3.5-9.2-9.2c0.7-2.5,2.6-4.5,5.2-5.2C401.6,292.1,406.6,297.1,405.2,302.8z"/>
				</g>
			</g>
			<g>
				<g>
					<path class="st3" d="M190.7,269.3L190.7,269.3c-5.7,1.5-10.7-3.5-9.2-9.2c0.7-2.5,2.6-4.5,5.2-5.2c5.7-1.5,10.7,3.5,9.2,9.2
						C195.2,266.6,193.1,268.6,190.7,269.3"/>
				</g>
			</g>
			<g>
				<g>
					<path class="st3" d="M231.1,206.7L231.1,206.7c-5.7,1.5-10.7-3.5-9.2-9.2c0.7-2.5,2.6-4.5,5.2-5.2c5.7-1.5,10.7,3.5,9.2,9.2
						C235.6,204,233.5,206,231.1,206.7"/>
				</g>
			</g>
			<g>
				<g>
					<path class="st3" d="M175.9,254.5L175.9,254.5c-5.7,1.5-10.7-3.5-9.2-9.2c0.7-2.5,2.6-4.5,5.2-5.2c5.7-1.5,10.7,3.5,9.2,9.2
						C180.4,251.8,178.3,253.8,175.9,254.5"/>
				</g>
			</g>
			<g>
				<g>
					<path class="st3" d="M334.6,401.2L334.6,401.2c-5.7,1.5-10.7-3.5-9.2-9.2c0.7-2.5,2.6-4.5,5.2-5.2c5.7-1.5,10.7,3.5,9.2,9.2
						C339.1,398.5,337.1,400.5,334.6,401.2"/>
				</g>
			</g>
			<g>
				<g>
					<path class="st3" d="M445.7,288.4L445.7,288.4c-5.7,1.5-10.7-3.5-9.2-9.2c0.7-2.5,2.6-4.5,5.2-5.2c5.7-1.5,10.7,3.5,9.2,9.2
						C450.2,285.8,448.1,287.7,445.7,288.4"/>
				</g>
			</g>
			<g>
				<g>
					<path class="st3" d="M430.4,302L430.4,302c-5.7,1.5-10.7-3.5-9.2-9.2c0.7-2.5,2.6-4.5,5.2-5.2c5.7-1.5,10.7,3.5,9.2,9.2
						C434.9,299.4,432.8,301.4,430.4,302"/>
				</g>
			</g>
			<g>
				<g>
					<path class="st3" d="M338.5,154.6L338.5,154.6c-5.7,1.5-10.7-3.5-9.2-9.2c0.7-2.5,2.6-4.5,5.2-5.2c5.7-1.5,10.7,3.5,9.2,9.2
						C343.1,151.8,341,153.9,338.5,154.6"/>
				</g>
			</g>
			<g>
				<g>
					<path class="st3" d="M340,254.2L340,254.2c-5.7,1.5-10.7-3.5-9.2-9.2c0.7-2.5,2.6-4.5,5.2-5.2c5.7-1.5,10.7,3.5,9.2,9.2
						C344.4,251.4,342.4,253.6,340,254.2"/>
				</g>
			</g>
			<g>
				<g>
					<path class="st3" d="M355.5,234L355.5,234c-5.7,1.5-10.7-3.5-9.2-9.2c0.7-2.5,2.6-4.5,5.2-5.2c5.7-1.5,10.7,3.5,9.2,9.2
						C360,231.3,358.1,233.2,355.5,234"/>
				</g>
			</g>
			<g>
				<g>
					<path class="st3" d="M212.8,393L212.8,393c-5.7,1.5-10.7-3.5-9.2-9.2c0.7-2.5,2.6-4.5,5.2-5.2c5.7-1.5,10.7,3.5,9.2,9.2
						C217.3,390.3,215.3,392.3,212.8,393"/>
				</g>
			</g>
			<g>
				<g>
					<path class="st3" d="M155,308.9L155,308.9c-5.7,1.5-10.7-3.5-9.2-9.2c0.7-2.5,2.6-4.5,5.2-5.2c5.7-1.5,10.7,3.5,9.2,9.2
						C159.4,306.1,157.5,308.2,155,308.9"/>
				</g>
			</g>
			<g>
				<g>
					<path class="st3" d="M155,288L155,288c-5.7,1.5-10.7-3.5-9.2-9.2c0.7-2.5,2.6-4.5,5.2-5.2c5.7-1.5,10.7,3.5,9.2,9.2
						C159.4,285.5,157.5,287.5,155,288"/>
				</g>
			</g>
			<g>
				<g>
					<path class="st3" d="M367.4,423.1L367.4,423.1c-5.7,1.5-10.7-3.5-9.2-9.2c0.7-2.5,2.6-4.5,5.2-5.2c5.7-1.5,10.7,3.5,9.2,9.2
						C371.8,420.5,369.9,422.4,367.4,423.1"/>
				</g>
			</g>
			<g>
				<g>
					<path class="st3" d="M389.3,393L389.3,393c-5.7,1.5-10.7-3.5-9.2-9.2c0.7-2.5,2.6-4.5,5.2-5.2c5.7-1.5,10.7,3.5,9.2,9.2
						C393.9,390.3,391.9,392.3,389.3,393"/>
				</g>
			</g>
			<g>
				<g>
					<path class="st3" d="M381.9,435.1L381.9,435.1c-5.7,1.5-10.7-3.5-9.2-9.2c0.7-2.5,2.6-4.5,5.2-5.2c5.7-1.5,10.7,3.5,9.2,9.2
						C386.3,432.5,384.5,434.5,381.9,435.1"/>
				</g>
			</g>
			<g>
				<g>
					<path class="st3" d="M289.4,456.1L289.4,456.1c-5.7,1.5-10.7-3.5-9.2-9.2c0.7-2.5,2.6-4.5,5.2-5.2c5.7-1.5,10.7,3.5,9.2,9.2
						C293.9,453.4,291.9,455.4,289.4,456.1"/>
				</g>
			</g>
			<g>
				<g>
					<path class="st3" d="M321,154.6L321,154.6c-5.7,1.5-10.7-3.5-9.2-9.2c0.7-2.5,2.6-4.5,5.2-5.2c5.7-1.5,10.7,3.5,9.2,9.2
						C325.5,151.8,323.6,153.9,321,154.6"/>
				</g>
			</g>
			<g>
				<rect x="124.6" y="276.8" class="st3" width="23.5" height="8.2"/>
			</g>
			<g>
				<rect x="444.3" y="277.1" class="st3" width="23.5" height="8.2"/>
			</g>
			<g>
				<rect x="375.7" y="429.8" class="st3" width="8.2" height="23.5"/>
			</g>
			<g>
				<path class="st3" d="M333.9,240.2v-15.3c0-2.2,1.9-4.2,4.2-4.2l0,0c2.2,0,4.2,1.9,4.2,4.2v15.3c0,2.2-1.9,4.2-4.2,4.2l0,0
					C335.7,244.3,333.9,242.5,333.9,240.2z"/>
			</g>
			<g>
				<path class="st3" d="M203.7,266.2h-15.3c-2.2,0-4.2-1.9-4.2-4.2l0,0c0-2.2,1.9-4.2,4.2-4.2h15.3c2.2,0,4.2,1.9,4.2,4.2l0,0
					C207.9,264.4,206,266.2,203.7,266.2z"/>
			</g>
			<g>
				<path class="st3" d="M271,203.7h-38c-2.2,0-4.2-1.9-4.2-4.2l0,0c0-2.2,1.9-4.2,4.2-4.2h38c2.2,0,4.2,1.9,4.2,4.2l0,0
					C275.1,201.8,273.4,203.7,271,203.7z"/>
			</g>
			<g>
				<path class="st3" d="M424.3,315.9v-15.3c0-2.2,1.9-4.2,4.2-4.2l0,0c2.2,0,4.2,1.9,4.2,4.2v15.3c0,2.2-1.9,4.2-4.2,4.2l0,0
					C426.1,319.9,424.3,318.1,424.3,315.9z"/>
			</g>
			<g>
				<path class="st3" d="M282.7,442.4v-15.3c0-2.2,1.9-4.2,4.2-4.2l0,0c2.2,0,4.2,1.9,4.2,4.2v15.3c0,2.2-1.9,4.2-4.2,4.2l0,0
					C284.6,446.6,282.7,444.8,282.7,442.4z"/>
			</g>
			<g>
				<rect x="169.7" y="177.8" class="st3" width="8.2" height="67.7"/>
			</g>
			<g>
				<rect x="315" y="125.1" class="st3" width="8.2" height="24.7"/>
			</g>
		</g>
	</g>
	<g>
		<path class="st4" d="M89.5,306.9l-4.4-0.1l-0.1,4.4l-4.4-0.1l0.3-8.8l4.4,0.1l0.4-13.3l-8.8-0.3l-0.5,17.7l-4.4-0.1l-0.1,4.4
			l-8.6-0.3l0.1-4.4L59,306l0.6-21.9l4.4,0.1l0.1-4.4l4.4,0.1l-0.3,8.8l-4.4-0.1l-0.4,13.3l8.8,0.3l0.4-17.5l4.4,0.1l0.1-4.4
			l8.8,0.3l-0.1,4.4l4.4,0.1L89.5,306.9z"/>
		<path class="st4" d="M90.4,276.7l-21.6-4.3l0.9-4.3l-4.3-0.9l0.9-4.3l-4.3-0.9l2.5-12.9l4.3,0.9l0.9-4.3l4.3,0.9l0.9-4.3l21.6,4.3
			l-1.7,8.7l-8.7-1.7l-2.6,12.7L92,268L90.4,276.7z M79.1,265.5l2.5-12.9l-8.7-1.7l-0.9,4.3l-4.3-0.9l-0.9,4.3l4.3,0.9l-0.9,4.3
			L79.1,265.5z"/>
		<path class="st4" d="M97,242.3l-28.9-10.8L79,202.6l4.2,1.6l-7.7,20.6l8.2,3l6.2-16.5L94,213l-6.1,16.5l12.4,4.6L97,242.3z"/>
		<path class="st4" d="M111.4,205.9l-3.8-2.1l-2.1,3.8l-22.8-13.4l4.5-7.6l22.8,13.4l6.6-11.5l-22.8-13.4l4.5-7.6l22.8,13.4
			l-2.1,3.8l3.8,2.1L111.4,205.9z"/>
		<path class="st4" d="M135.1,169.6l-10.1-8.4l-2.7,3.5l-3.5-2.7l-2.7,3.5l-10.1-8.4l5.6-6.7l10.1,8.4l5.6-6.7l-10.1-8.4l5.6-6.7
			l10.1,8.4l-2.7,3.5l3.5,2.7l-2.7,3.5l10.1,8.4L135.1,169.6z"/>
		<path class="st4" d="M152.3,150l-2.8-3.4l6.6-5.7l-14.4-16.6l-6.6,5.7l-2.8-3.4l19.8-17.3l2.8,3.4l-6.6,5.7l14.4,16.6l6.6-5.7
			l2.8,3.4L152.3,150z"/>
		<path class="st4" d="M175.2,130.1l-16.1-26.3l26.2-16.1l2.2,3.7L168.8,103l4.6,7.5l14.9-9.2l2.2,3.7l-14.8,9.3l4.6,7.5l18.8-11.5
			l2.2,3.7L175.2,130.1z"/>
		<path class="st4" d="M208.9,110.2l-11.5-28.6l8.1-3.4l9.8,24.5l16.4-6.5l1.7,4.2L208.9,110.2z"/>
		<path class="st4" d="M237.2,99l-6.5-30l21.5-4.7l1,4.3l4.3-1l1,4.3l4.3-1l2.7,12.9l-4.3,1l1,4.3l-4.3,1l1,4.3L237.2,99z
			 M244.7,92.7l8.6-1.9l-1-4.3l4.3-1l-2.7-12.9l-4.3,1l-1-4.3l-8.6,1.9L244.7,92.7z"/>
		<path class="st4" d="M305.9,89.8l3.6-30.6l8.8,1.1l-0.5,4.4l4.4,0.5l-0.5,4.4l4.4,0.5l0.5-4.4l4.4,0.5l0.5-4.4l8.8,1.1l-3.6,30.4
			l-8.8-1.1l1.9-17.4l-4.4-0.5l-1.1,8.8l-4.4-0.5l1.1-8.8l-4.4-0.5l-1.9,17.4L305.9,89.8z"/>
		<path class="st4" d="M344.6,95l1.2-4.3l-4.3-1.2l6.1-21.1l4.3,1.2l1.2-4.3l21.1,6.1l-1.2,4.3l4.3,1.2L371.2,98l-4.3-1.2l-1.2,4.3
			L344.6,95z M350.2,91.9l12.7,3.6l6.1-21.1l-12.7-3.6L350.2,91.9z"/>
		<path class="st4" d="M378,105.3l1.9-3.9l-3.9-1.9l9.6-19.8l3.9,1.9l1.9-3.9l19.8,9.6l-1.9,3.9l3.9,1.9l-9.6,19.8l-3.9-1.9
			l-1.9,3.9L378,105.3z M383.7,103.2l11.8,5.7l9.6-19.8l-11.8-5.7L383.7,103.2z"/>
		<path class="st4" d="M405.4,118.5l17.7-25.2l7.2,5.1l-2.5,3.6l3.6,2.5l-2.5,3.6l3.6,2.5l-2.5,3.6l3.6,2.5l7.6-10.7l7.2,5.1
			l-17.8,25.2l-7.2-5.1l5.1-7.2l-3.6-2.5l2.5-3.6l-3.6-2.5l2.5-3.6l-3.6-2.5l-10.1,14.3L405.4,118.5z"/>
		<path class="st4" d="M433.7,138.6l15.5-15.7l3.1,3l3-3.1l3.1,3l3-3.1l9.4,9.3l-3,3.1l3.1,3l-3,3.1l3.1,3l-15.4,15.9l-6.3-6.2
			l6.2-6.3l-9.4-9.3l-6.2,6.3L433.7,138.6z M449.3,135.4l9.4,9.3l6.2-6.3l-3.1-3l3-3.1l-3.1-3l-3,3.1l-3.1-3L449.3,135.4z"/>
		<path class="st4" d="M458.5,163l24.9-18l15.5,21.3l-3.6,2.5l2.5,3.6l-10.7,7.6l-5.2-7.2l-3.6,2.5l2.5,3.6l-3.6,2.5l2.5,3.6
			l-3.5,2.5l-7.6-10.7l3.6-2.5l-2.5-3.6l3.6-2.5l-2.5-3.6l-7.2,5.2L458.5,163z M474.3,162.3l5.2,7.2l3.6-2.5l2.5,3.6l7.2-5.2
			l-7.6-10.7L474.3,162.3z"/>
		<path class="st4" d="M479,191.4l27.6-13.6l3.9,7.9l-3.9,1.9l1.9,3.9l-3.9,1.9l1.9,3.9l3.9-1.9l1.9,3.9l3.9-1.9l3.9,7.9l-27.6,13.6
			l-3.9-7.9l15.7-7.8l-1.9-3.9l-7.9,3.9l-1.9-3.9l7.9-3.9l-1.9-3.9l-15.7,7.8L479,191.4z"/>
		<path class="st4" d="M498.2,235.1l12.7-3.7l-1.2-4.3l4.3-1.2l-1.2-4.3l12.7-3.7l2.5,8.4l-12.7,3.7l2.5,8.4l12.7-3.7l2.5,8.4
			l-12.7,3.7l-1.2-4.3l-4.3,1.2l-1.2-4.3l-12.7,3.7L498.2,235.1z"/>
		<path class="st4" d="M508.6,294.7l4.4,0.2l0.2-4.4l4.4,0.2l-0.4,8.8l-4.4-0.2l-0.5,13.3l8.8,0.4l0.7-17.5l4.4,0.2l0.2-4.4l8.8,0.4
			L535,296l4.4,0.2l-0.9,21.9L534,318l-0.2,4.4l-4.4-0.2l0.4-8.8l4.4,0.2l0.5-13.3l-8.8-0.4l-0.7,17.5l-4.4-0.2l-0.2,4.4l-8.8-0.4
			l0.2-4.4l-4.4-0.2L508.6,294.7z"/>
		<path class="st4" d="M507.4,325.2l21.5,4.5l-0.9,4.3l4.3,0.9l-0.9,4.3l4.3,0.9l-2.6,12.9l-4.3-0.9l-0.9,4.3l-4.3-0.9l-0.9,4.3
			l-21.5-4.5l1.9-8.7l8.7,1.9l2.6-12.9l-8.7-1.9L507.4,325.2z M518.5,336.5l-2.6,12.9l8.7,1.9l0.9-4.3l4.3,0.9l0.9-4.3l-4.3-0.9
			l0.9-4.3L518.5,336.5z"/>
		<path class="st4" d="M500.3,359.3l28.8,11.1l-11.1,28.8l-4.2-1.6l8.1-20.6l-8.2-3.3l-6.4,16.5l-4.2-1.6l6.4-16.5l-12.4-4.8
			L500.3,359.3z"/>
		<path class="st4" d="M485.4,395.4l3.7,2.2l2.2-3.7l22.6,13.6l-4.6,7.5l-22.6-13.6l-6.7,11.3l22.6,13.6l-4.6,7.5L475.5,420l2.2-3.7
			l-3.7-2.2L485.4,395.4z"/>
		<path class="st4" d="M461.2,431.5l10,8.6l2.8-3.4l3.4,2.8l2.8-3.4l10,8.6l-5.7,6.6l-10-8.6l-5.7,6.6l10,8.6l-5.7,6.6l-10-8.6
			l2.8-3.4l-3.4-2.8l2.8-3.4l-10-8.6L461.2,431.5z"/>
		<path class="st4" d="M443.8,450.9l2.7,3.4l-6.6,5.7l14.2,16.7l6.6-5.7l2.7,3.5l-20.3,17.1l-2.7-3.5l6.6-5.7l-14.2-16.7l-6.6,5.7
			l-2.7-3.4L443.8,450.9z"/>
		<path class="st4" d="M420.6,470.6l15.7,26.4l-26.4,15.7l-2.2-3.7l18.9-11.1l-4.5-7.6l-15.1,9l-2.2-3.7l15.1-9l-4.5-7.6l-18.9,11.1
			l-2.2-3.7L420.6,470.6z"/>
		<path class="st4" d="M386.5,489.9l11.1,28.8l-8.2,3.1l-9.6-24.7l-16.5,6.3l-1.6-4.2L386.5,489.9z"/>
		<path class="st4" d="M358.3,500.9l6.1,30.1l-21.6,4.4l-0.9-4.3l-4.3,0.9l-0.9-4.3l-4.3,0.9l-2.6-12.9l4.3-0.9l-0.9-4.3l4.3-0.9
			l-0.9-4.3L358.3,500.9z M350.6,507l-8.7,1.8l0.9,4.3l-4.3,0.9l2.6,12.9l4.3-0.9l0.9,4.3l8.7-1.8L350.6,507z"/>
		<path class="st4" d="M289.3,509.1l-3.9,30.6l-8.8-1.2l0.5-4.4l-4.4-0.5l0.5-4.4l-4.4-0.5l-0.5,4.4l-4.4-0.5l-0.5,4.4l-8.8-1.2
			l3.9-30.6l8.8,1.2l-2.2,17.4l4.4,0.5l1.2-8.8l4.4,0.5l-1.2,8.8l4.4,0.5l2.2-17.4L289.3,509.1z"/>
		<path class="st4" d="M250.6,503.4l-1.3,4.3l4.3,1.3l-6.4,21.1l-4.3-1.3l-1.3,4.3l-21.1-6.4l1.3-4.3l-4.3-1.3l6.4-21.1l4.3,1.3
			l1.3-4.3L250.6,503.4z M245,506.3l-12.7-3.8l-6.4,21.1l12.7,3.8L245,506.3z"/>
		<path class="st4" d="M217.6,492.7l-1.9,3.9l3.9,1.9l-9.7,19.7l-3.9-1.9l-1.9,3.9l-19.8-9.7l1.9-3.9l-3.9-1.9l9.7-19.7l3.9,1.9
			l1.9-3.9L217.6,492.7z M211.7,494.6l-11.8-5.8l-9.7,19.7l11.8,5.7L211.7,494.6z"/>
		<path class="st4" d="M190.4,479.1l-18,24.9l-7.1-5.2l2.6-3.6l-3.6-2.6l2.6-3.6l-3.6-2.6l2.6-3.6l-3.6-2.6l-7.8,10.7l-7.1-5.2
			l18-24.9l7.1,5.2l-5.2,7.1l3.6,2.6l-2.6,3.6l3.6,2.6l-2.6,3.6l3.6,2.6l10.3-14.2L190.4,479.1z"/>
		<path class="st4" d="M162.2,458.6L146.5,474l-3-3.1l-3.1,3l-3-3.1l-3.1,3l-9.5-9.6l3.1-3l-3-3.1l3.1-3l-3-3.1l15.7-15.4l6.2,6.3
			l-6.3,6.2l9.3,9.5l6.3-6.2L162.2,458.6z M146.6,461.5l-9.3-9.5l-6.3,6.2l3,3.1l-3.1,3l3,3.1l3.1-3l3,3.1L146.6,461.5z"/>
		<path class="st4" d="M137.8,433.9l-25.2,17.5l-15.1-21.6l3.6-2.5l-2.5-3.6l10.8-7.6l5.1,7.2l3.6-2.5l-2.5-3.6l3.6-2.5l-2.5-3.6
			l3.6-2.5l7.6,10.8l-3.6,2.5l2.5,3.6l-3.6,2.5l2.5,3.6l7.2-5.1L137.8,433.9z M121.9,434.1l-5.1-7.2l-3.6,2.5l-2.5-3.6l-7.2,5.1
			l7.6,10.8L121.9,434.1z"/>
		<path class="st4" d="M117.8,405.4L90,418.7l-3.7-8l3.9-1.9l-1.9-3.9l3.9-1.9l-1.9-3.9l-3.9,1.9l-1.9-3.9l-3.9,1.9l-3.7-8
			l27.9-13.4l3.7,8l-16.1,7.7l1.9,3.9l8-3.7l1.9,3.9l-8,3.7L98,405l15.8-7.6L117.8,405.4z"/>
		<path class="st4" d="M99.1,361.1l-12.7,3.6l1.2,4.3l-4.3,1.2l1.2,4.3L71.9,378l-2.5-8.5l12.7-3.6l-2.5-8.5l-12.7,3.6l-2.5-8.5
			l12.7-3.6l1.2,4.3l4.3-1.2l1.2,4.3l12.7-3.6L99.1,361.1z"/>
	</g>
</g>
</svg>
