<?xml version="1.0" encoding="utf-8"?>
<!-- Generator: Adobe Illustrator 25.2.1, SVG Export Plug-In . SVG Version: 6.00 Build 0)  -->
<svg version="1.1" id="Capa_1" xmlns="http://www.w3.org/2000/svg" xmlns:xlink="http://www.w3.org/1999/xlink" x="0px" y="0px"
	 viewBox="0 0 600 600" style="enable-background:new 0 0 600 600;" xml:space="preserve">
<style type="text/css">
	.st0{fill:#002B2A;}
	.st1{fill:#FFFFFF;}
	.st2{fill:#00AAAA;}
	.st3{fill:#11726B;}
</style>
<g>
	<circle class="st0" cx="299" cy="299.5" r="285"/>
	<path class="st1" d="M236.6,525.6c0,0,12.8,25.8,62.4,25.8s62.5-25.8,62.5-25.8L454.7,360l34.5-81.2l-54.2-149.5l-150.4-25.8
		l-114.5,17l-36.3,46.2l-21.4,138.7l-6.9,93.9c0,0,26.9,51.3,27.7,57.2C134,462.2,236.6,525.6,236.6,525.6z"/>
	<path class="st2" d="M550.9,297.8c0,13.4-1.1,26.5-3,39.3c-1.1,7.5-2.6,14.8-4.5,22.1c-8.2,33-22.9,63.5-42.6,90
		c-1.7,2.3-3.5,4.6-5.3,6.9c-10.5,13.1-22.3,25.2-35.1,35.9c-2.2,1.9-4.5,3.7-6.7,5.5c-5.7,4.5-11.6,8.6-17.7,12.5
		c-5.5,3.6-11,6.9-16.7,10c-12.8,7.1-26.4,13-40.5,17.8c-12.8,2.5-17.3-5.4-17.3-12.1c0-8.3,0.3-35.5,0.3-69.4
		c0-23.6-8-39-17.1-46.8c56.1-6.3,115-27.7,115-124.8c0-27.6-9.7-50.2-25.9-67.9c2.6-6.4,11.2-32.1-2.5-66.9c0,0-21.1-6.8-69.2,25.9
		c-20.1-5.6-41.7-8.4-63-8.5c-21.5,0.1-43,2.9-63.1,8.5c-48.1-32.7-69.3-25.9-69.3-25.9c-13.7,34.8-5,60.5-2.5,66.9
		c-16.1,17.7-25.9,40.2-25.9,67.8c0,96.9,58.8,118.6,114.7,125c-7.2,6.3-13.7,17.5-16,33.8c-14.4,6.5-50.9,17.7-73.4-21
		c0,0-13.3-24.3-38.6-26.1c0,0-24.6-0.3-1.7,15.4c0,0,16.5,7.8,28,37c0,0,14.8,49.2,84.9,33.9c0.1,21.1,0.4,37,0.4,43
		c0,6.7-4.6,14.5-17.2,12.2c-7.4-2.5-14.7-5.3-21.8-8.4c-2.8-1.2-5.5-2.5-8.2-3.8c-21.9-10.6-42-24.3-59.8-40.5
		c-2.9-2.7-5.8-5.5-8.6-8.2c-37.6-37.8-63.5-87.3-71.4-142.7c-0.5-2.8-0.8-5.5-1.1-8.3c-1.1-9.2-1.6-18.5-1.6-28
		c0-5.5,0.2-10.9,0.6-16.3c0.1-1.9,0.2-3.8,0.4-5.7c0.3-4.3,0.8-8.7,1.5-13c0.5-4,1.1-8,1.9-12c11.8-63.2,47-118,96.1-155.2
		c2.2-1.7,4.5-3.3,6.8-4.9c40.9-28.9,90.8-45.9,144.6-45.9c2.3,0,4.5,0.1,6.8,0.1c2.7,0.1,5.4,0.2,8.1,0.4c4.8,0.2,9.6,0.6,14.2,1.2
		c4.8,0.5,9.5,1.2,14.1,2.1c7.6,1.3,15.1,3,22.5,5c3,0.8,6.1,1.7,9.1,2.6c14.1,4.4,27.6,10,40.4,16.7c5.4,2.8,10.7,5.7,15.8,8.9
		c18.4,11.3,35.2,24.8,50,40.2c4.1,4.3,8,8.7,11.8,13.2c23.5,28,41,61.2,50.6,97.5c1,3.7,1.9,7.4,2.7,11.1c0.5,2.1,0.9,4.2,1.3,6.3
		c0.5,2.8,1,5.6,1.4,8.5C549.8,271.4,550.9,284.5,550.9,297.8z"/>
	<path class="st3" d="M444.1,480.2l-35.5-35.4c-2-2-2.6-5-1.8-7.7c0.9-3,1.2-6.3,0.6-9.8c-1.5-8.8-8.6-16-17.4-17.4
		c-14.5-2.4-27,10.1-24.7,24.6c1.4,8.6,8,15.5,16.5,17.3c4,0.9,7.9,0.6,11.3-0.6c2.8-0.9,5.9-0.3,7.9,1.7l34.1,34.1l8.2,8.2
		c3.1-2.2,6-4.5,8.9-6.9L444.1,480.2z M396.2,433.7c-0.9,3.4-3.6,6.1-7.1,7c-7.7,2.1-14.6-4.8-12.5-12.5c0.9-3.4,3.6-6.2,7-7.1
		C391.4,419.1,398.3,426,396.2,433.7z M528.2,348.2c-0.3-1.7-0.8-3.4-1.5-4.9c-2.9-6.2-8.6-10.9-15.4-12.1
		c-13.6-2.5-25.4,7.9-25.4,21c0,8.2,4.7,15.4,11.5,18.9c2.6,1.4,4.3,4,4.3,7v46.7c0,2.8-0.9,5.6-2.4,7.9L479,462.9
		c13.1-14.4,24.5-30.3,33.8-47.4V378c0-2.9,1.7-5.6,4.3-7c1.1-0.6,2.2-1.3,3.1-2.1C526.2,364.4,529.7,356.7,528.2,348.2z
		 M504.4,361.9c-3.4-0.9-6.1-3.6-7-7c-2.1-7.8,4.8-14.6,12.5-12.6c3.4,0.9,6.2,3.6,7.1,7.1C519.1,357.1,512.2,364,504.4,361.9z"/>
	<path class="st3" d="M143.7,214.1c-1.4-8.9-8.6-16.1-17.6-17.6c-3.5-0.6-6.8-0.2-9.9,0.7c-2.8,0.9-5.8,0.3-7.8-1.8l-10.8-10.8
		l-8.3-8.3c-2,3.3-3.9,6.7-5.7,10.1l16.9,16.9c2.1,2.1,2.6,5,1.8,7.8c-1,3-1.3,6.4-0.7,9.9c1.4,8.9,8.6,16.1,17.6,17.6
		C133.6,241,146,228.6,143.7,214.1z M132.4,220.4c-0.9,3.4-3.6,6.1-7,7c-7.8,2.1-14.6-4.8-12.6-12.5c0.9-3.4,3.6-6.2,7.1-7.1
		C127.5,205.7,134.4,212.6,132.4,220.4z"/>
	<path class="st3" d="M386,128c-1.9-2.5-4.3-4.4-7.1-5.9c-2.5-1.3-4.1-3.8-4.1-6.7V68.4c-17.8-5.9-36.5-9.7-55.9-11.3h-39.6
		c-0.1,0-0.1,0-0.1,0c-6.6,0.5-13.1,1.3-19.6,2.4c-0.2,0.2-0.4,0.4-0.6,0.6l-36,36c-2.1,2.1-5,2.7-7.8,1.8c-3.1-1-6.4-1.3-10-0.7
		c-8.9,1.5-16.1,8.6-17.5,17.6c-2.3,14.5,10.1,26.9,24.6,24.6c8.9-1.4,16.1-8.7,17.6-17.6c0.6-3.5,0.3-6.9-0.7-10
		c-0.9-2.7-0.3-5.8,1.8-7.8l31.6-31.5c1-1,2.1-1.8,3.2-2.4c2.1-1.2,4.4-1.8,6.9-1.8h90.9v47.3c0,2.8-1.6,5.4-4.1,6.7
		c-2.8,1.4-5.2,3.4-7.1,5.9c-2.8,3.6-4.6,8.3-4.6,13.3c0.1,11.3,9.5,20.9,20.8,21.2c12,0.3,21.9-9.4,21.9-21.4
		C390.6,136.2,388.9,131.6,386,128z M218.7,120.9c-0.9,3.4-3.6,6.2-7.1,7.1c-7.8,2.1-14.6-4.8-12.5-12.6c0.9-3.4,3.6-6.2,7-7
		C213.9,106.3,220.8,113.2,218.7,120.9z M367.8,151.2c-3.2-0.5-6.2-2.6-7.6-5.5c-1.6-3.2-1.3-6.5,0-9.2c1.7-3.3,5.1-5.6,9.1-5.6
		c4,0,7.4,2.3,9.1,5.6c0.7,1.4,1.1,3,1.1,4.6C379.4,147.3,374,152.1,367.8,151.2z"/>
	<path class="st3" d="M133.5,285.5c-1.4-8.9-8.7-16.1-17.6-17.6c-3.5-0.6-6.9-0.3-10,0.7c-2.7,0.9-5.8,0.3-7.8-1.8l-24-24l-9.3-9.3
		c-1.1,4.2-2.2,8.4-3.1,12.7l9.6,9.6l18.9,19c2.1,2.1,2.7,5.1,1.8,7.8c-1,3.1-1.3,6.4-0.7,10c1.5,8.9,8.7,16.1,17.6,17.5
		C123.4,312.4,135.8,300,133.5,285.5z M122.2,291.8c-0.9,3.4-3.6,6.2-7.1,7.1c-7.7,2-14.6-4.8-12.5-12.6c0.9-3.4,3.6-6.2,7-7.1
		C117.4,277.1,124.3,284,122.2,291.8z"/>
	<path class="st3" d="M110.1,318.1c-8.8,1.5-16,8.6-17.4,17.4c-0.6,3.4-0.3,6.8,0.6,9.8c0.9,2.7,0.2,5.6-1.8,7.6l-14.2,14.2
		l-9.1,9.1c1.3,3.9,2.7,7.8,4.2,11.6l26.7-26.7c2.1-2.1,5.1-2.7,7.9-1.7c3.5,1.1,7.3,1.4,11.3,0.6c8.4-1.8,15-8.8,16.4-17.3
		C137.1,328.2,124.7,315.7,110.1,318.1z M123.5,342c-0.9,3.4-3.6,6.2-7,7.1c-7.8,2.1-14.6-4.8-12.6-12.6c0.9-3.4,3.6-6.2,7.1-7
		C118.7,327.4,125.5,334.3,123.5,342z"/>
	<path class="st3" d="M522.7,203.9l-23.6,23.6c-2.1,2.1-5,2.7-7.8,1.8c-3.1-1-6.4-1.3-10-0.7c-8.9,1.5-16.1,8.7-17.5,17.6
		c-2.3,14.5,10.1,26.9,24.6,24.6c8.9-1.4,16.1-8.7,17.6-17.6c0.6-3.5,0.3-6.9-0.7-10c-0.9-2.7-0.3-5.8,1.8-7.8l11.3-11.3l8.9-8.9
		C525.8,211.4,524.3,207.7,522.7,203.9z M494.7,252.4c-0.9,3.4-3.6,6.2-7.1,7.1c-7.8,2.1-14.6-4.8-12.5-12.6c0.9-3.4,3.6-6.2,7-7
		C489.8,237.8,496.7,244.7,494.7,252.4z"/>
	<path class="st3" d="M114.3,426.5c-1.5-8.5-8.4-15.4-16.9-17c-0.9-0.2-1.7-0.3-2.6-0.3c-4.2-0.3-8.2,0.7-11.6,2.5
		c1.8,3.4,3.6,6.7,5.5,9.9c2.2-1.2,4.7-1.5,7.4-0.9c3.4,0.9,6.1,3.6,7,7.1c1.1,4.3-0.5,8.4-3.6,10.8c2.2,3.1,4.3,6,6.7,9
		c3.2-2.4,5.7-5.7,7.1-9.5C114.5,434.5,115,430.5,114.3,426.5z M210.5,488.1c-8.8,1.5-16,8.6-17.4,17.4v0.2
		c-0.6,3.4-0.3,6.6,0.6,9.6c0.4,1.2,0.5,2.4,0.3,3.6c8.5,4,17.3,7.7,26.3,10.8c4.7-1.4,8.7-4.4,11.5-8.3c1.8-2.6,3-5.5,3.5-8.7
		C237.5,498.1,225.1,485.7,210.5,488.1z M216.9,519c-6.1,1.6-11.7-2.3-12.7-7.9c-0.3-1.5-0.3-3.1,0.1-4.7c0.9-3.4,3.6-6.2,7.1-7.1
		c7.8-2.1,14.6,4.8,12.5,12.6c-0.6,2.3-2,4.2-3.9,5.6C219.1,518.2,218,518.7,216.9,519z"/>
	<g>
		<g>
			<path class="st3" d="M444.1,480.2l8.1,8.1c9.6-7.8,18.5-16.2,26.7-25.3c0.1-0.1,0.1-0.1,0.1-0.1l20.2-30.3
				c1.5-2.3,2.4-5.1,2.4-7.9v-12.6C487,438.4,467.4,461.5,444.1,480.2z M315.1,68.2c16.7,1.1,32.9,4.1,48.5,8.6v-8.6H315.1z
				 M272.7,68.2c-2.5,0-4.8,0.6-6.9,1.8c5.6-0.9,11.3-1.4,17-1.8H272.7z M193.7,515.3c-0.9-3-1.1-6.2-0.6-9.6
				c-31.5-16.2-58.9-39.6-79.9-67.8c-6.8-9.1-13-18.8-18.4-28.8c-5.2-9.6-9.7-19.6-13.5-30l-8.8,8.8c3.1,8.1,6.7,16,10.7,23.6
				c1.8,3.4,3.6,6.7,5.5,9.9c3.4,5.8,7,11.5,10.8,17c2.2,3.1,4.3,6,6.7,9c23.1,30.2,53.2,54.8,87.8,71.4
				C194.1,517.7,194.1,516.5,193.7,515.3z M71.3,255.8c0.8-4.3,1.8-8.7,2.8-12.9c4.2-16.7,10.3-32.8,17.9-47.8l-8.5-8.5
				c-7.8,14.8-14.1,30.6-18.8,47c-1.1,4.2-2.2,8.4-3.1,12.7c-3.9,17.2-5.9,35.1-5.9,53.4c0,26.8,4.4,52.7,12.4,76.8l9.1-9.1
				c-6.6-21.4-10.1-44.2-10.1-67.7C67.2,284.6,68.6,269.9,71.3,255.8z M315.1,68.2c16.7,1.1,32.9,4.1,48.5,8.6v-8.6H315.1z
				 M272.7,68.2c-2.5,0-4.8,0.6-6.9,1.8c5.6-0.9,11.3-1.4,17-1.8H272.7z M315.1,68.2c16.7,1.1,32.9,4.1,48.5,8.6v-8.6H315.1z
				 M272.7,68.2c-2.5,0-4.8,0.6-6.9,1.8c5.6-0.9,11.3-1.4,17-1.8H272.7z M315.1,68.2c16.7,1.1,32.9,4.1,48.5,8.6v-8.6H315.1z
				 M272.7,68.2c-2.5,0-4.8,0.6-6.9,1.8c5.6-0.9,11.3-1.4,17-1.8H272.7z M527.2,215.3c-1.4-3.8-2.8-7.6-4.5-11.3
				c-27.4-63.8-81.3-113.7-147.9-135.5c-17.8-5.9-36.5-9.7-55.9-11.3c-6.6-0.5-13.2-0.8-20-0.8c-6.6,0-13.2,0.3-19.6,0.8
				c-0.1,0-0.1,0-0.1,0c-6.6,0.5-13.1,1.3-19.6,2.4c-72.6,11.8-134.5,55.9-170.4,117c-2,3.3-3.9,6.7-5.7,10.1
				c-7.8,14.8-14.1,30.6-18.8,47c-1.1,4.2-2.2,8.4-3.1,12.7c-3.9,17.2-5.9,35.1-5.9,53.4c0,26.8,4.4,52.7,12.4,76.8
				c1.3,3.9,2.7,7.8,4.2,11.6c3.1,8.1,6.7,16,10.7,23.6c1.8,3.4,3.6,6.7,5.5,9.9c3.4,5.8,7,11.5,10.8,17c2.2,3.1,4.3,6,6.7,9
				c23.1,30.2,53.2,54.8,87.8,71.4c8.5,4,17.3,7.7,26.3,10.8c1.7,0.6,3.4,1.1,5.2,1.7h0.1c9.8-1,6.2-10,6.2-10
				c-3.9-1.2-7.8-2.5-11.7-3.9c-5.4-1.9-10.6-4.1-15.8-6.4c-3.8-1.7-7.5-3.5-11.1-5.4c-31.5-16.2-58.9-39.6-79.9-67.8
				c-6.8-9.1-13-18.8-18.4-28.8c-5.2-9.6-9.7-19.6-13.5-30c-1.4-3.9-2.8-7.9-4-11.9c-6.6-21.4-10.1-44.2-10.1-67.7
				c0-14.9,1.4-29.6,4.2-43.7c0.8-4.3,1.8-8.7,2.8-12.9c4.2-16.7,10.3-32.8,17.9-47.8c1.8-3.5,3.6-7,5.5-10.3
				c31.4-54.9,84.5-95.8,147.6-110.8c6.7-1.6,13.6-2.9,20.6-3.9c5.6-0.9,11.3-1.4,17-1.8c5.3-0.4,10.7-0.6,16.1-0.6
				c5.4,0,10.8,0.2,16.1,0.6c16.7,1.1,32.9,4.1,48.5,8.6c3.8,1.1,7.5,2.3,11.2,3.5c63.3,21.9,114.1,70.6,139.1,132.3
				c1.6,3.8,3,7.6,4.3,11.5c8.2,23.6,12.6,49,12.6,75.4c0,15-1.4,29.6-4.2,43.8c-1.7,8.8-3.8,17.3-6.5,25.7
				c-2.2,6.9-4.6,13.7-7.4,20.3c-3.3,7.8-7,15.4-11.2,22.8c-14.6,26.3-34.2,49.4-57.5,68.1c-2.9,2.4-5.9,4.7-9,6.8
				c-19.8,14.4-41.9,25.8-65.7,33.4c-4.1,7.6,0.7,10.8,1.7,11.3c0.1,0,0.1,0,0.1,0c26.2-8.1,50.6-20.6,72.1-36.6
				c3.1-2.2,6-4.5,8.9-6.9c9.6-7.8,18.5-16.2,26.7-25.3c0.1-0.1,0.1-0.1,0.1-0.1c13.1-14.4,24.5-30.3,33.8-47.4
				c18.8-34.5,29.5-74,29.5-116C542.3,269.9,537,241.5,527.2,215.3z M272.7,68.2c-2.5,0-4.8,0.6-6.9,1.8c5.6-0.9,11.3-1.4,17-1.8
				H272.7z M315.1,68.2c16.7,1.1,32.9,4.1,48.5,8.6v-8.6H315.1z M272.7,68.2c-2.5,0-4.8,0.6-6.9,1.8c5.6-0.9,11.3-1.4,17-1.8H272.7z
				 M315.1,68.2c16.7,1.1,32.9,4.1,48.5,8.6v-8.6H315.1z M272.7,68.2c-2.5,0-4.8,0.6-6.9,1.8c5.6-0.9,11.3-1.4,17-1.8H272.7z
				 M315.1,68.2c16.7,1.1,32.9,4.1,48.5,8.6v-8.6H315.1z M272.7,68.2c-2.5,0-4.8,0.6-6.9,1.8c5.6-0.9,11.3-1.4,17-1.8H272.7z
				 M315.1,68.2c16.7,1.1,32.9,4.1,48.5,8.6v-8.6H315.1z"/>
		</g>
	</g>
	<path class="st3" d="M515.5,200.4h-61.2c-0.5,0-1-0.4-1-1v-9.2c0-0.5,0.4-1,1-1h61.2c0.5,0,1,0.4,1,1v9.2
		C516.4,200,516,200.4,515.5,200.4z"/>
	<path class="st3" d="M333.1,113.6h-61.2c-0.5,0-1-0.4-1-1v-9.2c0-0.5,0.4-1,1-1h61.2c0.5,0,1,0.4,1,1v9.2
		C334.1,113.2,333.7,113.6,333.1,113.6z"/>
	<path class="st3" d="M395.2,141.8v-26.8c0-0.5,0.4-1,1-1h9.2c0.5,0,1,0.4,1,1v26.8c0,0.5-0.4,1-1,1h-9.2
		C395.6,142.8,395.2,142.3,395.2,141.8z"/>
	<path class="st3" d="M451.8,399.9v-26.8c0-0.5,0.4-1,1-1h9.2c0.5,0,1,0.4,1,1v26.8c0,0.5-0.4,1-1,1h-9.2
		C452.3,400.9,451.8,400.5,451.8,399.9z"/>
	<path class="st3" d="M136.1,383.3H74.9c-0.5,0-1-0.4-1-1v-9.2c0-0.5,0.4-1,1-1h61.2c0.5,0,1,0.4,1,1v9.2
		C137.1,382.9,136.7,383.3,136.1,383.3z"/>
	<path class="st3" d="M456.9,205.1L456.9,205.1c-7.7,2-14.6-4.8-12.6-12.6c0.9-3.4,3.6-6.1,7-7c7.7-2,14.6,4.8,12.6,12.6
		C463.1,201.4,460.3,204.2,456.9,205.1"/>
	<path class="st3" d="M460.2,379.6L460.2,379.6c-7.7,2-14.6-4.8-12.6-12.6c0.9-3.4,3.6-6.1,7-7c7.7-2,14.6,4.8,12.6,12.6
		C466.3,376,463.6,378.7,460.2,379.6"/>
	<path class="st3" d="M460.2,410.5L460.2,410.5c-7.7,2-14.6-4.8-12.6-12.6c0.9-3.4,3.6-6.1,7-7c7.7-2,14.6,4.8,12.6,12.6
		C466.3,406.8,463.6,409.6,460.2,410.5"/>
	<path class="st3" d="M460.2,438.1L460.2,438.1c-7.7,2-14.6-4.8-12.6-12.6c0.9-3.4,3.6-6.1,7-7c7.7-2,14.6,4.8,12.6,12.6
		C466.3,434.4,463.6,437.2,460.2,438.1"/>
	<path class="st3" d="M506.6,309.3L506.6,309.3c-7.7,2-14.6-4.8-12.6-12.6c0.9-3.4,3.6-6.1,7-7c7.7-2,14.6,4.8,12.6,12.6
		C512.7,305.7,509.9,308.4,506.6,309.3"/>
	<path class="st3" d="M481.8,309L481.8,309c-7.7,2-14.6-4.8-12.6-12.6c0.9-3.4,3.6-6.1,7-7c7.7-2,14.6,4.8,12.6,12.6
		C487.9,305.3,485.2,308.1,481.8,309"/>
	<path class="st3" d="M221.9,437.6L221.9,437.6c-7.7,2-14.6-4.8-12.6-12.6c0.9-3.4,3.6-6.1,7-7c7.7-2,14.6,4.8,12.6,12.6
		C228,434,225.3,436.7,221.9,437.6"/>
	<path class="st3" d="M85.9,322.5L85.9,322.5c-7.7,2-14.6-4.8-12.6-12.6c0.9-3.4,3.6-6.1,7-7c7.7-2,14.6,4.8,12.6,12.6
		C92,318.8,89.3,321.6,85.9,322.5"/>
	<path class="st3" d="M141.9,387.5L141.9,387.5c-7.7,2-14.6-4.8-12.6-12.6c0.9-3.4,3.6-6.1,7-7c7.7-2,14.6,4.8,12.6,12.6
		C148,383.9,145.2,386.6,141.9,387.5"/>
	<path class="st3" d="M295.8,142.7L295.8,142.7c-7.7,2-14.6-4.8-12.6-12.6c0.9-3.4,3.6-6.1,7-7c7.7-2,14.6,4.8,12.6,12.6
		C301.9,139.1,299.2,141.8,295.8,142.7"/>
	<path class="st3" d="M403.5,123.4L403.5,123.4c-7.7,2-14.6-4.8-12.6-12.6c0.9-3.4,3.6-6.1,7-7c7.7-2,14.6,4.8,12.6,12.6
		C409.7,119.8,406.9,122.5,403.5,123.4"/>
	<path class="st3" d="M146.7,166.8L146.7,166.8c-7.7,2-14.6-4.8-12.6-12.6c0.9-3.4,3.6-6.1,7-7c7.7-2,14.6,4.8,12.6,12.6
		C152.9,163.2,150.1,165.9,146.7,166.8"/>
	<path class="st3" d="M277.1,117.8L277.1,117.8c-7.7,2-14.6-4.8-12.6-12.6c0.9-3.4,3.6-6.1,7-7c7.7-2,14.6,4.8,12.6,12.6
		C283.2,114.2,280.5,116.9,277.1,117.8"/>
</g>
</svg>
