<?xml version="1.0" encoding="utf-8"?>
<!-- Generator: Adobe Illustrator 25.2.1, SVG Export Plug-In . SVG Version: 6.00 Build 0)  -->
<svg version="1.1" id="Capa_1" xmlns="http://www.w3.org/2000/svg" xmlns:xlink="http://www.w3.org/1999/xlink" x="0px" y="0px"
	 viewBox="0 0 600 600" style="enable-background:new 0 0 600 600;" xml:space="preserve">
<style type="text/css">
	.st0{fill:#00AAAA;}
	.st1{fill:#FFFFFF;}
	.st2{fill:#11726B;}
	.st3{fill:#494949;}
	.st4{fill:#999999;}
	.st5{enable-background:new    ;}
</style>
<g>
	<g>
		<g>
			<circle class="st0" cx="300" cy="261" r="256.5"/>
			<path class="st1" d="M465.6,350c-3.5-0.6-7-0.3-10.1,0.7c-2.8,0.9-5.8,0.3-7.8-1.8l-36.4-36.4c-0.7-0.7-1.2-1.4-1.8-2.2
				l-51.9-77.9c-0.9-1.3-0.7-3.1,0.4-4.2l6.2-6.2l43.3-43.3c2.1-2.1,5.2-2.7,8-1.7c3.5,1.1,7.4,1.4,11.5,0.6
				c8.5-1.8,15.2-8.9,16.6-17.5c2.4-14.7-10.2-27.3-24.9-24.8c-9,1.4-16.1,8.7-17.7,17.6c-0.6,3.4-0.3,6.9,0.6,9.9
				c0.9,2.8,0.2,5.7-1.8,7.7l-41.9,41.9l-5.7,5.6c-1.2,1.2-3.4,1.1-4.4-0.5L308,158.2c-1.6-2.4-2.4-5.2-2.4-8V103
				c0-3,1.7-5.6,4.3-7.1c7.9-4.2,13-13.2,11.3-23.1c-1.5-8.7-8.5-15.7-17.1-17.2c-13.7-2.4-25.7,8.1-25.7,21.4
				c0,8.3,4.7,15.5,11.6,19.1c2.7,1.3,4.3,4.1,4.3,7.1v47.2c0,2.9-0.9,5.6-2.4,8l-39.6,59.4c-1,1.5-3.2,1.7-4.4,0.5l-47.4-47.6
				c-2-2-2.7-5-1.8-7.7c1-3.1,1.2-6.4,0.6-9.9c-1.5-9-8.7-16.1-17.7-17.6c-14.7-2.4-27.3,10.1-24.9,24.8c1.4,8.6,8.1,15.7,16.6,17.6
				c4,0.9,7.9,0.6,11.5-0.6c2.8-1,5.9-0.4,8,1.7l98.1,98.1c2.2,2.2,3.5,5.3,3.5,8.4v24.1h-85.1c-1.9,0-3.1-2.2-2-3.7l35.8-53.8
				c1.2-1.8,1.4-4.3,0.3-6.2c-2.3-3.7-7.4-3.6-9.5-0.3l-43.3,64.8c-0.6,0.8-1.1,1.5-1.8,2.2L152.4,349c-2.1,2.1-5.1,2.7-7.8,1.8
				c-3.2-1-6.5-1.3-10.1-0.8c-9,1.5-16.2,8.7-17.8,17.8c-2.4,14.7,10.2,27.2,24.8,24.8c9-1.4,16.2-8.7,17.8-17.8
				c0.6-3.5,0.3-7-0.7-10.1c-0.9-2.8-0.3-5.8,1.8-7.8l31.9-31.9c2.7-2.7,6.4-4.2,10.2-4.2h91.9v47.7c0,2.9-1.6,5.4-4.1,6.7
				c-2.8,1.4-5.3,3.4-7.2,5.9c-3,3.7-4.7,8.4-4.6,13.5c0.1,11.5,9.5,21.2,21,21.5c12.2,0.3,22.3-9.5,22.3-21.6
				c0-5.1-1.7-9.6-4.7-13.4c-1.9-2.5-4.4-4.5-7.2-5.9c-2.6-1.3-4.1-3.9-4.1-6.7v-83.2c0-3.2,1.2-6.2,3.5-8.4l7.8-7.8l19.2-19.2
				c1.7-1.7,2.4-4.3,1.3-6.5c-1.7-3.7-6.4-4.5-9.2-1.7l-26.4,26.4c-1.1,1.1-3,1.1-4,0l-37.4-37.4c-1.1-1.1-1.3-2.9-0.4-4.2
				l37.9-56.8c1-1.4,3.1-1.4,4,0l90.8,136.2c1.1,1.6-0.1,3.7-2,3.7h-67.9c-2.7,0-5.2,1.7-5.7,4.3c-0.9,3.7,1.9,7.1,5.4,7.1h75
				c3.8,0,7.5,1.5,10.2,4.2L440,357c2.1,2.1,2.7,5.1,1.8,7.8c-1,3.2-1.3,6.5-0.7,10.1c1.4,9,8.7,16.2,17.8,17.8
				c14.7,2.4,27.2-10.2,24.8-24.8C481.9,358.8,474.7,351.5,465.6,350L465.6,350z M419.5,146.6c7.8-2.1,14.8,4.9,12.7,12.7
				c-1,3.4-3.7,6.2-7.2,7.1c-7.8,2.1-14.8-4.9-12.7-12.7C413.3,150.3,416,147.6,419.5,146.6L419.5,146.6z M180.8,166.6
				c-7.8,2.1-14.8-4.9-12.7-12.7c1-3.4,3.7-6.2,7.2-7.2c7.8-2.1,14.8,4.9,12.7,12.7C186.9,162.8,184.2,165.6,180.8,166.6
				L180.8,166.6z M140.8,381.2c-7.8,2.1-14.8-4.9-12.7-12.7c1-3.4,3.7-6.2,7.2-7.1c7.8-2.1,14.8,4.9,12.7,12.7
				C147,377.5,144.2,380.4,140.8,381.2L140.8,381.2z M309.3,389.9c0.7,1.4,1.1,3,1.1,4.7c0,6.1-5.4,11.1-11.7,10.2
				c-3.2-0.5-6.2-2.6-7.7-5.5c-1.6-3.2-1.3-6.6,0-9.3c1.7-3.3,5.2-5.6,9.2-5.6C304,384.3,307.5,386.6,309.3,389.9L309.3,389.9z
				 M290.2,79.8c-2.1-7.8,4.9-14.8,12.7-12.7c3.4,1,6.2,3.7,7.2,7.2c2.1,7.8-4.9,14.8-12.7,12.7C293.8,86,291,83.2,290.2,79.8
				L290.2,79.8z M464.8,381.2c-7.8,2.1-14.8-4.9-12.7-12.7c1-3.4,3.7-6.2,7.2-7.2c7.8-2.1,14.8,4.9,12.7,12.7
				C471,377.5,468.3,380.4,464.8,381.2"/>
			<g>
				<g>
					<g>
						<g>
							<g>
								<path class="st2" d="M300,13.4c-63.6,0-121.6,24.1-165.5,63.6c-0.3,0.3-0.7,0.5-1,0.8l0,0C83.7,123.1,52.4,188.5,52.4,261
									c0,75.4,33.9,143.1,87.4,188.6c0.1,0.1,0.2,0.2,0.4,0.3c1.1,1,2.3,1.9,3.4,2.9c0.7,0.5,1.2,1.1,1.9,1.5
									c1.1,0.9,2.1,1.6,3.1,2.5l0.1,0.1c20.9,16.2,44.6,29.2,70.1,38.1c25.5,8.9,52.9,13.8,81.5,13.8
									c136.6,0,247.7-111.1,247.7-247.7S436.6,13.4,300,13.4z M525.3,201h-17.1c-1.9,0-3.1-2.2-2-3.7l12-18.1
									C520.9,186.2,523.3,193.6,525.3,201z M83.1,175.8l14.3,21.5c1.1,1.6-0.1,3.7-2,3.7H74.8C77.1,192.4,79.9,184,83.1,175.8z
									 M209.6,475.8l20.1-30.2c1-1.4,3.1-1.4,4,0l30.5,45.7C245.2,488.4,226.9,483.1,209.6,475.8z M229,362.9
									c-3.4-1-6.2-3.7-7.2-7.1c-2.1-7.8,4.9-14.8,12.7-12.7c3.4,1,6.2,3.7,7.2,7.2C243.7,358,236.7,365,229,362.9z M504.4,310.7
									c-3.4-0.9-6.2-3.7-7.2-7.1c-2.1-7.8,4.9-14.8,12.7-12.7c3.4,1,6.2,3.7,7.2,7.2C519.1,305.8,512.1,312.8,504.4,310.7z
									 M512.8,327c0-3,1.7-5.6,4.3-7.1c7.9-4.2,13-13.2,11.3-23.1c-1.5-8.6-8.5-15.7-17.1-17.2c-13.8-2.6-25.7,7.9-25.7,21.2
									c0,8.3,4.7,15.5,11.7,19.1c2.7,1.3,4.3,4.1,4.3,7.1v47.1c0,2.9-0.9,5.6-2.4,8l-10.9,16.4c-10.7,14.6-23.1,28-36.9,39.7
									l-43.7-43.7c-2-2-2.7-5.1-1.8-7.7c1-3.1,1.2-6.4,0.7-9.9c-1.5-9-8.7-16.1-17.7-17.6c-14.7-2.4-27.3,10.1-24.9,24.8
									c1.3,8.6,8.1,15.7,16.6,17.5c4.1,0.9,7.9,0.6,11.5-0.6c2.8-1,5.9-0.4,8,1.7l42.7,42.7c-39.4,30.6-88.8,48.7-142.5,48.7H300
									l39.3-39.3c2.1-2.1,5.2-2.7,7.9-1.7c3.5,1.1,7.4,1.4,11.5,0.6c8.6-1.8,15.3-8.9,16.6-17.5c2.4-14.7-10.2-27.3-24.9-24.8
									c-8.9,1.4-16.1,8.7-17.7,17.6c-0.6,3.4-0.3,6.9,0.6,9.9c0.9,2.8,0.2,5.7-1.8,7.7l-47.1,47.1c-1.8-0.1-3.6-0.3-5.3-0.4
									l-39.2-58.8c-1.6-2.4-2.4-5.2-2.4-8v-47.2c0-3,1.7-5.6,4.3-7.1c7.9-4.2,13-13.2,11.3-23.1c-1.5-8.7-8.5-15.7-17.1-17.2
									c-13.8-2.6-25.7,7.9-25.7,21.2c0,8.3,4.7,15.5,11.6,19.1c2.7,1.3,4.4,4.1,4.4,7.1v47.2c0,2.9-0.9,5.6-2.4,8l-24.5,36.8
									c-14.2-6.9-27.7-15.2-40.1-24.7l0.9-0.9c2.1-2.1,5.2-2.7,7.9-1.7c3.5,1.1,7.4,1.4,11.5,0.6c8.5-1.8,15.2-8.9,16.6-17.5
									c2.4-14.7-10.2-27.3-24.9-24.8c-9,1.4-16.1,8.7-17.7,17.7c-0.6,3.4-0.3,6.9,0.7,9.9c0.9,2.8,0.2,5.7-1.8,7.7l-1.9,1.9
									c-29.7-25-53.1-57.2-67.3-94l17.7-18.1c2.1-2.1,5.2-2.7,8-1.7c3.5,1.1,7.4,1.4,11.5,0.6c8.5-1.8,15.3-8.9,16.6-17.5
									c2.4-14.7-10.2-27.3-24.9-24.8c-9,1.4-16.1,8.7-17.7,17.6c-0.6,3.4-0.4,6.9,0.6,9.9c0.9,2.8,0.2,5.7-1.8,7.7l-14.5,14.5
									C71,310.8,67,286.4,67,261.1c0-16.7,1.8-32.9,5.2-48.7h30.1c3.8,0,7.5,1.5,10.2,4.2l31.9,31.9c2.1,2.1,2.7,5.2,1.7,7.9
									c-1,3.1-1.3,6.5-0.7,10c1.5,9,8.8,16.3,17.8,17.8c14.7,2.4,27.2-10.2,24.8-24.8c-1.4-9-8.7-16.2-17.8-17.8
									c-3.5-0.6-7-0.3-10,0.7c-2.8,0.9-5.8,0.3-7.9-1.8L116,204.1c-0.7-0.7-1.3-1.4-1.8-2.2l-25.7-38.5
									c13.3-28.7,32.3-54.2,55.5-75.3l0.8,0.8c2.1,2.1,2.7,5.2,1.8,7.9c-1.1,3.1-1.3,6.5-0.7,10.1c1.4,9,8.7,16.2,17.8,17.8
									c14.7,2.4,27.2-10.2,24.8-24.8c-1.4-9-8.7-16.2-17.8-17.8c-3.5-0.6-7-0.3-10.1,0.7c-2.8,0.9-5.8,0.3-7.9-1.8l-0.2-0.2
									c29.3-24,64.5-41.1,103.1-48.5l-27.8,27.8c-2.1,2.1-5.1,2.7-7.9,1.7c-3.1-1-6.5-1.3-10-0.7c-9,1.5-16.3,8.8-17.8,17.8
									c-2.4,14.7,10.2,27.2,24.8,24.8c9-1.4,16.2-8.7,17.8-17.8c0.6-3.5,0.3-7-0.7-10c-0.9-2.8-0.3-5.8,1.7-7.9l31.9-31.9
									c0.6-0.6,1.2-1.1,1.9-1.6c0.9-0.6,1.7-1.1,2.7-1.4c0.1,0,0.1-0.1,0.2-0.1c5.7-2.8,13.8-5,24.9-5c30.1,0,45.3,3.9,45.3,3.9
									c9.3,1.7,18.2,4,27.1,6.8v41.1c0,2.9-1.6,5.4-4.1,6.7c-2.8,1.4-5.3,3.4-7.2,5.9c-3,3.7-4.7,8.4-4.6,13.5
									c0.1,11.5,9.5,21.2,21,21.5c12.2,0.3,22.3-9.5,22.3-21.6c0-5.1-1.7-9.6-4.7-13.4c-1.9-2.5-4.4-4.5-7.2-5.9
									c-2.5-1.3-4.1-3.8-4.1-6.7V42.6c46.9,17.5,86.7,49.7,113.7,90.8l-11.7,11.7c-2.1,2.1-5.2,2.7-7.9,1.8
									c-3.1-1.1-6.5-1.3-10-0.8c-9,1.5-16.3,8.8-17.8,17.8c-2.4,14.7,10.2,27.2,24.8,24.8c9-1.4,16.2-8.7,17.8-17.8
									c0.6-3.5,0.3-7-0.7-10.1c-0.9-2.8-0.3-5.8,1.8-7.9l9.8-9.8c4.4,7.5,8.4,15.3,12,23.3l-23.6,35.3c-0.5,0.8-1.1,1.5-1.8,2.2
									l-36.4,36.5c-2.1,2.1-5.1,2.7-7.8,1.8c-3.2-1.1-6.5-1.3-10.1-0.8c-9,1.5-16.2,8.8-17.8,17.8c-2.4,14.7,10.2,27.2,24.8,24.8
									c9-1.4,16.2-8.7,17.8-17.8c0.6-3.5,0.3-7-0.7-10.1c-0.9-2.8-0.3-5.8,1.8-7.9l31.9-31.9c2.7-2.7,6.4-4.2,10.2-4.2h26.5
									c3.3,15.8,5.2,32,5.2,48.7c0,33.9-7.3,66.1-20.3,95.1V327L512.8,327z M394.9,383.2c-1,3.4-3.7,6.2-7.2,7.2
									c-7.8,2.1-14.8-4.9-12.7-12.7c1-3.4,3.7-6.2,7.2-7.2C390.1,368.4,397,375.4,394.9,383.2z M344,429.7
									c0.9-3.4,3.7-6.2,7.2-7.2c7.8-2.1,14.8,4.9,12.7,12.7c-1,3.4-3.7,6.2-7.2,7.1C348.9,444.4,341.9,437.5,344,429.7z
									 M164.7,420.5c1-3.4,3.7-6.2,7.2-7.2c7.8-2.1,14.8,4.9,12.7,12.7c-1,3.4-3.7,6.2-7.2,7.1
									C169.6,435.3,162.6,428.3,164.7,420.5z M105.6,302.3c1-3.4,3.7-6.2,7.2-7.2c7.8-2.1,14.8,4.9,12.7,12.7
									c-1,3.4-3.7,6.2-7.2,7.2C110.5,317,103.6,310,105.6,302.3z M156.8,260c0.9-3.4,3.7-6.2,7.1-7.2c7.8-2.1,14.8,4.9,12.7,12.7
									c-1,3.4-3.7,6.2-7.2,7.2C161.6,274.9,154.7,267.9,156.8,260z M157.2,100.6c1-3.4,3.7-6.2,7.2-7.2
									c7.8-2.1,14.8,4.9,12.7,12.7c-1,3.4-3.7,6.2-7.2,7.2C162.1,115.4,155.1,108.4,157.2,100.6z M223.4,85.2
									c-1,3.4-3.7,6.2-7.2,7.2c-7.8,2.1-14.8-4.9-12.7-12.7c1-3.4,3.7-6.2,7.2-7.1C218.5,70.5,225.4,77.5,223.4,85.2z M375.5,95.4
									c4,0,7.4,2.3,9.2,5.6c0.7,1.4,1.1,3,1.1,4.7c0,6.1-5.4,11.1-11.7,10.2c-3.2-0.5-6.2-2.6-7.7-5.5c-1.6-3.2-1.3-6.6,0-9.3
									C368,97.7,371.4,95.4,375.5,95.4z M478.7,170.3c-1,3.4-3.7,6.2-7.2,7.2c-7.8,2.1-14.8-4.9-12.7-12.7c1-3.4,3.7-6.2,7.2-7.2
									C473.8,155.5,480.8,162.5,478.7,170.3z M446.8,265.6c-1,3.4-3.7,6.2-7.2,7.2c-7.8,2.1-14.8-4.9-12.7-12.7
									c1-3.4,3.7-6.2,7.2-7.2C441.9,250.9,448.9,257.9,446.8,265.6z"/>
							</g>
						</g>
					</g>
					<g>
						<path class="st2" d="M150.1,219.3L150.1,219.3c-7.8,2.1-14.8-4.9-12.7-12.7c1-3.4,3.7-6.2,7.2-7.2c7.8-2.1,14.8,4.9,12.7,12.7
							C156.3,215.5,153.5,218.3,150.1,219.3"/>
					</g>
					<g>
						<path class="st2" d="M206,132.7L206,132.7c-7.8,2.1-14.8-4.9-12.7-12.7c1-3.4,3.7-6.2,7.2-7.2c7.8-2.1,14.8,4.9,12.7,12.7
							C212.2,128.9,209.5,131.7,206,132.7"/>
					</g>
					<g>
						<path class="st2" d="M129.5,198.6L129.5,198.6c-7.8,2.1-14.8-4.9-12.7-12.7c1-3.4,3.7-6.2,7.2-7.2c7.8-2.1,14.8,4.9,12.7,12.7
							C135.7,195,133,197.8,129.5,198.6"/>
					</g>
					<g>
						<path class="st2" d="M349.4,401.8L349.4,401.8c-7.8,2.1-14.8-4.9-12.7-12.7c1-3.4,3.7-6.2,7.2-7.2c7.8-2.1,14.8,4.9,12.7,12.7
							C355.6,398.1,352.7,400.9,349.4,401.8"/>
					</g>
					<g>
						<path class="st2" d="M503.1,245.7L503.1,245.7c-7.8,2.1-14.8-4.9-12.7-12.7c1-3.4,3.7-6.2,7.2-7.2c7.8-2.1,14.8,4.9,12.7,12.7
							C509.3,242,506.6,244.8,503.1,245.7"/>
					</g>
					<g>
						<path class="st2" d="M481.8,264.5L481.8,264.5c-7.8,2.1-14.8-4.9-12.7-12.7c1-3.4,3.7-6.2,7.2-7.2c7.8-2.1,14.8,4.9,12.7,12.7
							C488,260.9,485.3,263.7,481.8,264.5"/>
					</g>
					<g>
						<path class="st2" d="M354.7,60.5L354.7,60.5c-7.8,2.1-14.8-4.9-12.7-12.7c1-3.4,3.7-6.2,7.2-7.2c7.8-2.1,14.8,4.9,12.7,12.7
							C360.9,56.8,358.2,59.6,354.7,60.5"/>
					</g>
					<g>
						<path class="st2" d="M356.7,198.4L356.7,198.4c-7.8,2.1-14.8-4.9-12.7-12.7c1-3.4,3.7-6.2,7.2-7.2c7.8-2.1,14.8,4.9,12.7,12.7
							C362.9,194.6,360.2,197.4,356.7,198.4"/>
					</g>
					<g>
						<path class="st2" d="M378.3,170.4L378.3,170.4c-7.8,2.1-14.8-4.9-12.7-12.7c1-3.4,3.7-6.2,7.2-7.2c7.8-2.1,14.8,4.9,12.7,12.7
							C384.5,166.7,381.7,169.4,378.3,170.4"/>
					</g>
					<g>
						<path class="st2" d="M180.8,390.4L180.8,390.4c-7.8,2.1-14.8-4.9-12.7-12.7c1-3.4,3.7-6.2,7.2-7.2c7.8-2.1,14.8,4.9,12.7,12.7
							C186.9,386.7,184.2,389.4,180.8,390.4"/>
					</g>
					<g>
						<path class="st2" d="M100.6,274L100.6,274c-7.8,2.1-14.8-4.9-12.7-12.7c1-3.4,3.7-6.2,7.2-7.2c7.8-2.1,14.8,4.9,12.7,12.7
							C106.8,270.3,104,273,100.6,274"/>
					</g>
					<g>
						<path class="st2" d="M100.6,245.2L100.6,245.2c-7.8,2.1-14.8-4.9-12.7-12.7c1-3.4,3.7-6.2,7.2-7.2c7.8-2.1,14.8,4.9,12.7,12.7
							C106.8,241.5,104,244.4,100.6,245.2"/>
					</g>
					<g>
						<path class="st2" d="M394.6,432.1L394.6,432.1c-7.8,2.1-14.8-4.9-12.7-12.7c1-3.4,3.7-6.2,7.2-7.2c7.8-2.1,14.8,4.9,12.7,12.7
							C400.8,428.4,398.1,431.2,394.6,432.1"/>
					</g>
					<g>
						<path class="st2" d="M425,390.4L425,390.4c-7.8,2.1-14.8-4.9-12.7-12.7c1-3.4,3.7-6.2,7.2-7.2c7.8-2.1,14.8,4.9,12.7,12.7
							C431.2,386.7,428.4,389.4,425,390.4"/>
					</g>
					<g>
						<path class="st2" d="M414.8,448.8L414.8,448.8c-7.8,2.1-14.8-4.9-12.7-12.7c1-3.4,3.7-6.2,7.2-7.2c7.8-2.1,14.8,4.9,12.7,12.7
							C421,445.1,418.1,447.9,414.8,448.8"/>
					</g>
					<g>
						<path class="st2" d="M286.8,477.9L286.8,477.9c-7.8,2.1-14.8-4.9-12.7-12.7c1-3.4,3.7-6.2,7.2-7.2c7.8-2.1,14.8,4.9,12.7,12.7
							C293,474.1,290.3,476.9,286.8,477.9"/>
					</g>
					<g>
						<path class="st2" d="M330.6,60.5L330.6,60.5c-7.8,2.1-14.8-4.9-12.7-12.7c1-3.4,3.7-6.2,7.2-7.2c7.8-2.1,14.8,4.9,12.7,12.7
							C336.8,56.8,334,59.6,330.6,60.5"/>
					</g>
					<rect x="58.6" y="229.7" class="st2" width="32.5" height="11.4"/>
					<rect x="501.1" y="230.2" class="st2" width="32.5" height="11.4"/>
					<rect x="406.3" y="441.4" class="st2" width="11.4" height="32.5"/>
					<path class="st2" d="M348.2,183.8v-30.6c0-0.6,0.5-1,1-1h9.4c0.6,0,1,0.5,1,1v30.6c0,0.6-0.5,1-1,1h-9.4
						C348.7,184.8,348.2,184.3,348.2,183.8z"/>
					<path class="st2" d="M172.8,215h-30.6c-0.6,0-1-0.5-1-1v-9.4c0-0.6,0.5-1,1-1h30.6c0.6,0,1,0.5,1,1v9.4
						C173.9,214.6,173.4,215,172.8,215z"/>
					<path class="st2" d="M266.1,128.4h-61.9c-0.6,0-1-0.5-1-1V118c0-0.6,0.5-1,1-1h61.9c0.6,0,1,0.5,1,1v9.4
						C267.1,128,266.6,128.4,266.1,128.4z"/>
					<path class="st2" d="M473.4,288.4v-30.6c0-0.6,0.5-1,1-1h9.4c0.6,0,1,0.5,1,1v30.6c0,0.6-0.5,1-1,1h-9.4
						C473.8,289.4,473.4,288.9,473.4,288.4z"/>
					<path class="st2" d="M277.6,463.6v-30.6c0-0.6,0.5-1,1-1h9.4c0.6,0,1,0.5,1,1v30.6c0,0.6-0.5,1-1,1h-9.4
						C277.9,464.6,277.6,464.2,277.6,463.6z"/>
					<rect x="121" y="92.7" class="st2" width="11.4" height="93.9"/>
					<rect x="322.2" y="19.8" class="st2" width="11.4" height="34.1"/>
				</g>
			</g>
		</g>
		<g>
			<path class="st3" d="M149.3,451.1c-3.4,0-6.3-2.9-6.3-6.3v-75.5c0-3.4,2.9-6.3,6.3-6.3h312.9c3.4,0,6.3,2.9,6.3,6.3v75.5
				c0,3.4-2.9,6.3-6.3,6.3H149.3z"/>
			<path class="st4" d="M462.2,366c1.8,0,3.2,1.4,3.2,3.2v75.5c0,1.8-1.4,3.2-3.2,3.2H149.3c-1.8,0-3.2-1.4-3.2-3.2v-75.5
				c0-1.8,1.4-3.2,3.2-3.2H462.2 M462.2,359.9H149.3c-5.2,0-9.4,4.2-9.4,9.4v75.5c0,5.2,4.2,9.4,9.4,9.4h312.9
				c5.2,0,9.4-4.2,9.4-9.4v-75.5C471.6,364.1,467.4,359.9,462.2,359.9L462.2,359.9z"/>
		</g>
		<g class="st5">
			<path class="st1" d="M162.2,438.8v-64.9h18.5v9.3h9.3v9.3h9.3v9.3h9.3v-27.8h18.5v64.9h-18.5v-18.5h-9.3V411H190v-9.3h-9.3v37.1
				H162.2z"/>
			<path class="st1" d="M236.4,438.8v-64.9h64.9v9.3h-46.4v18.5H292v9.3h-37.1v18.5h46.4v9.3H236.4z"/>
			<path class="st1" d="M319.8,438.8v-9.3h-9.3v-55.6h18.5V411h9.3v-37.1h9.3V411h9.3v-37.1h18.5v55.6h-9.3v9.3h-9.3v-9.3h-9.3v-9.3
				h-9.3v9.3h-9.3v9.3H319.8z"/>
			<path class="st1" d="M394,438.8v-9.3h-9.3v-9.3h18.5v9.3h27.8V411H394v-9.3h-9.3v-18.5h9.3v-9.3h46.4v9.3h9.3v9.3h-18.5v-9.3
				h-27.8v18.5h37.1v9.3h9.3v18.5h-9.3v9.3H394z"/>
		</g>
	</g>
	<g>
		<g class="st5">
			<path d="M9,589.9v-43.1h12.3v6.2h6.2v6.2h6.2v6.2h6.2v-18.5h12.3v43.1H39.8v-12.3h-6.2v-6.2h-6.2v-6.2h-6.2v24.6H9z"/>
			<path d="M58.3,589.9v-43.1h43.1v6.2H70.6v12.3h24.6v6.2H70.6v12.3h30.8v6.2L58.3,589.9L58.3,589.9z"/>
			<path d="M113.6,589.9v-6.2h-6.2v-37h12.3v24.6h6.2v-24.6h6.2v24.6h6.2v-24.6h12.3v37h-6.2v6.2h-6.2v-6.2h-6.2v-6.2h-6.2v6.2h-6.2
				v6.2H113.6z"/>
			<path d="M162.9,589.9v-6.2h-6.2v-6.2h12.3v6.2h18.5v-12.3h-24.6v-6.2h-6.2v-12.3h6.2v-6.2h30.8v6.2h6.2v6.2h-12.3v-6.2h-18.5
				v12.3h24.6v6.2h6.2v12.3h-6.2v6.2H162.9z"/>
			<path d="M267.5,589.9v-6.2h-6.2v-6.2h-6.2v-18.5h6.2v-6.2h6.2v-6.2h24.6v6.2h6.2v6.2H286v-6.2h-12.3v6.2h-6.2v18.5h6.2v6.2H286
				v-6.2h12.3v6.2h-6.2v6.2H267.5z"/>
			<path d="M304.5,589.9v-43.1h12.3v18.5h18.5v-18.5h12.3v43.1h-12.3v-18.5h-18.5v18.5H304.5z"/>
			<path d="M353.6,589.9v-30.8h6.2v-6.2h6.2v-6.2h18.5v6.2h6.2v6.2h6.2v30.8h-12.3v-12.3h-18.5v12.3H353.6z M365.9,571.5h18.5v-12.3
				h-6.2v-6.2h-6.2v6.2h-6.2L365.9,571.5L365.9,571.5z"/>
			<path d="M402.9,589.9v-43.1h12.3v6.2h6.2v6.2h6.2v6.2h6.2v-18.5H446v43.1h-12.3v-12.3h-6.2v-6.2h-6.2v-6.2h-6.2v24.6H402.9z"/>
			<path d="M452,589.9v-43.1h12.3v6.2h6.2v6.2h6.2v6.2h6.2v-18.5h12.3v43.1h-12.3v-12.3h-6.2v-6.2h-6.2v-6.2h-6.2v24.6H452z"/>
			<path d="M501.3,589.9v-43.1h43.1v6.2h-30.8v12.3h24.6v6.2h-24.6v12.3h30.8v6.2L501.3,589.9L501.3,589.9z"/>
			<path d="M556.6,589.9v-43.1h12.3v37h24.6v6.2H556.6z"/>
		</g>
		<g class="st5">
			<path class="st1" d="M6.4,582.2v-43.1h12.3v6.2h6.2v6.2h6.2v6.2h6.2v-18.5h12.3v43.1H37.2v-12.3h-6.2v-6.2h-6.2v-6.2h-6.2v24.6
				H6.4z"/>
			<path class="st1" d="M55.7,582.2v-43.1h43v6.2H67.9v12.3h24.6v6.2H67.9v12.3h30.8v6.2L55.7,582.2L55.7,582.2z"/>
			<path class="st1" d="M111,582.2v-6.2h-6.2v-37h12.3v24.6h6.2v-24.6h6.2v24.6h6.2v-24.6H148v37h-6.2v6.2h-6.2v-6.2h-6.2v-6.2h-6.2
				v6.2h-6.2v6.2H111z"/>
			<path class="st1" d="M160.3,582.2v-6.2h-6.2v-6.2h12.3v6.2h18.5v-12.3h-24.6v-6.2h-6.2v-12.3h6.2v-6.2h30.8v6.2h6.2v6.2h-12.3
				v-6.2h-18.5v12.3h24.6v6.2h6.2v12.3h-6.2v6.2H160.3z"/>
			<path class="st1" d="M264.9,582.2v-6.2h-6.2v-6.2h-6.2v-18.5h6.2v-6.2h6.2v-6.2h24.6v6.2h6.2v6.2h-12.3v-6.2h-12.3v6.2h-6.2v18.5
				h6.2v6.2h12.3v-6.2h12.3v6.2h-6.2v6.2H264.9z"/>
			<path class="st1" d="M301.7,582.2v-43.1H314v18.5h18.5v-18.5h12.3v43.1h-12.3v-18.5H314v18.5H301.7z"/>
			<path class="st1" d="M351,582.2v-30.8h6.2v-6.2h6.2v-6.2h18.5v6.2h6.2v6.2h6.2v30.8h-12.3v-12.3h-18.5v12.3H351z M363.3,563.8
				h18.5v-12.3h-6.2v-6.2h-6.2v6.2h-6.2V563.8z"/>
			<path class="st1" d="M400.3,582.2v-43.1h12.3v6.2h6.2v6.2h6.2v6.2h6.2v-18.5h12.3v43.1h-12.3v-12.3h-6.2v-6.2h-6.2v-6.2h-6.2
				v24.6H400.3z"/>
			<path class="st1" d="M449.4,582.2v-43.1h12.3v6.2h6.2v6.2h6.2v6.2h6.2v-18.5h12.3v43.1h-12.3v-12.3h-6.2v-6.2h-6.2v-6.2h-6.2
				v24.6H449.4z"/>
			<path class="st1" d="M498.7,582.2v-43.1h43.1v6.2h-30.8v12.3h24.6v6.2h-24.6v12.3h30.8v6.2L498.7,582.2L498.7,582.2z"/>
			<path class="st1" d="M554,582.2v-43.1h12.3v37H591v6.2H554z"/>
		</g>
	</g>
</g>
</svg>
