<?xml version="1.0" encoding="utf-8"?>
<!-- Generator: Adobe Illustrator 25.2.1, SVG Export Plug-In . SVG Version: 6.00 Build 0)  -->
<svg version="1.1" id="Capa_1" xmlns="http://www.w3.org/2000/svg" xmlns:xlink="http://www.w3.org/1999/xlink" x="0px" y="0px"
	 viewBox="0 0 600 600" style="enable-background:new 0 0 600 600;" xml:space="preserve">
<style type="text/css">
	.st0{fill:#01302F;}
	.st1{fill:#00AAAA;}
	.st2{fill:#FFFFFF;}
	.st3{fill:#11726B;}
</style>
<g>
	<g>
		<circle class="st0" cx="300" cy="300" r="285"/>
		<circle class="st1" cx="300" cy="299.8" r="273.8"/>
		<path class="st2" d="M476.8,394.8c-3.7-0.6-7.5-0.3-10.8,0.7c-3,1-6.2,0.3-8.4-1.9l-38.7-38.7c-0.7-0.7-1.4-1.5-1.9-2.3
			l-55.5-83.2c-1-1.4-0.7-3.3,0.4-4.5l6.6-6.6l46.2-46.2c2.2-2.2,5.6-2.9,8.5-1.8c3.7,1.3,7.9,1.6,12.2,0.6
			c9.1-1.9,16.2-9.5,17.7-18.7c2.6-15.7-10.9-29.1-26.6-26.6c-9.5,1.6-17.2,9.3-18.8,18.8c-0.6,3.7-0.3,7.3,0.6,10.6
			c0.9,2.9,0.2,6.1-1.9,8.2l-44.7,44.7l-6.1,6.1c-1.4,1.4-3.6,1.2-4.7-0.4l-42.3-63.4c-1.7-2.6-2.6-5.6-2.6-8.5v-50.4
			c0-3.2,1.8-6.1,4.6-7.5c8.5-4.5,13.9-14.1,12-24.7c-1.7-9.3-9.1-16.7-18.3-18.4c-14.6-2.8-27.4,8.5-27.4,22.6
			c0,8.9,5,16.5,12.4,20.4c2.8,1.5,4.6,4.4,4.6,7.5v50.3c0,3-0.9,6-2.6,8.5L249,253.4c-1.1,1.6-3.3,1.8-4.7,0.4l-50.7-50.7
			c-2.1-2.1-2.8-5.3-1.9-8.3c1-3.3,1.3-6.8,0.6-10.6c-1.6-9.5-9.3-17.2-18.8-18.8c-15.7-2.6-29.1,10.9-26.6,26.6
			c1.5,9.2,8.6,16.8,17.7,18.7c4.4,1,8.4,0.6,12.2-0.6c3-1,6.3-0.4,8.5,1.8L290,316.6c2.3,2.3,3.7,5.7,3.7,9v25.9h-90.8
			c-2,0-3.3-2.3-2.1-4.1L239,290c1.3-2,1.6-4.6,0.3-6.6c-2.5-3.9-7.8-3.8-10.2-0.3L183,352.4c-0.5,0.9-1.2,1.6-1.9,2.3l-38.9,38.9
			c-2.2,2.2-5.4,2.9-8.4,1.9c-3.3-1.1-6.9-1.4-10.8-0.7c-9.6,1.6-17.4,9.3-18.9,18.9c-2.6,15.7,10.9,29,26.5,26.6
			c9.6-1.5,17.4-9.3,18.9-18.9c0.6-3.8,0.3-7.5-0.7-10.8c-1-3-0.3-6.2,1.9-8.4l34.1-34.1c2.9-2.9,6.8-4.5,10.9-4.5h98.1v50.9
			c0,3-1.7,5.8-4.4,7.2c-3,1.5-5.6,3.7-7.7,6.3c-3.1,3.9-4.9,9-4.9,14.3c0.1,12.3,10.1,22.5,22.4,22.9c13,0.3,23.7-10.1,23.7-23.1
			c0-5.3-1.8-10.4-4.9-14.3c-2-2.6-4.7-4.8-7.7-6.3c-2.7-1.4-4.5-4.2-4.5-7.2v-88.7c0-3.4,1.4-6.6,3.7-9l8.3-8.3l20.5-20.5
			c1.8-1.8,2.6-4.6,1.5-6.9c-1.8-3.9-6.8-4.8-9.8-1.8l-28.2,28.2c-1.2,1.2-3.1,1.2-4.3,0l-39.8-39.9c-1.2-1.2-1.4-3.1-0.4-4.5
			l40.5-60.6c1.1-1.5,3.3-1.5,4.3,0L399,347.6c1.2,1.7-0.1,4.1-2.1,4.1h-72.5c-2.8,0-5.4,1.8-6.2,4.6c-1,3.9,2,7.6,5.9,7.6H404
			c4.1,0,8,1.6,10.9,4.5l34.1,34.1c2.2,2.2,2.9,5.4,1.9,8.4c-1.1,3.3-1.4,6.9-0.7,10.8c1.6,9.6,9.3,17.4,18.9,18.9
			c15.7,2.6,29-10.9,26.6-26.6C494.1,404.1,486.4,396.3,476.8,394.8L476.8,394.8z M427.4,177.7c8.3-2.2,15.8,5.2,13.6,13.6
			c-1,3.6-3.9,6.6-7.6,7.6c-8.3,2.2-15.8-5.2-13.6-13.6C420.8,181.6,423.7,178.6,427.4,177.7L427.4,177.7z M172.8,198.9
			c-8.3,2.2-15.8-5.2-13.6-13.6c1-3.6,3.9-6.6,7.6-7.6c8.3-2.2,15.8,5.2,13.6,13.6C179.4,195,176.4,198,172.8,198.9L172.8,198.9z
			 M130.1,428.1c-8.3,2.2-15.8-5.2-13.6-13.6c1-3.6,3.9-6.6,7.6-7.6c8.3-2.2,15.8,5.2,13.6,13.6
			C136.7,424.1,133.7,427.1,130.1,428.1L130.1,428.1z M309.8,437.4c0.7,1.5,1.2,3.2,1.2,4.9c0,6.5-5.8,11.7-12.6,10.9
			c-3.5-0.5-6.6-2.8-8.2-5.9c-1.7-3.4-1.4-7,0-9.9c1.8-3.5,5.6-6.1,9.8-6.1C304.3,431.3,308,433.7,309.8,437.4L309.8,437.4z
			 M289.4,106.4c-2.2-8.3,5.2-15.8,13.6-13.6c3.6,1,6.6,3.9,7.6,7.6c2.2,8.3-5.2,15.8-13.6,13.6C293.4,113,290.4,110,289.4,106.4
			L289.4,106.4z M475.9,428.1c-8.3,2.2-15.8-5.2-13.6-13.6c1-3.6,3.9-6.6,7.6-7.6c8.3-2.2,15.8,5.2,13.6,13.6
			C482.5,424.1,479.5,427.1,475.9,428.1"/>
		<g>
			<g>
				<g>
					<g>
						<g>
							<path class="st3" d="M300,35.5c-67.9,0-129.8,25.6-176.7,67.9c-0.3,0.3-0.6,0.5-1,0.9l0,0C69,152.7,35.6,222.5,35.6,299.9
								c0,80.5,36.2,152.7,93.2,201.3c0.1,0.1,0.2,0.2,0.3,0.3c1.2,1.1,2.5,2,3.6,3c0.6,0.5,1.3,1.1,2,1.6c1.1,0.9,2.2,1.8,3.3,2.7
								l0.1,0.1c22.4,17.3,47.6,31.2,74.8,40.7s56.5,14.7,86.9,14.7c145.7,0,264.3-118.6,264.3-264.3S445.7,35.5,300,35.5z
								 M540.3,235.7H522c-2,0-3.3-2.3-2.1-4.1l12.9-19.3C535.7,219.9,538.2,227.7,540.3,235.7z M68.5,208.8l15.3,22.8
								c1.2,1.7-0.1,4.1-2.1,4.1h-22C62.1,226.6,65.1,217.6,68.5,208.8z M203.4,529l21.5-32.2c1-1.5,3.3-1.5,4.3,0l32.6,48.8
								C241.4,542.4,221.9,536.8,203.4,529z M224.1,408.4c-3.6-1-6.6-3.9-7.6-7.6c-2.2-8.3,5.2-15.8,13.6-13.6
								c3.6,1,6.6,3.9,7.6,7.6C239.9,403.2,232.4,410.7,224.1,408.4z M518,352.7c-3.6-1-6.6-3.9-7.6-7.6
								c-2.2-8.3,5.2-15.8,13.6-13.6c3.6,1,6.6,3.9,7.6,7.6C533.8,347.6,526.3,355,518,352.7z M527,370.1c0-3.2,1.8-6,4.6-7.5
								c8.5-4.5,13.9-14.1,12-24.7c-1.6-9.2-9.1-16.7-18.3-18.4c-14.6-2.7-27.4,8.4-27.4,22.6c0,8.9,5,16.5,12.4,20.4
								c2.8,1.5,4.6,4.4,4.6,7.5v50.3c0,3.1-0.9,6-2.6,8.5l-11.6,17.5c-11.4,15.6-24.7,29.8-39.3,42.4l-46.6-46.6
								c-2.1-2.1-2.8-5.3-1.9-8.3c1-3.3,1.3-6.8,0.6-10.6c-1.6-9.5-9.3-17.2-18.9-18.8c-15.7-2.6-29.1,10.9-26.6,26.6
								c1.5,9.2,8.6,16.8,17.7,18.7c4.4,1,8.4,0.6,12.2-0.6c3-1,6.3-0.4,8.5,1.8l45.6,45.6c-42.1,32.6-94.8,52-152,52h-0.2
								l41.9-41.9c2.2-2.2,5.6-2.9,8.5-1.8c3.7,1.3,7.9,1.6,12.2,0.6c9.1-1.9,16.2-9.5,17.7-18.7c2.6-15.7-10.9-29.1-26.6-26.6
								c-9.5,1.6-17.2,9.3-18.8,18.8c-0.6,3.7-0.3,7.4,0.6,10.6c0.9,2.9,0.2,6.1-1.9,8.3L283.3,548c-1.9-0.1-3.8-0.3-5.8-0.4
								l-41.8-62.8c-1.7-2.6-2.6-5.6-2.6-8.5v-50.4c0-3.2,1.8-6,4.6-7.5c8.5-4.5,13.9-14.1,12-24.7c-1.7-9.3-9.1-16.7-18.3-18.4
								c-14.6-2.7-27.4,8.4-27.4,22.6c0,8.9,5,16.5,12.4,20.4c2.9,1.5,4.7,4.4,4.7,7.5v50.3c0,3.1-0.9,6-2.6,8.5l-26.2,39.3
								c-15.2-7.4-29.5-16.2-42.8-26.4l0.9-0.9c2.2-2.2,5.6-2.9,8.5-1.8c3.7,1.3,7.9,1.6,12.2,0.6c9.1-1.9,16.2-9.5,17.7-18.7
								c2.6-15.7-10.9-29.1-26.6-26.6c-9.5,1.6-17.3,9.3-18.9,18.8c-0.6,3.7-0.3,7.3,0.6,10.6c0.9,2.9,0.2,6.1-1.9,8.2l-2,2
								c-31.7-26.7-56.6-61.1-71.8-100.2l19.2-19.2c2.2-2.2,5.6-2.9,8.5-1.8c3.7,1.3,7.9,1.6,12.2,0.6c9.1-2,16.2-9.5,17.7-18.7
								c2.6-15.7-10.9-29.1-26.6-26.6c-9.5,1.6-17.2,9.3-18.8,18.8c-0.6,3.7-0.3,7.3,0.6,10.6c0.9,2.9,0.2,6.1-1.9,8.2l-15.5,15.5
								c-8-24.3-12.4-50.4-12.4-77.3c0-17.8,1.9-35.2,5.4-52H89c4.1,0,8,1.6,10.9,4.5l34.1,34.1c2.2,2.2,2.9,5.4,1.9,8.4
								c-1.1,3.3-1.4,6.9-0.7,10.8c1.6,9.6,9.3,17.4,18.9,18.9c15.7,2.5,29-10.9,26.6-26.6c-1.5-9.6-9.3-17.4-18.9-18.9
								c-3.7-0.6-7.5-0.3-10.8,0.7c-3,1-6.2,0.3-8.4-1.9l-38.7-38.9c-0.7-0.7-1.4-1.5-1.9-2.3l-27.5-41c14.2-30.6,34.5-58,59.2-80.3
								l0.9,0.9c2.2,2.2,2.9,5.4,1.9,8.4c-1.1,3.3-1.4,6.9-0.7,10.8c1.6,9.6,9.3,17.4,18.9,18.9c15.7,2.5,29-10.9,26.6-26.6
								c-1.6-9.6-9.3-17.4-18.9-18.9c-3.7-0.6-7.5-0.3-10.8,0.7c-3,1-6.2,0.3-8.4-1.9l-0.2-0.2c31.3-25.6,68.8-43.9,110.1-51.8
								L223,85.3c-2.2,2.2-5.4,2.9-8.4,1.9c-3.3-1.1-6.9-1.4-10.8-0.7c-9.6,1.6-17.4,9.3-18.9,18.9c-2.6,15.7,10.9,29,26.5,26.6
								c9.6-1.5,17.4-9.3,18.9-18.9c0.6-3.7,0.3-7.5-0.7-10.8c-1-3-0.3-6.2,1.9-8.4l34.1-34.1c0.6-0.6,1.3-1.2,2-1.7
								c0.9-0.6,1.8-1.2,2.9-1.6c0.1,0,0.1-0.1,0.2-0.1c6.1-3,14.7-5.3,26.6-5.3c32,0,48.4,4.2,48.4,4.2c9.8,1.8,19.5,4.3,28.9,7.2
								v43.8c0,3-1.7,5.8-4.5,7.2c-3,1.6-5.6,3.7-7.7,6.3c-3.1,3.9-4.9,9-4.9,14.3c0.1,12.3,10.1,22.6,22.4,22.9
								c13,0.3,23.7-10.1,23.7-23.1c0-5.3-1.8-10.4-4.9-14.2c-2-2.7-4.7-4.8-7.7-6.3c-2.7-1.4-4.5-4.2-4.5-7.2V66.7
								c50.1,18.7,92.4,52.9,121.4,96.9l-12.5,12.5c-2.2,2.2-5.4,2.9-8.4,1.9c-3.3-1.1-6.9-1.4-10.8-0.7c-9.6,1.6-17.4,9.3-18.9,19
								c-2.5,15.7,10.9,29,26.6,26.6c9.6-1.6,17.4-9.3,18.9-18.9c0.6-3.8,0.3-7.5-0.7-10.8c-1-3-0.3-6.2,1.9-8.4l10.6-10.6
								c4.7,8,9,16.3,12.8,24.9l-25.2,37.8c-0.5,0.9-1.2,1.6-1.9,2.3l-39,38.8c-2.2,2.2-5.4,2.9-8.4,1.9c-3.3-1.1-6.9-1.4-10.8-0.7
								c-9.6,1.6-17.4,9.3-18.9,19c-2.5,15.7,10.9,29,26.6,26.6c9.6-1.6,17.4-9.3,18.9-18.9c0.6-3.8,0.3-7.5-0.7-10.8
								c-1-3-0.3-6.2,1.9-8.4l34.1-34.1c2.9-2.9,6.8-4.5,10.9-4.5h28.4c3.5,16.8,5.4,34.2,5.4,52c0,36.2-7.8,70.6-21.7,101.5
								L527,370.1L527,370.1L527,370.1z M401.3,430.2c-1,3.6-3.9,6.6-7.6,7.6c-8.3,2.2-15.8-5.2-13.6-13.6c1-3.6,3.9-6.6,7.6-7.6
								C396.1,414.4,403.5,421.9,401.3,430.2z M346.9,479.8c1-3.6,3.9-6.6,7.6-7.6c8.3-2.2,15.8,5.2,13.6,13.6
								c-1,3.6-3.9,6.6-7.6,7.6C352.1,495.6,344.7,488.1,346.9,479.8z M155.5,469.9c1-3.6,3.9-6.6,7.6-7.6
								c8.3-2.2,15.8,5.2,13.6,13.6c-1,3.6-3.9,6.6-7.6,7.6C160.7,485.7,153.2,478.3,155.5,469.9z M92.5,343.8
								c1-3.6,3.9-6.6,7.6-7.6c8.3-2.2,15.8,5.2,13.6,13.6c-1,3.6-3.9,6.6-7.6,7.6C97.7,359.5,90.3,352.1,92.5,343.8z M147,298.7
								c1-3.6,3.9-6.6,7.6-7.6c8.3-2.2,15.8,5.2,13.6,13.6c-1,3.6-3.9,6.6-7.6,7.6C152.3,314.5,144.9,307,147,298.7z M147.6,128.6
								c1-3.6,3.9-6.6,7.6-7.6c8.3-2.2,15.8,5.2,13.6,13.6c-1,3.6-3.9,6.6-7.6,7.6C152.8,144.3,145.3,136.9,147.6,128.6z
								 M218.2,112.1c-1,3.6-3.9,6.6-7.6,7.6c-8.3,2.2-15.8-5.2-13.6-13.6c1-3.6,3.9-6.6,7.6-7.6C213,96.3,220.4,103.8,218.2,112.1z
								 M380.5,123c4.3,0,8,2.5,9.8,6.1c0.7,1.5,1.2,3.2,1.2,4.9c0,6.5-5.8,11.7-12.6,10.9c-3.5-0.5-6.6-2.8-8.2-6
								c-1.7-3.4-1.4-7,0-9.9C372.6,125.5,376.2,123,380.5,123z M490.6,202.9c-1,3.6-3.9,6.6-7.6,7.6c-8.3,2.2-15.8-5.2-13.6-13.6
								c1-3.6,3.9-6.6,7.6-7.6C485.4,187.2,492.9,194.5,490.6,202.9z M456.6,304.7c-1,3.6-3.9,6.6-7.6,7.6
								c-8.3,2.2-15.8-5.2-13.6-13.6c1-3.6,3.9-6.6,7.6-7.6C451.5,288.9,458.8,296.4,456.6,304.7z"/>
						</g>
					</g>
				</g>
				<g>
					<path class="st3" d="M140,255.2L140,255.2c-8.3,2.2-15.8-5.2-13.6-13.6c1-3.6,3.9-6.6,7.6-7.6c8.3-2.2,15.8,5.2,13.6,13.6
						C146.6,251.2,143.6,254.2,140,255.2"/>
				</g>
				<g>
					<path class="st3" d="M199.7,162.7L199.7,162.7c-8.3,2.2-15.8-5.2-13.6-13.6c1-3.6,3.9-6.6,7.6-7.6c8.3-2.2,15.8,5.2,13.6,13.6
						C206.3,158.8,203.3,161.8,199.7,162.7"/>
				</g>
				<g>
					<path class="st3" d="M118,233.2L118,233.2c-8.3,2.2-15.8-5.2-13.6-13.6c1-3.6,3.9-6.6,7.6-7.6c8.3-2.2,15.8,5.2,13.6,13.6
						C124.6,229.3,121.6,232.2,118,233.2"/>
				</g>
				<g>
					<path class="st3" d="M352.6,450L352.6,450c-8.3,2.2-15.8-5.2-13.6-13.6c1-3.6,3.9-6.6,7.6-7.6c8.3-2.2,15.8,5.2,13.6,13.6
						C359.2,446,356.3,449,352.6,450"/>
				</g>
				<g>
					<path class="st3" d="M516.7,283.3L516.7,283.3c-8.3,2.2-15.8-5.2-13.6-13.6c1-3.6,3.9-6.6,7.6-7.6c8.3-2.2,15.8,5.2,13.6,13.6
						C523.3,279.5,520.3,282.4,516.7,283.3"/>
				</g>
				<g>
					<path class="st3" d="M494.1,303.5L494.1,303.5c-8.3,2.2-15.8-5.2-13.6-13.6c1-3.6,3.9-6.6,7.6-7.6c8.3-2.2,15.8,5.2,13.6,13.6
						C500.7,299.6,497.7,302.6,494.1,303.5"/>
				</g>
				<g>
					<path class="st3" d="M358.4,85.8L358.4,85.8c-8.3,2.2-15.8-5.2-13.6-13.6c1-3.6,3.9-6.6,7.6-7.6c8.3-2.2,15.8,5.2,13.6,13.6
						C365,81.8,362,84.8,358.4,85.8"/>
				</g>
				<g>
					<path class="st3" d="M360.4,232.9L360.4,232.9c-8.3,2.2-15.8-5.2-13.6-13.6c1-3.6,3.9-6.6,7.6-7.6c8.3-2.2,15.8,5.2,13.6,13.6
						C367,228.9,364.2,231.9,360.4,232.9"/>
				</g>
				<g>
					<path class="st3" d="M383.5,203L383.5,203c-8.3,2.2-15.8-5.2-13.6-13.6c1-3.6,3.9-6.6,7.6-7.6c8.3-2.2,15.8,5.2,13.6,13.6
						C390.1,199,387.2,202,383.5,203"/>
				</g>
				<g>
					<path class="st3" d="M172.8,437.8L172.8,437.8c-8.3,2.2-15.8-5.2-13.6-13.6c1-3.6,3.9-6.6,7.6-7.6c8.3-2.2,15.8,5.2,13.6,13.6
						C179.4,433.9,176.4,436.8,172.8,437.8"/>
				</g>
				<g>
					<path class="st3" d="M87.2,313.6L87.2,313.6c-8.3,2.2-15.8-5.2-13.6-13.6c1-3.6,3.9-6.6,7.6-7.6c8.3-2.2,15.8,5.2,13.6,13.6
						C93.8,309.7,90.9,312.6,87.2,313.6"/>
				</g>
				<g>
					<path class="st3" d="M87.2,282.9L87.2,282.9c-8.3,2.2-15.8-5.2-13.6-13.6c1-3.6,3.9-6.6,7.6-7.6c8.3-2.2,15.8,5.2,13.6,13.6
						C93.8,279,90.9,282,87.2,282.9"/>
				</g>
				<g>
					<path class="st3" d="M400.9,482.3L400.9,482.3c-8.3,2.2-15.8-5.2-13.6-13.6c1-3.6,3.9-6.6,7.6-7.6c8.3-2.2,15.8,5.2,13.6,13.6
						C407.6,478.5,404.6,481.4,400.9,482.3"/>
				</g>
				<g>
					<path class="st3" d="M433.3,437.8L433.3,437.8c-8.3,2.2-15.8-5.2-13.6-13.6c1-3.6,3.9-6.6,7.6-7.6c8.3-2.2,15.8,5.2,13.6,13.6
						C440,433.9,437.1,436.8,433.3,437.8"/>
				</g>
				<g>
					<path class="st3" d="M422.4,500.1L422.4,500.1c-8.3,2.2-15.8-5.2-13.6-13.6c1-3.6,3.9-6.6,7.6-7.6c8.3-2.2,15.8,5.2,13.6,13.6
						C429.1,496.3,426.1,499.2,422.4,500.1"/>
				</g>
				<g>
					<path class="st3" d="M285.9,531.1L285.9,531.1c-8.3,2.2-15.8-5.2-13.6-13.6c1-3.6,3.9-6.6,7.6-7.6c8.3-2.2,15.8,5.2,13.6,13.6
						C292.5,527.3,289.5,530.1,285.9,531.1"/>
				</g>
				<g>
					<path class="st3" d="M332.6,85.8L332.6,85.8c-8.3,2.2-15.8-5.2-13.6-13.6c1-3.6,3.9-6.6,7.6-7.6c8.3-2.2,15.8,5.2,13.6,13.6
						C339.2,81.8,336.2,84.8,332.6,85.8"/>
				</g>
				<rect x="42.3" y="266.3" class="st3" width="34.7" height="12.1"/>
				<rect x="514.6" y="266.8" class="st3" width="34.7" height="12.1"/>
				<rect x="413.4" y="492.2" class="st3" width="12.1" height="34.7"/>
				<path class="st3" d="M351.4,217.4v-32.6c0-0.5,0.4-1.1,1.1-1.1h10c0.5,0,1.1,0.4,1.1,1.1v32.6c0,0.5-0.4,1.1-1.1,1.1h-10
					C351.9,218.3,351.4,217.9,351.4,217.4z"/>
				<path class="st3" d="M164.2,250.6h-32.6c-0.5,0-1.1-0.4-1.1-1.1v-10c0-0.5,0.4-1.1,1.1-1.1h32.6c0.5,0,1.1,0.4,1.1,1.1v10
					C165.3,250.2,164.8,250.6,164.2,250.6z"/>
				<path class="st3" d="M263.7,158.2h-66.1c-0.5,0-1.1-0.4-1.1-1.1v-10c0-0.5,0.4-1.1,1.1-1.1h66.1c0.5,0,1.1,0.4,1.1,1.1v10
					C264.8,157.7,264.3,158.2,263.7,158.2z"/>
				<path class="st3" d="M485,328.9v-32.6c0-0.5,0.4-1.1,1.1-1.1h10c0.5,0,1.1,0.4,1.1,1.1v32.6c0,0.5-0.4,1.1-1.1,1.1h-10
					C485.5,330,485,329.6,485,328.9z"/>
				<path class="st3" d="M276,516v-32.6c0-0.5,0.4-1.1,1.1-1.1h10c0.5,0,1.1,0.4,1.1,1.1V516c0,0.5-0.4,1.1-1.1,1.1h-10
					C276.4,517,276,516.6,276,516z"/>
				<rect x="108.9" y="120.1" class="st3" width="12.1" height="100.2"/>
				<rect x="323.6" y="42.3" class="st3" width="12.1" height="36.4"/>
			</g>
		</g>
	</g>
</g>
</svg>
