<?xml version="1.0" encoding="utf-8"?>
<!-- Generator: Adobe Illustrator 25.2.1, SVG Export Plug-In . SVG Version: 6.00 Build 0)  -->
<svg version="1.1" id="Capa_1" xmlns="http://www.w3.org/2000/svg" xmlns:xlink="http://www.w3.org/1999/xlink" x="0px" y="0px"
	 viewBox="0 0 600 600" style="enable-background:new 0 0 600 600;" xml:space="preserve">
<style type="text/css">
	.st0{enable-background:new    ;}
	.st1{fill:#FFFFFF;}
	.st2{fill:#825C3C;}
	.st3{fill:#936747;}
	.st4{fill:#6B4B32;}
</style>
<g>
	<g class="st0">
		<path d="M95,593.3v-53.7h46.1v7.7h7.7v23.1h-7.7v7.7h-30.8v15.4L95,593.3L95,593.3z M110.3,570.2h23.1v-23.1h-23.1V570.2z"/>
		<path d="M164.2,593.3v-7.7h-7.7v-38.4h7.7v-7.7h38.4v7.7h7.7v38.4h-7.7v7.7H164.2z M171.8,585.6h23.1v-38.4h-23.1
			C171.8,547.1,171.8,585.6,171.8,585.6z"/>
		<path d="M225.6,593.3v-7.7h-7.7v-38.4h7.7v-7.7H264v7.7h7.7v38.4H264v7.7H225.6z M233.3,585.6h23.1v-38.4h-23.1V585.6z"/>
		<path d="M294.7,593.3v-7.7H287v-7.7h-7.7v-23.1h7.7v-7.7h7.7v-7.7h30.8v7.7h7.7v7.7h-15.4v-7.7h-15.4v7.7h-7.7v23.1h7.7v7.7h15.4
			v-7.7h15.4v7.7h-7.7v7.7H294.7z"/>
		<path d="M348.5,593.3v-7.7h-7.7v-38.4h7.7v-7.7h38.4v7.7h7.7v38.4h-7.7v7.7H348.5z M356.2,585.6h23.1v-38.4h-23.1V585.6z"/>
		<path d="M409.9,593.3v-7.7h15.4v-38.4h-15.4v-7.7H456v7.7h-15.4v38.4H456v7.7H409.9z"/>
		<path d="M463.7,593.3v-53.7h15.4v7.7h7.7v7.7h7.7v7.7h7.7v-23.1h15.4v53.7h-15.4v-15.4h-7.7v-7.7h-7.7v-7.7h-7.7v30.8H463.7z"/>
	</g>
	<g class="st0">
		<path class="st1" d="M84.4,575.7V522h46.1v7.7h7.7v23.1h-7.7v7.7H99.8v15.3H84.4z M99.8,552.6h23v-23.1h-23V552.6z"/>
		<path class="st1" d="M153.5,575.7V568h-7.7v-38.4h7.7v-7.7H192v7.7h7.7V568H192v7.7H153.5z M161.2,568h23.1v-38.4h-23.1V568z"/>
		<path class="st1" d="M215,575.7V568h-7.7v-38.4h7.7v-7.7h38.4v7.7h7.7V568h-7.7v7.7H215z M222.6,568h23.1v-38.4h-23.1V568z"/>
		<path class="st1" d="M284.1,575.7V568h-7.7v-7.7h-7.7v-23.1h7.7v-7.7h7.7v-7.7h30.8v7.7h7.7v7.7h-15.4v-7.7h-15.4v7.7h-7.7v23.1
			h7.7v7.7h15.4v-7.7h15.4v7.7h-7.7v7.7H284.1z"/>
		<path class="st1" d="M337.9,575.7V568h-7.7v-38.4h7.7v-7.7h38.4v7.7h7.7V568h-7.7v7.7H337.9z M345.5,568h23.1v-38.4h-23.1V568z"/>
		<path class="st1" d="M399.4,575.7V568h15.4v-38.4h-15.4v-7.7h46.1v7.7h-15.4V568h15.4v7.7H399.4z"/>
		<path class="st1" d="M453.1,575.7V522h15.4v7.7h7.7v7.7h7.7v7.7h7.7V522h15.4v53.7h-15.4v-15.4h-7.7v-7.7h-7.7V545h-7.7v30.8
			H453.1z"/>
	</g>
	<g>
		<g>
			<polygon class="st2" points="293.6,499.4 207.7,493 136.7,479.5 74.4,435.3 66.8,384.8 102.6,343.1 122.6,326.8 107.2,300.1 
				102.6,254 127.7,213.6 154.6,199.5 171.4,168.8 210.3,109.8 278.9,56.6 335.3,28.4 380.3,20 365.4,64.3 366,130.9 414.1,181.6 
				466.6,212.9 485.2,235.4 482,319.3 514.7,352.6 528.8,380.8 528.8,426.4 490.4,461.6 442.9,485.3 324.3,499.4 			"/>
		</g>
		<g>
			<path class="st3" d="M319.9,36.1c-10.9,4.7-22.8,14.7-34.2,27.1c-28.3,30.5-54.7,75.2-62.5,92.1c-6.3,13.7-7,24.3-6.5,30.8
				c0.4,4.7,1.4,7.4,1.4,7.4l8.4,18.2c0,0-13-2.4-28.9-0.4c-19.7,2.6-43.7,11.9-52,41.5c-6.4,23.4-1.9,40.4,5.3,52.3
				c9.2,15.2,22.6,21.8,22.6,21.8s-7.1,2.3-16.2,8c-15.1,9.6-35.5,28.9-36.7,63.5c-0.9,24.8,20.3,53.5,44,77.6
				c14.6,14.9,30,27.9,41.8,37.3c-19.8-2.7-39.1-6.4-58.5-11c-84.9-20.6-96.7-68.8-98.3-83.1c-3.3-29.1,1.9-51.9,38-89.3
				c2.5-2.6,4.8-4.7,7.4-6.8c-17.6-27.1-17.1-48.2-9.7-75.4c8.3-30.1,35.1-61.9,71.3-67.6c0.2-14.6,3.5-27,11.4-45.6
				C185.3,93.9,223.3,65.8,287.6,28c11.1-6.5,21.8-11.3,31.8-14.9C331.4,19.4,339,27.8,319.9,36.1z"/>
		</g>
		<g>
			<path class="st4" d="M537.2,444.6c-19.8,30.2-44.2,56.1-139.2,67.6l24.5-18.5c0,0,14.7-6.2,29.8-21.9
				c13.6-14.1,27.5-35.8,31.5-67.3c6.2-49.5-30.7-81.6-50-94.9c-6.7-4.5-11.3-6.9-11.3-6.9l24.2-10.3c0,0,0.6-3.6,0.7-9.4
				c0.4-10.8-0.6-29.3-9-44.5c-12.8-23.1-67.2-45.4-92.9-92.3c-22-40-12.9-83.9-1.7-109.7c1.9-4.3,3.7-8.1,5.6-11.3
				c4.2-7.7,11.9-14.7,20.2-20.6C389.6,5,402,9.9,403,10.4c4.7,2,8.1,6.2,9,11.2c0.8,5-1.1,10.2-4.9,13.4
				c-11.8,10.2-30.7,33.4-24.5,74.5c4.6,30.9,35.6,47,62.8,61.3c3.6,1.9,7.1,3.7,10.4,5.5c33.9,18.4,45.1,41.6,51.6,70.6
				c4.5,20.8-5.5,42.5-14.1,56.3c22.1,13.4,33.1,26.4,34.9,28.6C558.6,368.7,555.8,416.4,537.2,444.6z"/>
		</g>
		<g>
			
				<ellipse transform="matrix(0.9988 -4.874956e-02 4.874956e-02 0.9988 -14.3059 12.8184)" cx="255.6" cy="299.7" rx="20.9" ry="23.3"/>
		</g>
		<g>
			<ellipse transform="matrix(0.2422 -0.9702 0.9702 0.2422 -26.6903 565.1016)" cx="348.4" cy="299.6" rx="23.3" ry="20.9"/>
		</g>
		<g>
			<path d="M302.7,412.3c-24.7,0-45.6-10.9-56.6-20.2c-6.2-5.2-6.9-14.5-1.7-20.7c5.2-6.1,14.5-6.9,20.6-1.7
				c3.7,3.1,36.9,28.9,74.2-0.4c6.4-4.9,15.6-3.8,20.6,2.6c5,6.4,3.8,15.6-2.6,20.6C338.6,407,319.7,412.3,302.7,412.3z"/>
		</g>
		<g>
			<path d="M528,331.8c-1.8-2.2-12.8-15.2-34.9-28.6c8.7-13.8,18.7-35.5,14.1-56.3c-6.4-29.1-17.5-52.1-51.6-70.6
				c-3.3-1.8-6.8-3.6-10.4-5.5c-27.3-14.3-58.3-30.5-62.8-61.3c-6.1-41.1,12.7-64.4,24.5-74.5c3.8-3.4,5.7-8.4,4.9-13.5
				c-0.8-5-4.1-9.3-8.9-11.2C401,9.4,352-10,287.6,27.8c-64.3,37.8-102.4,65.9-119.5,106.3c-7.9,18.6-11.2,31.1-11.4,45.6
				c-36.2,5.7-63,37.6-71.3,67.6c-7.5,27.1-8,48.3,9.7,75.4c-2.6,2.1-5,4.2-7.4,6.8c-36.1,37.5-41.2,60.3-38,89.3
				c1.6,14.3,13.4,62.5,98.3,83.1c46.3,11.2,93.1,16.8,144.8,16.8c30,0,61.7-1.9,96-5.5c102.7-10.9,128.1-37.6,148.5-68.7
				C555.7,416.4,558.6,368.6,528,331.8z M512.6,428.5c-13.9,21.2-29.8,45.2-127.1,55.6c-89.8,9.6-161,6.3-230.8-10.5
				c-66.3-16.1-74.9-48.3-76-57.9c-2.2-19.3-1.2-33.4,30-65.8c27-28,70.3-10.3,72.2-9.5c7.4,3.2,16.1-0.3,19.2-7.7
				c3.2-7.5-0.3-16.1-7.7-19.2c-2-0.8-36.8-15.4-71.4-4.5c-14.9-21.8-12.5-35.1-7.4-53.6c5.8-21.3,25.7-45,51.1-46.9
				c28.2-2.3,55.2,10.1,55.5,10.3c7.3,3.5,16.1,0.3,19.5-7.1c3.5-7.3,0.3-16.1-7.1-19.5c-1.1-0.5-20.9-9.7-46.6-12.4
				c0.3-10.4,2.8-19.1,9.1-33.9c13.9-32.9,48.5-57.9,107.4-92.4c27.6-16.2,51.2-19.6,67-19.3c-14.6,22.3-20.3,50.2-15.9,79.9
				c6.8,45.6,48.1,67.2,78.3,83c3.5,1.8,6.8,3.5,10,5.3c24.6,13.4,31.7,27.7,36.9,51.2c2.5,11.3-5.2,26.6-11.8,36.7
				c-11-4.5-23.6-8.8-38-11.9c-7.9-1.7-15.8,3.3-17.4,11.1c-1.8,7.9,3.3,15.8,11.1,17.4c57.5,12.6,82.4,43.2,82.5,43.4
				c0.1,0.1,0.2,0.3,0.3,0.4C526.8,376.3,525.3,409.3,512.6,428.5z"/>
		</g>
	</g>
</g>
</svg>
