<?xml version="1.0" encoding="utf-8"?>
<!-- Generator: Adobe Illustrator 25.2.1, SVG Export Plug-In . SVG Version: 6.00 Build 0)  -->
<svg version="1.1" id="Capa_1" xmlns="http://www.w3.org/2000/svg" xmlns:xlink="http://www.w3.org/1999/xlink" x="0px" y="0px"
	 viewBox="0 0 600 600" style="enable-background:new 0 0 600 600;" xml:space="preserve">
<style type="text/css">
	.st0{fill:#002B2A;}
	.st1{fill:#00AAAA;}
	.st2{fill:#FFFFFF;}
	.st3{fill:#11726B;}
	.st4{fill:#494949;}
	.st5{fill:#999999;}
	.st6{enable-background:new    ;}
</style>
<g>
	<g>
		<g>
			<circle class="st0" cx="300" cy="300" r="285"/>
			<circle class="st1" cx="300" cy="300" r="274.8"/>
			<path class="st2" d="M477.4,395.3c-3.8-0.7-7.6-0.3-10.8,0.8c-3,1-6.2,0.3-8.3-1.9l-39-39c-0.8-0.8-1.3-1.4-1.9-2.3l-55.6-83.4
				c-1-1.4-0.8-3.3,0.4-4.4l6.7-6.7l46.4-46.4c2.2-2.2,5.6-2.9,8.6-1.8c3.8,1.2,7.9,1.4,12.3,0.7c9.1-1.9,16.3-9.6,17.8-18.8
				c2.6-15.8-10.9-29.2-26.7-26.6c-9.7,1.4-17.2,9.3-19,18.9c-0.7,3.7-0.3,7.4,0.7,10.6c1,3,0.2,6.1-1.9,8.2L362.3,248l-6.1,6
				c-1.3,1.3-3.7,1.2-4.7-0.6l-42.7-63.6c-1.7-2.6-2.6-5.6-2.6-8.6v-50.6c0-3.2,1.8-6,4.6-7.6c8.4-4.6,13.9-14.1,12.1-24.8
				c-1.6-9.3-9.1-16.8-18.3-18.4c-14.7-2.6-27.6,8.7-27.6,22.9c0,8.9,5,16.6,12.4,20.4c2.9,1.4,4.6,4.4,4.6,7.6v50.6
				c0,3.1-1,6-2.6,8.6l-42.7,63.7c-1.1,1.6-3.4,1.8-4.7,0.6l-50.8-51c-2.1-2.1-2.9-5.3-1.9-8.2c1.1-3.3,1.3-6.9,0.7-10.6
				c-1.6-9.7-9.3-17.2-19-18.9c-15.8-2.6-29.2,10.8-26.7,26.6c1.4,9.2,8.7,16.8,17.8,18.9c4.3,1,8.4,0.7,12.3-0.7
				c3-1.1,6.3-0.4,8.6,1.8l105.1,105.1c2.3,2.3,3.8,5.7,3.8,9V352h-91.2c-2,0-3.3-2.3-2.1-4l38.3-57.7c1.3-1.9,1.4-4.6,0.3-6.7
				c-2.4-4-7.9-3.9-10.2-0.3l-46.4,69.4c-0.7,0.9-1.2,1.6-1.9,2.3l-39,39c-2.2,2.2-5.4,2.9-8.3,1.9c-3.4-1.1-7-1.4-10.8-0.9
				c-9.7,1.6-17.3,9.3-19.1,19.1c-2.6,15.8,10.9,29.1,26.6,26.6c9.7-1.4,17.3-9.3,19.1-19.1c0.7-3.8,0.3-7.6-0.8-10.8
				c-1-3-0.3-6.2,1.9-8.3l34.2-34.2c2.9-2.9,6.9-4.6,10.9-4.6H294v51.1c0,3.1-1.7,5.8-4.4,7.2c-3,1.6-5.7,3.7-7.7,6.3
				c-3.2,4-5,9-4.9,14.4c0.1,12.3,10.2,22.7,22.4,23c13.1,0.3,23.9-10.2,23.9-23.1c0-5.4-1.8-10.3-5-14.3c-2-2.7-4.7-4.8-7.7-6.3
				c-2.8-1.4-4.4-4.2-4.4-7.2v-89.1c0-3.4,1.3-6.7,3.8-9l8.3-8.3l20.6-20.6c1.8-1.8,2.6-4.6,1.4-7c-1.8-4-6.9-4.8-9.9-1.8
				l-28.3,28.3c-1.2,1.2-3.2,1.2-4.3,0l-40-39.9c-1.2-1.2-1.4-3.1-0.4-4.4l40.6-60.9c1.1-1.4,3.3-1.4,4.3,0l97.3,145.9
				c1.2,1.7-0.1,4-2.1,4h-72.8c-2.9,0-5.6,1.8-6.1,4.6c-1,4,2,7.6,5.8,7.6h80.3c4.1,0,8,1.6,10.9,4.6l34.4,34.1
				c2.2,2.2,2.9,5.4,1.9,8.3c-1.1,3.4-1.4,7-0.8,10.8c1.4,9.7,9.3,17.3,19.1,19.1c15.8,2.6,29.1-10.9,26.6-26.6
				C494.9,404.8,487.2,397,477.4,395.3L477.4,395.3z M428,177.4c8.3-2.2,15.9,5.2,13.6,13.6c-1.1,3.7-4,6.7-7.7,7.6
				c-8.3,2.2-15.9-5.2-13.6-13.6C421.4,181.4,424.3,178.6,428,177.4L428,177.4z M172.3,198.9c-8.3,2.2-15.9-5.2-13.6-13.6
				c1.1-3.7,4-6.7,7.7-7.7c8.3-2.2,15.9,5.2,13.6,13.6C178.8,194.8,175.9,197.8,172.3,198.9L172.3,198.9z M129.4,428.8
				c-8.3,2.2-15.9-5.2-13.6-13.6c1.1-3.7,4-6.7,7.7-7.6c8.3-2.2,15.9,5.2,13.6,13.6C136.1,424.8,133.1,427.9,129.4,428.8
				L129.4,428.8z M310,438.1c0.8,1.6,1.2,3.2,1.2,5c0,6.6-5.8,11.9-12.6,10.9c-3.4-0.6-6.7-2.8-8.2-5.9c-1.7-3.4-1.4-7.1,0-10
				c1.8-3.6,5.6-6,9.9-6C304.3,432.1,308,434.6,310,438.1L310,438.1z M289.6,105.9c-2.2-8.3,5.2-15.9,13.6-13.6
				c3.7,1.1,6.7,4,7.7,7.7c2.2,8.3-5.2,15.9-13.6,13.6C293.3,112.4,290.3,109.4,289.6,105.9L289.6,105.9z M476.6,428.8
				c-8.3,2.2-15.9-5.2-13.6-13.6c1.1-3.7,4-6.7,7.7-7.7c8.3-2.2,15.9,5.2,13.6,13.6C483.2,424.8,480.3,427.9,476.6,428.8"/>
			<g>
				<g>
					<g>
						<g>
							<g>
								<path class="st3" d="M300,34.7c-68.1,0-130.3,25.8-177.3,68.1c-0.3,0.3-0.8,0.6-1.1,0.9l0,0C68.2,152.2,34.7,222.3,34.7,300
									c0,80.8,36.3,153.3,93.7,202.1c0.1,0.1,0.2,0.2,0.4,0.3c1.2,1.1,2.4,2,3.7,3.1c0.8,0.6,1.3,1.2,2,1.6c1.2,1,2.2,1.7,3.3,2.7
									l0.1,0.1c22.4,17.3,47.8,31.3,75.1,40.8c27.3,9.6,56.7,14.8,87.3,14.8c146.3,0,265.4-119,265.4-265.4S446.3,34.7,300,34.7z
									 M541.4,235.7h-18.3c-2,0-3.3-2.3-2.1-4l12.9-19.4C536.7,219.9,539.2,227.8,541.4,235.7z M67.6,208.7l15.3,23
									c1.2,1.7-0.1,4-2.1,4H58.7C61.2,226.4,64.2,217.6,67.6,208.7z M203.1,530.1l21.6-32.3c1.1-1.4,3.3-1.4,4.3,0l32.7,49
									C241.3,543.7,221.7,538,203.1,530.1z M223.9,409.2c-3.7-1.1-6.7-4-7.7-7.6c-2.2-8.3,5.2-15.9,13.6-13.6
									c3.7,1.1,6.7,4,7.7,7.7C239.7,403.9,232.2,411.4,223.9,409.2z M519,353.2c-3.7-1-6.7-4-7.7-7.6c-2.2-8.3,5.2-15.9,13.6-13.6
									c3.7,1.1,6.7,4,7.7,7.7C534.8,348,527.2,355.4,519,353.2z M528,370.7c0-3.2,1.8-6,4.6-7.6c8.4-4.6,13.9-14.1,12.1-24.8
									c-1.6-9.2-9.1-16.8-18.3-18.4c-14.8-2.8-27.6,8.4-27.6,22.7c0,8.9,5,16.6,12.6,20.4c2.9,1.4,4.6,4.4,4.6,7.6V421
									c0,3.1-1,6-2.6,8.6l-11.7,17.6c-11.4,15.7-24.8,30-39.6,42.6l-46.8-46.8c-2.1-2.1-2.9-5.4-1.9-8.2c1.1-3.3,1.3-6.9,0.8-10.6
									c-1.6-9.7-9.3-17.2-19-18.9c-15.8-2.6-29.2,10.8-26.7,26.6c1.4,9.2,8.7,16.8,17.8,18.8c4.4,1,8.4,0.7,12.3-0.7
									c3-1.1,6.3-0.4,8.6,1.8l45.8,45.8c-42.2,32.8-95.1,52.2-152.7,52.2H300l42.1-42.1c2.2-2.2,5.6-2.9,8.4-1.8
									c3.8,1.2,7.9,1.6,12.3,0.7c9.2-1.9,16.4-9.6,17.8-18.8c2.6-15.8-10.9-29.2-26.7-26.6c-9.6,1.6-17.2,9.3-19,18.9
									c-0.7,3.7-0.3,7.4,0.7,10.6c1,3,0.2,6.1-1.9,8.2l-50.4,50.6c-1.9-0.1-3.9-0.3-5.7-0.4l-42.1-63c-1.7-2.6-2.6-5.6-2.6-8.6
									v-50.6c0-3.2,1.8-6,4.6-7.6c8.4-4.6,13.9-14.1,12.1-24.8c-1.6-9.3-9.1-16.8-18.3-18.4c-14.8-2.8-27.6,8.4-27.6,22.7
									c0,8.9,5,16.6,12.4,20.4c2.9,1.4,4.7,4.4,4.7,7.6v50.6c0,3.1-1,6-2.6,8.6l-26.1,39.6c-15.2-7.4-29.7-16.3-43-26.4l1-1
									c2.2-2.2,5.6-2.9,8.4-1.8c3.8,1.2,7.9,1.4,12.3,0.7c9.1-1.9,16.3-9.6,17.8-18.8c2.6-15.8-10.9-29.2-26.7-26.6
									c-9.7,1.4-17.2,9.3-19,19c-0.7,3.7-0.3,7.4,0.8,10.6c1,3,0.2,6.1-1.9,8.2l-2,2c-31.9-26.8-57-61.2-72.2-100.7l19-19.4
									c2.2-2.2,5.6-2.9,8.6-1.8c3.8,1.2,7.9,1.6,12.3,0.7c9.1-1.9,16.4-9.6,17.8-18.8c2.6-15.8-10.9-29.2-26.7-26.6
									c-9.7,1.6-17.2,9.3-19,18.9c-0.7,3.7-0.4,7.4,0.7,10.6c1,3,0.2,6.1-1.9,8.2L63,377.9c-8.3-24.6-12.7-50.7-12.7-77.8
									c0-17.9,1.9-35.2,5.6-52.2h32.2c4.1,0,8,1.6,10.9,4.4l34.2,34.2c2.2,2.2,2.9,5.6,1.8,8.4c-1.1,3.3-1.4,7-0.8,10.7
									c1.6,9.7,9.4,17.4,19.1,19.1c15.8,2.6,29.1-10.9,26.6-26.6c-1.4-9.7-9.3-17.3-19.1-19.1c-3.8-0.7-7.6-0.3-10.7,0.8
									c-3,1-6.2,0.3-8.4-1.9l-38.9-39c-0.8-0.8-1.4-1.4-1.9-2.3l-27.6-41.2c14.2-30.8,34.6-58.1,59.4-80.7l0.9,0.9
									c2.2,2.2,2.9,5.6,1.9,8.4c-1.2,3.3-1.4,7-0.8,10.8c1.4,9.7,9.3,17.3,19.1,19.1c15.8,2.6,29.1-10.9,26.6-26.6
									c-1.6-9.7-9.3-17.3-19.1-19.1c-3.8-0.7-7.6-0.3-10.8,0.8c-3,1-6.2,0.3-8.4-1.9l-0.2-0.2c31.4-25.8,69.2-44.1,110.6-52
									l-29.8,29.8c-2.2,2.2-5.4,2.9-8.4,1.8c-3.3-1.1-7-1.4-10.7-0.8c-9.7,1.6-17.4,9.4-19.1,19.1c-2.6,15.8,10.9,29.1,26.6,26.6
									c9.7-1.6,17.3-9.3,19.1-19.1c0.7-3.8,0.3-7.6-0.8-10.7c-1-3-0.3-6.2,1.8-8.4L265.3,59c0.7-0.7,1.3-1.2,2-1.7
									c1-0.7,1.8-1.2,2.9-1.6c0.1,0,0.1-0.1,0.2-0.1c6.1-3,14.8-5.3,26.7-5.3c32.2,0,48.6,4.2,48.6,4.2c10,1.8,19.6,4.3,29,7.3v44
									c0,3.1-1.7,5.8-4.4,7.2c-3,1.4-5.7,3.7-7.7,6.3c-3.2,4-5,9-4.9,14.4c0.1,12.3,10.2,22.7,22.4,23
									c13.1,0.3,23.9-10.2,23.9-23.1c0-5.4-1.8-10.3-5-14.3c-2-2.7-4.7-4.8-7.7-6.3c-2.7-1.4-4.4-4.1-4.4-7.2V66
									c50.2,18.8,92.9,53.2,121.8,97.3l-12.6,12.6c-2.2,2.2-5.6,2.9-8.4,1.9c-3.3-1.2-7-1.4-10.7-0.9c-9.7,1.6-17.4,9.4-19.1,19.1
									c-2.6,15.8,10.9,29.1,26.6,26.6c9.7-1.4,17.3-9.3,19.1-19.1c0.7-3.8,0.3-7.6-0.8-10.8c-1-3-0.3-6.2,1.9-8.4l10.4-10.6
									c4.7,8,9,16.4,12.9,25l-25.3,37.8c-0.6,0.9-1.2,1.6-1.9,2.3l-39,39.1c-2.2,2.2-5.4,2.9-8.3,1.9c-3.4-1.2-7-1.4-10.8-0.9
									c-9.7,1.6-17.3,9.4-19.1,19.1c-2.6,15.8,10.9,29.1,26.6,26.6c9.7-1.4,17.3-9.3,19.1-19.1c0.7-3.8,0.3-7.6-0.8-10.8
									c-1-3-0.3-6.2,1.9-8.4l34.2-34.2c2.9-2.9,6.9-4.6,10.9-4.6h28.4c3.6,16.9,5.6,34.3,5.6,52.2c0,36.3-7.8,70.8-21.8,101.9v-31
									h0.3V370.7z M401.7,430.9c-1.1,3.7-4,6.7-7.7,7.7c-8.3,2.2-15.9-5.2-13.6-13.6c1.1-3.7,4-6.7,7.7-7.7
									C396.6,415.1,403.9,422.6,401.7,430.9z M347.1,480.8c1-3.7,4-6.7,7.7-7.7c8.3-2.2,15.9,5.2,13.6,13.6
									c-1.1,3.7-4,6.7-7.7,7.6C352.4,496.6,344.9,489.1,347.1,480.8z M155,470.9c1.1-3.7,4-6.7,7.7-7.7
									c8.3-2.2,15.9,5.2,13.6,13.6c-1.1,3.7-4,6.7-7.7,7.6C160.3,486.8,152.8,479.2,155,470.9z M91.7,344.2c1.1-3.7,4-6.7,7.7-7.7
									c8.3-2.2,15.9,5.2,13.6,13.6c-1.1,3.7-4,6.7-7.7,7.7C97,360,89.6,352.4,91.7,344.2z M146.6,298.9c1-3.7,4-6.7,7.6-7.7
									c8.3-2.2,15.9,5.2,13.6,13.6c-1.1,3.7-4,6.7-7.7,7.7C151.7,314.9,144.3,307.4,146.6,298.9z M147,128.1
									c1.1-3.7,4-6.7,7.7-7.7c8.3-2.2,15.9,5.2,13.6,13.6c-1.1,3.7-4,6.7-7.7,7.7C152.2,144,144.8,136.4,147,128.1z M217.9,111.7
									c-1.1,3.7-4,6.7-7.7,7.7c-8.3,2.2-15.9-5.2-13.6-13.6c1.1-3.7,4-6.7,7.7-7.6C212.7,95.9,220.1,103.4,217.9,111.7z
									 M380.9,122.6c4.3,0,7.9,2.4,9.9,6c0.8,1.4,1.2,3.2,1.2,5c0,6.6-5.8,11.9-12.6,10.9c-3.4-0.6-6.7-2.8-8.2-5.9
									c-1.7-3.4-1.4-7.1,0-10C372.9,125,376.6,122.6,380.9,122.6z M491.4,202.8c-1.1,3.7-4,6.7-7.7,7.7
									c-8.3,2.2-15.9-5.2-13.6-13.6c1.1-3.7,4-6.7,7.7-7.7C486.2,187,493.7,194.4,491.4,202.8z M457.3,304.9
									c-1.1,3.7-4,6.7-7.7,7.7c-8.3,2.2-15.9-5.2-13.6-13.6c1.1-3.7,4-6.7,7.7-7.7C452,289.2,459.6,296.7,457.3,304.9z"/>
							</g>
						</g>
					</g>
					<g>
						<path class="st3" d="M139.4,255.3L139.4,255.3c-8.3,2.2-15.9-5.2-13.6-13.6c1.1-3.7,4-6.7,7.7-7.7c8.3-2.2,15.9,5.2,13.6,13.6
							C146,251.2,143,254.2,139.4,255.3"/>
					</g>
					<g>
						<path class="st3" d="M199.3,162.6L199.3,162.6c-8.3,2.2-15.9-5.2-13.6-13.6c1.1-3.7,4-6.7,7.7-7.7c8.3-2.2,15.9,5.2,13.6,13.6
							C205.9,158.4,203,161.4,199.3,162.6"/>
					</g>
					<g>
						<path class="st3" d="M117.3,233.1L117.3,233.1c-8.3,2.2-15.9-5.2-13.6-13.6c1.1-3.7,4-6.7,7.7-7.7c8.3-2.2,15.9,5.2,13.6,13.6
							C124,229.3,121.1,232.3,117.3,233.1"/>
					</g>
					<g>
						<path class="st3" d="M352.9,450.9L352.9,450.9c-8.3,2.2-15.9-5.2-13.6-13.6c1.1-3.7,4-6.7,7.7-7.7c8.3-2.2,15.9,5.2,13.6,13.6
							C359.6,446.9,356.4,449.9,352.9,450.9"/>
					</g>
					<g>
						<path class="st3" d="M517.6,283.6L517.6,283.6c-8.3,2.2-15.9-5.2-13.6-13.6c1.1-3.7,4-6.7,7.7-7.7c8.3-2.2,15.9,5.2,13.6,13.6
							C524.2,279.7,521.3,282.7,517.6,283.6"/>
					</g>
					<g>
						<path class="st3" d="M494.8,303.8L494.8,303.8c-8.3,2.2-15.9-5.2-13.6-13.6c1.1-3.7,4-6.7,7.7-7.7c8.3-2.2,15.9,5.2,13.6,13.6
							C501.4,299.9,498.6,302.9,494.8,303.8"/>
					</g>
					<g>
						<path class="st3" d="M358.6,85.2L358.6,85.2c-8.3,2.2-15.9-5.2-13.6-13.6c1.1-3.7,4-6.7,7.7-7.7c8.3-2.2,15.9,5.2,13.6,13.6
							C365.2,81.2,362.3,84.2,358.6,85.2"/>
					</g>
					<g>
						<path class="st3" d="M360.8,232.9L360.8,232.9c-8.3,2.2-15.9-5.2-13.6-13.6c1.1-3.7,4-6.7,7.7-7.7c8.3-2.2,15.9,5.2,13.6,13.6
							C367.4,228.9,364.6,231.9,360.8,232.9"/>
					</g>
					<g>
						<path class="st3" d="M383.9,202.9L383.9,202.9c-8.3,2.2-15.9-5.2-13.6-13.6c1.1-3.7,4-6.7,7.7-7.7c8.3-2.2,15.9,5.2,13.6,13.6
							C390.6,199,387.6,201.9,383.9,202.9"/>
					</g>
					<g>
						<path class="st3" d="M172.3,438.7L172.3,438.7c-8.3,2.2-15.9-5.2-13.6-13.6c1.1-3.7,4-6.7,7.7-7.7c8.3-2.2,15.9,5.2,13.6,13.6
							C178.8,434.7,175.9,437.6,172.3,438.7"/>
					</g>
					<g>
						<path class="st3" d="M86.3,313.9L86.3,313.9c-8.3,2.2-15.9-5.2-13.6-13.6c1.1-3.7,4-6.7,7.7-7.7c8.3-2.2,15.9,5.2,13.6,13.6
							C93,310,90,312.9,86.3,313.9"/>
					</g>
					<g>
						<path class="st3" d="M86.3,283.1L86.3,283.1c-8.3,2.2-15.9-5.2-13.6-13.6c1.1-3.7,4-6.7,7.7-7.7c8.3-2.2,15.9,5.2,13.6,13.6
							C93,279.1,90,282.2,86.3,283.1"/>
					</g>
					<g>
						<path class="st3" d="M401.3,483.3L401.3,483.3c-8.3,2.2-15.9-5.2-13.6-13.6c1.1-3.7,4-6.7,7.7-7.7c8.3-2.2,15.9,5.2,13.6,13.6
							C408,479.3,405.1,482.3,401.3,483.3"/>
					</g>
					<g>
						<path class="st3" d="M433.9,438.7L433.9,438.7c-8.3,2.2-15.9-5.2-13.6-13.6c1.1-3.7,4-6.7,7.7-7.7c8.3-2.2,15.9,5.2,13.6,13.6
							C440.6,434.7,437.6,437.6,433.9,438.7"/>
					</g>
					<g>
						<path class="st3" d="M423,501.2L423,501.2c-8.3,2.2-15.9-5.2-13.6-13.6c1.1-3.7,4-6.7,7.7-7.7c8.3-2.2,15.9,5.2,13.6,13.6
							C429.7,497.2,426.6,500.2,423,501.2"/>
					</g>
					<g>
						<path class="st3" d="M285.9,532.4L285.9,532.4c-8.3,2.2-15.9-5.2-13.6-13.6c1.1-3.7,4-6.7,7.7-7.7c8.3-2.2,15.9,5.2,13.6,13.6
							C292.4,528.3,289.6,531.3,285.9,532.4"/>
					</g>
					<g>
						<path class="st3" d="M332.8,85.2L332.8,85.2c-8.3,2.2-15.9-5.2-13.6-13.6c1.1-3.7,4-6.7,7.7-7.7c8.3-2.2,15.9,5.2,13.6,13.6
							C339.4,81.2,336.4,84.2,332.8,85.2"/>
					</g>
					<rect x="41.3" y="266.4" class="st3" width="34.8" height="12.2"/>
					<rect x="515.4" y="267" class="st3" width="34.8" height="12.2"/>
					<rect x="413.9" y="493.3" class="st3" width="12.2" height="34.8"/>
					<path class="st3" d="M351.7,217.3v-32.8c0-0.7,0.6-1.1,1.1-1.1h10.1c0.7,0,1.1,0.6,1.1,1.1v32.8c0,0.7-0.6,1.1-1.1,1.1h-10.1
						C352.2,218.3,351.7,217.8,351.7,217.3z"/>
					<path class="st3" d="M163.7,250.7h-32.8c-0.7,0-1.1-0.6-1.1-1.1v-10.1c0-0.7,0.6-1.1,1.1-1.1h32.8c0.7,0,1.1,0.6,1.1,1.1v10.1
						C164.9,250.3,164.3,250.7,163.7,250.7z"/>
					<path class="st3" d="M263.7,157.9h-66.3c-0.7,0-1.1-0.6-1.1-1.1v-10.1c0-0.7,0.6-1.1,1.1-1.1h66.3c0.7,0,1.1,0.6,1.1,1.1v10.1
						C264.8,157.6,264.2,157.9,263.7,157.9z"/>
					<path class="st3" d="M485.8,329.3v-32.8c0-0.7,0.6-1.1,1.1-1.1H497c0.7,0,1.1,0.6,1.1,1.1v32.8c0,0.7-0.6,1.1-1.1,1.1h-10.1
						C486.2,330.4,485.8,329.9,485.8,329.3z"/>
					<path class="st3" d="M276,517.1v-32.8c0-0.7,0.6-1.1,1.1-1.1h10.1c0.7,0,1.1,0.6,1.1,1.1v32.8c0,0.7-0.6,1.1-1.1,1.1h-10.1
						C276.3,518.1,276,517.7,276,517.1z"/>
					<rect x="108.2" y="119.7" class="st3" width="12.2" height="100.6"/>
					<rect x="323.8" y="41.6" class="st3" width="12.2" height="36.6"/>
				</g>
			</g>
		</g>
		<g>
			<path class="st4" d="M138.6,503.7c-3.7,0-6.8-3.1-6.8-6.8V416c0-3.7,3.1-6.8,6.8-6.8h335.2c3.7,0,6.8,3.1,6.8,6.8v80.9
				c0,3.7-3.1,6.8-6.8,6.8L138.6,503.7L138.6,503.7z"/>
			<path class="st5" d="M473.8,412.4c1.9,0,3.4,1.6,3.4,3.4v80.9c0,1.9-1.6,3.4-3.4,3.4H138.6c-1.9,0-3.4-1.6-3.4-3.4v-80.9
				c0-1.9,1.4-3.4,3.4-3.4L473.8,412.4 M473.8,406H138.6c-5.6,0-10.1,4.6-10.1,10.1V497c0,5.6,4.6,10.1,10.1,10.1h335.2
				c5.6,0,10.1-4.6,10.1-10.1v-80.9C483.9,410.4,479.3,406,473.8,406L473.8,406z"/>
		</g>
		<g class="st6">
			<path class="st2" d="M152.3,490.4v-69.6h19.9v10h10v10h10v10h10v-29.8H222v69.6h-19.8v-19.8h-10v-10.1h-10v-10h-10v39.8
				L152.3,490.4L152.3,490.4z"/>
			<path class="st2" d="M231.9,490.4v-69.6h69.6v10h-49.7v19.8h39.8v10h-39.8v19.8h49.7v10L231.9,490.4L231.9,490.4z"/>
			<path class="st2" d="M321.2,490.4v-10h-10v-59.6h19.9v39.8h10v-39.8h10v39.8h10v-39.8h19.8v59.6h-10v10h-10v-10h-10v-10h-10v10
				h-10v10H321.2z"/>
			<path class="st2" d="M400.7,490.4v-10h-10v-10h19.8v10h29.8v-19.8h-39.7v-10h-10v-19.8h10v-10h49.7v10h10v10h-19.8v-10h-29.8
				v19.8h39.8v10h10v19.8h-10v10H400.7z"/>
		</g>
	</g>
</g>
</svg>
