<?xml version="1.0" encoding="utf-8"?>
<!-- Generator: Adobe Illustrator 25.2.1, SVG Export Plug-In . SVG Version: 6.00 Build 0)  -->
<svg version="1.1" id="Capa_1" xmlns="http://www.w3.org/2000/svg" xmlns:xlink="http://www.w3.org/1999/xlink" x="0px" y="0px"
	 viewBox="0 0 575.6 698.9" style="enable-background:new 0 0 575.6 698.9;" xml:space="preserve">
<style type="text/css">
	.st0{fill:#633112;}
	.st1{fill:#FDDB90;}
	.st2{fill:#D1884F;}
	.st3{fill:#623312;}
	.st4{fill:#FFFFFF;}
</style>
<g>
	<g>
		<path class="st0" d="M575.5,338.9c-2.4-51.8-48.7-105-124.5-137.2L472.1,84c0.2-2.4,0.4-4.9,0.4-7.4c0-41.5-33.6-75.1-75.1-75.1
			c-40.4,0-73.3,31.9-75,71.8l0,0l-2.3,98.8c-9.6-0.6-19.5-0.9-29.5-0.9c-11.5,0-22.9,0.4-34.1,1.3V69.7l-0.2-0.1
			C253.3,30.7,220.9,0,181.3,0c-41.5,0-75.1,33.6-75.1,75.1c0,3.6,0.3,7.2,0.8,10.7l0,0l22.4,116.8l0,0
			c-73,31.2-121.5,82-123.8,136.3H5.3v73.9h0.1c4.4,92.8,130.3,167.3,285,167.3s280.5-74.4,285-167.3h0.1v-73.9H575.5z"/>
		<path class="st1" d="M550.9,354.5v55.1h-0.1c-4.1,84.8-136.4,146.9-262,146.9c-110.6,0-262-74.8-262-146.9h-0.1v-55.1
			c0-43.2,28.1-82.4,73.8-111.2c0.1-0.1,0.2-0.1,0.3-0.2c44.9-27,105.6-45,168.9-48.1c1.7-0.1,3.5-0.2,5.2-0.2
			c4.6-0.2,9.3-0.3,13.9-0.3c19.7,0,38.6,1.2,56.6,3.4c29,3.6,55.6,9.9,79.4,18.3c-0.1,0.4-0.2,0.9-0.3,1.3
			C500.3,245.8,550.9,296.6,550.9,354.5z"/>
		<path class="st2" d="M550.9,354.5c0,88.3-117.3,159.9-262.1,159.9c-144.8,0-262.1-71.6-262.1-159.9c0-43.2,28.1-82.4,73.8-111.2
			c0.1-0.1,0.2-0.1,0.3-0.2c15.6-9.8,33.3-18.4,52.7-25.6l-24.1-135l0.2-0.1c-0.1-1.5-0.2-3-0.2-4.6c0-29.1,23.6-52.6,52.6-52.6
			c26.3,0,48.1,19.3,52,44.6l0.5,128.2c11.5-1.5,23.3-2.5,35.3-3c1.7-0.1,3.5-0.2,5.2-0.2c4.6-0.2,9.3-0.2,13.9-0.2
			c19.4,0,38.3,1.3,56.5,3.7l0.1-0.3l0-0.3l1.1-127.5c3.7-25.4,25.6-44.9,52-44.9c29,0,52.6,23.5,52.6,52.6
			c0,0.9-16.6,87.4-26.3,138.4c-0.1,0.4-0.2,0.9-0.3,1.3C500.3,245.8,550.9,296.6,550.9,354.5z"/>
		<g>
			<path class="st3" d="M187.7,299.3c-15.7,0-28.5,20.1-28.5,44.8c0,24.8,12.8,44.8,28.5,44.8s28.5-20.1,28.5-44.8
				C216.2,319.4,203.5,299.3,187.7,299.3z"/>
			<path class="st3" d="M387.9,299.3c-15.7,0-28.5,20.1-28.5,44.8c0,24.8,12.8,44.8,28.5,44.8s28.5-20.1,28.5-44.8
				C416.5,319.4,403.7,299.3,387.9,299.3z"/>
		</g>
	</g>
	<g>
		<g>
			<path class="st4" d="M26,627.5h-8.8H5.8H4.3c-2.4,0-4.3,1.9-4.3,4.3v47.7c0,1.9,1.5,3.4,3.4,3.4h9.8c2.2,0,4-1.8,4-4v-12.6h7.5
				c15.8,0,22.1-8.2,22.1-18.3v-3.5C46.8,635.1,40.7,627.5,26,627.5z M30.2,648.7c0,2.8-2.3,5-5,5h-8.3v-14.1h7.9
				c3,0,5.4,2.4,5.4,5.4V648.7z"/>
			<path class="st4" d="M49,665.3c0,16.1,9,18.7,17.2,18.7c6.2,0,9.9-1.4,13.1-4c0.3,1.6,1.7,2.8,3.4,2.8h8.5c1.7,0,3-1.3,3-3v-32.1
				c0,0-6.9-5-19.5-5C62,642.8,49,649.2,49,665.3z M78.6,654.5v15.2c0,0-2.2,3.2-6.4,3.2s-6.9-2.5-6.9-7.7s3.4-11.6,9.6-11.6
				C76.3,653.7,77.6,654,78.6,654.5z"/>
			<path class="st4" d="M193.8,665.3c0,16.1,9,18.7,17.2,18.7c6.2,0,9.9-1.4,13.1-4c0.3,1.6,1.7,2.8,3.4,2.8h8.5c1.7,0,3-1.3,3-3
				v-32.1c0,0-6.9-5-19.5-5C206.8,642.8,193.8,649.2,193.8,665.3z M223.4,654.5v15.2c0,0-2.2,3.2-6.4,3.2c-4.2,0-6.9-2.5-6.9-7.7
				s3.4-11.6,9.6-11.6C221.2,653.7,222.4,654,223.4,654.5z"/>
			<path class="st4" d="M453.5,665.3c0,16.1,9,18.7,17.2,18.7c6.2,0,9.9-1.4,13.1-4c0.3,1.6,1.7,2.8,3.4,2.8h8.5c1.7,0,3-1.3,3-3
				v-32.1c0,0-6.9-5-19.5-5C466.5,642.8,453.5,649.2,453.5,665.3z M483.1,654.5v15.2c0,0-2.2,3.2-6.4,3.2s-6.9-2.5-6.9-7.7
				s3.4-11.6,9.6-11.6C480.9,653.7,482.1,654,483.1,654.5z"/>
			<path class="st4" d="M129.6,642.8c-12.7,0-15.3,5.5-15.3,5.5v-2c0,0,0,0,0,0v-2.5h-2.5h-8h-3.2v3.2c0,0,0,0,0,0v5.8v5.4V679
				c0,2.1,1.7,3.9,3.9,3.9h9.3c2,0,3.6-1.6,3.6-3.6v-21.8c1.5-2.7,3-3.7,5.8-3.7c3.1,0,3.6,2.2,3.6,2.2V679c0,2.1,1.7,3.9,3.9,3.9
				h9.3c2,0,3.6-1.6,3.6-3.6v-26.4C143.6,652.8,142.3,642.8,129.6,642.8z"/>
			<path class="st4" d="M188.5,674.1c-0.6-0.9-1.3-2-1.7-2.6c-0.9-1.2-1.6-1.8-3.8-1c-1.8,0.7-4.4,1.6-5.3,1.8
				c-0.2,0.1-0.3,0.1-0.3,0.1c-0.9,0.3-1.8,0.4-2.7,0.4c-5.3,0-9.7-2-9.7-9.7c0-5.3,4.3-9.7,9.7-9.7c1,0,1.9,0.1,2.7,0.4
				c0,0,0,0,0,0c0.7,0.2,1.6,0.6,2.5,1.2c0,0,0,0,0,0c0.1,0,1.9,0.6,3.1,1.3c1.3,0.7,2.4,0.9,3.1-0.6c0,0,0,0,0,0
				c0.1-0.4,0.2-0.6,0.2-0.6l1.7-2.9l1.4-2.3c0,0,1-1.9-1.8-3.6c-2.8-1.8-8.8-3.5-17.6-3.4c-11.9,0-21.5,9.2-21.5,20.6
				c0,14.5,9.6,20.6,21.5,20.6c9.1,1,17.8-2.9,19.5-4.4c1.8-1.5,0-3.8,0-3.8S189.1,675,188.5,674.1z"/>
			<path class="st4" d="M275.8,663.4l14-16c1.3-1.5,0.2-3.9-1.8-3.9h-11.8c-1.3,0-2.5,0.6-3.2,1.6l-10.6,13.7v-27.9
				c0-2-1.6-3.6-3.6-3.6h-9.5c-2,0-3.6,1.6-3.6,3.6v48.4c0,2,1.6,3.6,3.6,3.6h9.5c2,0,3.6-1.6,3.6-3.6v-11.7l10.5,13.6
				c0.8,1,2.1,1.7,3.4,1.7h12.5c1.7,0,2.6-2,1.5-3.3L275.8,663.4z"/>
			<path class="st4" d="M315.5,642.8c-22.9,0-22.6,17.8-22.6,21.6c0,3.8,1.7,19.7,23,19.7c0,0,10.6,0.5,17.5-3.4
				c1.2-0.7,1.6-2.2,0.9-3.4l-2.7-5c-0.4-0.8-1.4-1.1-2.3-0.8c-2.2,0.9-6.4,2.5-10.1,2.5c-5.2,0-11.2-2-10.9-7.3h25.9
				c1.7,0,3.1-1.4,3.1-3.1v-2.4C337.4,661.2,338.4,642.8,315.5,642.8z M322.6,658.7h-14.1c0,0-0.9-6.4,7.1-6.4
				C323.5,652.3,322.6,658.7,322.6,658.7z"/>
			<path class="st4" d="M367.8,649.5c-4.5-1.9-8.3-3.5-8.3-6s1.5-5.2,7.3-5.2s9.3,1.9,11.4,2.9s2.9-0.3,2.9-0.3s2.8-4.1,4.1-6.4
				c1.3-2.3-1-3.2-1-3.2c-4.5-3.4-11.5-4.8-20-4.8c-8.5,0-20.6,3.5-20.6,16.3s13,16,18.7,18.1s8,5.7,8,6.7s0.7,5-7.6,5
				c-5.9,0-11.4-2.5-14-3.9c-1-0.5-2.2-0.2-2.9,0.7l-4.3,6.1c-0.7,1-0.5,2.4,0.6,3.1c5.1,3.4,10.7,5.5,21.5,5.5
				c12.1,0,14.9-2.2,18.8-5.6c3.9-3.4,6.1-10.6,3.2-16.9C382.6,655.3,372.4,651.4,367.8,649.5z"/>
			<path class="st4" d="M447.8,643.5H437c-1,0-1.9,0.7-2.1,1.6l-4.6,18.3l-5.7-15c-0.2-0.7-0.9-1.1-1.6-1.1H417
				c-0.8,0-1.5,0.5-1.8,1.2l-5.8,14.6l-4.3-17.4c-0.3-1.3-1.5-2.3-2.9-2.3h-10.5c-1.2,0-2.1,1.2-1.7,2.4l11.1,35
				c0.4,1.2,1.5,2,2.8,2h8.3c0.9,0,1.7-0.6,2-1.4l5.4-14.9l5.9,15c0.3,0.8,1.1,1.4,2,1.4h7.8c1.8,0,3.3-1.2,3.9-2.9l10.2-34.5
				C449.6,644.5,448.9,643.5,447.8,643.5z"/>
			<path class="st4" d="M526.8,642.3c-13.3,0-21.4,6.6-21.4,6.6v47.3c0,1.5,1.2,2.7,2.7,2.7h10.1c1.6,0,2.9-1.3,2.9-2.9v-14
				c2.8,1.4,6.1,2.1,10.4,2.1c8.3,0,19.2-4.2,19.2-20.3S540,642.3,526.8,642.3z M526.9,673c-3.6-0.1-5.8-3.4-5.8-3.4v-15.1
				c1.3-0.5,2.9-0.9,4.5-0.9c5.7,0,8.6,3.6,8.6,9.6C534.2,669.2,530.6,673.1,526.9,673z"/>
		</g>
	</g>
</g>
</svg>
