<?xml version="1.0" encoding="utf-8"?>
<!-- Generator: Adobe Illustrator 25.2.1, SVG Export Plug-In . SVG Version: 6.00 Build 0)  -->
<svg version="1.1" id="Capa_1" xmlns="http://www.w3.org/2000/svg" xmlns:xlink="http://www.w3.org/1999/xlink" x="0px" y="0px"
	 viewBox="0 0 600 600" style="enable-background:new 0 0 600 600;" xml:space="preserve">
<style type="text/css">
	.st0{fill:#002B2A;}
	.st1{fill:#00AAAA;}
	.st2{fill:#11726B;}
	.st3{fill:#B2B2B2;}
	.st4{fill:#FFFFFF;}
</style>
<g>
	<circle class="st0" cx="299" cy="299.5" r="285"/>
	<circle class="st1" cx="299" cy="299.5" r="251.9"/>
	<path class="st2" d="M370,528.8c-2.3-3.7-7.3-3.6-9.5-0.3l-5.1,7.6c5.2-1.2,10.3-2.6,15.3-4.2C370.8,530.9,370.5,529.8,370,528.8z
		 M453.8,471.9L434,442.2c-1.5-2.3-2.4-5.1-2.4-7.9v-46.7c0-2.9,1.7-5.6,4.3-7c7.9-4.1,12.9-13,11.2-22.9c-1.5-8.5-8.4-15.4-16.9-17
		c-13.6-2.5-25.5,7.9-25.5,21c0,8.2,4.7,15.3,11.5,18.9c2.6,1.4,4.3,4,4.3,7v46.7c0,2.8-0.9,5.6-2.4,7.9L378.8,501
		c-1,1.5-3.1,1.7-4.3,0.4l-47-47c-2-2-2.6-5-1.8-7.7c0.9-3,1.2-6.3,0.6-9.8c-1.5-8.8-8.7-16-17.5-17.4c-14.5-2.4-27,10.1-24.7,24.6
		c1.4,8.5,8,15.5,16.5,17.3c4,0.9,7.9,0.6,11.3-0.6c2.8-1,5.9-0.3,7.9,1.7l55.7,55.7l8.9,8.9c3.8-1.4,7.6-2.9,11.3-4.6L387,514
		l-0.1-0.1c-1.1-1.1-1.3-2.9-0.4-4.2l37.5-56.3c1-1.4,3-1.4,4,0l17.2,25.9l4.1,6.1l2.3,3.4c0.2-0.2,0.4-0.3,0.6-0.5
		c2.7-2.2,5.4-4.4,8-6.7L453.8,471.9z M315,443.3c-0.9,3.4-3.6,6.2-7.1,7.1c-7.7,2.1-14.6-4.8-12.5-12.6c0.9-3.4,3.6-6.1,7.1-7
		C310.2,428.7,317.1,435.6,315,443.3z M423.3,371.6c-3.4-0.9-6.2-3.6-7.1-7c-2.1-7.8,4.8-14.6,12.5-12.6c3.4,0.9,6.2,3.6,7.1,7.1
		C437.9,366.7,431,373.6,423.3,371.6z"/>
	<path class="st2" d="M170.8,447.9c0-2.9,1.7-5.6,4.3-7c7.9-4.1,12.9-13,11.1-22.9c-1.5-8.5-8.4-15.4-16.9-17
		c-13.6-2.5-25.5,7.9-25.5,21c0,8.2,4.7,15.3,11.5,18.9c2.6,1.4,4.3,4,4.3,7v46.7c0,1.3-0.2,2.6-0.6,3.8c6.4,4.6,13,8.8,19.8,12.7
		l-5.6-8.5c-1.6-2.3-2.5-5.1-2.5-7.9V447.9z M155.4,424.8c-2.1-7.8,4.8-14.6,12.6-12.6c3.4,0.9,6.1,3.6,7,7.1
		c2.1,7.7-4.8,14.6-12.5,12.5C159.1,430.9,156.3,428.2,155.4,424.8z M282.5,479.6c-8.8,1.5-16,8.6-17.4,17.4
		c-0.6,3.4-0.3,6.8,0.6,9.8c0.9,2.7,0.2,5.6-1.8,7.7l-21.5,21.5c4.3,1.1,8.7,2,13.1,2.8l9.9-9.9l6.2-6.2c2.1-2.1,5.1-2.7,7.9-1.7
		c3.5,1.1,7.3,1.4,11.3,0.6c8.4-1.8,15-8.8,16.4-17.3C309.5,489.7,297.1,477.2,282.5,479.6z M295.9,503.4c-0.9,3.4-3.6,6.2-7,7.1
		c-7.8,2.1-14.6-4.8-12.6-12.6c0.9-3.4,3.6-6.1,7.1-7C291.1,488.9,298,495.8,295.9,503.4z"/>
	<path class="st2" d="M82.2,217.4c-0.2-0.3-0.4-0.6-0.7-1c-1.9-2.5-4.3-4.4-7.1-5.9c-0.5-0.3-1-0.6-1.4-1c-1.4,3.5-2.8,7.2-4,10.8
		c2.1,0.9,3.8,2.6,4.8,4.6c0.7,1.4,1.1,3,1.1,4.6c0,6.1-5.4,10.9-11.6,10.1h-0.1c-0.5,2.2-1,4.3-1.5,6.4c-0.3,1.5-0.6,3-1,4.4
		c1.1,0.2,2.2,0.3,3.4,0.4c3,0.1,5.9-0.5,8.5-1.5c7.9-3.1,13.5-10.9,13.5-19.8C86,225.1,84.7,220.8,82.2,217.4z M246.1,203.1
		c-1.4-8.9-8.7-16.1-17.6-17.6c-3.5-0.6-6.9-0.3-10,0.7c-2.7,0.9-5.8,0.3-7.8-1.8l-36-36c-0.7-0.6-1.3-1.4-1.8-2.2l-18.6-28
		l-6.3-9.5c-3,2.3-5.9,4.7-8.7,7.2l6.3,9.5l10.8,16.1c1.1,1.6-0.1,3.8-2,3.8h-43.7c-3,3.6-5.9,7.4-8.6,11.2h59
		c3.8,0,7.4,1.5,10.1,4.2l31.6,31.5c2,2.1,2.6,5.1,1.8,7.8c-1,3.1-1.3,6.4-0.7,10c1.5,8.9,8.7,16.1,17.6,17.5
		C236,230,248.4,217.7,246.1,203.1z M234.8,209.4c-0.9,3.4-3.6,6.2-7.1,7.1c-7.7,2.1-14.6-4.8-12.5-12.6c0.9-3.4,3.6-6.2,7-7
		C230,194.8,236.9,201.6,234.8,209.4z"/>
	<path class="st2" d="M143.7,214.1c-1.4-8.9-8.6-16.1-17.6-17.6c-3.5-0.6-6.8-0.2-9.9,0.7c-2.8,0.9-5.8,0.3-7.8-1.8l-10.8-10.8
		l-8.3-8.3c-2,3.3-3.9,6.7-5.7,10.1l16.9,16.9c2.1,2.1,2.6,5,1.8,7.8c-1,3-1.3,6.4-0.7,9.9c1.4,8.9,8.6,16.1,17.6,17.6
		C133.6,241,146,228.6,143.7,214.1z M132.4,220.4c-0.9,3.4-3.6,6.1-7,7c-7.8,2.1-14.6-4.8-12.6-12.5c0.9-3.4,3.6-6.2,7.1-7.1
		C127.5,205.7,134.4,212.6,132.4,220.4z"/>
	<path class="st2" d="M386,128c-1.9-2.5-4.3-4.4-7.1-5.9c-2.5-1.3-4.1-3.8-4.1-6.7V68.4c-17.8-5.9-36.5-9.7-55.9-11.3h-39.6
		c-0.1,0-0.1,0-0.1,0c-6.6,0.5-13.1,1.3-19.6,2.4c-0.2,0.2-0.4,0.4-0.6,0.6l-36,36c-2.1,2.1-5,2.7-7.8,1.8c-3.1-1-6.4-1.3-10-0.7
		c-8.9,1.5-16.1,8.6-17.5,17.6c-2.3,14.5,10.1,26.9,24.6,24.6c8.9-1.4,16.1-8.7,17.6-17.6c0.6-3.5,0.3-6.9-0.7-10
		c-0.9-2.7-0.3-5.8,1.8-7.8l31.6-31.5c1-1,2.1-1.8,3.2-2.4c2.1-1.2,4.4-1.8,6.9-1.8h90.9v47.3c0,2.8-1.6,5.4-4.1,6.7
		c-2.8,1.4-5.2,3.4-7.1,5.9c-2.8,3.6-4.6,8.3-4.6,13.3c0.1,11.3,9.5,20.9,20.8,21.2c12,0.3,21.9-9.4,21.9-21.4
		C390.6,136.2,388.9,131.6,386,128z M218.7,120.9c-0.9,3.4-3.6,6.2-7.1,7.1c-7.8,2.1-14.6-4.8-12.5-12.6c0.9-3.4,3.6-6.2,7-7
		C213.9,106.3,220.8,113.2,218.7,120.9z M367.8,151.2c-3.2-0.5-6.2-2.6-7.6-5.5c-1.6-3.2-1.3-6.5,0-9.2c1.7-3.3,5.1-5.6,9.1-5.6
		c4,0,7.4,2.3,9.1,5.6c0.7,1.4,1.1,3,1.1,4.6C379.4,147.3,374,152.1,367.8,151.2z"/>
	<path class="st2" d="M110.1,318.1c-8.8,1.5-16,8.6-17.4,17.4c-0.6,3.4-0.3,6.8,0.6,9.8c0.9,2.7,0.2,5.6-1.8,7.6l-14.2,14.2
		l-9.1,9.1c1.3,3.9,2.7,7.8,4.2,11.6l26.7-26.7c2.1-2.1,5.1-2.7,7.9-1.7c3.5,1.1,7.3,1.4,11.3,0.6c8.4-1.8,15-8.8,16.4-17.3
		C137.1,328.2,124.7,315.7,110.1,318.1z M123.5,342c-0.9,3.4-3.6,6.2-7,7.1c-7.8,2.1-14.6-4.8-12.6-12.6c0.9-3.4,3.6-6.2,7.1-7
		C118.7,327.4,125.5,334.3,123.5,342z"/>
	<path class="st2" d="M522.7,203.9l-23.6,23.6c-2.1,2.1-5,2.7-7.8,1.8c-3.1-1-6.4-1.3-10-0.7c-8.9,1.5-16.1,8.7-17.5,17.6
		c-2.3,14.5,10.1,26.9,24.6,24.6c8.9-1.4,16.1-8.7,17.6-17.6c0.6-3.5,0.3-6.9-0.7-10c-0.9-2.7-0.3-5.8,1.8-7.8l11.3-11.3l8.9-8.9
		C525.8,211.4,524.3,207.7,522.7,203.9z M494.7,252.4c-0.9,3.4-3.6,6.2-7.1,7.1c-7.8,2.1-14.6-4.8-12.5-12.6c0.9-3.4,3.6-6.2,7-7
		C489.8,237.8,496.7,244.7,494.7,252.4z"/>
	<path class="st2" d="M114.3,426.5c-1.5-8.5-8.4-15.4-16.9-17c-0.9-0.2-1.7-0.3-2.6-0.3c-4.2-0.3-8.2,0.7-11.6,2.5
		c1.8,3.4,3.6,6.7,5.5,9.9c2.2-1.2,4.7-1.5,7.4-0.9c3.4,0.9,6.1,3.6,7,7.1c1.1,4.3-0.5,8.4-3.6,10.8c2.2,3.1,4.3,6,6.7,9
		c3.2-2.4,5.7-5.7,7.1-9.5C114.5,434.5,115,430.5,114.3,426.5z M210.5,488.1c-8.8,1.5-16,8.6-17.4,17.4v0.2
		c-0.6,3.4-0.3,6.6,0.6,9.6c0.4,1.2,0.5,2.4,0.3,3.6c8.5,4,17.3,7.7,26.3,10.8c4.7-1.4,8.7-4.4,11.5-8.3c1.8-2.6,3-5.5,3.5-8.7
		C237.5,498.1,225.1,485.7,210.5,488.1z M216.9,519c-6.1,1.6-11.7-2.3-12.7-7.9c-0.3-1.5-0.3-3.1,0.1-4.7c0.9-3.4,3.6-6.2,7.1-7.1
		c7.8-2.1,14.6,4.8,12.5,12.6c-0.6,2.3-2,4.2-3.9,5.6C219.1,518.2,218,518.7,216.9,519z"/>
	<g>
		<path class="st2" d="M315.1,68.2c16.7,1.1,32.9,4.1,48.5,8.6v-8.6H315.1z M272.7,68.2c-2.5,0-4.8,0.6-6.9,1.8
			c5.6-0.9,11.3-1.4,17-1.8H272.7z M315.1,68.2c16.7,1.1,32.9,4.1,48.5,8.6v-8.6H315.1z M272.7,68.2c-2.5,0-4.8,0.6-6.9,1.8
			c5.6-0.9,11.3-1.4,17-1.8H272.7z M315.1,68.2c16.7,1.1,32.9,4.1,48.5,8.6v-8.6H315.1z M272.7,68.2c-2.5,0-4.8,0.6-6.9,1.8
			c5.6-0.9,11.3-1.4,17-1.8H272.7z M315.1,68.2c16.7,1.1,32.9,4.1,48.5,8.6v-8.6H315.1z M272.7,68.2c-2.5,0-4.8,0.6-6.9,1.8
			c5.6-0.9,11.3-1.4,17-1.8H272.7z M527.2,215.3c-1.4-3.8-2.9-7.6-4.5-11.3c-27.4-63.8-81.3-113.7-147.9-135.5
			c-17.8-5.9-36.5-9.7-55.9-11.3c-6.6-0.5-13.2-0.8-20-0.8c-6.6,0-13.2,0.3-19.6,0.8c-0.1,0-0.1,0-0.1,0c-6.6,0.5-13.1,1.3-19.6,2.4
			c-41.7,6.8-79.9,24.2-111.7,49.5c-3,2.3-5.9,4.7-8.7,7.2c-10.3,9-19.9,18.9-28.6,29.4c-3,3.6-5.9,7.4-8.6,11.2
			c-4.6,6.3-8.9,12.9-12.9,19.7c-2,3.3-3.9,6.7-5.7,10.1c-3.9,7.5-7.5,15.2-10.6,23.1c-1.4,3.5-2.8,7.2-4,10.8
			c-1.5,4.3-2.8,8.7-4.1,13.1c-0.6,2.1-1.1,4.2-1.7,6.2c-0.5,2.2-1,4.3-1.5,6.4c-0.3,1.5-0.6,3-1,4.4c-3.2,15.8-5,32.2-5,48.9
			c0,26.8,4.4,52.7,12.4,76.8c1.3,3.9,2.7,7.8,4.2,11.6c3.1,8.1,6.7,16,10.7,23.6c1.8,3.4,3.6,6.7,5.5,9.9c3.4,5.8,7,11.5,10.8,17
			c2.2,3.1,4.3,6,6.7,9c14.9,19.5,32.8,36.7,53,50.8c6.4,4.6,13,8.8,19.8,12.7c4.9,2.9,9.9,5.5,15,7.9c8.5,4,17.3,7.7,26.3,10.8
			c7.2,2.5,14.6,4.7,22.2,6.4c4.3,1.1,8.7,2,13.1,2.8c14.1,2.6,28.7,3.9,43.5,3.9c19.4,0,38.3-2.3,56.4-6.7
			c5.2-1.2,10.3-2.6,15.3-4.2c4.7-1.4,9.2-3,13.7-4.7c3.8-1.4,7.6-2.9,11.3-4.6c16.9-7.4,32.9-16.6,47.5-27.5
			c2.9-2.1,5.6-4.2,8.3-6.4c0.2-0.2,0.4-0.3,0.6-0.5c2.7-2.2,5.4-4.4,8-6.7c6.6-5.9,12.9-12,18.8-18.6c0.1-0.1,0.1-0.1,0.1-0.1
			c13.1-14.4,24.5-30.3,33.8-47.4c18.8-34.5,29.5-74,29.5-116C542.3,269.9,537,241.5,527.2,215.3z M520.2,369
			c-2.2,6.9-4.6,13.7-7.4,20.3c-3.3,7.8-7,15.4-11.2,22.8c-12.6,22.6-28.8,42.8-47.9,59.8c-2.8,2.6-5.6,5-8.6,7.4
			c-0.3,0.3-0.7,0.6-1.1,0.9c-2.9,2.4-5.9,4.7-9,6.8c-14.8,10.8-31,19.9-48.1,27c-3.8,1.6-7.6,3-11.5,4.3
			c-23.9,8.5-49.8,13.1-76.6,13.1c-11.5,0-22.7-0.9-33.6-2.5c-4.6-0.6-9-1.4-13.5-2.4c-6.8-1.4-13.6-3.1-20.2-5.1
			c-3.9-1.2-7.8-2.5-11.7-3.9c-5.4-1.9-10.6-4.1-15.8-6.4c-3.8-1.7-7.5-3.5-11.1-5.4c-7.7-3.9-15.2-8.3-22.3-13.1
			c-3.8-2.6-7.6-5.2-11.2-8c-17.6-13.3-33.3-29-46.5-46.7c-6.8-9.1-13-18.8-18.4-28.8c-5.2-9.6-9.7-19.6-13.5-30
			c-1.4-3.9-2.8-7.9-4-11.9c-6.6-21.4-10.1-44.2-10.1-67.7c0-14.9,1.4-29.6,4.2-43.7c0.4-2.1,0.8-4.2,1.3-6.3c0.5-2.2,1-4.4,1.6-6.6
			c2.2-8.7,4.8-17.2,8-25.4c3-7.7,6.3-15.2,9.9-22.4c1.8-3.5,3.6-7,5.5-10.3c5.6-9.8,11.9-19.2,18.9-28c3-3.8,6.1-7.6,9.3-11.2
			c6.2-7,12.9-13.7,19.9-19.9c2.9-2.5,5.7-4.8,8.7-7.2c26.2-21,57.1-36.4,90.9-44.5c6.7-1.6,13.6-2.9,20.6-3.9
			c5.6-0.9,11.3-1.4,17-1.8c5.3-0.4,10.7-0.6,16.1-0.6c5.4,0,10.8,0.2,16.1,0.6c16.7,1.1,32.9,4.1,48.5,8.6
			c3.8,1.1,7.5,2.3,11.2,3.5c63.3,21.9,114.1,70.6,139.1,132.3c1.6,3.8,3,7.6,4.3,11.5c8.2,23.6,12.6,49,12.6,75.4
			c0,15-1.4,29.6-4.2,43.8C525.1,352.1,522.9,360.6,520.2,369z M110.8,145.5c-3,3.6-5.9,7.4-8.6,11.2c-4.6,6.3-8.9,12.9-12.9,19.7
			c-2,3.3-3.9,6.7-5.7,10.1c-3.9,7.5-7.5,15.2-10.6,23.1c0.5,0.4,0.9,0.7,1.4,1c2.7,1.4,5.1,3.4,7.1,5.9c0.3,0.3,0.5,0.6,0.7,1
			c3-7.7,6.3-15.2,9.9-22.4c1.8-3.5,3.6-7,5.5-10.3c5.6-9.8,11.9-19.2,18.9-28c3-3.8,6.1-7.6,9.3-11.2H110.8z M231.7,521.4
			c-3.9-1.2-7.8-2.5-11.7-3.9c-5.4-1.9-10.6-4.1-15.8-6.4c-3.8-1.7-7.5-3.5-11.1-5.4c-7.7-3.9-15.2-8.3-22.3-13.1v1.9
			c0,2.8,0.9,5.6,2.5,7.9l5.6,8.5c4.9,2.9,9.9,5.5,15,7.9c8.5,4,17.3,7.7,26.3,10.8c7.2,2.5,14.6,4.7,22.2,6.4l9.5-9.5
			C245.1,525.2,238.3,523.4,231.7,521.4z M375.5,518.3c-23.9,8.5-49.8,13.1-76.6,13.1c-11.5,0-22.7-0.9-33.6-2.5l-9.9,9.9
			c14.1,2.6,28.7,3.9,43.5,3.9c19.4,0,38.3-2.3,56.4-6.7l5.1-7.6c2.2-3.3,7.2-3.4,9.5,0.3c0.6,1,0.8,2.1,0.7,3.1
			c4.7-1.4,9.2-3,13.7-4.7L375.5,518.3z M272.7,68.2c-2.5,0-4.8,0.6-6.9,1.8c5.6-0.9,11.3-1.4,17-1.8H272.7z M315.1,68.2
			c16.7,1.1,32.9,4.1,48.5,8.6v-8.6H315.1z M272.7,68.2c-2.5,0-4.8,0.6-6.9,1.8c5.6-0.9,11.3-1.4,17-1.8H272.7z M315.1,68.2
			c16.7,1.1,32.9,4.1,48.5,8.6v-8.6H315.1z M272.7,68.2c-2.5,0-4.8,0.6-6.9,1.8c5.6-0.9,11.3-1.4,17-1.8H272.7z M315.1,68.2
			c16.7,1.1,32.9,4.1,48.5,8.6v-8.6H315.1z M72.6,249.5c0.5-2.2,1-4.4,1.6-6.6c2.2-8.7,4.8-17.2,8-25.4c3-7.7,6.3-15.2,9.9-22.4
			l-8.5-8.5c-3.9,7.5-7.5,15.2-10.6,23.1c-1.4,3.5-2.8,7.2-4,10.8c-1.5,4.3-2.8,8.7-4.1,13.1c-0.6,2.1-1.1,4.2-1.7,6.2
			c-0.5,2.2-1,4.3-1.5,6.4c-0.3,1.5-0.6,3-1,4.4c-3.2,15.8-5,32.2-5,48.9c0,26.8,4.4,52.7,12.4,76.8l9.1-9.1
			c-6.6-21.4-10.1-44.2-10.1-67.7c0-14.9,1.4-29.6,4.2-43.7C71.7,253.7,72.1,251.6,72.6,249.5z M193.7,515.3c-0.9-3-1.1-6.2-0.6-9.6
			c-7.7-3.9-15.2-8.3-22.3-13.1c-3.8-2.6-7.6-5.2-11.2-8c-17.6-13.3-33.3-29-46.5-46.7c-6.8-9.1-13-18.8-18.4-28.8
			c-5.2-9.6-9.7-19.6-13.5-30l-8.8,8.8c3.1,8.1,6.7,16,10.7,23.6c1.8,3.4,3.6,6.7,5.5,9.9c3.4,5.8,7,11.5,10.8,17
			c2.2,3.1,4.3,6,6.7,9c14.9,19.5,32.8,36.7,53,50.8c6.4,4.6,13,8.8,19.8,12.7c4.9,2.9,9.9,5.5,15,7.9
			C194.1,517.7,194.1,516.5,193.7,515.3z M272.7,68.2c-2.5,0-4.8,0.6-6.9,1.8c5.6-0.9,11.3-1.4,17-1.8H272.7z M315.1,68.2
			c16.7,1.1,32.9,4.1,48.5,8.6v-8.6H315.1z M453.8,471.9c-2.8,2.6-5.6,5-8.6,7.4c-0.3,0.3-0.7,0.6-1.1,0.9l8.1,8.1
			c2.7-2.2,5.4-4.4,8-6.7c6.6-5.9,12.9-12,18.8-18.6c0.1-0.1,0.1-0.1,0.1-0.1l20.2-30.3c1.5-2.3,2.4-5.1,2.4-7.9v-12.6
			C489,434.7,472.8,454.9,453.8,471.9z"/>
	</g>
	<path class="st2" d="M515.5,200.4h-61.2c-0.5,0-1-0.4-1-1v-9.2c0-0.5,0.4-1,1-1h61.2c0.5,0,1,0.4,1,1v9.2
		C516.4,200,516,200.4,515.5,200.4z"/>
	<path class="st2" d="M333.1,113.6h-61.2c-0.5,0-1-0.4-1-1v-9.2c0-0.5,0.4-1,1-1h61.2c0.5,0,1,0.4,1,1v9.2
		C334.1,113.2,333.7,113.6,333.1,113.6z"/>
	<path class="st2" d="M309.7,146h-61.2c-0.5,0-1-0.4-1-1v-9.2c0-0.5,0.4-1,1-1h61.2c0.5,0,1,0.4,1,1v9.2
		C310.7,145.5,310.3,146,309.7,146z"/>
	<path class="st2" d="M395.2,141.8v-26.8c0-0.5,0.4-1,1-1h9.2c0.5,0,1,0.4,1,1v26.8c0,0.5-0.4,1-1,1h-9.2
		C395.6,142.8,395.2,142.3,395.2,141.8z"/>
	<path class="st2" d="M469.1,376.4v-26.8c0-0.5,0.4-1,1-1h9.2c0.5,0,1,0.4,1,1v26.8c0,0.5-0.4,1-1,1h-9.2
		C469.5,377.4,469.1,377,469.1,376.4z"/>
	<path class="st2" d="M136.1,383.3H74.9c-0.5,0-1-0.4-1-1v-9.2c0-0.5,0.4-1,1-1h61.2c0.5,0,1,0.4,1,1v9.2
		C137.1,382.9,136.7,383.3,136.1,383.3z"/>
	<path class="st2" d="M456.9,205.1L456.9,205.1c-7.7,2-14.6-4.8-12.6-12.6c0.9-3.4,3.6-6.1,7-7c7.7-2,14.6,4.8,12.6,12.6
		C463.1,201.4,460.3,204.2,456.9,205.1"/>
	<path class="st2" d="M477.5,356.2L477.5,356.2c-7.7,2-14.6-4.8-12.6-12.6c0.9-3.4,3.6-6.1,7-7c7.7-2,14.6,4.8,12.6,12.6
		C483.6,352.5,480.9,355.2,477.5,356.2"/>
	<path class="st2" d="M477.5,387L477.5,387c-7.7,2-14.6-4.8-12.6-12.6c0.9-3.4,3.6-6.1,7-7c7.7-2,14.6,4.8,12.6,12.6
		C483.6,383.3,480.9,386.1,477.5,387"/>
	<path class="st2" d="M496,376.4v-26.8c0-0.5,0.4-1,1-1h9.2c0.5,0,1,0.4,1,1v26.8c0,0.5-0.4,1-1,1H497
		C496.5,377.4,496,377,496,376.4z"/>
	<path class="st2" d="M504.4,356.2L504.4,356.2c-7.7,2-14.6-4.8-12.6-12.6c0.9-3.4,3.6-6.1,7-7c7.7-2,14.6,4.8,12.6,12.6
		C510.5,352.5,507.8,355.2,504.4,356.2"/>
	<path class="st2" d="M504.4,387L504.4,387c-7.7,2-14.6-4.8-12.6-12.6c0.9-3.4,3.6-6.1,7-7c7.7-2,14.6,4.8,12.6,12.6
		C510.5,383.3,507.8,386.1,504.4,387"/>
	<path class="st2" d="M436.8,309L436.8,309c-7.7,2-14.6-4.8-12.6-12.6c0.9-3.4,3.6-6.1,7-7c7.7-2,14.6,4.8,12.6,12.6
		C442.9,305.3,440.1,308.1,436.8,309"/>
	<path class="st2" d="M506.6,309.3L506.6,309.3c-7.7,2-14.6-4.8-12.6-12.6c0.9-3.4,3.6-6.1,7-7c7.7-2,14.6,4.8,12.6,12.6
		C512.7,305.7,509.9,308.4,506.6,309.3"/>
	<path class="st2" d="M481.8,309L481.8,309c-7.7,2-14.6-4.8-12.6-12.6c0.9-3.4,3.6-6.1,7-7c7.7-2,14.6,4.8,12.6,12.6
		C487.9,305.3,485.2,308.1,481.8,309"/>
	<path class="st2" d="M232,457.3L232,457.3c-7.7,2-14.6-4.8-12.6-12.6c0.9-3.4,3.6-6.1,7-7c7.7-2,14.6,4.8,12.6,12.6
		C238.2,453.6,235.4,456.4,232,457.3"/>
	<path class="st2" d="M85.9,322.5L85.9,322.5c-7.7,2-14.6-4.8-12.6-12.6c0.9-3.4,3.6-6.1,7-7c7.7-2,14.6,4.8,12.6,12.6
		C92,318.8,89.3,321.6,85.9,322.5"/>
	<path class="st2" d="M141.9,387.5L141.9,387.5c-7.7,2-14.6-4.8-12.6-12.6c0.9-3.4,3.6-6.1,7-7c7.7-2,14.6,4.8,12.6,12.6
		C148,383.9,145.2,386.6,141.9,387.5"/>
	<path class="st2" d="M310.8,150.2L310.8,150.2c-7.7,2-14.6-4.8-12.6-12.6c0.9-3.4,3.6-6.1,7-7c7.7-2,14.6,4.8,12.6,12.6
		C316.9,146.5,314.2,149.3,310.8,150.2"/>
	<path class="st2" d="M403.5,123.4L403.5,123.4c-7.7,2-14.6-4.8-12.6-12.6c0.9-3.4,3.6-6.1,7-7c7.7-2,14.6,4.8,12.6,12.6
		C409.7,119.8,406.9,122.5,403.5,123.4"/>
	<path class="st2" d="M156.9,191.3L156.9,191.3c-7.7,2-14.6-4.8-12.6-12.6c0.9-3.4,3.6-6.1,7-7c7.7-2,14.6,4.8,12.6,12.6
		C163,187.6,160.3,190.4,156.9,191.3"/>
	<path class="st2" d="M281.9,191.3L281.9,191.3c-7.7,2-14.6-4.8-12.6-12.6c0.9-3.4,3.6-6.1,7-7c7.7-2,14.6,4.8,12.6,12.6
		C288,187.6,285.3,190.4,281.9,191.3"/>
	<path class="st2" d="M313.5,191.3L313.5,191.3c-7.7,2-14.6-4.8-12.6-12.6c0.9-3.4,3.6-6.1,7-7c7.7-2,14.6,4.8,12.6,12.6
		C319.6,187.6,316.9,190.4,313.5,191.3"/>
	<path class="st2" d="M277.1,117.8L277.1,117.8c-7.7,2-14.6-4.8-12.6-12.6c0.9-3.4,3.6-6.1,7-7c7.7-2,14.6,4.8,12.6,12.6
		C283.2,114.2,280.5,116.9,277.1,117.8"/>
	<g>
		<g>
			<path class="st0" d="M466.8,327.6c-1.5-31.2-29.3-63.3-75-82.7l12.8-70.9c0.1-1.5,0.2-2.9,0.2-4.5c0-25-20.2-45.3-45.3-45.3
				c-24.3,0-44.1,19.2-45.2,43.3l0,0l-1.4,59.5c-5.8-0.3-11.7-0.6-17.7-0.6c-6.9,0-13.8,0.2-20.5,0.8v-61.9l-0.1-0.1
				c-1.9-23.5-21.4-41.9-45.3-41.9c-25,0-45.3,20.2-45.3,45.3c0,2.1,0.2,4.4,0.5,6.4l0,0l13.6,70.4l0,0
				c-44,18.8-73.2,49.4-74.6,82.1h-0.2v44.5h0.1C126,428,201.8,472.9,295,472.9s169.1-44.8,171.7-100.8h0.1V327.6L466.8,327.6
				L466.8,327.6z"/>
			<path class="st3" d="M452,337v33.2H452c-2.5,51.1-82.2,88.5-157.8,88.5c-66.7-0.1-157.9-45.1-157.9-88.5h-0.1V337
				c0-26.1,16.9-49.6,44.5-67c0.1-0.1,0.1-0.1,0.2-0.1c27-16.2,63.6-27.1,101.8-29c1-0.1,2.1-0.1,3.1-0.1c2.8-0.1,5.6-0.2,8.4-0.2
				c11.8,0,23.2,0.7,34.1,2.1c17.5,2.1,33.5,5.9,47.8,11c-0.1,0.2-0.1,0.6-0.2,0.8C421.5,271.5,452,302.1,452,337z"/>
			<path class="st4" d="M452,337c0,53.2-70.6,96.4-157.9,96.4s-158-43.2-158-96.4c0-26.1,16.9-49.6,44.5-67c0.1-0.1,0.1-0.1,0.2-0.1
				c9.4-5.9,20.1-11.1,31.8-15.4l-14.5-81.4l0.1-0.1c-0.1-0.9-0.1-1.8-0.1-2.8c0-17.5,14.2-31.7,31.7-31.7c15.9,0,29,11.7,31.3,26.9
				l0.2,77.2c6.9-0.9,14-1.5,21.3-1.8c1-0.1,2.1-0.1,3.1-0.1c2.8-0.1,5.6-0.1,8.4-0.1c11.7,0,23.1,0.8,34,2.2l0.1-0.2v-0.2l0.7-76.8
				c2.2-15.3,15.4-27,31.3-27c17.5,0,31.7,14.1,31.7,31.7c0,0.6-10,52.6-15.9,83.4c-0.1,0.2-0.1,0.6-0.2,0.8
				C421.5,271.5,452,302.1,452,337z"/>
			<g>
				<path class="st0" d="M233.2,303.8c-9.4,0-17.2,12.1-17.2,27c0,15,7.7,27,17.2,27c9.4,0,17.2-12.1,17.2-27
					C250.3,315.8,242.7,303.8,233.2,303.8z"/>
				<path class="st0" d="M353.8,303.8c-9.4,0-17.2,12.1-17.2,27c0,15,7.7,27,17.2,27c9.4,0,17.2-12.1,17.2-27
					C371.1,315.8,363.3,303.8,353.8,303.8z"/>
			</g>
		</g>
	</g>
</g>
</svg>
