<?xml version="1.0" encoding="utf-8"?>
<!-- Generator: Adobe Illustrator 25.2.1, SVG Export Plug-In . SVG Version: 6.00 Build 0)  -->
<svg version="1.1" id="Capa_1" xmlns="http://www.w3.org/2000/svg" xmlns:xlink="http://www.w3.org/1999/xlink" x="0px" y="0px"
	 viewBox="0 0 600 600" style="enable-background:new 0 0 600 600;" xml:space="preserve">
<style type="text/css">
	.st0{fill:#00AAAA;}
</style>
<g>
	<path d="M574.4,68.4V57.7h-12.8H551h-10.7h-10.7H519h-12.8v10.7h-8.7h-12.8v10.7h-8.7h-12.8v10.7h-8.7H444h-10.7h-12.8v10.7H412
		h-12.8v10.7h-8.7h-10.7h-12.8v10.7h-8.7h-12.8v10.7h-8.6h-12.8v10.7h-8.7h-10.7h-12.8v10.7h-8.7h-10.1h-12.8v10.7h-8.7h-12.8v10.7
		h-8.6h-12.8v10.7h-8.7h-10.7h-10.7H175v10.7h-8.7h-12.8v10.7H145h-12.8v10.7h-8.7h-10.7h-12.8v10.7h-8.7H81.1H68.3v10.7h-8.6H47
		v10.7h-8.7H25.7v10.7H15v12.8v10.7v10.7v12.8h12.8h8.7V318h12.8h10.7h8.6v10.7h12.7h10.7h10.7h8.7v10.7h12.8h8.7V350h12.8H156h10.7
		h10.7H190v-10.7h8.7h12.8v-10.7h8.7h12.8V318h10.7v-10.7h8.6h12.8v-10.7h8.7h12.8V286h10.7v-10.7h10.7v-10.7h8.7h8.7v8.7v8.7h-8.7
		h-13v10.7h-10.7v10.7h-10.7V314h-10.7v10.7h-10.7v10.7H252h-12.8V346h-10.7v12.8v10.7v10.7v10.7v10.7v10.7v8.7h-10.7v12.8v10.7
		v10.7v10.7v10.7v10.7v10.7v12.8h12.8h10.7H252h12.8v-10.7h10.7V489h8.7h12.6v-10.7h10.7v-10.7h10.7v-10.8h10.7h6.6v10.7H346v10.7
		h10.7v10.7h12.8h8.7v10.7h10.7v10.7h10.7v10.7h12.8h8.6v10.7h10.7v10.7h12.8h10.7h10.7h10.7H489v-10.7h10.7v-12.8v-10.7v-8.6h10.7
		v-12.7v-10.7v-10.7v-8.7H521v-12.8v-10.6v-10.7v-8.6h10.7v-12.8v-10.7v-10.7v-10.7v-10.7v-8.7h10.7v-12.8v-10.7v-10.7v-10.7v-8.7
		H553V284v-10.7v-10.7V254h10.7v-12.7v-10.7V220v-10.7v-8.7h10.7V188v-10.7v-10.7V156v-8.7H585v-12.8v-10.7v-10.7v-10.7V91.8V81.2
		V68.4H574.4z M360.8,239.2v-6.6h6.6v6.6H360.8z"/>
	<polygon class="st0" points="561.7,81.2 561.7,70.5 551,70.5 540.3,70.5 529.7,70.5 519,70.5 519,81.2 508.3,81.2 497.6,81.2 
		497.6,91.8 487,91.8 476.3,91.8 476.3,102.5 465.5,102.5 454.9,102.5 444.2,102.5 433.5,102.5 433.5,113.2 422.9,113.2 
		412.2,113.2 412.2,123.9 401.5,123.9 390.9,123.9 380.2,123.9 380.2,134.5 369.5,134.5 358.7,134.5 358.7,145.2 348.1,145.2 
		337.4,145.2 337.4,155.9 326.7,155.9 316.1,155.9 305.4,155.9 305.4,166.5 294.7,166.5 284.1,166.5 273.4,166.5 273.4,177.2 
		262.7,177.2 252,177.2 252,188 241.4,188 230.6,188 230.6,198.6 219.9,198.6 209.3,198.6 198.6,198.6 187.9,198.6 187.9,209.3 
		177.3,209.3 166.6,209.3 166.6,220 155.9,220 145.2,220 145.2,230.7 134.6,230.7 123.8,230.7 113.1,230.7 113.1,241.3 102.5,241.3 
		91.8,241.3 81.1,241.3 81.1,252 70.5,252 59.8,252 59.8,262.7 49.1,262.7 38.4,262.7 38.4,273.3 27.8,273.3 27.8,284 27.8,294.8 
		38.4,294.8 49.1,294.8 49.1,305.4 59.8,305.4 70.5,305.4 81.1,305.4 81.1,316.1 91.8,316.1 102.5,316.1 113.1,316.1 123.8,316.1 
		123.8,326.8 134.6,326.8 145.2,326.8 145.2,337.5 155.9,337.5 166.6,337.5 177.3,337.5 177.3,326.8 187.9,326.8 198.6,326.8 
		198.6,316.1 209.3,316.1 219.9,316.1 219.9,305.4 230.6,305.4 230.6,294.8 241.4,294.8 252,294.8 252,284 262.7,284 273.4,284 
		273.4,273.3 284.1,273.3 284.1,262.7 294.7,262.7 294.7,252 305.4,252 316.1,252 326.7,252 326.7,241.3 337.4,241.3 337.4,230.7 
		348.1,230.7 348.1,220 358.7,220 369.5,220 369.5,209.3 380.2,209.3 390.9,209.3 390.9,198.6 401.5,198.6 401.5,188 412.2,188 
		422.9,188 422.9,177.2 433.5,177.2 444.2,177.2 444.2,166.5 454.9,166.5 454.9,155.9 465.5,155.9 476.3,155.9 476.3,166.5 
		465.5,166.5 465.5,177.2 454.9,177.2 454.9,188 444.2,188 433.5,188 433.5,198.6 422.9,198.6 422.9,209.3 412.2,209.3 412.2,220 
		401.5,220 401.5,230.7 390.9,230.7 390.9,241.3 380.2,241.3 380.2,252 369.5,252 358.7,252 358.7,262.7 348.1,262.7 348.1,273.3 
		337.4,273.3 337.4,284 337.4,294.8 326.7,294.8 316.1,294.8 316.1,305.4 305.4,305.4 305.4,316.1 294.7,316.1 294.7,326.8 
		284.1,326.8 284.1,337.5 273.4,337.5 273.4,348.1 262.7,348.1 252,348.1 252,358.8 241.4,358.8 241.4,369.5 241.4,380.1 
		241.4,390.8 241.4,401.5 241.4,412.1 241.4,422.9 241.4,433.6 230.6,433.6 230.6,444.3 230.6,454.9 230.6,465.6 230.6,476.3 
		230.6,486.9 230.6,497.6 241.4,497.6 252,497.6 252,486.9 262.7,486.9 262.7,476.3 273.4,476.3 284.1,476.3 284.1,465.6 
		294.7,465.6 294.7,454.9 305.4,454.9 305.4,444.3 316.1,444.3 316.1,433.6 326.7,433.6 326.7,444.3 337.4,444.3 348.1,444.3 
		348.1,454.9 358.7,454.9 358.7,465.6 369.5,465.6 369.5,476.3 380.2,476.3 390.9,476.3 390.9,486.9 401.5,486.9 401.5,497.6 
		412.2,497.6 412.2,508.3 422.9,508.3 433.5,508.3 433.5,518.9 444.2,518.9 444.2,529.7 454.9,529.7 465.5,529.7 476.3,529.7 
		476.3,518.9 487,518.9 487,508.3 487,497.6 487,486.9 497.6,486.9 497.6,476.3 497.6,465.6 497.6,454.9 497.6,444.3 508.3,444.3 
		508.3,433.6 508.3,422.9 508.3,412.1 508.3,401.5 519,401.5 519,390.8 519,380.1 519,369.5 519,358.8 519,348.1 519,337.5 
		529.7,337.5 529.7,326.8 529.7,316.1 529.7,305.4 529.7,294.8 529.7,284 540.3,284 540.3,273.3 540.3,262.7 540.3,252 540.3,241.3 
		551,241.3 551,230.7 551,220 551,209.3 551,198.6 551,188 561.7,188 561.7,177.2 561.7,166.5 561.7,155.9 561.7,145.2 561.7,134.5 
		572.3,134.5 572.3,123.9 572.3,113.2 572.3,102.5 572.3,91.8 572.3,81.2 	"/>
</g>
</svg>
