<?xml version="1.0" encoding="utf-8"?>
<!-- Generator: Adobe Illustrator 25.2.1, SVG Export Plug-In . SVG Version: 6.00 Build 0)  -->
<svg version="1.1" id="Capa_1" xmlns="http://www.w3.org/2000/svg" xmlns:xlink="http://www.w3.org/1999/xlink" x="0px" y="0px"
	 viewBox="0 0 600 600" style="enable-background:new 0 0 600 600;" xml:space="preserve">
<style type="text/css">
	.st0{fill:#00AAAA;}
</style>
<g>
	<polygon points="547.7,153.8 542.3,153.8 542.3,145.2 542.3,137.8 542.3,132.4 537,132.4 531.7,132.4 531.7,127.1 531.7,125.9 
		531.7,120.7 531.7,113.2 531.7,102.6 531.7,91.8 531.7,81.1 531.7,70.4 531.7,59.8 531.7,52.3 531.7,47 526.3,47 520.9,47 
		520.9,38.4 520.9,27.8 520.9,20.3 520.9,15 515.7,15 508.2,15 497.6,15 486.9,15 476.2,15 468.8,15 463.4,15 463.4,20.3 
		463.4,25.7 454.8,25.7 444.1,25.7 436.7,25.7 431.4,25.7 431.4,31 431.4,36.3 426,36.3 420.8,36.3 420.8,41.7 420.8,47 412.1,47 
		408.9,47 401.4,47 390.8,47 380.1,47 369.4,47 358.8,47 348,47 337.3,47 326.7,47 316,47 305.3,47 294.7,47 284,47 273.3,47 
		262.7,47 252,47 241.2,47 238,47 232.7,47 232.7,41.7 232.7,36.3 227.3,36.3 219.9,36.3 211.3,36.3 211.3,31 211.3,25.7 206,25.7 
		198.6,25.7 187.9,25.7 179.2,25.7 179.2,20.3 179.2,15 174,15 166.6,15 155.9,15 145.2,15 134.6,15 127.1,15 121.8,15 121.8,20.3 
		121.8,27.8 121.8,38.4 121.8,47 116.4,47 111.1,47 111.1,52.3 111.1,59.8 111.1,70.4 111.1,81.1 111.1,91.8 111.1,102.6 
		111.1,113.2 111.1,120.7 111.1,123.9 111.1,132.4 105.8,132.4 100.4,132.4 100.4,137.8 100.4,145.2 100.4,153.8 95,153.8 
		89.8,153.8 89.8,159.1 89.8,166.6 89.8,177.2 89.8,187.9 89.8,198.6 89.8,209.2 89.8,220 89.8,230.7 89.8,241.3 89.8,252 
		89.8,262.7 89.8,273.3 89.8,284 89.8,291.4 89.8,296.8 95,296.8 100.4,296.8 100.4,305.3 100.4,312.8 100.4,318.1 105.8,318.1 
		111.1,318.1 111.1,326.7 111.1,334.1 111.1,339.4 116.4,339.4 121.8,339.4 121.8,344.8 121.8,350.1 127.1,350.1 132.4,350.1 
		132.4,355.6 132.4,360.8 137.8,360.8 143.1,360.8 143.1,366.2 143.1,371.4 148.4,371.4 153.8,371.4 153.8,376.9 153.8,382.2 
		159.1,382.2 166.6,382.2 177.2,382.2 185.9,382.2 185.9,387.6 185.9,392.9 191.1,392.9 198.6,392.9 207.2,392.9 207.2,398.2 
		207.2,403.6 212.4,403.6 219.9,403.6 228.6,403.6 228.6,412.1 228.6,420.8 223.2,420.8 217.9,420.8 217.9,426.1 217.9,431.4 
		209.2,431.4 198.6,431.4 187.9,431.4 177.2,431.4 168.6,431.4 168.6,426.1 168.6,420.8 163.3,420.8 157.9,420.8 157.9,415.3 
		157.9,410.1 152.7,410.1 147.2,410.1 147.2,401.4 147.2,394 147.2,388.8 141.9,388.8 136.6,388.8 136.6,383.3 136.6,378 131.2,378 
		125.9,378 125.9,372.7 125.9,367.3 120.6,367.3 113.1,367.3 104.6,367.3 104.6,362 104.6,356.7 99.2,356.7 91.8,356.7 81.1,356.7 
		70.4,356.7 59.8,356.7 52.3,356.7 47,356.7 47,362 47,369.4 47,380.1 47,390.8 47,398.2 47,403.6 52.3,403.6 59.8,403.6 
		68.3,403.6 68.3,408.9 68.3,414.2 73.7,414.2 79.1,414.2 79.1,419.6 79.1,424.9 84.3,424.9 89.8,424.9 89.8,430.2 89.8,435.6 
		95,435.6 100.4,435.6 100.4,444.1 100.4,451.6 100.4,456.9 105.8,456.9 111.1,456.9 111.1,465.6 111.1,473 111.1,478.2 
		116.4,478.2 121.8,478.2 121.8,483.7 121.8,488.9 127.1,488.9 132.4,488.9 132.4,494.3 132.4,499.7 137.8,499.7 145.2,499.7 
		155.9,499.7 164.4,499.7 164.4,505 164.4,510.3 169.8,510.3 177.2,510.3 187.9,510.3 198.6,510.3 209.2,510.3 217.9,510.3 
		217.9,518.9 217.9,529.6 217.9,540.2 217.9,548.9 212.4,548.9 207.2,548.9 207.2,554.2 207.2,561.7 207.2,572.3 207.2,579.8 
		207.2,585 212.4,585 219.9,585 230.6,585 241.2,585 252,585 262.7,585 273.3,585 284,585 294.7,585 305.3,585 316,585 326.7,585 
		337.3,585 348,585 358.8,585 369.4,585 380.1,585 390.8,585 401.4,585 412.1,585 422.8,585 430.2,585 435.6,585 435.6,579.8 
		435.6,572.3 435.6,561.7 435.6,554.2 435.6,548.9 430.2,548.9 424.9,548.9 424.9,540.2 424.9,529.6 424.9,518.9 424.9,508.2 
		424.9,497.6 424.9,486.9 424.9,476.2 424.9,465.6 424.9,454.9 424.9,444.1 424.9,433.4 424.9,426.1 424.9,420.8 419.6,420.8 
		414.2,420.8 414.2,412.1 414.2,404.7 414.2,403.6 419.6,403.6 424.9,403.6 424.9,398.2 424.9,392.9 433.4,392.9 444.1,392.9 
		454.8,392.9 462.2,392.9 467.6,392.9 467.6,387.6 467.6,382.2 476.2,382.2 483.6,382.2 488.9,382.2 488.9,376.9 488.9,371.4 
		494.3,371.4 499.6,371.4 499.6,366.2 499.6,360.8 508.2,360.8 515.7,360.8 520.9,360.8 520.9,355.6 520.9,348.1 520.9,339.4 
		526.3,339.4 531.7,339.4 531.7,334.1 531.7,326.7 531.7,318.1 537,318.1 542.3,318.1 542.3,312.8 542.3,305.3 542.3,296.8 
		547.7,296.8 553,296.8 553,291.4 553,284 553,273.3 553,262.7 553,252 553,241.3 553,230.7 553,220 553,209.2 553,198.6 553,187.9 
		553,177.2 553,166.6 553,159.1 553,153.8 	"/>
	<polygon class="st0" points="529.6,166.6 529.6,155.9 529.6,145.2 518.9,145.2 518.9,134.6 508.2,134.6 508.2,123.9 508.2,113.2 
		518.9,113.2 518.9,102.6 518.9,91.8 518.9,81.1 518.9,70.4 518.9,59.8 508.2,59.8 508.2,49.1 508.2,38.4 508.2,27.8 497.6,27.8 
		486.9,27.8 476.2,27.8 476.2,38.4 465.4,38.4 454.8,38.4 444.1,38.4 444.1,49.1 433.4,49.1 433.4,59.8 422.8,59.8 412.1,59.8 
		412.1,70.4 401.4,70.4 401.4,59.8 390.8,59.8 380.1,59.8 369.4,59.8 358.8,59.8 348,59.8 337.3,59.8 326.7,59.8 316,59.8 
		305.3,59.8 294.7,59.8 284,59.8 273.3,59.8 262.7,59.8 252,59.8 241.2,59.8 241.2,70.4 230.6,70.4 230.6,59.8 219.9,59.8 
		219.9,49.1 209.2,49.1 198.6,49.1 198.6,38.4 187.9,38.4 177.2,38.4 166.6,38.4 166.6,27.8 155.9,27.8 145.2,27.8 134.6,27.8 
		134.6,38.4 134.6,49.1 134.6,59.8 123.9,59.8 123.9,70.4 123.9,81.1 123.9,91.8 123.9,102.6 123.9,113.2 134.6,113.2 134.6,123.9 
		123.9,123.9 123.9,134.6 123.9,145.2 113.1,145.2 113.1,155.9 113.1,166.6 102.4,166.6 102.4,177.2 102.4,187.9 102.4,198.6 
		102.4,209.2 102.4,220 102.4,230.7 102.4,241.3 102.4,252 102.4,262.7 102.4,273.3 102.4,284 113.1,284 113.1,294.7 113.1,305.3 
		123.9,305.3 123.9,316 123.9,326.7 134.6,326.7 134.6,337.4 145.2,337.4 145.2,348.1 155.9,348.1 155.9,358.8 166.6,358.8 
		166.6,369.4 177.2,369.4 187.9,369.4 198.6,369.4 198.6,380.1 209.2,380.1 219.9,380.1 219.9,390.8 230.6,390.8 241.2,390.8 
		252,390.8 252,401.4 241.2,401.4 241.2,412.1 241.2,422.8 241.2,433.4 230.6,433.4 230.6,444.1 219.9,444.1 209.2,444.1 
		198.6,444.1 187.9,444.1 177.2,444.1 166.6,444.1 155.9,444.1 155.9,433.4 145.2,433.4 145.2,422.8 134.6,422.8 134.6,412.1 
		134.6,401.4 123.9,401.4 123.9,390.8 113.1,390.8 113.1,380.1 102.4,380.1 91.8,380.1 91.8,369.4 81.1,369.4 70.4,369.4 
		59.8,369.4 59.8,380.1 59.8,390.8 70.4,390.8 81.1,390.8 81.1,401.4 91.8,401.4 91.8,412.1 102.4,412.1 102.4,422.8 113.1,422.8 
		113.1,433.4 113.1,444.1 123.9,444.1 123.9,454.9 123.9,465.6 134.6,465.6 134.6,476.2 145.2,476.2 145.2,486.9 155.9,486.9 
		166.6,486.9 177.2,486.9 177.2,497.6 187.9,497.6 198.6,497.6 209.2,497.6 219.9,497.6 230.6,497.6 230.6,508.2 230.6,518.9 
		230.6,529.6 230.6,540.2 230.6,550.9 230.6,561.7 219.9,561.7 219.9,572.3 230.6,572.3 241.2,572.3 252,572.3 262.7,572.3 
		273.3,572.3 284,572.3 294.7,572.3 305.3,572.3 316,572.3 326.7,572.3 337.3,572.3 348,572.3 358.8,572.3 369.4,572.3 380.1,572.3 
		390.8,572.3 401.4,572.3 412.1,572.3 422.8,572.3 422.8,561.7 412.1,561.7 412.1,550.9 412.1,540.2 412.1,529.6 412.1,518.9 
		412.1,508.2 412.1,497.6 412.1,486.9 412.1,476.2 412.1,465.6 412.1,454.9 412.1,444.1 412.1,433.4 401.4,433.4 401.4,422.8 
		401.4,412.1 390.8,412.1 390.8,401.4 390.8,390.8 401.4,390.8 412.1,390.8 412.1,380.1 422.8,380.1 433.4,380.1 444.1,380.1 
		454.8,380.1 454.8,369.4 465.4,369.4 476.2,369.4 476.2,358.8 486.9,358.8 486.9,348.1 497.6,348.1 508.2,348.1 508.2,337.4 
		508.2,326.7 518.9,326.7 518.9,316 518.9,305.3 529.6,305.3 529.6,294.7 529.6,284 540.2,284 540.2,273.3 540.2,262.7 540.2,252 
		540.2,241.3 540.2,230.7 540.2,220 540.2,209.2 540.2,198.6 540.2,187.9 540.2,177.2 540.2,166.6 	"/>
</g>
</svg>
