<?xml version="1.0" encoding="utf-8"?>
<!-- Generator: Adobe Illustrator 25.2.1, SVG Export Plug-In . SVG Version: 6.00 Build 0)  -->
<svg version="1.1" id="Capa_1" xmlns="http://www.w3.org/2000/svg" xmlns:xlink="http://www.w3.org/1999/xlink" x="0px" y="0px"
	 viewBox="0 0 600 600" style="enable-background:new 0 0 600 600;" xml:space="preserve">
<style type="text/css">
	.st0{fill:#633112;}
	.st1{fill:#FDDB90;}
	.st2{fill:#D1884F;}
	.st3{fill:#623312;}
	.st4{fill:#232323;}
	.st5{fill:#FFFFFF;}
</style>
<g>
	<g>
		<path class="st0" d="M556.5,310.1c-2.2-46.6-43.8-94.5-112-123.4l19-105.9c0.2-2.2,0.4-4.4,0.4-6.7c0-37.3-30.2-67.6-67.6-67.6
			c-36.3,0-65.9,28.7-67.5,64.6l0,0l-2.1,88.9c-8.6-0.5-17.5-0.8-26.5-0.8c-10.3,0-20.6,0.4-30.7,1.2V67.9l-0.2-0.1
			c-2.7-35-31.8-62.6-67.5-62.6c-37.3,0-67.6,30.2-67.6,67.6c0,3.2,0.3,6.5,0.7,9.6l0,0l20.2,105.1l0,0
			C89.5,215.5,45.8,261.2,43.8,310.1h-0.3v66.5h0.1c4,83.5,117.2,150.5,256.4,150.5s252.4-66.9,256.4-150.5h0.1V310.1L556.5,310.1
			L556.5,310.1z"/>
		<path class="st1" d="M534.4,324.1v49.6h-0.1c-3.7,76.3-122.7,132.2-235.7,132.2c-99.5,0-235.7-67.3-235.7-132.2h-0.1v-49.6
			c0-38.9,25.3-74.1,66.4-100c0.1-0.1,0.2-0.1,0.3-0.2c40.4-24.3,95-40.5,152-43.3c1.5-0.1,3.1-0.2,4.7-0.2
			c4.1-0.2,8.4-0.3,12.5-0.3c17.7,0,34.7,1.1,50.9,3.1c26.1,3.2,50,8.9,71.4,16.5c-0.1,0.4-0.2,0.8-0.3,1.2
			C488.8,226.3,534.4,272,534.4,324.1z"/>
		<path class="st2" d="M534.4,324.1c0,79.4-105.5,143.9-235.8,143.9S62.8,403.6,62.8,324.1c0-38.9,25.3-74.1,66.4-100
			c0.1-0.1,0.2-0.1,0.3-0.2c14-8.8,30-16.6,47.4-23L155.2,79.4l0.2-0.1c-0.1-1.3-0.2-2.7-0.2-4.1c0-26.2,21.2-47.3,47.3-47.3
			c23.7,0,43.3,17.4,46.8,40.1l0.4,115.3c10.3-1.3,21-2.2,31.8-2.7c1.5-0.1,3.1-0.2,4.7-0.2c4.1-0.2,8.4-0.2,12.5-0.2
			c17.5,0,34.5,1.2,50.8,3.3l0.1-0.3v-0.3l1-114.7c3.3-22.9,23-40.4,46.8-40.4c26.1,0,47.3,21.1,47.3,47.3
			c0,0.8-14.9,78.6-23.7,124.5c-0.1,0.4-0.2,0.8-0.3,1.2C488.8,226.3,534.4,272,534.4,324.1z"/>
		<g>
			<path class="st3" d="M207.6,274.5c-14.1,0-25.6,18.1-25.6,40.3c0,22.3,11.5,40.3,25.6,40.3s25.6-18.1,25.6-40.3
				C233.2,292.5,221.8,274.5,207.6,274.5z"/>
			<path class="st3" d="M387.7,274.5c-14.1,0-25.6,18.1-25.6,40.3c0,22.3,11.5,40.3,25.6,40.3s25.6-18.1,25.6-40.3
				C413.5,292.5,401.9,274.5,387.7,274.5z"/>
		</g>
	</g>
	<g>
		<g>
			<path class="st4" d="M83.1,532.5h-7.8H65.1h-1.3c-2.1,0-3.8,1.7-3.8,3.8v42.4c0,1.7,1.3,3,3,3h8.7c2,0,3.6-1.6,3.6-3.6v-11.2H82
				c14.1,0,19.7-7.3,19.7-16.3v-3.1C101.6,539.3,96.2,532.5,83.1,532.5z M86.8,551.4c0,2.5-2,4.4-4.4,4.4H75v-12.5h7
				c2.7,0,4.8,2.1,4.8,4.8V551.4z"/>
			<path class="st4" d="M103.6,566.2c0,14.3,8,16.6,15.3,16.6c5.5,0,8.8-1.2,11.7-3.6c0.3,1.4,1.5,2.5,3,2.5h7.6
				c1.5,0,2.7-1.2,2.7-2.7v-28.6c0,0-6.1-4.4-17.4-4.4C115.1,546.2,103.6,551.9,103.6,566.2z M129.9,556.6v13.5c0,0-2,2.8-5.7,2.8
				s-6.1-2.2-6.1-6.9c0-4.6,3-10.3,8.5-10.3C127.9,555.9,129,556.1,129.9,556.6z"/>
			<path class="st4" d="M232.4,566.2c0,14.3,8,16.6,15.3,16.6c5.5,0,8.8-1.2,11.7-3.6c0.3,1.4,1.5,2.5,3,2.5h7.6
				c1.5,0,2.7-1.2,2.7-2.7v-28.6c0,0-6.1-4.4-17.4-4.4C244,546.2,232.4,551.9,232.4,566.2z M258.8,556.6v13.5c0,0-2,2.8-5.7,2.8
				c-3.7,0-6.1-2.2-6.1-6.9c0-4.6,3-10.3,8.5-10.3C256.8,555.9,257.9,556.1,258.8,556.6z"/>
			<path class="st4" d="M463.5,566.2c0,14.3,8,16.6,15.3,16.6c5.5,0,8.8-1.2,11.7-3.6c0.3,1.4,1.5,2.5,3,2.5h7.6
				c1.5,0,2.7-1.2,2.7-2.7v-28.6c0,0-6.1-4.4-17.4-4.4C475.1,546.2,463.5,551.9,463.5,566.2z M489.9,556.6v13.5c0,0-2,2.8-5.7,2.8
				c-3.7,0-6.1-2.2-6.1-6.9c0-4.6,3-10.3,8.5-10.3C487.9,555.9,489,556.1,489.9,556.6z"/>
			<path class="st4" d="M175.3,546.2c-11.3,0-13.6,4.9-13.6,4.9v-1.8l0,0v-2.2h-2.2h-7.1h-2.8v2.8l0,0v5.2v4.8v18.5
				c0,1.9,1.5,3.5,3.5,3.5h8.3c1.8,0,3.2-1.4,3.2-3.2v-19.4c1.3-2.4,2.7-3.3,5.2-3.3c2.8,0,3.2,2,3.2,2v20.5c0,1.9,1.5,3.5,3.5,3.5
				h8.3c1.8,0,3.2-1.4,3.2-3.2v-23.5C187.8,555.1,186.6,546.2,175.3,546.2z"/>
			<path class="st4" d="M227.7,574c-0.5-0.8-1.2-1.8-1.5-2.3c-0.8-1.1-1.4-1.6-3.4-0.9c-1.6,0.6-3.9,1.4-4.7,1.6
				c-0.2,0.1-0.3,0.1-0.3,0.1c-0.8,0.3-1.6,0.4-2.4,0.4c-4.7,0-8.6-1.8-8.6-8.6c0-4.7,3.8-8.6,8.6-8.6c0.9,0,1.7,0.1,2.4,0.4l0,0
				c0.6,0.2,1.4,0.5,2.2,1.1l0,0c0.1,0,1.7,0.5,2.8,1.2c1.2,0.6,2.1,0.8,2.8-0.5l0,0c0.1-0.4,0.2-0.5,0.2-0.5l1.5-2.6l1.2-2
				c0,0,0.9-1.7-1.6-3.2c-2.5-1.6-7.8-3.1-15.7-3c-10.6,0-19.1,8.2-19.1,18.3c0,12.9,8.5,18.3,19.1,18.3c8.1,0.9,15.8-2.6,17.4-3.9
				c1.6-1.3,0-3.4,0-3.4S228.2,574.8,227.7,574z"/>
			<path class="st4" d="M305.4,564.5l12.5-14.2c1.2-1.3,0.2-3.5-1.6-3.5h-10.5c-1.2,0-2.2,0.5-2.8,1.4l-9.4,12.2v-24.8
				c0-1.8-1.4-3.2-3.2-3.2h-8.5c-1.8,0-3.2,1.4-3.2,3.2v43.1c0,1.8,1.4,3.2,3.2,3.2h8.5c1.8,0,3.2-1.4,3.2-3.2v-10.4l9.3,12.1
				c0.7,0.9,1.9,1.5,3,1.5H317c1.5,0,2.3-1.8,1.3-2.9L305.4,564.5z"/>
			<path class="st4" d="M340.7,546.2c-20.4,0-20.1,15.8-20.1,19.2c0,3.4,1.5,17.5,20.5,17.5c0,0,9.4,0.4,15.6-3c1.1-0.6,1.4-2,0.8-3
				l-2.4-4.4c-0.4-0.7-1.2-1-2-0.7c-2,0.8-5.7,2.2-9,2.2c-4.6,0-10-1.8-9.7-6.5h23c1.5,0,2.8-1.2,2.8-2.8v-2.1
				C360.2,562.5,361.1,546.2,340.7,546.2z M347,560.3h-12.5c0,0-0.8-5.7,6.3-5.7C347.8,554.6,347,560.3,347,560.3z"/>
			<path class="st4" d="M387.3,552.1c-4-1.7-7.4-3.1-7.4-5.3c0-2.2,1.3-4.6,6.5-4.6s8.3,1.7,10.1,2.6s2.6-0.3,2.6-0.3
				s2.5-3.6,3.6-5.7c1.2-2-0.9-2.8-0.9-2.8c-4-3-10.2-4.3-17.8-4.3s-18.3,3.1-18.3,14.5c0,11.4,11.6,14.2,16.6,16.1s7.1,5.1,7.1,6
				s0.6,4.4-6.8,4.4c-5.3,0-10.1-2.2-12.5-3.5c-0.9-0.4-2-0.2-2.6,0.6l-3.8,5.4c-0.6,0.9-0.4,2.1,0.5,2.8c4.5,3,9.5,4.9,19.1,4.9
				c10.8,0,13.3-2,16.7-5c3.5-3,5.4-9.4,2.8-15C400.4,557.3,391.4,553.8,387.3,552.1z"/>
			<path class="st4" d="M458.5,546.8h-9.6c-0.9,0-1.7,0.6-1.9,1.4l-4.1,16.3l-5.1-13.3c-0.2-0.6-0.8-1-1.4-1h-5.3
				c-0.7,0-1.3,0.4-1.6,1.1l-5.2,13l-3.8-15.5c-0.3-1.2-1.3-2-2.6-2h-9.3c-1.1,0-1.9,1.1-1.5,2.1l9.9,31.1c0.4,1.1,1.3,1.8,2.5,1.8
				h7.4c0.8,0,1.5-0.5,1.8-1.2l4.8-13.3l5.3,13.3c0.3,0.7,1,1.2,1.8,1.2h6.9c1.6,0,2.9-1.1,3.5-2.6l9.1-30.7
				C460.1,547.7,459.4,546.8,458.5,546.8z"/>
			<path class="st4" d="M528.8,545.7c-11.8,0-19,5.9-19,5.9v42.1c0,1.3,1.1,2.4,2.4,2.4h9c1.4,0,2.6-1.2,2.6-2.6V581
				c2.5,1.2,5.4,1.9,9.3,1.9c7.4,0,17.1-3.7,17.1-18.1S540.5,545.7,528.8,545.7z M528.9,573c-3.2-0.1-5.2-3-5.2-3v-13.4
				c1.2-0.4,2.6-0.8,4-0.8c5.1,0,7.7,3.2,7.7,8.5C535.3,569.7,532.1,573.1,528.9,573z"/>
		</g>
	</g>
	<g>
		<g>
			<path class="st5" d="M76.8,526.1H69H58.8h-1.3c-2.1,0-3.8,1.7-3.8,3.8v42.4c0,1.7,1.3,3,3,3h8.7c2,0,3.6-1.6,3.6-3.6v-11.2h6.7
				c14.1,0,19.7-7.3,19.7-16.3v-3.1C95.3,532.9,89.9,526.1,76.8,526.1z M80.5,545c0,2.5-2,4.4-4.4,4.4h-7.4v-12.5h7
				c2.7,0,4.8,2.1,4.8,4.8V545z"/>
			<path class="st5" d="M97.2,559.8c0,14.3,8,16.6,15.3,16.6c5.5,0,8.8-1.2,11.7-3.6c0.3,1.4,1.5,2.5,3,2.5h7.6
				c1.5,0,2.7-1.2,2.7-2.7v-28.6c0,0-6.1-4.4-17.4-4.4C108.8,539.8,97.2,545.5,97.2,559.8z M123.6,550.2v13.5c0,0-2,2.8-5.7,2.8
				c-3.7,0-6.1-2.2-6.1-6.9c0-4.6,3-10.3,8.5-10.3C121.5,549.5,122.7,549.7,123.6,550.2z"/>
			<path class="st5" d="M226.1,559.8c0,14.3,8,16.6,15.3,16.6c5.5,0,8.8-1.2,11.7-3.6c0.3,1.4,1.5,2.5,3,2.5h7.6
				c1.5,0,2.7-1.2,2.7-2.7v-28.6c0,0-6.1-4.4-17.4-4.4C237.7,539.8,226.1,545.5,226.1,559.8z M252.4,550.2v13.5c0,0-2,2.8-5.7,2.8
				s-6.1-2.2-6.1-6.9c0-4.6,3-10.3,8.5-10.3C250.5,549.5,251.6,549.7,252.4,550.2z"/>
			<path class="st5" d="M457.2,559.8c0,14.3,8,16.6,15.3,16.6c5.5,0,8.8-1.2,11.7-3.6c0.3,1.4,1.5,2.5,3,2.5h7.6
				c1.5,0,2.7-1.2,2.7-2.7v-28.6c0,0-6.1-4.4-17.4-4.4C468.8,539.8,457.2,545.5,457.2,559.8z M483.5,550.2v13.5c0,0-2,2.8-5.7,2.8
				c-3.7,0-6.1-2.2-6.1-6.9c0-4.6,3-10.3,8.5-10.3C481.6,549.5,482.7,549.7,483.5,550.2z"/>
			<path class="st5" d="M169,539.8c-11.3,0-13.6,4.9-13.6,4.9v-1.8l0,0v-2.2h-2.2H146h-2.8v2.8l0,0v5.2v4.8V572
				c0,1.9,1.5,3.5,3.5,3.5h8.3c1.8,0,3.2-1.4,3.2-3.2v-19.4c1.3-2.4,2.7-3.3,5.2-3.3c2.8,0,3.2,2,3.2,2V572c0,1.9,1.5,3.5,3.5,3.5
				h8.3c1.8,0,3.2-1.4,3.2-3.2v-23.5C181.4,548.7,180.3,539.8,169,539.8z"/>
			<path class="st5" d="M221.4,567.6c-0.5-0.8-1.2-1.8-1.5-2.3c-0.8-1.1-1.4-1.6-3.4-0.9c-1.6,0.6-3.9,1.4-4.7,1.6
				c-0.2,0.1-0.3,0.1-0.3,0.1c-0.8,0.3-1.6,0.4-2.4,0.4c-4.7,0-8.6-1.8-8.6-8.6c0-4.7,3.8-8.6,8.6-8.6c0.9,0,1.7,0.1,2.4,0.4l0,0
				c0.6,0.2,1.4,0.5,2.2,1.1l0,0c0.1,0,1.7,0.5,2.8,1.2c1.2,0.6,2.1,0.8,2.8-0.5l0,0c0.1-0.4,0.2-0.5,0.2-0.5l1.5-2.6l1.2-2
				c0,0,0.9-1.7-1.6-3.2c-2.5-1.6-7.8-3.1-15.7-3c-10.6,0-19.1,8.2-19.1,18.3c0,12.9,8.5,18.3,19.1,18.3c8.1,0.9,15.8-2.6,17.4-3.9
				c1.6-1.3,0-3.4,0-3.4S221.9,568.4,221.4,567.6z"/>
			<path class="st5" d="M299.1,558.1l12.5-14.2c1.2-1.3,0.2-3.5-1.6-3.5h-10.5c-1.2,0-2.2,0.5-2.8,1.4l-9.4,12.2v-24.8
				c0-1.8-1.4-3.2-3.2-3.2h-8.5c-1.8,0-3.2,1.4-3.2,3.2v43.1c0,1.8,1.4,3.2,3.2,3.2h8.5c1.8,0,3.2-1.4,3.2-3.2v-10.4l9.3,12.1
				c0.7,0.9,1.9,1.5,3,1.5h11.1c1.5,0,2.3-1.8,1.3-2.9L299.1,558.1z"/>
			<path class="st5" d="M334.4,539.8c-20.4,0-20.1,15.8-20.1,19.2c0,3.4,1.5,17.5,20.5,17.5c0,0,9.4,0.4,15.6-3c1.1-0.6,1.4-2,0.8-3
				l-2.4-4.4c-0.4-0.7-1.2-1-2-0.7c-2,0.8-5.7,2.2-9,2.2c-4.6,0-10-1.8-9.7-6.5h23c1.5,0,2.8-1.2,2.8-2.8v-2.1
				C353.9,556.1,354.8,539.8,334.4,539.8z M340.7,553.9h-12.5c0,0-0.8-5.7,6.3-5.7C341.5,548.2,340.7,553.9,340.7,553.9z"/>
			<path class="st5" d="M380.9,545.7c-4-1.7-7.4-3.1-7.4-5.3c0-2.2,1.3-4.6,6.5-4.6s8.3,1.7,10.1,2.6s2.6-0.3,2.6-0.3
				s2.5-3.6,3.6-5.7s-0.9-2.8-0.9-2.8c-4-3-10.2-4.3-17.8-4.3c-7.6,0-18.3,3.1-18.3,14.5c0,11.4,11.6,14.2,16.6,16.1s7.1,5.1,7.1,6
				c0,0.9,0.6,4.4-6.8,4.4c-5.3,0-10.1-2.2-12.5-3.5c-0.9-0.4-2-0.2-2.6,0.6l-3.8,5.4c-0.6,0.9-0.4,2.1,0.5,2.8
				c4.5,3,9.5,4.9,19.1,4.9c10.8,0,13.3-2,16.7-5c3.5-3,5.4-9.4,2.8-15C394.1,550.9,385,547.4,380.9,545.7z"/>
			<path class="st5" d="M452.1,540.4h-9.6c-0.9,0-1.7,0.6-1.9,1.4l-4.1,16.3l-5.1-13.3c-0.2-0.6-0.8-1-1.4-1h-5.3
				c-0.7,0-1.3,0.4-1.6,1.1l-5.2,13l-3.8-15.5c-0.3-1.2-1.3-2-2.6-2h-9.3c-1.1,0-1.9,1.1-1.5,2.1l9.9,31.1c0.4,1.1,1.3,1.8,2.5,1.8
				h7.4c0.8,0,1.5-0.5,1.8-1.2l4.8-13.3l5.3,13.3c0.3,0.7,1,1.2,1.8,1.2h6.9c1.6,0,2.9-1.1,3.5-2.6l9.1-30.7
				C453.7,541.3,453.1,540.4,452.1,540.4z"/>
			<path class="st5" d="M522.4,539.3c-11.8,0-19,5.9-19,5.9v42.1c0,1.3,1.1,2.4,2.4,2.4h9c1.4,0,2.6-1.2,2.6-2.6v-12.5
				c2.5,1.2,5.4,1.9,9.3,1.9c7.4,0,17.1-3.7,17.1-18.1C543.7,544.1,534.2,539.3,522.4,539.3z M522.5,566.6c-3.2-0.1-5.2-3-5.2-3
				v-13.4c1.2-0.4,2.6-0.8,4-0.8c5.1,0,7.7,3.2,7.7,8.5S525.8,566.7,522.5,566.6z"/>
		</g>
	</g>
</g>
</svg>
