<?xml version="1.0" encoding="utf-8"?>
<!-- Generator: Adobe Illustrator 25.2.1, SVG Export Plug-In . SVG Version: 6.00 Build 0)  -->
<svg version="1.1" id="Capa_1" xmlns="http://www.w3.org/2000/svg" xmlns:xlink="http://www.w3.org/1999/xlink" x="0px" y="0px"
	 viewBox="0 0 600 600" style="enable-background:new 0 0 600 600;" xml:space="preserve">
<style type="text/css">
	.st0{fill:#002B2A;}
	.st1{fill:#00AAAA;}
	.st2{fill:#11726B;}
	.st3{fill:#FFFFFF;}
</style>
<g>
	<g>
		<circle class="st0" cx="300" cy="300" r="285"/>
		<g>
			<g>
				<circle class="st1" cx="300" cy="300" r="251.2"/>
				<g>
					<g>
						<g>
							<g>
								<g>
									<path class="st2" d="M300,542.6c62.3,0,119.1-23.6,162.1-62.3c0.3-0.3,0.6-0.5,0.9-0.8l0,0
										c48.9-44.4,79.6-108.4,79.6-179.5c0-73.9-33.2-140.2-85.5-184.7c-0.1-0.1-0.2-0.2-0.3-0.3c-1.1-0.9-2.2-1.9-3.3-2.8
										c-0.6-0.5-1.2-1-1.8-1.5c-1-0.8-2-1.6-3-2.4c0,0-0.1-0.1-0.1-0.1c-20.5-15.9-43.7-28.6-68.6-37.3
										c-25-8.7-51.8-13.5-79.7-13.5C166.2,57.4,57.4,166.3,57.4,300S166.2,542.6,300,542.6z M388.6,89.7l-19.7,29.6
										c-0.9,1.4-3,1.4-3.9,0l-29.9-44.8C353.7,77.4,371.7,82.5,388.6,89.7z M369.6,200.3c3.4,0.9,6.1,3.6,7,7
										c2,7.7-4.8,14.5-12.4,12.5c-3.4-0.9-6.1-3.6-7-7C355.2,205.1,362,198.2,369.6,200.3z M99.9,251.4c3.4,0.9,6.1,3.6,7,7
										c2,7.7-4.8,14.5-12.4,12.5c-3.4-0.9-6.1-3.6-7-7C85.5,256.2,92.3,249.3,99.9,251.4z M91.7,235.5c0,2.9-1.7,5.5-4.2,6.9
										c-7.8,4.1-12.8,12.9-11,22.6c1.5,8.5,8.3,15.3,16.8,16.9c13.4,2.5,25.2-7.8,25.2-20.8c0-8.1-4.6-15.2-11.4-18.7
										c-2.6-1.3-4.2-4-4.2-6.9v-46.2c0-2.8,0.8-5.5,2.4-7.8l10.7-16c10.5-14.3,22.6-27.4,36.1-38.9l42.9,42.8
										c2,2,2.6,4.9,1.8,7.6c-0.9,3-1.2,6.3-0.6,9.7c1.5,8.8,8.5,15.8,17.3,17.2c14.4,2.4,26.8-9.9,24.4-24.3
										c-1.4-8.4-7.9-15.4-16.3-17.2c-4-0.9-7.8-0.6-11.2,0.6c-2.8,0.9-5.8,0.3-7.8-1.7l-41.8-41.8c38.6-29.9,87-47.7,139.5-47.7
										h0.2l-38.5,38.5c-2,2-5,2.6-7.8,1.7c-3.4-1.1-7.2-1.4-11.2-0.6c-8.4,1.8-14.9,8.7-16.3,17.2c-2.3,14.4,10,26.7,24.4,24.3
										c8.7-1.4,15.8-8.5,17.3-17.2c0.6-3.4,0.3-6.7-0.6-9.7c-0.8-2.7-0.2-5.6,1.8-7.6l46.1-46.1c1.7,0.1,3.5,0.3,5.3,0.4
										l38.4,57.6c1.6,2.3,2.4,5,2.4,7.8v46.2c0,2.9-1.6,5.5-4.2,6.9c-7.8,4.1-12.7,12.9-11,22.6c1.5,8.5,8.3,15.3,16.8,16.9
										c13.4,2.5,25.2-7.8,25.2-20.8c0-8.1-4.6-15.2-11.3-18.7c-2.6-1.3-4.3-4-4.3-6.9v-46.2c0-2.8,0.8-5.5,2.4-7.8l24-36
										c13.9,6.7,27.1,14.9,39.3,24.2l-0.8,0.8c-2.1,2.1-5.1,2.6-7.8,1.7c-3.4-1.1-7.3-1.4-11.2-0.6c-8.3,1.8-14.9,8.7-16.3,17.2
										c-2.3,14.4,10,26.7,24.4,24.3c8.8-1.4,15.8-8.5,17.3-17.3c0.6-3.4,0.3-6.7-0.6-9.7c-0.8-2.7-0.2-5.6,1.8-7.6l1.9-1.9
										c29,24.5,52,56,65.9,92l-17.6,17.7c-2.1,2-5.1,2.6-7.8,1.7c-3.4-1.2-7.2-1.4-11.2-0.6c-8.3,1.8-14.9,8.7-16.3,17.2
										c-2.3,14.4,10,26.7,24.4,24.3c8.8-1.4,15.8-8.5,17.3-17.2c0.6-3.4,0.3-6.7-0.6-9.7c-0.8-2.7-0.2-5.6,1.8-7.6l14.2-14.2
										c7.3,22.3,11.3,46.2,11.3,71c0,16.3-1.7,32.3-5,47.7l-13.8,10.5c-3.8,0-6.3,0.8-9-1.9c0,0,0.1-1.5,1-4.2
										c1-3,1.3-6.4,0.7-9.9c-1.5-8.8-8.6-16-17.4-17.4c-14.4-2.3-26.7,10-24.3,24.3c1.4,8.8,8.5,15.9,17.4,17.4
										c3.5,0.6,6.8,0.3,9.9-0.7c2.7-0.9,5.7-1.7,7.7,0.3c0,0,1.8,1.5,2.3,2.3l9.5,27.2c-13,28.1-31.6,53.2-54.4,73.7l-0.8-0.8
										c-2-2-2.6-5-1.7-7.7c1-3,1.3-6.4,0.7-9.9c-1.4-8.8-8.5-15.9-17.4-17.4c-14.4-2.3-26.6,10-24.3,24.3
										c1.4,8.8,8.5,15.9,17.4,17.4c3.5,0.6,6.8,0.3,9.9-0.7c2.7-0.9,5.7-0.3,7.7,1.7l0.2,0.2c-28.7,23.5-63.2,40.2-101,47.5
										l27.3-27.3c2-2,5-2.6,7.7-1.7c3,1,6.4,1.3,9.9,0.7c8.8-1.5,16-8.6,17.4-17.4c2.3-14.4-10-26.7-24.3-24.3
										c-8.8,1.4-15.9,8.5-17.4,17.4c-0.6,3.5-0.3,6.8,0.7,9.9c0.9,2.7,0.3,5.7-1.7,7.7l-31.2,31.2c-0.6,0.6-1.2,1.1-1.9,1.6
										c-0.8,0.6-1.7,1.1-2.6,1.4c-0.1,0-0.1,0.1-0.2,0.1c-5.6,2.7-13.5,4.9-24.4,4.9c-29.4,0-44.3-3.8-44.3-3.8
										c-9-1.7-17.9-3.9-26.5-6.6v-17.5c0-2.8,1.6-5.3,4.1-6.6c2.7-1.4,5.1-3.4,7-5.8c2.9-3.6,4.5-8.2,4.5-13.2
										c-0.1-11.2-9.3-20.7-20.6-21c-11.9-0.3-21.7,9.3-21.7,21.1c0,4.9,1.7,9.5,4.5,13.1c1.9,2.4,4.3,4.4,7,5.8
										c2.5,1.3,4.1,3.8,4.1,6.6V514c-45.9-17.1-84.9-48.6-111.4-89l11.5-11.5c2-2,5-2.6,7.7-1.7c3,1,6.4,1.3,9.9,0.7
										c8.8-1.5,16-8.6,17.4-17.4c2.3-14.4-10-26.6-24.3-24.3c-8.8,1.4-15.9,8.5-17.4,17.4c-0.6,3.5-0.3,6.8,0.7,9.9
										c0.9,2.7,0.3,5.7-1.7,7.7l-9.7,9.7c-4-6.8-7.6-13.7-10.9-20.9c-0.6-1.2-1.1-2.5-1.5-3.8l-2.4-7.2c-1-3-0.4-6.3,1.6-8.7
										c2.2-2.7,4.9-5.9,5.2-6.3l2.8-3.5c1.3-1.3,2.9-3.3,7.7-1.7c3.1,1,6.4,1.3,9.9,0.7c8.8-1.5,15.9-8.6,17.4-17.4
										c2.3-14.4-10-26.6-24.3-24.3c-8.8,1.4-15.9,8.5-17.4,17.4c-0.6,3.5-0.3,6.8,0.7,9.9c0.5,1.6-2.7,5.8-5.8,9.4
										c-2.1,2.4-6.1,1.5-6.9-1.6l-2.4-9.4c-3.3-15.4-5-31.3-5-47.7c0-33.2,7.1-64.7,19.9-93.2V235.5z M207,180.3
										c0.9-3.4,3.6-6.1,7-7c7.7-2,14.5,4.8,12.4,12.4c-0.9,3.4-3.6,6.1-7,7C211.8,194.8,205,188,207,180.3z M256.9,134.8
										c-0.9,3.4-3.6,6.1-7,7c-7.7,2-14.5-4.8-12.4-12.5c0.9-3.3,3.6-6.1,7-7C252.2,120.4,259,127.2,256.9,134.8z M432.6,143.8
										c-0.9,3.3-3.6,6.1-7,7c-7.7,2-14.5-4.8-12.4-12.5c0.9-3.4,3.6-6.1,7-7C427.8,129.4,434.6,136.2,432.6,143.8z M490.4,259.7
										c-0.9,3.4-3.6,6.1-7,7c-7.7,2-14.5-4.8-12.4-12.4c0.9-3.4,3.6-6.1,7-7C485.6,245.2,492.4,252,490.4,259.7z M491,348.4
										c-0.9,3.4-3.6,6.1-7,7c-7.7,2-14.5-4.8-12.5-12.4c0.9-3.4,4.6-6.7,7.9-7.6C487.1,333.4,493,340.8,491,348.4z M439.8,457.2
										c-0.9,3.4-3.6,6.1-7,7c-7.7,2-14.5-4.8-12.4-12.4c0.9-3.4,3.6-6.1,7-7C435.1,442.7,441.9,449.5,439.8,457.2z M375.1,472.2
										c0.9-3.4,3.6-6.1,7-7c7.7-2,14.5,4.8,12.4,12.5c-0.9,3.3-3.6,6.1-7,7C379.8,486.6,373,479.8,375.1,472.2z M226.1,484.9
										c-3.9,0-7.3-2.3-9-5.6c-0.7-1.4-1.1-2.9-1.1-4.5c0-6,5.3-10.8,11.5-10c3.2,0.5,6.1,2.5,7.5,5.4c1.6,3.1,1.3,6.4,0,9.1
										C233.4,482.7,230,484.9,226.1,484.9z M125,388.9c0.9-3.4,3.6-6.1,7-7c7.7-2,14.5,4.8,12.4,12.4c-0.9,3.4-3.6,6.1-7,7
										C129.8,403.4,123,396.6,125,388.9z M102.3,340.3c0.9-3.4,3.6-6.1,7-7c7.7-2,14.5,4.8,12.4,12.4c-0.9,3.4-3.6,6.1-7,7
										C107,354.8,100.2,348,102.3,340.3z"/>
								</g>
							</g>
						</g>
						<g>
							<path class="st2" d="M251.8,208L251.8,208c-7.7,2-14.5-4.8-12.4-12.4c0.9-3.4,3.6-6.1,7-7c7.7-2,14.5,4.8,12.4,12.4
								C257.9,204.4,255.2,207.1,251.8,208"/>
						</g>
						<g>
							<path class="st2" d="M219.5,235L219.5,235c-7.7,2-14.5-4.8-12.4-12.4c0.9-3.4,3.6-6.1,7-7c7.7-2,14.5,4.8,12.4,12.4
								C225.5,231.4,222.8,234.1,219.5,235"/>
						</g>
						<g>
							<path class="st2" d="M133,238.9L133,238.9c-7.7,2-14.5-4.8-12.4-12.4c0.9-3.4,3.6-6.1,7-7c7.7-2,14.5,4.8,12.4,12.4
								C139.1,235.3,136.4,238,133,238.9"/>
						</g>
						<g>
							<path class="st2" d="M312.8,484.6L312.8,484.6c-7.7,2-14.5-4.8-12.4-12.4c0.9-3.4,3.6-6.1,7-7c7.7-2,14.5,4.8,12.4,12.4
								C318.8,481,316.1,483.7,312.8,484.6"/>
						</g>
						<g>
							<path class="st2" d="M500.7,323.6L500.7,323.6c-7.7,2-14.5-4.8-12.4-12.4c0.9-3.4,3.6-6.1,7-7c7.7-2,14.5,4.8,12.4,12.4
								C506.8,320,504.1,322.7,500.7,323.6"/>
						</g>
						<g>
							<path class="st2" d="M479.8,424.8L479.8,424.8c-7.7,2-14.5-4.8-12.4-12.4c0.9-3.4,3.6-6.1,7-7c7.7-2,14.5,4.8,12.4,12.4
								C485.9,421.1,483.2,423.9,479.8,424.8"/>
						</g>
						<g>
							<path class="st2" d="M307.2,123.7L307.2,123.7c-7.7,2-14.5-4.8-12.4-12.4c0.9-3.4,3.6-6.1,7-7c7.7-2,14.5,4.8,12.4,12.4
								C313.3,120.1,310.6,122.8,307.2,123.7"/>
						</g>
						<g>
							<path class="st2" d="M442.9,221.3L442.9,221.3c-7.7,2-14.5-4.8-12.4-12.4c0.9-3.4,3.6-6.1,7-7c7.7-2,14.5,4.8,12.4,12.4
								C449,217.6,446.3,220.4,442.9,221.3"/>
						</g>
						<g>
							<path class="st2" d="M412.3,221.3L412.3,221.3c-7.7,2-14.5-4.8-12.4-12.4c0.9-3.4,3.6-6.1,7-7c7.7-2,14.5,4.8,12.4,12.4
								C418.4,217.6,415.7,220.4,412.3,221.3"/>
						</g>
						<g>
							<path class="st2" d="M158.6,461.9L158.6,461.9c-7.7,2-14.5-4.8-12.4-12.4c0.9-3.4,3.6-6.1,7-7c7.7-2,14.5,4.8,12.4,12.4
								C164.7,458.2,162,461,158.6,461.9"/>
						</g>
						<g>
							<path class="st2" d="M168.7,192.8L168.7,192.8c-7.7,2-14.5-4.8-12.4-12.4c0.9-3.4,3.6-6.1,7-7c7.7-2,14.5,4.8,12.4,12.4
								C174.7,189.2,172,191.9,168.7,192.8"/>
						</g>
						<g>
							<path class="st2" d="M288.4,208L288.4,208c-7.7,2-14.5-4.8-12.4-12.4c0.9-3.4,3.6-6.1,7-7c7.7-2,14.5,4.8,12.4,12.4
								C294.5,204.4,291.8,207.1,288.4,208"/>
						</g>
						<g>
							<path class="st2" d="M312.8,512.3L312.8,512.3c-7.7,2-14.5-4.8-12.4-12.4c0.9-3.4,3.6-6.1,7-7c7.7-2,14.5,4.8,12.4,12.4
								C318.8,508.7,316.1,511.4,312.8,512.3"/>
						</g>
						<g>
							<path class="st2" d="M183.2,464.1L183.2,464.1c-7.7,2-14.5-4.8-12.4-12.4c0.9-3.4,3.6-6.1,7-7c7.7-2,14.5,4.8,12.4,12.4
								C189.3,460.5,186.6,463.2,183.2,464.1"/>
						</g>
						<g>
							<path class="st2" d="M479.8,396.9L479.8,396.9c-7.7,2-14.5-4.8-12.4-12.4c0.9-3.4,3.6-6.1,7-7c7.7-2,14.5,4.8,12.4,12.4
								C485.9,393.3,483.2,396,479.8,396.9"/>
						</g>
						<g>
							<path class="st2" d="M287.1,512.3L287.1,512.3c-7.7,2-14.5-4.8-12.4-12.4c0.9-3.4,3.6-6.1,7-7c7.7-2,14.5,4.8,12.4,12.4
								C293.1,508.7,290.4,511.4,287.1,512.3"/>
						</g>
						<g>
							<path class="st2" d="M193.3,131.7L193.3,131.7c-7.7,2-14.5-4.8-12.4-12.4c0.9-3.4,3.6-6.1,7-7c7.7-2,14.5,4.8,12.4,12.4
								C199.3,128.1,196.6,130.8,193.3,131.7"/>
						</g>
						<rect x="247.2" y="192.8" class="st2" width="31.8" height="11.1"/>
						<rect x="498.8" y="308.3" class="st2" width="31.8" height="11.1"/>
						<path class="st2" d="M274.1,203.9h-29.9c-0.5,0-1-0.4-1-1v-9.1c0-0.5,0.4-1,1-1h29.9c0.5,0,1,0.4,1,1v9.1
							C275,203.4,274.6,203.9,274.1,203.9z"/>
						<path class="st2" d="M273.9,230.8h-56.2c-0.5,0-1-0.4-1-1v-9.1c0-0.5,0.4-1,1-1h56.2c2.9,0,5.3,2.4,5.3,5.3v0.4
							C279.3,228.5,276.9,230.8,273.9,230.8z"/>
						<rect x="471.5" y="417.2" class="st2" width="11.1" height="39.3"/>
						<path class="st2" d="M278,498.4v-25.5c0-2.9,2.4-5.3,5.3-5.3h0.4c2.9,0,5.3,2.4,5.3,5.3v25.5c0,0.5-0.4,1-1,1h-9.1
							C278.4,499.4,278,498.9,278,498.4z"/>
						<rect x="124.7" y="135.2" class="st2" width="11.1" height="91.9"/>
						<rect x="185" y="91.8" class="st2" width="11.1" height="33.4"/>
					</g>
				</g>
			</g>
		</g>
	</g>
	<g>
		<path class="st3" d="M454.1,334.1c0.6,3.8,0.9,7.7,0.9,11.6c0,59.6-69.4,107.9-155,107.9s-155-48.3-155-107.9
			c0-4,0.3-7.9,0.9-11.7c-13.5-6.1-22.9-19.6-22.9-35.3c0-21.4,17.3-38.7,38.7-38.7c10.4,0,19.8,4.1,26.8,10.8
			c26.9-19.4,64.1-31.8,105.5-32.8c0-0.5,19.3-92.7,19.3-92.7c0.4-1.8,1.4-3.3,3-4.4c1.5-1,3.4-1.3,5.2-1l64.4,13.7
			c4.5-9.1,13.8-15.5,24.7-15.5c15.3,0,27.7,12.4,27.7,27.7s-12.4,27.7-27.7,27.7c-14.8,0-26.8-11.7-27.5-26.4l-57.7-12.3
			l-17.6,83.1c40.7,1.4,77.2,13.8,103.6,32.9c7-6.7,16.4-10.9,26.9-10.9c21.4,0,38.7,17.3,38.7,38.7
			C477.1,314.5,467.5,328.1,454.1,334.1z"/>
		<path class="st1" d="M355.6,389.3c-11.9,11.9-37.4,16.2-55.6,16.2c-18.2,0-43.7-4.2-55.6-16.2c-2.8-2.8-7.3-2.8-10.1,0
			c-2.8,2.8-2.8,7.3,0,10.1c18.9,18.9,55.1,20.4,65.7,20.4c10.6,0,46.8-1.5,65.7-20.4c2.8-2.8,2.8-7.3,0-10.1
			C362.9,386.5,358.4,386.5,355.6,389.3z"/>
		<path class="st1" d="M266.7,326.4c0-15.3-12.4-27.7-27.7-27.7c-15.2,0-27.7,12.4-27.7,27.7c0,15.2,12.4,27.7,27.7,27.7
			C254.3,354,266.7,341.6,266.7,326.4z"/>
		<path class="st1" d="M360.8,298.7c-15.3,0-27.7,12.4-27.7,27.7c0,15.2,12.4,27.7,27.7,27.7c15.2,0,27.7-12.4,27.7-27.7
			C388.5,311.1,376.1,298.7,360.8,298.7z"/>
	</g>
</g>
</svg>
