<?xml version="1.0" encoding="utf-8"?>
<!-- Generator: Adobe Illustrator 25.2.1, SVG Export Plug-In . SVG Version: 6.00 Build 0)  -->
<svg version="1.1" id="Capa_1" xmlns="http://www.w3.org/2000/svg" xmlns:xlink="http://www.w3.org/1999/xlink" x="0px" y="0px"
	 viewBox="0 0 600 600" style="enable-background:new 0 0 600 600;" xml:space="preserve">
<style type="text/css">
	.st0{fill-rule:evenodd;clip-rule:evenodd;fill:#FFFFFF;}
	.st1{fill-rule:evenodd;clip-rule:evenodd;fill:#00AAAA;}
	.st2{fill-rule:evenodd;clip-rule:evenodd;fill:#FF3F18;}
	.st3{enable-background:new    ;}
	.st4{fill:#FFFFFF;}
</style>
<g>
	<g>
		<g>
			<path class="st0" d="M443,121.9c0-16.6-13.5-30-30-30c-12.6,0-23.3,7.7-27.8,18.7c-1.5,3.5-2.2,7.4-2.2,11.4
				c0,16.6,13.5,30,30,30C429.6,151.9,443,138.4,443,121.9z"/>
			<path class="st1" d="M385.1,110.4c4.5-10.9,15.3-18.7,27.8-18.7c16.6,0,30,13.5,30,30c0,16.6-13.5,30-30,30
				c-16.6,0-30-13.5-30-30C382.9,117.8,383.7,114,385.1,110.4z M303.3,166.8c49.1,0.6,93.4,15.7,125.2,39.7
				c7.7-11.3,20.5-18.6,35.2-18.6c23.5,0,42.5,19,42.5,42.5c0,19.2-12.8,35.5-30.3,40.8c2.6,8.9,3.9,18,3.9,27.5
				c0,72.8-80.6,131.9-180,131.9S120,371.5,120,298.7c0-9.4,1.4-18.7,3.9-27.5c-17.6-5.3-30.3-21.5-30.3-40.8
				c0-23.5,19-42.5,42.5-42.5c14.6,0,27.5,7.4,35.2,18.6C204,182,249.5,166.9,300,166.9C301.1,166.8,302.2,166.8,303.3,166.8z
				 M546.4,261.1C546.4,125,436.1,14.7,300,14.7S53.5,125.1,53.5,261.1s110.4,246.4,246.4,246.4S546.4,397.3,546.4,261.1z"/>
			<path class="st0" d="M171.3,206.4c-7.7-11.3-20.5-18.6-35.2-18.6c-23.5,0-42.5,19-42.5,42.5c0,19.2,12.8,35.5,30.3,40.8
				C131.1,246.3,147.9,224,171.3,206.4z"/>
			<path class="st0" d="M300,166.8c-50.4,0-95.9,15.2-128.7,39.7c-23.4,17.6-40.2,39.8-47.4,64.7c-2.6,8.9-3.9,18-3.9,27.5
				c0,72.8,80.6,131.9,180,131.9s180-59.1,180-131.9c0-9.4-1.4-18.6-3.9-27.5c-7.2-24.9-24-47.2-47.4-64.7
				c-32-23.9-76.2-39-125.2-39.7C302.2,166.8,301.1,166.8,300,166.8z M230.6,242.8c12.8,0,23.3,10.4,23.3,23.3
				c0,12.8-10.4,23.3-23.3,23.3c-12.8,0-23.3-10.4-23.3-23.3S217.7,242.8,230.6,242.8z M346.1,266c0-12.8,10.4-23.3,23.3-23.3
				c12.8,0,23.3,10.4,23.3,23.3c0,12.8-10.4,23.3-23.3,23.3C356.6,289.3,346.1,278.9,346.1,266z"/>
			<path class="st2" d="M392.6,266c0,12.8-10.4,23.3-23.3,23.3c-12.8,0-23.3-10.4-23.3-23.3s10.4-23.3,23.3-23.3
				C382.2,242.8,392.6,253.2,392.6,266z"/>
			<path class="st2" d="M253.9,266c0,12.8-10.4,23.3-23.3,23.3c-12.8,0-23.3-10.4-23.3-23.3s10.4-23.3,23.3-23.3
				C243.4,242.8,253.9,253.2,253.9,266z"/>
			<path class="st0" d="M428.7,206.4c23.4,17.6,40.2,39.8,47.4,64.7c17.6-5.3,30.3-21.5,30.3-40.8c0-23.5-19-42.5-42.5-42.5
				C449.2,187.8,436.2,195.2,428.7,206.4z"/>
		</g>
		<path d="M516.4,230.4c0-29-23.6-52.6-52.6-52.6c-14,0-27.3,5.5-37.1,15.3c-30-20.2-68.7-33.3-111.2-35.9l4.5-21.6
			c1.7-8,6.9-15.2,14.4-19.5c7.8-4.5,16.9-5.7,25-3.1l13.7,4.3c-0.2,1.6-0.3,3.1-0.3,4.6c0,22.1,18,40.1,40.1,40.1
			c22.1,0,40.1-17.9,40.1-40.1c0-22.1-18-40.1-40.1-40.1c-13.4,0-25.2,6.6-32.5,16.7l-14.9-4.7c-13.6-4.3-28.6-2.4-41.2,5
			c-12.4,7.3-21.1,19.2-23.8,32.7l-5.3,25.3c-46.8,0.8-89.5,14.4-122,36.3c-9.8-9.7-23-15.3-37.1-15.3c-29,0-52.6,23.6-52.6,52.6
			c0,19.8,11.4,37.9,28.7,46.8c-1.4,7-2.2,14.2-2.2,21.5c0,78.3,85.2,141.9,189.9,141.9s189.9-63.7,189.9-141.9
			c0-7.3-0.7-14.5-2.2-21.5C505,268.3,516.4,250.2,516.4,230.4z M413,101.8c11.1,0,20.1,9,20.1,20.1s-9,20.1-20.1,20.1
			c-11.1,0-20.1-9-20.1-20.1S401.9,101.8,413,101.8z M463.8,197.8c17.9,0,32.5,14.6,32.5,32.5c0,11-5.7,21.2-14.6,27.1
			c-7.9-19.5-21.3-37.2-38.7-52.1C448.8,200.6,456.1,197.8,463.8,197.8z M103.6,230.4c0-17.9,14.6-32.5,32.5-32.5
			c7.7,0,15,2.8,20.8,7.5c-17.5,15-30.9,32.6-38.7,52.1C109.3,251.5,103.6,241.4,103.6,230.4z M421.2,383.8
			c-32.4,23.8-75.4,36.8-121.2,36.8s-88.8-13-121.2-36.8c-31.4-23-48.7-53.2-48.7-85.1s17.3-62.1,48.7-85.1
			c32.4-23.8,75.4-36.8,121.2-36.8s88.9,13,121.2,36.8c31.4,23,48.7,53.2,48.7,85.1S452.6,360.8,421.2,383.8z"/>
		<path d="M263.9,266c0-18.4-15-33.3-33.3-33.3s-33.3,15-33.3,33.3c0,18.4,15,33.3,33.3,33.3S263.9,284.4,263.9,266z M217.4,266
			c0-7.3,5.9-13.2,13.2-13.2s13.2,5.9,13.2,13.2c0,7.3-5.9,13.2-13.2,13.2C223.3,279.4,217.4,273.3,217.4,266z"/>
		<path d="M369.4,232.8c-18.4,0-33.3,15-33.3,33.3c0,18.4,15,33.3,33.3,33.3s33.3-15,33.3-33.3C402.7,247.7,387.7,232.8,369.4,232.8
			z M369.4,279.4c-7.3,0-13.2-5.9-13.2-13.2s5.9-13.2,13.2-13.2s13.2,5.9,13.2,13.2C382.6,273.3,376.7,279.4,369.4,279.4z"/>
		<path d="M367.8,324c-18.1,18.1-42.1,28.1-67.8,28.1s-49.6-10-67.8-28.1c-3.9-3.9-10.3-3.9-14.1,0c-3.9,3.9-3.9,10.3,0,14.1
			c21.9,21.9,51,33.9,81.9,33.9c31,0,60.1-12,81.9-33.9c3.9-3.9,3.9-10.3,0-14.1C378,320.1,371.6,320.1,367.8,324z"/>
		<path d="M437.7,453.3c-40.3,28.9-88,44.3-137.8,44.3c-130.3,0-236.3-106-236.3-236.4c0-49.8,15.3-97.4,44.3-137.8
			c3.2-4.5,2.2-10.7-2.3-14s-10.7-2.2-14,2.3c-31.4,43.7-48.1,95.5-48.1,149.5c0,68.5,26.7,132.9,75.1,181.4s112.9,75.1,181.4,75.1
			c54.1,0,105.7-16.6,149.5-48.1c4.5-3.2,5.5-9.5,2.3-14C448.5,451.1,442.3,450.1,437.7,453.3z"/>
		<path d="M481.4,79.8C432.9,31.4,368.5,4.6,300,4.6c-54.1,0-105.7,16.6-149.5,48.1c-4.5,3.2-5.5,9.5-2.3,14c3.2,4.5,9.5,5.5,14,2.3
			c40.3-28.9,88-44.3,137.8-44.3c130.4,0,236.4,106.1,236.4,236.4c0,49.8-15.3,97.4-44.3,137.8c-3.2,4.5-2.2,10.7,2.3,14
			c1.8,1.3,3.8,1.8,5.8,1.8c3.1,0,6.2-1.5,8.1-4.2c31.4-43.7,48.1-95.5,48.1-149.5C556.5,192.7,529.8,128.2,481.4,79.8z"/>
		<path d="M125.7,96.9c2.7,0,5.5-1.1,7.4-3.3c3.7-4.1,3.4-10.4-0.6-14.1S122,76,118.3,80.1l0,0c-3.7,4.1-3.4,10.4,0.6,14.1
			C120.9,96.1,123.3,96.9,125.7,96.9z"/>
		<path d="M466.8,428.7L466.8,428.7c-3.7,4.1-3.4,10.4,0.6,14.1c1.9,1.8,4.3,2.6,6.7,2.6c2.7,0,5.5-1.1,7.4-3.2
			c3.7-4.1,3.4-10.4-0.6-14.1C476.9,424.3,470.5,424.6,466.8,428.7z"/>
	</g>
	<g>
		<g class="st3">
			<path d="M18.7,591.8v-5.2h-5.2v-5.2h10.4v5.2h15.6v-10.4H18.7v-5.2h-5.2v-10.4h5.2v-5.2h26v5.2h5.2v5.2H39.5v-5.2H23.9v10.4h20.8
				v5.2h5.2v10.4h-5.2v5.2L18.7,591.8L18.7,591.8z"/>
			<path d="M60.3,591.8v-5.2h-5.2v-31.2h10.4v31.2H81v-31.2h10.4v31.2h-5.2v5.2H60.3z"/>
			<path d="M96.6,591.8v-36.4h31.2v5.2h5.2v15.6h-10.4v5.2h5.2v5.2h5.2v5.2h-15.6v-5.2h-5.2v-5.2H107v10.4L96.6,591.8L96.6,591.8z
				 M107,576.3h10.4v-5.2h5.2v-10.4H107V576.3z"/>
			<path d="M138.1,591.8v-36.4h31.2v5.2h5.2v15.6H164v5.2h5.2v5.2h5.2v5.2h-15.6v-5.2h-5.2v-5.2h-5.2v10.4L138.1,591.8L138.1,591.8z
				 M148.4,576.3h10.4v-5.2h5.2v-10.4h-15.6L148.4,576.3L148.4,576.3z"/>
			<path d="M179.6,591.8v-36.4H216v5.2h-26v10.4h20.8v5.2H190v10.4h26v5.2L179.6,591.8L179.6,591.8z"/>
			<path d="M221,591.8v-36.4h26v5.2h5.2v5.2h5.2v15.6h-5.2v5.2H247v5.2H221z M231.4,586.7h10.4v-5.2h5.2v-15.6h-5.2v-5.2h-10.4
				V586.7z"/>
			<path d="M262.6,591.8v-36.4h26v5.2h5.2v5.2h5.2v15.6h-5.2v5.2h-5.2v5.2H262.6z M273,586.7h10.4v-5.2h5.2v-15.6h-5.2v-5.2H273
				V586.7z"/>
			<path d="M309.2,591.8v-5.2h10.4v-26h-10.4v-5.2h31.2v5.2H330v26h10.4v5.2H309.2z"/>
			<path d="M361.2,591.8v-31.2h-10.4v-5.2H382v5.2h-10.4v31.2H361.2z"/>
			<path d="M433.8,591.8v-5.2h-5.2v-5.2H439v5.2h15.6v-10.4h-20.8v-5.2h-5.2v-10.4h5.2v-5.2h26v5.2h5.2v5.2h-10.4v-5.2H439v10.4
				h20.8v5.2h5.2v10.4h-5.2v5.2L433.8,591.8L433.8,591.8z"/>
			<path d="M470.1,591.8v-26h5.2v-5.2h5.2v-5.2h15.6v5.2h5.2v5.2h5.2v26h-10.4v-10.4h-15.6v10.4H470.1z M480.5,576.3h15.6v-10.4
				h-5.2v-5.2h-5.2v5.2h-5.2V576.3z"/>
			<path d="M511.6,591.8v-36.4h36.4v5.2h-26v10.4h20.8v5.2H522v15.6H511.6z"/>
			<path d="M558.3,591.8v-5.2h-5.2v-31.2h10.4v31.2h15.6v-31.2h10.4v31.2h-5.2v5.2H558.3z"/>
		</g>
		<g class="st3">
			<path class="st4" d="M18.7,584.1v-5.2h-5.2v-5.2h10.4v5.2h15.6v-10.4H18.7v-5.2h-5.2v-10.4h5.2v-5.2h26v5.2h5.2v5.2H39.5v-5.2
				H23.9v10.4h20.8v5.2h5.2v10.4h-5.2v5.2H18.7z"/>
			<path class="st4" d="M60.3,584.1v-5.2h-5.2v-31.2h10.4v31.2H81v-31.2h10.4v31.2h-5.2v5.2H60.3z"/>
			<path class="st4" d="M96.6,584.1v-36.4h31.2v5.2h5.2v15.6h-10.4v5.2h5.2v5.2h5.2v5.2h-15.6v-5.2h-5.2v-5.2H107v10.4H96.6z
				 M107,568.5h10.4v-5.2h5.2v-10.4H107V568.5z"/>
			<path class="st4" d="M138.1,584.1v-36.4h31.2v5.2h5.2v15.6H164v5.2h5.2v5.2h5.2v5.2h-15.6v-5.2h-5.2v-5.2h-5.2v10.4H138.1z
				 M148.4,568.5h10.4v-5.2h5.2v-10.4h-15.6L148.4,568.5L148.4,568.5z"/>
			<path class="st4" d="M179.6,584.1v-36.4H216v5.2h-26v10.4h20.8v5.2H190v10.4h26v5.2L179.6,584.1L179.6,584.1z"/>
			<path class="st4" d="M221,584.1v-36.4h26v5.2h5.2v5.2h5.2v15.6h-5.2v5.2H247v5.2H221z M231.4,578.9h10.4v-5.2h5.2v-15.6h-5.2
				v-5.2h-10.4V578.9z"/>
			<path class="st4" d="M262.6,584.1v-36.4h26v5.2h5.2v5.2h5.2v15.6h-5.2v5.2h-5.2v5.2H262.6z M273,578.9h10.4v-5.2h5.2v-15.6h-5.2
				v-5.2H273V578.9z"/>
			<path class="st4" d="M309.2,584.1v-5.2h10.4v-26h-10.4v-5.2h31.2v5.2H330v26h10.4v5.2H309.2z"/>
			<path class="st4" d="M361.2,584.1v-31.2h-10.4v-5.2H382v5.2h-10.4v31.2H361.2z"/>
			<path class="st4" d="M433.8,584.1v-5.2h-5.2v-5.2H439v5.2h15.6v-10.4h-20.8v-5.2h-5.2v-10.4h5.2v-5.2h26v5.2h5.2v5.2h-10.4v-5.2
				H439v10.4h20.8v5.2h5.2v10.4h-5.2v5.2H433.8z"/>
			<path class="st4" d="M470.1,584.1v-26h5.2v-5.2h5.2v-5.2h15.6v5.2h5.2v5.2h5.2v26h-10.4v-10.4h-15.6v10.4H470.1z M480.5,568.5
				h15.6v-10.4h-5.2v-5.2h-5.2v5.2h-5.2V568.5z"/>
			<path class="st4" d="M511.6,584.1v-36.4h36.4v5.2h-26v10.4h20.8v5.2H522v15.6H511.6z"/>
			<path class="st4" d="M558.3,584.1v-5.2h-5.2v-31.2h10.4v31.2h15.6v-31.2h10.4v31.2h-5.2v5.2H558.3z"/>
		</g>
	</g>
</g>
</svg>
