<?xml version="1.0" encoding="utf-8"?>
<!-- Generator: Adobe Illustrator 25.2.1, SVG Export Plug-In . SVG Version: 6.00 Build 0)  -->
<svg version="1.1" id="Capa_1" xmlns="http://www.w3.org/2000/svg" xmlns:xlink="http://www.w3.org/1999/xlink" x="0px" y="0px"
	 viewBox="0 0 509.5 692.9" style="enable-background:new 0 0 509.5 692.9;" xml:space="preserve">
<style type="text/css">
	.st0{enable-background:new    ;}
	.st1{fill:#FFFFFF;}
	.st2{fill:#825C3C;}
	.st3{fill:#936747;}
	.st4{fill:#6B4B32;}
</style>
<g>
	<g class="st0">
		<path d="M46.8,661.8v-54.5h46.8v7.8h7.8v23.4h-7.8v7.8H62.4v15.6H46.8z M62.4,638.4h23.4v-23.4H62.4V638.4z"/>
		<path d="M117,661.8V654h-7.8v-39h7.8v-7.8h39v7.8h7.8v39h-7.8v7.8H117z M124.8,654h23.4v-39h-23.4V654z"/>
		<path d="M179.3,661.8V654h-7.8v-39h7.8v-7.8h39v7.8h7.8v39h-7.8v7.8H179.3z M187.1,654h23.4v-39h-23.4V654z"/>
		<path d="M249.4,661.8V654h-7.8v-7.8h-7.8v-23.4h7.8v-7.8h7.8v-7.8h31.2v7.8h7.8v7.8h-15.6v-7.8h-15.6v7.8h-7.8v23.4h7.8v7.8h15.6
			v-7.8h15.6v7.8h-7.8v7.8H249.4z"/>
		<path d="M304,661.8V654h-7.8v-39h7.8v-7.8h39v7.8h7.8v39H343v7.8H304z M311.8,654h23.4v-39h-23.4V654z"/>
		<path d="M366.3,661.8V654h15.6v-39h-15.6v-7.8h46.8v7.8h-15.6v39h15.6v7.8H366.3z"/>
		<path d="M420.9,661.8v-54.5h15.6v7.8h7.8v7.8h7.8v7.8h7.8v-23.4h15.6v54.5h-15.6v-15.6h-7.8v-7.8h-7.8v-7.8h-7.8v31.2H420.9z"/>
	</g>
	<g class="st0">
		<path class="st1" d="M36.1,644v-54.5h46.8v7.8h7.8v23.4h-7.8v7.8H51.7V644H36.1z M51.7,620.6H75v-23.4H51.7V620.6z"/>
		<path class="st1" d="M106.2,644v-7.8h-7.8v-39h7.8v-7.8h39v7.8h7.8v39h-7.8v7.8H106.2z M114,636.2h23.4v-39H114V636.2z"/>
		<path class="st1" d="M168.6,644v-7.8h-7.8v-39h7.8v-7.8h39v7.8h7.8v39h-7.8v7.8H168.6z M176.3,636.2h23.4v-39h-23.4V636.2z"/>
		<path class="st1" d="M238.7,644v-7.8h-7.8v-7.8h-7.8V605h7.8v-7.8h7.8v-7.8h31.2v7.8h7.8v7.8h-15.6v-7.8h-15.6v7.8h-7.8v23.4h7.8
			v7.8h15.6v-7.8h15.6v7.8h-7.8v7.8H238.7z"/>
		<path class="st1" d="M293.2,644v-7.8h-7.8v-39h7.8v-7.8h39v7.8h7.8v39h-7.8v7.8H293.2z M301,636.2h23.4v-39H301V636.2z"/>
		<path class="st1" d="M355.6,644v-7.8h15.6v-39h-15.6v-7.8h46.8v7.8h-15.6v39h15.6v7.8H355.6z"/>
		<path class="st1" d="M410.1,644v-54.5h15.6v7.8h7.8v7.8h7.8v7.8h7.8v-23.4h15.6V644h-15.6v-15.6h-7.8v-7.8h-7.8v-7.8h-7.8V644
			H410.1z"/>
	</g>
	<g>
		<g>
			<polygon class="st2" points="248.3,501.9 161.2,495.4 89.1,481.7 26,436.9 18.2,385.6 54.6,343.3 74.8,326.8 59.2,299.7 
				54.6,252.9 80,212 107.3,197.7 124.3,166.5 163.8,106.7 233.4,52.7 290.6,24.1 336.3,15.6 321.1,60.5 321.8,128.1 370.5,179.5 
				423.8,211.3 442.7,234.1 439.4,319.2 472.6,353 486.9,381.6 486.9,427.8 447.9,463.5 399.8,487.6 279.5,501.9 			"/>
		</g>
		<g>
			<path class="st3" d="M275,31.9c-11.1,4.8-23.1,14.9-34.7,27.5c-28.7,30.9-55.5,76.3-63.4,93.4c-6.4,13.9-7.1,24.6-6.6,31.2
				c0.4,4.8,1.4,7.5,1.4,7.5l8.5,18.5c0,0-13.2-2.4-29.3-0.4c-20,2.6-44.3,12.1-52.7,42.1c-6.5,23.7-1.9,41,5.4,53.1
				c9.3,15.4,22.9,22.1,22.9,22.1s-7.2,2.3-16.4,8.1c-15.3,9.7-36,29.3-37.2,64.4c-0.9,25.2,20.6,54.3,44.6,78.7
				c14.8,15.1,30.4,28.3,42.4,37.8c-20.1-2.7-39.7-6.5-59.3-11.2c-86.1-20.9-98.1-69.8-99.7-84.3c-3.3-29.5,1.9-52.6,38.5-90.6
				c2.5-2.6,4.9-4.8,7.5-6.9C29,295.4,29.6,274,37.1,246.4c8.4-30.5,35.6-62.8,72.3-68.6c0.2-14.8,3.5-27.4,11.6-46.3
				c17.4-41,56-69.5,121.2-107.8c11.3-6.6,22.1-11.5,32.3-15.1C286.7,15,294.4,23.5,275,31.9z"/>
		</g>
		<g>
			<path class="st4" d="M495.4,446.3c-20.1,30.6-44.8,56.9-141.2,68.6l24.9-18.8c0,0,14.9-6.3,30.2-22.2
				c13.8-14.3,27.9-36.3,32-68.3c6.3-50.2-31.1-82.8-50.7-96.3c-6.8-4.6-11.5-7-11.5-7l24.5-10.4c0,0,0.6-3.7,0.7-9.5
				c0.4-11-0.6-29.7-9.1-45.1c-13-23.4-68.2-46.1-94.2-93.6c-22.3-40.6-13.1-85.1-1.7-111.3c1.9-4.4,3.8-8.2,5.7-11.5
				C309.3,13.1,317.1,6,325.5,0c20.2,0.4,32.8,5.3,33.8,5.8c4.8,2,8.2,6.3,9.1,11.4c0.8,5.1-1.1,10.3-5,13.6
				c-12,10.3-31.1,33.9-24.9,75.6c4.7,31.3,36.1,47.7,63.7,62.2c3.7,1.9,7.2,3.8,10.5,5.6c34.4,18.7,45.8,42.2,52.3,71.6
				c4.6,21.1-5.6,43.1-14.3,57.1c22.4,13.6,33.6,26.8,35.4,29C517.1,369.3,514.3,417.7,495.4,446.3z"/>
		</g>
		<g>
			
				<ellipse transform="matrix(0.9988 -4.874902e-02 4.874902e-02 0.9988 -14.3409 10.5833)" cx="209.8" cy="299.3" rx="21.2" ry="23.6"/>
		</g>
		<g>
			<ellipse transform="matrix(0.2422 -0.9702 0.9702 0.2422 -60.0725 521.5945)" cx="303.9" cy="299.3" rx="23.6" ry="21.2"/>
		</g>
		<g>
			<path d="M257.5,413.5c-25.1,0-46.3-11.1-57.4-20.5c-6.3-5.3-7-14.7-1.7-21c5.3-6.2,14.7-7,20.9-1.7c3.8,3.1,37.4,29.3,75.3-0.4
				c6.5-5,15.8-3.9,20.9,2.6s3.9,15.8-2.6,20.9C294,408.2,274.8,413.5,257.5,413.5z"/>
		</g>
		<g>
			<path d="M486.1,331.9c-1.8-2.2-13-15.4-35.4-29c8.8-14,19-36,14.3-57.1c-6.5-29.5-17.8-52.9-52.3-71.6c-3.3-1.8-6.9-3.7-10.5-5.6
				c-27.7-14.5-59.1-30.9-63.7-62.2c-6.2-41.7,12.9-65.3,24.9-75.6c3.9-3.4,5.8-8.5,5-13.7c-0.8-5.1-4.2-9.4-9-11.4
				c-2.1-0.9-51.8-20.6-117.2,17.8C177,61.8,138.3,90.3,121,131.3c-8,18.9-11.4,31.5-11.6,46.3c-36.7,5.8-63.9,38.1-72.3,68.6
				c-7.6,27.5-8.1,49,9.8,76.5c-2.6,2.1-5.1,4.3-7.5,6.9c-36.6,38-41.8,61.2-38.5,90.6c1.6,14.5,13.6,63.4,99.7,84.3
				c47,11.4,94.4,17,146.9,17c30.4,0,62.6-1.9,97.4-5.6c104.2-11.1,129.9-38.1,150.6-69.7C514.2,417.7,517.1,369.2,486.1,331.9z
				 M470.5,430c-14.1,21.5-30.2,45.9-128.9,56.4c-91.1,9.7-163.3,6.4-234.1-10.7c-67.3-16.3-76-49-77.1-58.7
				c-2.2-19.6-1.2-33.9,30.4-66.7c27.4-28.4,71.3-10.4,73.2-9.6c7.5,3.2,16.3-0.3,19.5-7.8c3.2-7.6-0.3-16.3-7.8-19.5
				c-2-0.8-37.3-15.6-72.4-4.6c-15.1-22.1-12.7-35.6-7.5-54.4c5.9-21.6,26.1-45.6,51.8-47.6c28.6-2.3,56,10.2,56.3,10.4
				c7.4,3.5,16.3,0.3,19.8-7.2c3.5-7.4,0.3-16.3-7.2-19.8c-1.1-0.5-21.2-9.8-47.3-12.6c0.3-10.6,2.8-19.4,9.2-34.4
				c14.1-33.4,49.2-58.7,108.9-93.7c28-16.4,51.9-19.9,68-19.6c-14.8,22.6-20.6,50.9-16.1,81.1c6.9,46.3,48.8,68.2,79.4,84.2
				c3.5,1.8,6.9,3.6,10.1,5.4c25,13.6,32.2,28.1,37.4,51.9c2.5,11.5-5.3,27-12,37.2c-11.2-4.6-23.9-8.9-38.5-12.1
				c-8-1.7-16,3.3-17.7,11.3c-1.8,8,3.3,16,11.3,17.7c58.3,12.8,83.6,43.8,83.7,44c0.1,0.1,0.2,0.3,0.3,0.4
				C484.9,377,483.4,410.5,470.5,430z"/>
		</g>
	</g>
</g>
</svg>
