<?xml version="1.0" encoding="utf-8"?>
<!-- Generator: Adobe Illustrator 25.2.1, SVG Export Plug-In . SVG Version: 6.00 Build 0)  -->
<svg version="1.1" id="Capa_1" xmlns="http://www.w3.org/2000/svg" xmlns:xlink="http://www.w3.org/1999/xlink" x="0px" y="0px"
	 viewBox="0 0 600 600" style="enable-background:new 0 0 600 600;" xml:space="preserve">
<style type="text/css">
	.st0{enable-background:new    ;}
	.st1{fill:#FFFFFF;}
	.st2{fill:#00AAAA;}
	.st3{fill:#11726B;}
	.st4{fill:#0C0C0C;}
</style>
<g>
	<g>
		<g class="st0">
			<path d="M16.6,590.9v-4.1h-4.1v-4.1h8.1v4.1h12.2v-8.1H16.6v-4.1h-4.1v-8.1h4.1v-4.1H37v4.1H41v4.1h-8.1v-4.1H20.7v8.1H37v4.1H41
				v8.1H37v4.1L16.6,590.9L16.6,590.9z"/>
			<path d="M45,590.9v-20.3h4.1v-4.1h4.1v-4.1h12.2v4.1h4.1v4.1h4.1v20.3h-8.1v-8.1H53.1v8.1H45z M53.1,578.7h12.2v-8.1h-4.1v-4.1
				h-4.1v4.1h-4.1C53.1,570.6,53.1,578.7,53.1,578.7z"/>
			<path d="M77.5,590.9v-28.5H106v4.1H85.7v8.1H102v4.1H85.7v12.2H77.5z"/>
			<path d="M114.1,590.9v-4.1H110v-24.4h8.1v24.4h12.2v-24.4h8.1v24.4h-4.1v4.1H114.1z"/>
			<path d="M154.7,590.9v-12.2h-4.1v-4.1h-4.1v-12.2h8.1v12.2h8.1v-12.2h8.1v12.2h-4.1v4.1h-4.1v12.2L154.7,590.9L154.7,590.9z"/>
			<path d="M179.1,590.9v-4.1h8.1v-20.3h-8.1v-4.1h24.4v4.1h-8.1v20.3h8.1v4.1H179.1z"/>
			<path d="M207.5,590.9v-28.5H236v4.1h-20.3v8.1h16.3v4.1h-16.3v8.1H236v4.1L207.5,590.9L207.5,590.9z"/>
			<path d="M244.1,590.9v-28.5h8.1v24.4h16.3v4.1H244.1z"/>
			<path d="M272.5,590.9v-28.5h20.3v4.1h4.1v4.1h4.1v12.2h-4.1v4.1h-4.1v4.1H272.5z M280.6,586.9h8.1v-4.1h4.1v-12.2h-4.1v-4.1h-8.1
				V586.9z"/>
			<path d="M337.6,590.9v-28.5h8.1v4.1h4.1v4.1h4.1v-4.1h4.1v-4.1h8.1v28.5H358v-16.3h-4.1v8.1h-4.1v-8.1h-4.1v16.3H337.6z"/>
			<path d="M374.1,590.9v-4.1h-4.1v-20.3h4.1v-4.1h20.3v4.1h4.1v20.3h-4.1v4.1H374.1z M378.2,586.9h12.2v-20.3h-12.2V586.9z"/>
			<path d="M406.7,590.9v-4.1h-4.1v-20.3h4.1v-4.1H427v4.1h4.1v20.3H427v4.1H406.7z M410.7,586.9h12.1v-20.3h-12.2v20.3H410.7z"/>
			<path d="M435,590.9v-28.5h8.1v4.1h4.1v4.1h4.1v4.1h4.1v-12.2h8.1v28.5h-8.1v-8.1h-4.1v-4.1h-4.1v-4.1h-4.1v16.3L435,590.9
				L435,590.9z"/>
			<path d="M467.6,590.9v-20.3h4.1v-4.1h4.1v-4.1h12.2v4.1h4.1v4.1h4.1v20.3h-8.1v-8.1h-12.2v8.1H467.6z M475.7,578.7h12.2v-8.1
				h-4.1v-4.1h-4.1v4.1h-4.1L475.7,578.7L475.7,578.7z"/>
			<path d="M500,590.9v-28.5h24.4v4.1h4.1v12.2h-8.1v4.1h4.1v4.1h4.1v4.1h-12.2v-4.1h-4.1v-4.1h-4.1v8.1H500z M508.2,578.7h8.1v-4.1
				h4.1v-8.1h-12.2V578.7z"/>
			<path d="M532.6,590.9v-28.5h8.1v4.1h4.1v4.1h4.1v-4.1h4.1v-4.1h8.1v28.5h-8.1v-16.3h-4.1v8.1h-4.1v-8.1h-4.1v16.3H532.6z"/>
			<path d="M577.2,590.9v-12.2h-4.1v-4.1h-4.1v-12.2h8.1v12.2h8.1v-12.2h8.1v12.2h-4.1v4.1h-4.1v12.2L577.2,590.9L577.2,590.9z"/>
		</g>
		<g class="st0">
			<path class="st1" d="M10.8,582.7v-4.1H6.8v-4.1h8.1v4.1h12.2v-8.1H10.8v-4.1H6.8v-8.1h4.1v-4.1h20.3v4.1h4.1v4.1h-8.1v-4.1H14.9
				v8.1h16.3v4.1h4.1v8.1h-4.1v4.1H10.8z"/>
			<path class="st1" d="M39.2,582.7v-20.3h4.1v-4.1h4.1v-4.1h12.2v4.1h4.1v4.1h4.1v20.3h-8.1v-8.1H47.3v8.1H39.2z M47.3,570.5h12.2
				v-8.1h-4.1v-4.1h-4.1v4.1h-4.1V570.5z"/>
			<path class="st1" d="M71.8,582.7v-28.5h28.5v4.1H79.9v8.1h16.3v4.1H79.9v12.2H71.8z"/>
			<path class="st1" d="M108.3,582.7v-4.1h-4.1v-24.4h8.1v24.4h12.2v-24.4h8.1v24.4h-4.1v4.1H108.3z"/>
			<path class="st1" d="M149,582.7v-12.2h-4.1v-4.1h-4.1v-12.2h8.1v12.2h8.1v-12.2h8.1v12.2h-4.1v4.1h-4.1v12.2H149z"/>
			<path class="st1" d="M173.3,582.7v-4.1h8.1v-20.3h-8.1v-4.1h24.4v4.1h-8.1v20.3h8.1v4.1H173.3z"/>
			<path class="st1" d="M201.7,582.7v-28.5h28.5v4.1h-20.3v8.1h16.3v4.1h-16.3v8.1h20.3v4.1L201.7,582.7L201.7,582.7z"/>
			<path class="st1" d="M238.4,582.7v-28.5h8.1v24.4h16.3v4.1H238.4z"/>
			<path class="st1" d="M266.7,582.7v-28.5h20.3v4.1h4.1v4.1h4.1v12.2h-4.1v4.1h-4.1v4.1H266.7z M274.9,578.6h8.1v-4.1h4.1v-12.2
				H283v-4.1h-8.1V578.6z"/>
			<path class="st1" d="M331.7,582.7v-28.5h8.1v4.1h4.1v4.1h4.1v-4.1h4.1v-4.1h8.1v28.5h-8.1v-16.3H348v8.1h-4.1v-8.1h-4.1v16.3
				H331.7z"/>
			<path class="st1" d="M368.3,582.7v-4.1h-4.1v-20.3h4.1v-4.1h20.3v4.1h4.1v20.3h-4.2v4.1H368.3z M372.4,578.6h12.2v-20.3h-12.2
				V578.6z"/>
			<path class="st1" d="M400.8,582.7v-4.1h-4.1v-20.3h4.1v-4.1h20.3v4.1h4.1v20.3h-4.1v4.1H400.8z M404.8,578.6h12.2v-20.3h-12.2
				V578.6z"/>
			<path class="st1" d="M429.3,582.7v-28.5h8.1v4.1h4.1v4.1h4.1v4.1h4.1v-12.2h8.1v28.5h-8.1v-8.1h-4.1v-4.1h-4.1v-4.1h-4.1v16.3
				H429.3z"/>
			<path class="st1" d="M461.8,582.7v-20.3h4.1v-4.1h4.1v-4.1h12.2v4.1h4.1v4.1h4.1v20.3h-8.1v-8.1h-12.2v8.1H461.8z M469.8,570.5
				H482v-8.1H478v-4.1h-4.1v4.1h-4.1L469.8,570.5L469.8,570.5z"/>
			<path class="st1" d="M494.2,582.7v-28.5h24.4v4.1h4.1v12.2h-8.1v4.1h4.1v4.1h4.1v4.1h-12.2v-4.1h-4.1v-4.1h-4.1v8.1H494.2z
				 M502.4,570.5h8.1v-4.1h4.1v-8.1h-12.2V570.5z"/>
			<path class="st1" d="M526.8,582.7v-28.5h8.1v4.1h4.1v4.1h4.1v-4.1h4.1v-4.1h8.1v28.5H547v-16.3H543v8.1h-4.1v-8.1h-4.1v16.3
				H526.8z"/>
			<path class="st1" d="M571.4,582.7v-12.2h-4.1v-4.1h-4.1v-12.2h8.1v12.2h8.1v-12.2h8.1v12.2h-4.1v4.1h-4.1v12.2H571.4z"/>
		</g>
	</g>
</g>
<g>
	<g>
		<g>
			<path class="st2" d="M300,9.4C158.3,9.4,43.5,124.2,43.5,265.9S158.3,522.4,300,522.4s256.5-114.8,256.5-256.5S441.7,9.4,300,9.4
				z M300,467.6c-111.4,0-201.7-90.3-201.7-201.7c0-111.4,90.3-201.7,201.7-201.7c111.4,0,201.7,90.3,201.7,201.7
				C501.7,377.3,411.5,467.6,300,467.6z"/>
		</g>
	</g>
	<g>
		<g>
			<circle class="st2" cx="300" cy="265.9" r="188"/>
		</g>
		<g>
			<path class="st1" d="M421.4,331.1c-2.6-0.4-5.1-0.2-7.4,0.5c-2,0.6-4.3,0.2-5.8-1.3l-26.7-26.6c-0.5-0.5-1-1.1-1.3-1.6L342.2,245
				c-0.6-1-0.5-2.3,0.3-3.1l4.5-4.5l31.7-31.7c1.5-1.5,3.8-1.9,5.8-1.2c2.6,0.9,5.4,1.1,8.4,0.4c6.3-1.3,11.2-6.6,12.2-12.8
				c1.8-10.8-7.5-20-18.3-18.3c-6.6,1.1-11.9,6.4-12.9,12.9c-0.4,2.6-0.3,5.1,0.4,7.3c0.6,2,0.2,4.2-1.3,5.7l-30.7,30.7l-4.2,4.1
				c-1,1-2.5,0.8-3.2-0.4l-29-43.5c-1.2-1.8-1.8-3.8-1.8-5.8v-34.6c0-2.2,1.2-4.2,3.2-5.1c5.8-3.1,9.6-9.7,8.2-16.9
				c-1.2-6.4-6.2-11.4-12.6-12.7c-10-1.9-18.9,5.8-18.9,15.5c0,6.1,3.5,11.3,8.5,14c1.9,1,3.2,3,3.2,5.1v34.6c0,2.1-0.6,4.2-1.8,5.8
				L265.1,234c-0.7,1.1-2.3,1.2-3.2,0.4l-34.8-34.8c-1.5-1.5-1.9-3.6-1.3-5.7c0.7-2.2,0.9-4.7,0.4-7.3c-1.1-6.6-6.4-11.9-12.9-12.9
				c-10.8-1.8-20,7.4-18.3,18.3c1,6.3,5.9,11.5,12.2,12.8c3,0.6,5.8,0.4,8.4-0.4c2-0.7,4.3-0.3,5.8,1.2l71.9,71.9
				c1.7,1.7,2.6,3.9,2.6,6.2v17.6h-62.4c-1.4,0-2.3-1.6-1.5-2.7l26.3-39.4c0.9-1.3,1.1-3.2,0.3-4.5c-1.7-2.7-5.4-2.7-7-0.2L220,302
				c-0.4,0.6-0.8,1.2-1.3,1.6L192,330.3c-1.5,1.5-3.7,1.9-5.8,1.3c-2.3-0.7-4.8-1-7.4-0.5c-6.6,1.1-12,6.4-13,13
				c-1.7,10.7,7.4,19.9,18.3,18.3c6.6-1.1,12-6.4,13-13c0.4-2.6,0.2-5.1-0.5-7.4c-0.6-2-0.2-4.3,1.3-5.8l23.4-23.4
				c1.9-1.9,4.7-3.1,7.4-3.1h67.3v35c0,2.1-1.2,4-3,5c-2,1.1-3.8,2.6-5.2,4.3c-2.1,2.7-3.4,6.1-3.4,9.8c0.1,8.4,7,15.5,15.4,15.8
				c8.9,0.3,16.3-6.9,16.3-15.9c0-3.7-1.2-7.1-3.4-9.7c-1.4-1.8-3.2-3.3-5.2-4.3c-1.9-1-3-2.8-3-5v-61c0-2.3,0.9-4.5,2.6-6.2
				l5.8-5.8l14.1-14.1c1.2-1.2,1.8-3.2,1-4.8c-1.2-2.7-4.7-3.3-6.7-1.2L301.9,271c-0.8,0.8-2.1,0.8-3,0l-27.5-27.5
				c-0.8-0.8-1-2.1-0.3-3.1l27.8-41.6c0.7-1.1,2.2-1.1,2.9,0l66.5,99.8c0.8,1.2-0.1,2.7-1.5,2.7h-49.7c-1.9,0-3.8,1.2-4.3,3.1
				c-0.6,2.7,1.4,5.1,4,5.1h54.9c2.8,0,5.5,1.2,7.4,3.1l23.4,23.4c1.5,1.5,1.9,3.7,1.3,5.8c-0.7,2.3-1,4.8-0.5,7.4
				c1.1,6.6,6.4,12,13,13c10.7,1.7,19.9-7.4,18.3-18.3C433.3,337.5,428,332.2,421.4,331.1L421.4,331.1z M387.5,182
				c5.8-1.5,10.8,3.6,9.3,9.3c-0.7,2.5-2.7,4.5-5.2,5.2c-5.8,1.5-10.8-3.5-9.3-9.3C383,184.7,385.1,182.7,387.5,182L387.5,182z
				 M212.6,196.6c-5.8,1.5-10.8-3.5-9.3-9.3c0.7-2.5,2.7-4.5,5.2-5.2c5.8-1.5,10.8,3.5,9.3,9.3C217.2,193.9,215.1,196,212.6,196.6
				L212.6,196.6z M183.3,354c-5.8,1.5-10.8-3.5-9.3-9.3c0.7-2.5,2.7-4.5,5.2-5.2c5.8-1.5,10.8,3.5,9.3,9.3
				C187.8,351.3,185.8,353.3,183.3,354L183.3,354z M306.7,360.3c0.5,1.1,0.8,2.2,0.8,3.4c0,4.5-4,8.1-8.6,7.4
				c-2.4-0.4-4.5-1.9-5.7-4.1c-1.2-2.4-1-4.8,0-6.8c1.2-2.5,3.8-4.2,6.7-4.2C302.9,356.3,305.5,357.9,306.7,360.3L306.7,360.3z
				 M292.7,133.1c-1.5-5.8,3.5-10.8,9.3-9.3c2.5,0.7,4.5,2.7,5.2,5.2c1.5,5.8-3.5,10.8-9.3,9.3C295.5,137.6,293.4,135.6,292.7,133.1
				L292.7,133.1z M420.9,354c-5.8,1.5-10.8-3.5-9.3-9.3c0.7-2.5,2.7-4.5,5.2-5.2c5.8-1.5,10.8,3.5,9.3,9.3
				C425.4,351.3,423.3,353.3,420.9,354"/>
		</g>
		<g>
			<g>
				<g>
					<path class="st3" d="M300,84.3c-46.6,0-89.1,17.6-121.3,46.6c-0.2,0.2-0.4,0.4-0.7,0.5l0,0c-36.5,33.3-59.5,81.2-59.5,134.4
						c0,55.3,24.9,104.9,64,138.2c0.1,0.1,0.2,0.1,0.3,0.2c0.8,0.7,1.7,1.4,2.5,2c0.4,0.4,0.9,0.7,1.4,1.2c0.7,0.6,1.5,1.2,2.3,1.8
						l0.1,0.1c15.3,11.9,32.7,21.4,51.4,27.9c18.7,6.6,38.8,10.1,59.7,10.1c100.1,0,181.5-81.4,181.5-181.5S400.1,84.3,300,84.3z
						 M465.1,221.9h-12.5c-1.4,0-2.2-1.6-1.5-2.7l8.9-13.3C461.9,211,463.6,216.4,465.1,221.9z M141,203.4l10.5,15.7
						c0.8,1.2-0.1,2.7-1.5,2.7h-15.1C136.6,215.6,138.7,209.4,141,203.4z M233.7,423.3l14.8-22.2c0.7-1.1,2.2-1.1,2.9,0l22.3,33.5
						C259.8,432.5,246.4,428.6,233.7,423.3z M247.9,340.6c-2.5-0.7-4.5-2.7-5.2-5.2c-1.5-5.8,3.5-10.8,9.3-9.3
						c2.5,0.7,4.5,2.7,5.2,5.2C258.7,336.9,253.7,342.1,247.9,340.6z M449.7,302.3c-2.5-0.6-4.5-2.7-5.2-5.2
						c-1.5-5.8,3.5-10.8,9.3-9.3c2.5,0.7,4.5,2.7,5.2,5.2C460.5,298.7,455.5,303.8,449.7,302.3z M455.9,314.2c0-2.2,1.2-4.2,3.2-5.1
						c5.8-3.1,9.6-9.7,8.2-16.9c-1.2-6.3-6.2-11.4-12.6-12.7c-10-1.9-18.9,5.8-18.9,15.5c0,6.1,3.5,11.3,8.5,14c1.9,1,3.2,3,3.2,5.1
						v34.6c0,2.1-0.6,4.2-1.8,5.8l-8,12c-7.9,10.7-16.9,20.5-27,29.1l-32.1-32.1c-1.5-1.5-1.9-3.7-1.3-5.7c0.7-2.2,0.9-4.7,0.4-7.3
						c-1.1-6.6-6.4-11.8-12.9-12.9c-10.8-1.8-20,7.4-18.3,18.3c1,6.3,5.9,11.5,12.2,12.8c3,0.6,5.8,0.4,8.4-0.4
						c2-0.7,4.3-0.3,5.8,1.2l31.3,31.3c-28.9,22.4-65.1,35.7-104.4,35.7h-0.2l28.9-28.9c1.5-1.5,3.8-1.9,5.8-1.2
						c2.6,0.9,5.4,1.1,8.4,0.4c6.3-1.3,11.2-6.6,12.2-12.8c1.8-10.8-7.5-20-18.3-18.3c-6.6,1.1-11.8,6.4-12.9,12.9
						c-0.4,2.6-0.3,5.1,0.4,7.3c0.6,2,0.2,4.2-1.3,5.7l-34.6,34.6c-1.3-0.1-2.7-0.2-3.9-0.4L256,392.8c-1.2-1.8-1.8-3.8-1.8-5.8
						v-34.6c0-2.2,1.2-4.2,3.2-5.1c5.8-3.1,9.6-9.7,8.2-16.9c-1.2-6.4-6.2-11.4-12.6-12.7c-10.1-1.9-18.9,5.8-18.9,15.5
						c0,6.1,3.5,11.3,8.5,14c1.9,1,3.2,3,3.2,5.1v34.6c0,2.1-0.6,4.2-1.8,5.8l-18,26.9c-10.5-5.1-20.3-11.2-29.4-18.1l0.6-0.6
						c1.5-1.5,3.8-1.9,5.8-1.2c2.6,0.9,5.4,1.1,8.4,0.4c6.3-1.3,11.2-6.6,12.1-12.8c1.8-10.8-7.5-20-18.3-18.3
						c-6.6,1.1-11.9,6.4-12.9,12.9c-0.4,2.6-0.3,5,0.4,7.3c0.6,2,0.2,4.2-1.3,5.7l-1.4,1.4c-21.7-18.3-38.9-41.9-49.4-68.8
						l13.2-13.2c1.5-1.5,3.8-1.9,5.8-1.2c2.6,0.9,5.4,1.1,8.4,0.4c6.3-1.3,11.2-6.6,12.2-12.8c1.8-10.8-7.5-20-18.3-18.3
						c-6.6,1.1-11.8,6.4-12.9,12.9c-0.4,2.6-0.3,5,0.4,7.3c0.6,2,0.2,4.2-1.3,5.7l-10.6,10.6c-5.5-16.7-8.5-34.6-8.5-53.1
						c0-12.2,1.3-24.2,3.7-35.7h22.1c2.8,0,5.5,1.2,7.5,3.1l23.4,23.4c1.5,1.5,1.9,3.7,1.3,5.8c-0.7,2.3-1,4.8-0.5,7.4
						c1.1,6.6,6.4,12,13,13c10.7,1.7,19.9-7.4,18.3-18.3c-1.1-6.6-6.4-12-13-13c-2.6-0.4-5.1-0.2-7.4,0.5c-2,0.6-4.3,0.2-5.8-1.3
						L165.3,224c-0.5-0.5-1-1.1-1.3-1.6l-18.9-28.3c9.7-21.1,23.7-39.8,40.7-55.1l0.6,0.6c1.5,1.5,1.9,3.7,1.3,5.8
						c-0.7,2.3-1,4.8-0.5,7.4c1.1,6.6,6.4,12,13,13c10.7,1.7,19.9-7.4,18.3-18.3c-1.1-6.6-6.4-12-13-13c-2.6-0.4-5.1-0.2-7.4,0.5
						c-2,0.6-4.3,0.2-5.8-1.3l-0.2-0.2c21.4-17.6,47.3-30.1,75.6-35.6l-20.4,20.4c-1.5,1.5-3.7,1.9-5.8,1.3c-2.3-0.7-4.8-1-7.4-0.5
						c-6.6,1.1-12,6.4-13,13c-1.8,10.7,7.4,19.9,18.3,18.3c6.6-1.1,12-6.4,13-13c0.4-2.6,0.2-5.1-0.5-7.4c-0.6-2-0.2-4.3,1.3-5.8
						l23.4-23.4c0.4-0.4,0.9-0.8,1.4-1.2c0.6-0.4,1.2-0.8,1.9-1.1c0.1,0,0.1-0.1,0.2-0.1c4.2-2,10.1-3.6,18.3-3.6
						c22.1,0,33.1,2.8,33.1,2.8c6.7,1.2,13.4,2.9,19.8,5v30.1c0,2-1.2,4-3,5c-2,1.1-3.8,2.6-5.2,4.3c-2.1,2.7-3.4,6.1-3.4,9.8
						c0.1,8.4,7,15.5,15.4,15.8c8.9,0.3,16.3-6.9,16.3-15.9c0-3.7-1.2-7.1-3.4-9.7c-1.4-1.8-3.2-3.3-5.2-4.3c-1.9-1-3-2.8-3-5v-27.2
						c34.4,12.8,63.5,36.3,83.4,66.5l-8.6,8.6c-1.5,1.5-3.7,1.9-5.8,1.3c-2.3-0.7-4.8-1-7.4-0.5c-6.6,1.1-12,6.4-13,13
						c-1.7,10.7,7.4,19.9,18.3,18.3c6.6-1.1,12-6.4,13-13c0.4-2.7,0.2-5.1-0.5-7.4c-0.6-2-0.2-4.3,1.3-5.8l7.3-7.3
						c3.3,5.5,6.2,11.2,8.8,17.1l-17.3,26c-0.4,0.6-0.8,1.2-1.3,1.6l-27.3,26.8c-1.5,1.5-3.7,1.9-5.8,1.3c-2.3-0.7-4.8-1-7.4-0.5
						c-6.6,1.1-12,6.4-13,13c-1.7,10.7,7.4,19.9,18.3,18.3c6.6-1.1,12-6.4,13-13c0.4-2.7,0.2-5.1-0.5-7.4c-0.6-2-0.2-4.3,1.3-5.8
						l23.4-23.4c1.9-1.9,4.7-3.1,7.4-3.1h19.5c2.5,11.5,3.7,23.5,3.7,35.7c0,24.8-5.3,48.5-14.9,69.7L455.9,314.2L455.9,314.2z
						 M369.6,355.5c-0.7,2.5-2.7,4.5-5.2,5.2c-5.8,1.5-10.8-3.5-9.3-9.3c0.7-2.5,2.7-4.5,5.2-5.2C366,344.6,371.1,349.7,369.6,355.5
						z M332.3,389.5c0.6-2.5,2.7-4.5,5.2-5.2c5.8-1.5,10.8,3.5,9.3,9.3c-0.7,2.5-2.7,4.5-5.2,5.2
						C335.8,400.4,330.7,395.2,332.3,389.5z M200.8,382.7c0.7-2.5,2.7-4.5,5.2-5.2c5.8-1.5,10.8,3.6,9.3,9.3
						c-0.7,2.5-2.7,4.5-5.2,5.2C204.4,393.6,199.3,388.5,200.8,382.7z M157.5,296.1c0.7-2.5,2.7-4.5,5.2-5.2
						c5.8-1.5,10.8,3.5,9.3,9.3c-0.7,2.5-2.7,4.5-5.2,5.2C161.1,306.9,156,301.8,157.5,296.1z M195,265.2c0.6-2.5,2.7-4.5,5.2-5.2
						c5.8-1.5,10.8,3.5,9.3,9.3c-0.7,2.5-2.7,4.5-5.2,5.2C198.6,276,193.5,270.8,195,265.2z M195.4,148.2c0.7-2.5,2.7-4.5,5.2-5.2
						c5.8-1.5,10.8,3.5,9.3,9.3c-0.7,2.5-2.7,4.5-5.2,5.2C198.9,159.1,193.9,154,195.4,148.2z M243.8,137.1
						c-0.7,2.5-2.7,4.5-5.2,5.2c-5.8,1.5-10.8-3.6-9.3-9.3c0.7-2.5,2.7-4.5,5.2-5.2C240.3,126.2,245.3,131.3,243.8,137.1z
						 M355.3,144.5c2.9,0,5.5,1.7,6.7,4.2c0.5,1.1,0.8,2.2,0.8,3.4c0,4.5-4,8.1-8.6,7.4c-2.4-0.4-4.5-1.9-5.7-4.1
						c-1.2-2.4-1-4.8,0-6.8C349.9,146.2,352.4,144.5,355.3,144.5z M431,199.3c-0.7,2.5-2.7,4.5-5.2,5.2c-5.8,1.5-10.8-3.5-9.3-9.3
						c0.7-2.5,2.7-4.5,5.2-5.2C427.4,188.5,432.5,193.6,431,199.3z M407.7,269.2c-0.7,2.5-2.7,4.5-5.2,5.2
						c-5.8,1.5-10.8-3.5-9.3-9.3c0.7-2.5,2.7-4.5,5.2-5.2C404,258.4,409.2,263.5,407.7,269.2z"/>
				</g>
			</g>
			<g>
				<g>
					<path class="st3" d="M190.1,235.2L190.1,235.2c-5.8,1.5-10.8-3.5-9.3-9.3c0.7-2.5,2.7-4.5,5.2-5.2c5.8-1.5,10.8,3.5,9.3,9.3
						C194.7,232.6,192.6,234.6,190.1,235.2"/>
				</g>
			</g>
			<g>
				<g>
					<path class="st3" d="M231.1,171.8L231.1,171.8c-5.8,1.5-10.8-3.5-9.3-9.3c0.7-2.5,2.7-4.5,5.2-5.2c5.8-1.5,10.8,3.5,9.3,9.3
						C235.7,169,233.6,171.1,231.1,171.8"/>
				</g>
			</g>
			<g>
				<g>
					<path class="st3" d="M175.1,220.2L175.1,220.2c-5.8,1.5-10.8-3.5-9.3-9.3c0.7-2.5,2.7-4.5,5.2-5.2c5.8-1.5,10.8,3.5,9.3,9.3
						C179.6,217.5,177.6,219.5,175.1,220.2"/>
				</g>
			</g>
			<g>
				<g>
					<path class="st3" d="M336.1,369L336.1,369c-5.8,1.5-10.8-3.5-9.3-9.3c0.7-2.5,2.7-4.5,5.2-5.2c5.8-1.5,10.8,3.5,9.3,9.3
						C340.7,366.4,338.6,368.4,336.1,369"/>
				</g>
			</g>
			<g>
				<g>
					<path class="st3" d="M448.8,254.6L448.8,254.6c-5.8,1.5-10.8-3.5-9.3-9.3c0.7-2.5,2.7-4.5,5.2-5.2c5.8-1.5,10.8,3.5,9.3,9.3
						C453.4,252,451.3,253.9,448.8,254.6"/>
				</g>
			</g>
			<g>
				<g>
					<path class="st3" d="M433.3,268.5L433.3,268.5c-5.8,1.5-10.8-3.5-9.3-9.3c0.7-2.5,2.7-4.5,5.2-5.2c5.8-1.5,10.8,3.5,9.3,9.3
						C437.9,265.8,435.8,267.8,433.3,268.5"/>
				</g>
			</g>
			<g>
				<g>
					<path class="st3" d="M340.1,118.9L340.1,118.9c-5.8,1.5-10.8-3.5-9.3-9.3c0.7-2.5,2.7-4.5,5.2-5.2c5.8-1.5,10.8,3.5,9.3,9.3
						C344.7,116.1,342.6,118.2,340.1,118.9"/>
				</g>
			</g>
			<g>
				<g>
					<path class="st3" d="M341.6,219.9L341.6,219.9c-5.8,1.5-10.8-3.5-9.3-9.3c0.7-2.5,2.7-4.5,5.2-5.2c5.8-1.5,10.8,3.5,9.3,9.3
						C346.1,217.2,344,219.3,341.6,219.9"/>
				</g>
			</g>
			<g>
				<g>
					<path class="st3" d="M357.4,199.4L357.4,199.4c-5.8,1.5-10.8-3.5-9.3-9.3c0.7-2.5,2.7-4.5,5.2-5.2c5.8-1.5,10.8,3.5,9.3,9.3
						C361.9,196.7,359.9,198.7,357.4,199.4"/>
				</g>
			</g>
			<g>
				<g>
					<path class="st3" d="M212.6,360.7L212.6,360.7c-5.8,1.5-10.8-3.5-9.3-9.3c0.7-2.5,2.7-4.5,5.2-5.2c5.8-1.5,10.8,3.5,9.3,9.3
						C217.2,357.9,215.1,360,212.6,360.7"/>
				</g>
			</g>
			<g>
				<g>
					<path class="st3" d="M153.9,275.4L153.9,275.4c-5.8,1.5-10.8-3.5-9.3-9.3c0.7-2.5,2.7-4.5,5.2-5.2c5.8-1.5,10.8,3.5,9.3,9.3
						C158.4,272.7,156.4,274.7,153.9,275.4"/>
				</g>
			</g>
			<g>
				<g>
					<path class="st3" d="M153.9,254.3L153.9,254.3c-5.8,1.5-10.8-3.5-9.3-9.3c0.7-2.5,2.7-4.5,5.2-5.2c5.8-1.5,10.8,3.5,9.3,9.3
						C158.4,251.6,156.4,253.7,153.9,254.3"/>
				</g>
			</g>
			<g>
				<g>
					<path class="st3" d="M369.4,391.3L369.4,391.3c-5.8,1.5-10.8-3.5-9.3-9.3c0.7-2.5,2.7-4.5,5.2-5.2c5.8-1.5,10.8,3.5,9.3,9.3
						C373.9,388.6,371.9,390.6,369.4,391.3"/>
				</g>
			</g>
			<g>
				<g>
					<path class="st3" d="M391.6,360.7L391.6,360.7c-5.8,1.5-10.8-3.5-9.3-9.3c0.7-2.5,2.7-4.5,5.2-5.2c5.8-1.5,10.8,3.5,9.3,9.3
						C396.2,357.9,394.2,360,391.6,360.7"/>
				</g>
			</g>
			<g>
				<g>
					<path class="st3" d="M384.1,403.5L384.1,403.5c-5.8,1.5-10.8-3.5-9.3-9.3c0.7-2.5,2.7-4.5,5.2-5.2c5.8-1.5,10.8,3.5,9.3,9.3
						C388.6,400.8,386.7,402.9,384.1,403.5"/>
				</g>
			</g>
			<g>
				<g>
					<path class="st3" d="M290.3,424.7L290.3,424.7c-5.8,1.5-10.8-3.5-9.3-9.3c0.7-2.5,2.7-4.5,5.2-5.2c5.8-1.5,10.8,3.5,9.3,9.3
						C294.9,422.1,292.8,424.1,290.3,424.7"/>
				</g>
			</g>
			<g>
				<g>
					<path class="st3" d="M322.4,118.9L322.4,118.9c-5.8,1.5-10.8-3.5-9.3-9.3c0.7-2.5,2.7-4.5,5.2-5.2c5.8-1.5,10.8,3.5,9.3,9.3
						C326.9,116.1,324.9,118.2,322.4,118.9"/>
				</g>
			</g>
			<g>
				<rect x="123.1" y="242.9" class="st3" width="23.8" height="8.3"/>
			</g>
			<g>
				<rect x="447.4" y="243.2" class="st3" width="23.8" height="8.3"/>
			</g>
			<g>
				<rect x="377.9" y="398.1" class="st3" width="8.3" height="23.8"/>
			</g>
			<g>
				<path class="st3" d="M335.4,205.8v-15.5c0-2.3,1.9-4.2,4.2-4.2l0,0c2.3,0,4.2,1.9,4.2,4.2v15.5c0,2.3-1.9,4.2-4.2,4.2l0,0
					C337.2,210,335.4,208.1,335.4,205.8z"/>
			</g>
			<g>
				<path class="st3" d="M203.3,232.1h-15.5c-2.3,0-4.2-1.9-4.2-4.2l0,0c0-2.3,1.9-4.2,4.2-4.2h15.5c2.3,0,4.2,1.9,4.2,4.2l0,0
					C207.5,230.3,205.6,232.1,203.3,232.1z"/>
			</g>
			<g>
				<path class="st3" d="M271.6,168.7h-38.5c-2.3,0-4.2-1.9-4.2-4.2l0,0c0-2.3,1.9-4.2,4.2-4.2h38.5c2.3,0,4.2,1.9,4.2,4.2l0,0
					C275.8,166.8,274,168.7,271.6,168.7z"/>
			</g>
			<g>
				<path class="st3" d="M427.1,282.5v-15.5c0-2.3,1.9-4.2,4.2-4.2l0,0c2.3,0,4.2,1.9,4.2,4.2v15.5c0,2.3-1.9,4.2-4.2,4.2l0,0
					C428.9,286.6,427.1,284.8,427.1,282.5z"/>
			</g>
			<g>
				<path class="st3" d="M283.5,410.9v-15.5c0-2.3,1.9-4.2,4.2-4.2l0,0c2.3,0,4.2,1.9,4.2,4.2v15.5c0,2.3-1.9,4.2-4.2,4.2l0,0
					C285.4,415.1,283.5,413.2,283.5,410.9z"/>
			</g>
			<g>
				<rect x="168.9" y="142.5" class="st3" width="8.3" height="68.8"/>
			</g>
			<g>
				<rect x="316.2" y="89" class="st3" width="8.3" height="25"/>
			</g>
		</g>
	</g>
	<g>
		<path class="st4" d="M87.5,273.4l-4.4-0.1l-0.1,4.4l-4.4-0.1l0.3-8.9l4.4,0.1l0.4-13.4l-8.9-0.3l-0.5,17.9l-4.4-0.1l-0.1,4.4
			l-8.9-0.3l0.1-4.4l-4.4-0.1l0.6-22.3l4.4,0.1l0.1-4.4l4.4,0.1l-0.3,8.9l-4.4-0.1l-0.4,13.4l8.9,0.3l0.4-17.8l4.4,0.1l0.1-4.4
			l8.9,0.3l-0.1,4.4l4.4,0.1L87.5,273.4z"/>
		<path class="st4" d="M88.3,242.8l-21.9-4.3l0.9-4.3l-4.3-0.9l0.9-4.3l-4.3-0.9l2.6-13.1l4.3,0.9l0.9-4.3l4.3,0.9l0.9-4.3l21.9,4.3
			l-1.7,8.8l-8.8-1.7l-2.7,12.9L90,234L88.3,242.8z M76.9,231.4l2.6-13.1l-8.8-1.7l-0.9,4.3l-4.3-0.9l-0.9,4.3l4.3,0.9l-0.9,4.3
			L76.9,231.4z"/>
		<path class="st4" d="M95.1,207.9l-29.2-11l11-29.2l4.2,1.6l-7.9,20.9l8.3,3.1l6.3-16.7l4.2,1.6l-6.2,16.7l12.5,4.7L95.1,207.9z"/>
		<path class="st4" d="M109.7,171l-3.9-2.2l-2.2,3.9l-23.1-13.5l4.5-7.7l23.1,13.5l6.7-11.6l-23.1-13.5l4.5-7.7l23.1,13.5l-2.2,3.9
			l3.9,2.2L109.7,171z"/>
		<path class="st4" d="M133.7,134.1l-10.3-8.5l-2.8,3.5l-3.5-2.8l-2.8,3.5l-10.3-8.5l5.7-6.9l10.3,8.5l5.7-6.9l-10.3-8.5l5.7-6.9
			l10.3,8.5l-2.8,3.5l3.5,2.8l-2.8,3.5l10.3,8.5L133.7,134.1z"/>
		<path class="st4" d="M151.1,114.2l-2.9-3.4l6.7-5.8l-14.6-16.8l-6.7,5.8l-2.9-3.4l20.2-17.5l2.9,3.4l-6.7,5.8l14.6,16.8l6.7-5.8
			l2.9,3.4L151.1,114.2z"/>
		<path class="st4" d="M174.4,94l-16.3-26.7L184.7,51l2.3,3.8l-19,11.7l4.6,7.6l15.2-9.3l2.3,3.8L175,78l4.6,7.6l19-11.6l2.3,3.8
			L174.4,94z"/>
		<path class="st4" d="M208.6,73.9l-11.6-29l8.2-3.4l10,24.8l16.6-6.6l1.7,4.2L208.6,73.9z"/>
		<path class="st4" d="M237.3,62.4l-6.6-30.5l21.8-4.8l1,4.3l4.3-1l1,4.3l4.3-1l2.8,13.1l-4.3,1l1,4.3l-4.3,1l1,4.3L237.3,62.4z
			 M245,56.1l8.7-1.9l-1-4.3l4.3-1l-2.8-13.1l-4.3,1l-1-4.3l-8.7,1.9L245,56.1z"/>
		<path class="st4" d="M307,53.1l3.6-31l8.9,1.1l-0.5,4.4l4.4,0.5l-0.5,4.4l4.4,0.5l0.5-4.4l4.4,0.5l0.5-4.4l8.9,1.1l-3.6,31
			l-8.9-1.1l2-17.7l-4.4-0.5l-1.1,8.9l-4.4-0.5l1.1-8.9l-4.4-0.5l-2,17.7L307,53.1z"/>
		<path class="st4" d="M346.3,58.4l1.2-4.3l-4.3-1.2l6.2-21.4l4.3,1.2l1.2-4.3l21.4,6.2l-1.2,4.3l4.3,1.2l-6.2,21.4l-4.3-1.2
			l-1.2,4.3L346.3,58.4z M351.9,55.3l12.8,3.7l6.2-21.4l-12.8-3.7L351.9,55.3z"/>
		<path class="st4" d="M380.1,68.9l1.9-4l-4-1.9l9.7-20.1l4,1.9l1.9-4l20.1,9.7l-1.9,4l4,1.9l-9.7,20.1l-4-1.9l-1.9,4L380.1,68.9z
			 M386,66.8l12,5.8l9.7-20.1l-12-5.8L386,66.8z"/>
		<path class="st4" d="M407.9,82.3l18-25.5l7.3,5.1l-2.6,3.6l3.6,2.6l-2.6,3.6l3.6,2.6l-2.6,3.6l3.6,2.6l7.7-10.9l7.3,5.1
			l-18.1,25.5l-7.3-5.1l5.1-7.3l-3.6-2.6l2.6-3.6l-3.6-2.6l2.6-3.6l-3.6-2.6l-10.3,14.5L407.9,82.3z"/>
		<path class="st4" d="M436.7,102.6l15.7-15.9l3.2,3.1l3.1-3.2l3.2,3.1l3.1-3.2l9.5,9.4l-3.1,3.2l3.2,3.1l-3.1,3.2l3.2,3.1l-15.8,16
			l-6.4-6.3l6.3-6.4l-9.5-9.4l-6.3,6.4L436.7,102.6z M452.5,99.4l9.5,9.4l6.3-6.4l-3.2-3.1l3.1-3.2L465,93l-3.1,3.2l-3.2-3.1
			L452.5,99.4z"/>
		<path class="st4" d="M461.8,127.4l25.3-18.3l15.7,21.7l-3.6,2.6l2.6,3.6l-10.9,7.8l-5.2-7.3l-3.6,2.6l2.6,3.6l-3.6,2.6l2.6,3.6
			l-3.6,2.6l-7.8-10.9l3.6-2.6l-2.6-3.6l3.6-2.6l-2.6-3.6l-7.3,5.2L461.8,127.4z M477.8,126.8l5.2,7.3l3.6-2.6l2.6,3.6l7.3-5.2
			l-7.8-10.9L477.8,126.8z"/>
		<path class="st4" d="M482.5,156.2l28-13.8l4,8l-4,1.9l1.9,4l-4,1.9l1.9,4l4-1.9l1.9,4l4-1.9l4,8l-28,13.8l-4-8l16-7.9l-1.9-4l-8,4
			l-1.9-4l8-4l-1.9-4l-16,7.9L482.5,156.2z"/>
		<path class="st4" d="M502,200.6l12.8-3.8l-1.2-4.3l4.3-1.2l-1.2-4.3l12.8-3.8l2.6,8.5l-12.8,3.8l2.6,8.5l12.8-3.8l2.6,8.5
			l-12.8,3.8l-1.2-4.3l-4.3,1.2l-1.2-4.3l-12.8,3.8L502,200.6z"/>
		<path class="st4" d="M512.6,261l4.4,0.2l0.2-4.4l4.4,0.2l-0.4,8.9l-4.4-0.2l-0.5,13.4l8.9,0.4l0.7-17.8l4.4,0.2l0.2-4.4l8.9,0.4
			l-0.2,4.4l4.4,0.2l-0.9,22.3l-4.4-0.2l-0.2,4.4l-4.4-0.2l0.4-8.9l4.4,0.2l0.5-13.4l-8.9-0.4l-0.7,17.8l-4.4-0.2l-0.2,4.4l-8.9-0.4
			l0.2-4.4l-4.4-0.2L512.6,261z"/>
		<path class="st4" d="M511.4,292l21.8,4.5l-0.9,4.3l4.3,0.9l-0.9,4.3l4.3,0.9l-2.7,13.1l-4.3-0.9l-0.9,4.3l-4.3-0.9l-0.9,4.3
			l-21.8-4.5l1.9-8.8l8.8,1.9l2.7-13.1l-8.8-1.9L511.4,292z M522.7,303.4l-2.7,13.1l8.8,1.9l0.9-4.3l4.3,0.9l0.9-4.3l-4.3-0.9
			l0.9-4.3L522.7,303.4z"/>
		<path class="st4" d="M504.2,326.5l29.1,11.3l-11.3,29.1l-4.2-1.6l8.2-20.8l-8.3-3.3l-6.5,16.7l-4.2-1.6l6.5-16.7l-12.5-4.9
			L504.2,326.5z"/>
		<path class="st4" d="M489.1,363.2l3.8,2.3l2.3-3.8l22.9,13.7l-4.6,7.6l-22.9-13.7l-6.9,11.5l22.9,13.7l-4.6,7.6l-22.9-13.7
			l2.3-3.8l-3.8-2.3L489.1,363.2z"/>
		<path class="st4" d="M464.6,399.8l10.2,8.7l2.9-3.4l3.4,2.9l2.9-3.4l10.2,8.7l-5.8,6.8l-10.2-8.7l-5.8,6.8l10.2,8.7l-5.8,6.8
			l-10.2-8.7l2.9-3.4l-3.4-2.9l2.9-3.4l-10.2-8.7L464.6,399.8z"/>
		<path class="st4" d="M446.9,419.5l2.8,3.4l-6.8,5.8l14.4,17l6.8-5.8l2.8,3.5l-20.5,17.3l-2.8-3.5l6.8-5.8l-14.4-17l-6.8,5.8
			l-2.8-3.4L446.9,419.5z"/>
		<path class="st4" d="M423.3,439.5l15.9,26.8l-26.8,15.9l-2.3-3.8l19.2-11.3l-4.5-7.7l-15.3,9.1l-2.3-3.8l15.3-9.1l-4.5-7.7
			l-19.2,11.3l-2.3-3.8L423.3,439.5z"/>
		<path class="st4" d="M388.8,459.1l11.3,29.1l-8.3,3.2l-9.7-25l-16.7,6.4l-1.6-4.2L388.8,459.1z"/>
		<path class="st4" d="M360.1,470.2l6.2,30.6l-21.9,4.4l-0.9-4.3l-4.3,0.9l-0.9-4.3l-4.3,0.9l-2.7-13.1l4.3-0.9l-0.9-4.3l4.3-0.9
			l-0.9-4.3L360.1,470.2z M352.3,476.4l-8.8,1.8l0.9,4.3l-4.3,0.9l2.7,13.1l4.3-0.9l0.9,4.3l8.8-1.8L352.3,476.4z"/>
		<path class="st4" d="M290.2,478.6l-4,31l-8.9-1.2l0.5-4.4l-4.4-0.5l0.5-4.4l-4.4-0.5L269,503l-4.4-0.5l-0.5,4.4l-8.9-1.2l4-31
			l8.9,1.2l-2.3,17.7l4.4,0.5l1.2-8.9l4.4,0.5l-1.2,8.9l4.4,0.5l2.3-17.7L290.2,478.6z"/>
		<path class="st4" d="M250.8,472.8l-1.3,4.3l4.3,1.3l-6.5,21.4l-4.3-1.3l-1.3,4.3l-21.4-6.5l1.3-4.3l-4.3-1.3l6.5-21.4l4.3,1.3
			l1.3-4.3L250.8,472.8z M245.2,475.7l-12.8-3.9l-6.5,21.4l12.8,3.9L245.2,475.7z"/>
		<path class="st4" d="M217.4,461.9l-1.9,4l4,1.9l-9.9,19.9l-4-1.9l-1.9,4l-20.1-9.9l1.9-4l-4-1.9l9.9-19.9l4,1.9l1.9-4L217.4,461.9
			z M211.4,463.8l-12-5.9l-9.9,19.9l12,5.9L211.4,463.8z"/>
		<path class="st4" d="M189.8,448.1l-18.3,25.3l-7.2-5.2l2.7-3.6l-3.6-2.7l2.7-3.6l-3.6-2.7l2.7-3.6l-3.6-2.7l-7.9,10.8l-7.2-5.2
			l18.3-25.3l7.2,5.2l-5.2,7.2l3.6,2.7l-2.7,3.6l3.6,2.7l-2.7,3.6l3.6,2.7l10.5-14.4L189.8,448.1z"/>
		<path class="st4" d="M161.2,427.3l-15.9,15.6l-3.1-3.2l-3.2,3.1l-3.1-3.2l-3.2,3.1l-9.4-9.6l3.2-3.1l-3.1-3.2l3.2-3.1l-3.1-3.2
			l15.9-15.6l6.3,6.4l-6.4,6.3l9.4,9.6l6.4-6.3L161.2,427.3z M145.4,430.3l-9.4-9.6l-6.4,6.3l3.1,3.2l-3.2,3.1l3.1,3.2l3.2-3.1
			l3.1,3.2L145.4,430.3z"/>
		<path class="st4" d="M136.4,402.2L110.8,420l-15.3-21.9l3.6-2.6l-2.6-3.6l11-7.7l5.1,7.3l3.6-2.6l-2.6-3.6l3.6-2.6l-2.6-3.6
			l3.6-2.6l7.7,11l-3.6,2.6l2.6,3.6l-3.6,2.6l2.6,3.6l7.3-5.1L136.4,402.2z M120.3,402.5l-5.1-7.3l-3.6,2.6l-2.6-3.6l-7.3,5.1
			l7.7,11L120.3,402.5z"/>
		<path class="st4" d="M116.2,373.3L88,386.7l-3.8-8.1l4-1.9l-1.9-4l4-1.9l-1.9-4l-4,1.9l-1.9-4l-4,1.9l-3.8-8.1l28.2-13.5l3.8,8.1
			L90.4,361l1.9,4l8.1-3.8l1.9,4l-8.1,3.8l1.9,4l16.1-7.7L116.2,373.3z"/>
		<path class="st4" d="M97.2,328.4l-12.8,3.6l1.2,4.3l-4.3,1.2l1.2,4.3l-12.8,3.6l-2.5-8.6l12.8-3.6l-2.5-8.6l-12.9,3.7l-2.5-8.6
			l12.8-3.6l1.2,4.3l4.3-1.2l1.2,4.3l12.8-3.6L97.2,328.4z"/>
	</g>
</g>
</svg>
