<?xml version="1.0" encoding="utf-8"?>
<!-- Generator: Adobe Illustrator 25.2.1, SVG Export Plug-In . SVG Version: 6.00 Build 0)  -->
<svg version="1.1" id="Capa_1" xmlns="http://www.w3.org/2000/svg" xmlns:xlink="http://www.w3.org/1999/xlink" x="0px" y="0px"
	 viewBox="0 0 600 600" style="enable-background:new 0 0 600 600;" xml:space="preserve">
<style type="text/css">
	.st0{fill:#00AAAA;}
	.st1{fill:#FFFFFF;}
	.st2{fill:#11726B;}
	.st3{enable-background:new    ;}
</style>
<g>
	<g>
		<circle class="st0" cx="300" cy="260.8" r="256.5"/>
		<path class="st1" d="M465.6,349.8c-3.5-0.6-7-0.3-10.1,0.7c-2.8,0.9-5.8,0.3-7.9-1.8l-36.3-36.3c-0.7-0.7-1.3-1.4-1.8-2.2
			l-52-77.9c-0.9-1.3-0.7-3.1,0.4-4.2l6.2-6.2l43.3-43.3c2.1-2.1,5.2-2.7,8-1.7c3.5,1.2,7.4,1.5,11.4,0.6
			c8.5-1.8,15.2-8.9,16.6-17.5c2.4-14.7-10.2-27.3-24.9-24.9c-8.9,1.5-16.1,8.7-17.6,17.6c-0.6,3.5-0.3,6.8,0.6,9.9
			c0.8,2.7,0.2,5.7-1.8,7.7l-41.9,41.9l-5.7,5.7c-1.3,1.3-3.4,1.1-4.4-0.4l-39.6-59.4c-1.6-2.4-2.4-5.2-2.4-8v-47.2
			c0-3,1.7-5.7,4.3-7c8-4.2,13-13.2,11.2-23.1c-1.6-8.7-8.5-15.6-17.1-17.2c-13.7-2.6-25.7,8-25.7,21.2c0,8.3,4.7,15.5,11.6,19.1
			c2.6,1.4,4.3,4.1,4.3,7V150c0,2.8-0.8,5.6-2.4,8l-39.6,59.4c-1,1.5-3.1,1.7-4.4,0.4l-47.5-47.5c-2-2-2.6-5-1.8-7.8
			c0.9-3.1,1.2-6.4,0.6-9.9c-1.5-8.9-8.7-16.1-17.6-17.6c-14.7-2.4-27.3,10.2-24.9,24.9c1.4,8.6,8.1,15.7,16.6,17.5
			c4.1,0.9,7.9,0.6,11.4-0.6c2.8-0.9,5.9-0.4,8,1.7l98.1,98.1c2.2,2.2,3.5,5.3,3.5,8.4v24.3h-85.1c-1.9,0-3.1-2.2-2-3.8l35.8-53.8
			c1.2-1.9,1.5-4.3,0.3-6.2c-2.3-3.7-7.3-3.6-9.6-0.3l-43.2,64.9c-0.5,0.8-1.1,1.5-1.8,2.2l-36.4,36.4c-2.1,2.1-5.1,2.7-7.9,1.8
			c-3.1-1-6.5-1.3-10.1-0.7c-9,1.5-16.3,8.7-17.7,17.7c-2.4,14.7,10.2,27.2,24.8,24.9c9-1.4,16.3-8.7,17.7-17.7
			c0.6-3.6,0.3-7-0.7-10.1c-0.9-2.8-0.3-5.8,1.8-7.9l31.9-31.9c2.7-2.7,6.4-4.2,10.2-4.2h91.9v47.7c0,2.8-1.6,5.4-4.1,6.7
			c-2.8,1.4-5.2,3.5-7.2,5.9c-2.9,3.7-4.6,8.4-4.6,13.4c0.1,11.5,9.5,21.1,21,21.5c12.2,0.3,22.2-9.5,22.2-21.6
			c0-5-1.7-9.7-4.6-13.4c-1.9-2.4-4.4-4.5-7.2-5.9c-2.5-1.3-4.2-3.9-4.2-6.7v-83.1c0-3.2,1.3-6.2,3.5-8.4l7.8-7.8l19.2-19.2
			c1.7-1.7,2.4-4.3,1.4-6.5c-1.7-3.7-6.4-4.5-9.2-1.7l-26.4,26.4c-1.1,1.1-2.9,1.1-4,0l-37.3-37.4c-1.1-1.1-1.3-2.9-0.4-4.2
			l37.9-56.8c1-1.4,3.1-1.4,4,0l90.8,136.1c1.1,1.6-0.1,3.8-2,3.8h-67.9c-2.6,0-5.1,1.7-5.8,4.3c-0.9,3.7,1.9,7.1,5.5,7.1h74.9
			c3.8,0,7.5,1.5,10.2,4.2l31.9,31.9c2.1,2.1,2.7,5.1,1.8,7.9c-1,3.1-1.3,6.5-0.7,10.1c1.5,9,8.7,16.3,17.7,17.7
			c14.7,2.4,27.2-10.2,24.9-24.9C481.8,358.5,474.6,351.2,465.6,349.8L465.6,349.8z M419.4,146.4c7.8-2.1,14.8,4.9,12.7,12.7
			c-0.9,3.4-3.7,6.2-7.1,7.1c-7.8,2.1-14.8-4.9-12.7-12.7C413.2,150.1,415.9,147.3,419.4,146.4L419.4,146.4z M180.8,166.3
			c-7.8,2.1-14.8-4.9-12.7-12.7c0.9-3.4,3.7-6.2,7.1-7.1c7.8-2.1,14.8,4.9,12.7,12.7C187,162.6,184.2,165.4,180.8,166.3L180.8,166.3
			z M140.8,381c-7.8,2.1-14.8-4.9-12.7-12.7c0.9-3.4,3.7-6.2,7.1-7.1c7.8-2.1,14.8,4.9,12.7,12.7C147,377.3,144.2,380.1,140.8,381
			L140.8,381z M309.2,389.7c0.7,1.4,1.1,3,1.1,4.6c0,6.1-5.4,11-11.8,10.2c-3.3-0.5-6.2-2.6-7.7-5.5c-1.6-3.2-1.3-6.6,0-9.3
			c1.7-3.3,5.2-5.7,9.2-5.7C304,384,307.5,386.3,309.2,389.7L309.2,389.7z M290.1,79.6c-2.1-7.8,4.9-14.8,12.7-12.7
			c3.4,0.9,6.2,3.7,7.1,7.1c2.1,7.8-4.9,14.8-12.7,12.7C293.8,85.8,291,83,290.1,79.6L290.1,79.6z M464.8,381
			c-7.8,2.1-14.8-4.9-12.7-12.7c0.9-3.4,3.7-6.2,7.1-7.1c7.8-2.1,14.8,4.9,12.7,12.7C471,377.3,468.2,380.1,464.8,381"/>
		<g>
			<g>
				<g>
					<g>
						<g>
							<path class="st2" d="M300,13.2c-63.6,0-121.6,24-165.5,63.6c-0.3,0.3-0.6,0.5-0.9,0.8l0,0c-49.9,45.3-81.2,110.7-81.2,183.2
								c0,75.4,33.9,143.1,87.3,188.6c0.1,0.1,0.2,0.2,0.3,0.3c1.1,1,2.3,1.9,3.4,2.8c0.6,0.5,1.2,1,1.9,1.5c1,0.8,2.1,1.7,3.1,2.5
								l0.1,0.1c21,16.2,44.6,29.2,70.1,38.1s52.9,13.8,81.4,13.8c136.5,0,247.6-111.1,247.6-247.6S436.5,13.2,300,13.2z
								 M525.1,200.8H508c-1.9,0-3.1-2.2-2-3.8l12.1-18.1C520.8,186,523.2,193.3,525.1,200.8z M83.1,175.6L97.4,197
								c1.1,1.6-0.1,3.8-2,3.8H74.8C77.1,192.2,79.9,183.8,83.1,175.6z M209.5,475.5l20.1-30.2c0.9-1.4,3.1-1.4,4,0l30.5,45.7
								C245.1,488.1,226.8,482.8,209.5,475.5z M228.9,362.6c-3.4-0.9-6.2-3.7-7.1-7.1c-2.1-7.8,4.9-14.8,12.7-12.7
								c3.4,0.9,6.2,3.7,7.1,7.1C243.7,357.7,236.7,364.7,228.9,362.6z M504.2,310.4c-3.4-0.9-6.2-3.7-7.1-7.1
								c-2.1-7.8,4.9-14.8,12.7-12.7c3.4,0.9,6.2,3.7,7.1,7.1C519,305.6,512,312.5,504.2,310.4z M512.7,326.7c0-3,1.7-5.6,4.3-7
								c8-4.2,13-13.2,11.2-23.1c-1.5-8.6-8.5-15.6-17.1-17.2c-13.7-2.5-25.7,7.9-25.7,21.2c0,8.3,4.7,15.5,11.6,19.1
								c2.6,1.4,4.3,4.1,4.3,7v47.1c0,2.9-0.8,5.6-2.4,8L488,398.2c-10.7,14.6-23.1,27.9-36.8,39.7l-43.7-43.7c-2-2-2.6-5-1.8-7.8
								c0.9-3.1,1.2-6.4,0.6-9.9c-1.5-8.9-8.7-16.1-17.7-17.6c-14.7-2.4-27.3,10.2-24.9,24.9c1.4,8.6,8.1,15.7,16.6,17.5
								c4.1,0.9,7.9,0.6,11.4-0.6c2.8-0.9,5.9-0.4,8,1.7l42.7,42.7c-39.4,30.5-88.8,48.7-142.4,48.7h-0.2l39.3-39.3
								c2.1-2.1,5.2-2.7,8-1.7c3.5,1.2,7.4,1.5,11.4,0.6c8.5-1.8,15.2-8.9,16.6-17.5c2.4-14.7-10.2-27.3-24.9-24.9
								c-8.9,1.5-16.1,8.7-17.6,17.6c-0.6,3.5-0.3,6.9,0.6,9.9c0.8,2.7,0.2,5.7-1.8,7.8l-47,47c-1.8-0.1-3.6-0.3-5.4-0.4l-39.2-58.8
								c-1.6-2.4-2.4-5.2-2.4-8v-47.2c0-3,1.7-5.6,4.3-7c8-4.2,13-13.2,11.2-23.1c-1.6-8.7-8.5-15.6-17.1-17.2
								c-13.7-2.5-25.7,7.9-25.7,21.2c0,8.3,4.7,15.5,11.6,19.1c2.7,1.4,4.4,4.1,4.4,7V426c0,2.9-0.8,5.6-2.4,8l-24.5,36.8
								c-14.2-6.9-27.6-15.2-40.1-24.7l0.8-0.8c2.1-2.1,5.2-2.7,8-1.7c3.5,1.2,7.4,1.5,11.4,0.6c8.5-1.8,15.2-8.9,16.6-17.5
								c2.4-14.7-10.2-27.3-24.9-24.9c-8.9,1.5-16.2,8.7-17.7,17.6c-0.6,3.5-0.3,6.8,0.6,9.9c0.8,2.7,0.2,5.7-1.8,7.7l-1.9,1.9
								c-29.7-25-53-57.2-67.3-93.9l18-18c2.1-2.1,5.2-2.7,8-1.7c3.5,1.2,7.4,1.5,11.4,0.6c8.5-1.9,15.2-8.9,16.6-17.5
								c2.4-14.7-10.2-27.3-24.9-24.9c-8.9,1.5-16.1,8.7-17.6,17.6c-0.6,3.5-0.3,6.8,0.6,9.9c0.8,2.7,0.2,5.7-1.8,7.7l-14.5,14.5
								c-7.5-22.8-11.6-47.2-11.6-72.4c0-16.7,1.8-33,5.1-48.7h30.1c3.8,0,7.5,1.5,10.2,4.2l31.9,31.9c2.1,2.1,2.7,5.1,1.8,7.9
								c-1,3.1-1.3,6.5-0.7,10.1c1.5,9,8.7,16.3,17.7,17.7c14.7,2.3,27.2-10.2,24.9-24.9c-1.4-9-8.7-16.3-17.7-17.7
								c-3.5-0.6-7-0.3-10.1,0.7c-2.8,0.9-5.8,0.3-7.9-1.8l-36.3-36.4c-0.7-0.7-1.3-1.4-1.8-2.2l-25.8-38.4
								c13.3-28.7,32.3-54.3,55.5-75.2l0.8,0.8c2.1,2.1,2.7,5.1,1.8,7.9c-1,3.1-1.3,6.5-0.7,10.1c1.5,9,8.7,16.3,17.7,17.7
								c14.7,2.3,27.2-10.2,24.9-24.9c-1.5-9-8.7-16.3-17.7-17.7c-3.5-0.6-7-0.3-10.1,0.7c-2.8,0.9-5.8,0.3-7.9-1.8l-0.2-0.2
								c29.3-24,64.5-41.1,103.1-48.5l-27.8,27.8c-2.1,2.1-5.1,2.7-7.9,1.8c-3.1-1-6.5-1.3-10.1-0.7c-9,1.5-16.3,8.7-17.7,17.7
								c-2.4,14.7,10.2,27.2,24.8,24.9c9-1.4,16.3-8.7,17.7-17.7c0.6-3.5,0.3-7-0.7-10.1c-0.9-2.8-0.3-5.8,1.8-7.9L267.7,36
								c0.6-0.6,1.2-1.1,1.9-1.6c0.8-0.6,1.7-1.1,2.7-1.5c0.1,0,0.1-0.1,0.2-0.1c5.7-2.8,13.8-5,24.9-5c30,0,45.3,3.9,45.3,3.9
								c9.2,1.7,18.3,4,27.1,6.7v41c0,2.8-1.6,5.4-4.2,6.7c-2.8,1.5-5.2,3.5-7.2,5.9c-2.9,3.7-4.6,8.4-4.6,13.4
								c0.1,11.5,9.5,21.2,21,21.5c12.2,0.3,22.2-9.5,22.2-21.6c0-5-1.7-9.7-4.6-13.3c-1.9-2.5-4.4-4.5-7.2-5.9
								c-2.5-1.3-4.2-3.9-4.2-6.7v-37c46.9,17.5,86.6,49.6,113.7,90.8L483,144.9c-2.1,2.1-5.1,2.7-7.9,1.8c-3.1-1-6.5-1.3-10.1-0.7
								c-9,1.5-16.3,8.7-17.7,17.8c-2.3,14.7,10.2,27.2,24.9,24.9c9-1.5,16.3-8.7,17.7-17.7c0.6-3.6,0.3-7-0.7-10.1
								c-0.9-2.8-0.3-5.8,1.8-7.9l9.9-9.9c4.4,7.5,8.4,15.3,12,23.3l-23.6,35.4c-0.5,0.8-1.1,1.5-1.8,2.2l-36.4,36.4
								c-2.1,2.1-5.1,2.7-7.9,1.8c-3.1-1-6.5-1.3-10.1-0.7c-9,1.5-16.3,8.7-17.7,17.8c-2.3,14.7,10.2,27.2,24.9,24.9
								c9-1.5,16.3-8.7,17.7-17.7c0.6-3.6,0.3-7-0.7-10.1c-0.9-2.8-0.3-5.8,1.8-7.9l31.9-31.9c2.7-2.7,6.4-4.2,10.2-4.2h26.6
								c3.3,15.7,5.1,32,5.1,48.7c0,33.9-7.3,66.1-20.3,95.1v-29.5L512.7,326.7L512.7,326.7z M394.9,383c-0.9,3.4-3.7,6.2-7.1,7.1
								c-7.8,2.1-14.8-4.9-12.7-12.7c0.9-3.4,3.7-6.2,7.1-7.1C390,368.2,397,375.2,394.9,383z M343.9,429.4c0.9-3.4,3.7-6.2,7.1-7.1
								c7.8-2.1,14.8,4.9,12.7,12.7c-0.9,3.4-3.7,6.2-7.1,7.1C348.8,444.2,341.9,437.2,343.9,429.4z M164.6,420.2
								c0.9-3.4,3.7-6.2,7.1-7.1c7.8-2.1,14.8,4.9,12.7,12.7c-0.9,3.4-3.7,6.2-7.1,7.1C169.5,435,162.5,428,164.6,420.2z M105.6,302
								c0.9-3.4,3.7-6.2,7.1-7.1c7.8-2.1,14.8,4.9,12.7,12.7c-0.9,3.4-3.7,6.2-7.1,7.1C110.5,316.7,103.5,309.8,105.6,302z
								 M156.7,259.8c0.9-3.4,3.7-6.2,7.1-7.1c7.8-2.1,14.8,4.9,12.7,12.7c-0.9,3.4-3.7,6.2-7.1,7.1
								C161.6,274.6,154.7,267.6,156.7,259.8z M157.2,100.4c0.9-3.4,3.7-6.2,7.1-7.1c7.8-2.1,14.8,4.9,12.7,12.7
								c-0.9,3.4-3.7,6.2-7.1,7.1C162.1,115.1,155.1,108.2,157.2,100.4z M223.4,85c-0.9,3.4-3.7,6.2-7.1,7.1
								c-7.8,2.1-14.8-4.9-12.7-12.7c0.9-3.4,3.7-6.2,7.1-7.1C218.5,70.2,225.4,77.2,223.4,85z M375.4,95.2c4,0,7.5,2.3,9.2,5.7
								c0.7,1.4,1.1,3,1.1,4.6c0,6.1-5.4,11-11.8,10.2c-3.3-0.5-6.2-2.6-7.7-5.6c-1.6-3.2-1.3-6.6,0-9.3
								C368,97.5,371.4,95.2,375.4,95.2z M478.6,170c-0.9,3.4-3.7,6.2-7.1,7.1c-7.8,2.1-14.8-4.9-12.7-12.7c0.9-3.4,3.7-6.2,7.1-7.1
								C473.7,155.3,480.7,162.2,478.6,170z M446.7,265.4c-0.9,3.4-3.7,6.2-7.1,7.1c-7.8,2.1-14.8-4.9-12.7-12.7
								c0.9-3.4,3.7-6.2,7.1-7.1C441.9,250.6,448.8,257.6,446.7,265.4z"/>
						</g>
					</g>
				</g>
				<g>
					<path class="st2" d="M150.1,219L150.1,219c-7.8,2.1-14.8-4.9-12.7-12.7c0.9-3.4,3.7-6.2,7.1-7.1c7.8-2.1,14.8,4.9,12.7,12.7
						C156.3,215.3,153.5,218.1,150.1,219"/>
				</g>
				<g>
					<path class="st2" d="M206,132.4L206,132.4c-7.8,2.1-14.8-4.9-12.7-12.7c0.9-3.4,3.7-6.2,7.1-7.1c7.8-2.1,14.8,4.9,12.7,12.7
						C212.2,128.7,209.4,131.5,206,132.4"/>
				</g>
				<g>
					<path class="st2" d="M129.5,198.4L129.5,198.4c-7.8,2.1-14.8-4.9-12.7-12.7c0.9-3.4,3.7-6.2,7.1-7.1
						c7.8-2.1,14.8,4.9,12.7,12.7C135.7,194.8,132.9,197.5,129.5,198.4"/>
				</g>
				<g>
					<path class="st2" d="M349.3,401.5L349.3,401.5c-7.8,2.1-14.8-4.9-12.7-12.7c0.9-3.4,3.7-6.2,7.1-7.1
						c7.8-2.1,14.8,4.9,12.7,12.7C355.5,397.8,352.7,400.6,349.3,401.5"/>
				</g>
				<g>
					<path class="st2" d="M503,245.4L503,245.4c-7.8,2.1-14.8-4.9-12.7-12.7c0.9-3.4,3.7-6.2,7.1-7.1c7.8-2.1,14.8,4.9,12.7,12.7
						C509.2,241.8,506.4,244.5,503,245.4"/>
				</g>
				<g>
					<path class="st2" d="M481.8,264.3L481.8,264.3c-7.8,2.1-14.8-4.9-12.7-12.7c0.9-3.4,3.7-6.2,7.1-7.1
						c7.8-2.1,14.8,4.9,12.7,12.7C488,260.6,485.2,263.4,481.8,264.3"/>
				</g>
				<g>
					<path class="st2" d="M354.7,60.3L354.7,60.3c-7.8,2.1-14.8-4.9-12.7-12.7c0.9-3.4,3.7-6.2,7.1-7.1c7.8-2.1,14.8,4.9,12.7,12.7
						C360.9,56.6,358.1,59.4,354.7,60.3"/>
				</g>
				<g>
					<path class="st2" d="M356.6,198.1L356.6,198.1c-7.8,2.1-14.8-4.9-12.7-12.7c0.9-3.4,3.7-6.2,7.1-7.1
						c7.8-2.1,14.8,4.9,12.7,12.7C362.8,194.4,360.1,197.2,356.6,198.1"/>
				</g>
				<g>
					<path class="st2" d="M378.2,170.1L378.2,170.1c-7.8,2.1-14.8-4.9-12.7-12.7c0.9-3.4,3.7-6.2,7.1-7.1
						c7.8-2.1,14.8,4.9,12.7,12.7C384.4,166.4,381.7,169.2,378.2,170.1"/>
				</g>
				<g>
					<path class="st2" d="M180.8,390.1L180.8,390.1c-7.8,2.1-14.8-4.9-12.7-12.7c0.9-3.4,3.7-6.2,7.1-7.1
						c7.8-2.1,14.8,4.9,12.7,12.7C187,386.4,184.2,389.2,180.8,390.1"/>
				</g>
				<g>
					<path class="st2" d="M100.6,273.7L100.6,273.7c-7.8,2.1-14.8-4.9-12.7-12.7c0.9-3.4,3.7-6.2,7.1-7.1
						c7.8-2.1,14.8,4.9,12.7,12.7C106.8,270.1,104.1,272.8,100.6,273.7"/>
				</g>
				<g>
					<path class="st2" d="M100.6,245L100.6,245c-7.8,2.1-14.8-4.9-12.7-12.7c0.9-3.4,3.7-6.2,7.1-7.1c7.8-2.1,14.8,4.9,12.7,12.7
						C106.8,241.3,104.1,244.1,100.6,245"/>
				</g>
				<g>
					<path class="st2" d="M394.5,431.8L394.5,431.8c-7.8,2.1-14.8-4.9-12.7-12.7c0.9-3.4,3.7-6.2,7.1-7.1
						c7.8-2.1,14.8,4.9,12.7,12.7C400.8,428.2,398,430.9,394.5,431.8"/>
				</g>
				<g>
					<path class="st2" d="M424.9,390.1L424.9,390.1c-7.8,2.1-14.8-4.9-12.7-12.7c0.9-3.4,3.7-6.2,7.1-7.1
						c7.8-2.1,14.8,4.9,12.7,12.7C431.2,386.4,428.4,389.2,424.9,390.1"/>
				</g>
				<g>
					<path class="st2" d="M414.7,448.5L414.7,448.5c-7.8,2.1-14.8-4.9-12.7-12.7c0.9-3.4,3.7-6.2,7.1-7.1
						c7.8-2.1,14.8,4.9,12.7,12.7C420.9,444.9,418.1,447.6,414.7,448.5"/>
				</g>
				<g>
					<path class="st2" d="M286.8,477.5L286.8,477.5c-7.8,2.1-14.8-4.9-12.7-12.7c0.9-3.4,3.7-6.2,7.1-7.1
						c7.8-2.1,14.8,4.9,12.7,12.7C293,473.9,290.2,476.6,286.8,477.5"/>
				</g>
				<g>
					<path class="st2" d="M330.5,60.3L330.5,60.3c-7.8,2.1-14.8-4.9-12.7-12.7c0.9-3.4,3.7-6.2,7.1-7.1c7.8-2.1,14.8,4.9,12.7,12.7
						C336.7,56.6,333.9,59.4,330.5,60.3"/>
				</g>
				<rect x="58.6" y="229.4" class="st2" width="32.5" height="11.3"/>
				<rect x="501" y="229.9" class="st2" width="32.5" height="11.3"/>
				<rect x="406.2" y="441.1" class="st2" width="11.3" height="32.5"/>
				<path class="st2" d="M348.2,183.6v-30.5c0-0.5,0.4-1,1-1h9.4c0.5,0,1,0.4,1,1v30.5c0,0.5-0.4,1-1,1h-9.4
					C348.6,184.5,348.2,184.1,348.2,183.6z"/>
				<path class="st2" d="M172.8,214.7h-30.5c-0.5,0-1-0.4-1-1v-9.4c0-0.5,0.4-1,1-1h30.5c0.5,0,1,0.4,1,1v9.4
					C173.8,214.3,173.3,214.7,172.8,214.7z"/>
				<path class="st2" d="M266,128.2h-61.9c-0.5,0-1-0.4-1-1v-9.4c0-0.5,0.4-1,1-1H266c0.5,0,1,0.4,1,1v9.4
					C267,127.7,266.6,128.2,266,128.2z"/>
				<path class="st2" d="M473.3,288.1v-30.5c0-0.5,0.4-1,1-1h9.4c0.5,0,1,0.4,1,1v30.5c0,0.5-0.4,1-1,1h-9.4
					C473.8,289.1,473.3,288.7,473.3,288.1z"/>
				<path class="st2" d="M277.5,463.4v-30.5c0-0.5,0.4-1,1-1h9.4c0.5,0,1,0.4,1,1v30.5c0,0.5-0.4,1-1,1h-9.4
					C277.9,464.3,277.5,463.9,277.5,463.4z"/>
				<rect x="121" y="92.5" class="st2" width="11.3" height="93.9"/>
				<rect x="322.1" y="19.6" class="st2" width="11.3" height="34.1"/>
			</g>
		</g>
	</g>
	<g>
		<g class="st3">
			<path d="M16.6,589.6v-5.7H11v-5.7h11.3v5.7h17v-11.3H16.6V567H11v-11.3h5.7V550h28.3v5.7h5.7v5.7H39.2v-5.7h-17V567h22.5v5.7h5.7
				v11.3h-5.7v5.7H16.6z"/>
			<path d="M56.1,589.6v-28.3h5.7v-5.7h5.7V550h17v5.7H90v5.7h5.7v28.3H84.3v-11.3h-17v11.3H56.1z M67.4,572.6h17v-11.3h-5.7v-5.7
				H73v5.7h-5.7V572.6z"/>
			<path d="M101.3,589.6V550h39.6v5.7h-28.3V567h22.6v5.7h-22.6v17H101.3z"/>
			<path d="M152,589.6v-5.7h-5.7V550h11.3v33.9h17V550H186v33.9h-5.7v5.7H152z"/>
			<path d="M208.6,589.6v-17h-5.7V567h-5.7v-17h11.3v17h11.3v-17h11.3v17h-5.7v5.7h-5.7v17H208.6z"/>
			<path d="M242.4,589.6v-5.7h11.3v-28.3h-11.3V550h33.9v5.7H265v28.3h11.3v5.7H242.4z"/>
			<path d="M281.9,589.6V550h39.6v5.7h-28.3V567h22.6v5.7h-22.6v11.3h28.3v5.7L281.9,589.6L281.9,589.6z"/>
			<path d="M332.8,589.6V550h11.3v33.9h22.6v5.7H332.8z"/>
			<path d="M372.3,589.6V550h28.3v5.7h5.7v5.7h5.7v17h-5.7v5.7h-5.7v5.7H372.3z M383.6,583.9h11.3v-5.7h5.7v-17h-5.7v-5.7h-11.3
				V583.9z"/>
			<path d="M428.8,589.6v-11.3h11.3v11.3H428.8z"/>
			<path d="M473.9,589.6v-5.7h-5.7v-5.7h-5.7v-17h5.7v-5.7h5.7V550h22.6v5.7h5.7v5.7h-11.3v-5.7h-11.3v5.7h-5.7v17h5.7v5.7h11.3
				v-5.7h11.3v5.7h-5.7v5.7H473.9z"/>
			<path d="M513.5,589.6v-5.7h-5.7v-28.3h5.7V550h28.3v5.7h5.7v28.3h-5.7v5.7H513.5z M519.1,583.9h17v-28.3h-17V583.9z"/>
			<path d="M552.9,589.6V550h11.3v5.7h5.7v5.7h5.7v-5.7h5.7V550h11.3v39.6h-11.3V567h-5.7v11.3h-5.7V567h-5.7v22.6H552.9z"/>
		</g>
		<g class="st3">
			<path class="st1" d="M12.2,582.6v-5.7H6.5v-5.7h11.3v5.7h17v-11.3H12.2V560H6.5v-11.3h5.7V543h28.3v5.7h5.7v5.7H34.8v-5.7h-17
				V560h22.5v5.7h5.7v11.3h-5.7v5.7L12.2,582.6L12.2,582.6z"/>
			<path class="st1" d="M51.6,582.6v-28.3h5.7v-5.7h5.7V543h17v5.7h5.7v5.7h5.7v28.3H79.9v-11.3h-17v11.3H51.6z M62.9,565.6h17
				v-11.3h-5.7v-5.7h-5.7v5.7h-5.7V565.6z"/>
			<path class="st1" d="M96.8,582.6V543h39.6v5.7h-28.3V560h22.6v5.7h-22.6v17H96.8z"/>
			<path class="st1" d="M147.6,582.6v-5.7h-5.7V543h11.3v33.9h17V543h11.3v33.9h-5.7v5.7H147.6z"/>
			<path class="st1" d="M204.1,582.6v-17h-5.7V560h-5.7v-17h11.3v17h11.3v-17h11.3v17h-5.7v5.7h-5.7v17L204.1,582.6L204.1,582.6z"/>
			<path class="st1" d="M237.9,582.6v-5.7h11.3v-28.3h-11.3V543h33.9v5.7h-11.3v28.3h11.3v5.7H237.9z"/>
			<path class="st1" d="M277.5,582.6V543h39.6v5.7h-28.3V560h22.6v5.7h-22.6v11.3h28.3v5.7L277.5,582.6L277.5,582.6z"/>
			<path class="st1" d="M328.4,582.6V543h11.3v33.9h22.6v5.7H328.4z"/>
			<path class="st1" d="M367.8,582.6V543h28.3v5.7h5.7v5.7h5.7v17h-5.7v5.7h-5.7v5.7H367.8z M379.1,576.9h11.3v-5.7h5.7v-17h-5.7
				v-5.7h-11.3V576.9z"/>
			<path class="st1" d="M424.3,582.6v-11.3h11.3v11.3H424.3z"/>
			<path class="st1" d="M469.4,582.6v-5.7h-5.7v-5.7h-5.7v-17h5.7v-5.7h5.7V543h22.6v5.7h5.7v5.7h-11.3v-5.7h-11.3v5.7h-5.7v17h5.7
				v5.7h11.3v-5.7h11.3v5.7h-5.7v5.7H469.4z"/>
			<path class="st1" d="M509,582.6v-5.7h-5.7v-28.3h5.7V543h28.3v5.7h5.7v28.3h-5.7v5.7H509z M514.7,576.9h17v-28.3h-17V576.9z"/>
			<path class="st1" d="M548.5,582.6V543h11.3v5.7h5.7v5.7h5.7v-5.7h5.7V543H588v39.6h-11.3V560h-5.7v11.3h-5.7V560h-5.7v22.6H548.5
				z"/>
		</g>
	</g>
</g>
</svg>
