<?xml version="1.0" encoding="utf-8"?>
<!-- Generator: Adobe Illustrator 25.2.1, SVG Export Plug-In . SVG Version: 6.00 Build 0)  -->
<svg version="1.1" id="Capa_1" xmlns="http://www.w3.org/2000/svg" xmlns:xlink="http://www.w3.org/1999/xlink" x="0px" y="0px"
	 viewBox="0 0 600 600" style="enable-background:new 0 0 600 600;" xml:space="preserve">
<style type="text/css">
	.st0{fill:#00AAAA;}
	.st1{fill:#FFFFFF;}
</style>
<g>
	<path d="M546.9,40.4v-9.6h-11.5h-9.6h-9.6h-9.6H497h-11.5v9.6h-7.8h-11.5V50h-7.8h-11.5v9.6h-7.8h-9.6h-9.6h-11.5v9.6h-7.7h-11.5
		v9.6h-7.8h-9.6h-11.5v9.6h-7.8h-11.5v9.6h-7.7h-11.5v9.6h-7.8h-9.6h-11.5v9.6h-7.8H276h-11.5v9.6h-7.8h-11.5v9.6h-7.7h-11.5v9.6
		h-7.8h-9.6h-9.6h-11.5v9.6h-7.8h-11.5v9.6h-7.7h-11.5v9.6h-7.8h-9.6h-11.5v9.6h-7.8H103H91.5v9.6h-7.7H72.3v9.6h-7.8H53.1v9.6h-9.6
		v11.5v9.6v9.6v11.5H55h7.8v9.6h11.5h9.6h7.7v9.6H103h9.6h9.6h7.8v9.6h11.5h7.8v9.6h11.5h9.6h9.6h9.6H201v-9.6h7.8h11.5v-9.6h7.8
		h11.5v-9.6h9.6v-9.6h7.7h11.5v-9.6h7.8h11.5v-9.6h9.6v-9.6h9.6v-9.6h7.8h7.8v7.8v7.8h-7.8H303v9.6h-9.6v9.6h-9.6v9.6h-9.6v9.6h-9.6
		v9.6h-7.8h-11.5v9.6h-9.6v11.5v9.6v9.6v9.6v9.6v9.6v7.8h-9.6V369v9.6v9.6v9.6v9.6v9.6v9.6v11.5h11.5h9.6h9.6h11.5v-9.6h9.6v-9.6
		h7.8H297v-9.6h9.6v-9.6h9.6V390h9.6h5.9v9.6h9.6v9.6h9.6v9.6h11.5h7.8v9.6h9.6v9.6h9.6v9.6h11.5h7.7v9.6h9.6v9.6h11.5h9.6h9.6h9.6
		H470v-9.6h9.6v-11.5v-9.6v-7.7h9.6V417v-9.6v-9.6V390h9.6v-11.5V369v-9.6v-7.7h9.6v-11.5v-9.6v-9.6v-9.6v-9.6v-7.8h9.6v-11.5v-9.6
		v-9.6v-9.6v-7.8h9.6v-11.5v-9.6v-9.6v-7.8h9.6V196v-9.6v-9.6v-9.6v-7.8h9.6V148v-9.6v-9.6v-9.6v-7.8h9.6V99.9v-9.6v-9.6v-9.6v-9.6
		v-9.6V40.4H546.9z M354.7,194.1v-5.9h5.9v5.9H354.7z"/>
	<polygon class="st0" points="535.4,51.9 535.4,42.3 525.8,42.3 516.2,42.3 506.6,42.3 497,42.3 497,51.9 487.4,51.9 477.8,51.9 
		477.8,61.5 468.2,61.5 458.6,61.5 458.6,71.1 448.9,71.1 439.3,71.1 429.7,71.1 420.1,71.1 420.1,80.7 410.5,80.7 400.9,80.7 
		400.9,90.3 391.3,90.3 381.7,90.3 372.1,90.3 372.1,99.9 362.5,99.9 352.8,99.9 352.8,109.5 343.2,109.5 333.6,109.5 333.6,119.1 
		324,119.1 314.4,119.1 304.8,119.1 304.8,128.7 295.2,128.7 285.6,128.7 276,128.7 276,138.3 266.4,138.3 256.8,138.3 256.8,148 
		247.2,148 237.5,148 237.5,157.6 227.9,157.6 218.3,157.6 208.7,157.6 199.1,157.6 199.1,167.2 189.5,167.2 179.9,167.2 
		179.9,176.8 170.3,176.8 160.7,176.8 160.7,186.4 151.1,186.4 141.4,186.4 131.8,186.4 131.8,196 122.2,196 112.6,196 103,196 
		103,205.6 93.4,205.6 83.8,205.6 83.8,215.2 74.2,215.2 64.6,215.2 64.6,224.8 55,224.8 55,234.4 55,244.1 64.6,244.1 74.2,244.1 
		74.2,253.7 83.8,253.7 93.4,253.7 103,253.7 103,263.3 112.6,263.3 122.2,263.3 131.8,263.3 141.4,263.3 141.4,272.9 151.1,272.9 
		160.7,272.9 160.7,282.5 170.3,282.5 179.9,282.5 189.5,282.5 189.5,272.9 199.1,272.9 208.7,272.9 208.7,263.3 218.3,263.3 
		227.9,263.3 227.9,253.7 237.5,253.7 237.5,244.1 247.2,244.1 256.8,244.1 256.8,234.4 266.4,234.4 276,234.4 276,224.8 
		285.6,224.8 285.6,215.2 295.2,215.2 295.2,205.6 304.8,205.6 314.4,205.6 324,205.6 324,196 333.6,196 333.6,186.4 343.2,186.4 
		343.2,176.8 352.8,176.8 362.5,176.8 362.5,167.2 372.1,167.2 381.7,167.2 381.7,157.6 391.3,157.6 391.3,148 400.9,148 410.5,148 
		410.5,138.3 420.1,138.3 429.7,138.3 429.7,128.7 439.3,128.7 439.3,119.1 448.9,119.1 458.6,119.1 458.6,128.7 448.9,128.7 
		448.9,138.3 439.3,138.3 439.3,148 429.7,148 420.1,148 420.1,157.6 410.5,157.6 410.5,167.2 400.9,167.2 400.9,176.8 391.3,176.8 
		391.3,186.4 381.7,186.4 381.7,196 372.1,196 372.1,205.6 362.5,205.6 352.8,205.6 352.8,215.2 343.2,215.2 343.2,224.8 
		333.6,224.8 333.6,234.4 333.6,244.1 324,244.1 314.4,244.1 314.4,253.7 304.8,253.7 304.8,263.3 295.2,263.3 295.2,272.9 
		285.6,272.9 285.6,282.5 276,282.5 276,292.1 266.4,292.1 256.8,292.1 256.8,301.7 247.2,301.7 247.2,311.3 247.2,320.9 
		247.2,330.5 247.2,340.1 247.2,349.7 247.2,359.4 247.2,369 237.5,369 237.5,378.6 237.5,388.2 237.5,397.8 237.5,407.4 237.5,417 
		237.5,426.6 247.2,426.6 256.8,426.6 256.8,417 266.4,417 266.4,407.4 276,407.4 285.6,407.4 285.6,397.8 295.2,397.8 295.2,388.2 
		304.8,388.2 304.8,378.6 314.4,378.6 314.4,369 324,369 324,378.6 333.6,378.6 343.2,378.6 343.2,388.2 352.8,388.2 352.8,397.8 
		362.5,397.8 362.5,407.4 372.1,407.4 381.7,407.4 381.7,417 391.3,417 391.3,426.6 400.9,426.6 400.9,436.2 410.5,436.2 
		420.1,436.2 420.1,445.8 429.7,445.8 429.7,455.5 439.3,455.5 448.9,455.5 458.6,455.5 458.6,445.8 468.2,445.8 468.2,436.2 
		468.2,426.6 468.2,417 477.8,417 477.8,407.4 477.8,397.8 477.8,388.2 477.8,378.6 487.4,378.6 487.4,369 487.4,359.4 487.4,349.7 
		487.4,340.1 497,340.1 497,330.5 497,320.9 497,311.3 497,301.7 497,292.1 497,282.5 506.6,282.5 506.6,272.9 506.6,263.3 
		506.6,253.7 506.6,244.1 506.6,234.4 516.2,234.4 516.2,224.8 516.2,215.2 516.2,205.6 516.2,196 525.8,196 525.8,186.4 
		525.8,176.8 525.8,167.2 525.8,157.6 525.8,148 535.4,148 535.4,138.3 535.4,128.7 535.4,119.1 535.4,109.5 535.4,99.9 545,99.9 
		545,90.3 545,80.7 545,71.1 545,61.5 545,51.9 	"/>
</g>
<g>
	<path d="M48.9,572.7V541H38.3v-5.3h31.8v5.3H59.5v31.8H48.9z"/>
	<path d="M75.4,572.7v-37h37.1v5.3H85.9v10.6h21.2v5.3H85.9v10.6h26.5v5.3H75.4z"/>
	<path d="M123,572.7v-37h10.6v31.8h21.2v5.3H123z"/>
	<path d="M160,572.7v-37h37.1v5.3h-26.5v10.6h21.2v5.3h-21.2v10.6h26.5v5.3H160z"/>
	<path d="M213,572.7v-5.3h-5.3v-5.3h-5.3v-15.9h5.3V541h5.3v-5.3h26.5v5.3h-21.2v5.3H213v15.9h5.3v5.3h10.6v-10.6h-5.3v-5.3h15.9
		v21.2H213z"/>
	<path d="M244.7,572.7v-37h31.8v5.3h5.3v15.9h-10.6v5.3h5.3v5.3h5.3v5.3h-15.9v-5.3h-5.3v-5.3h-5.3v10.6H244.7z M255.3,556.8h10.6
		v-5.3h5.3V541h-15.9V556.8z"/>
	<path d="M287.1,572.7v-26.5h5.3V541h5.3v-5.3h15.9v5.3h5.3v5.3h5.3v26.5h-10.6v-10.6h-15.9v10.6H287.1z M297.7,556.8h15.9v-10.6
		h-5.3V541H303v5.3h-5.3V556.8z"/>
	<path d="M329.4,572.7v-37H340v5.3h5.3v5.3h5.3V541h5.3v-5.3h10.6v37h-10.6v-21.2h-5.3v10.6h-5.3v-10.6H340v21.2H329.4z"/>
	<path d="M414.1,572.7v-37h10.6v5.3h5.3v5.3h5.3V541h5.3v-5.3h10.6v37h-10.6v-21.2h-5.3v10.6H430v-10.6h-5.3v21.2H414.1z"/>
	<path d="M456.4,572.7v-26.5h5.3V541h5.3v-5.3h15.9v5.3h5.3v5.3h5.3v26.5h-10.6v-10.6H467v10.6H456.4z M467,556.8h15.9v-10.6h-5.3
		V541h-5.3v5.3H467V556.8z"/>
	<path d="M504.1,572.7v-5.3h10.6V541h-10.6v-5.3h31.8v5.3h-10.6v26.5h10.6v5.3H504.1z"/>
	<path d="M541.1,572.7v-37h10.6v5.3h5.3v5.3h5.3v5.3h5.3v-15.9h10.6v37h-10.6v-10.6h-5.3v-5.3H557v-5.3h-5.3v21.2H541.1z"/>
</g>
<g>
	<path class="st1" d="M41.6,568.4v-31.8H31.1v-5.3h31.8v5.3H52.2v31.8H41.6z"/>
	<path class="st1" d="M68.1,568.4v-37h37.1v5.3H78.7v10.6h21.2v5.3H78.7v10.6h26.5v5.3H68.1z"/>
	<path class="st1" d="M115.7,568.4v-37h10.6v31.8h21.2v5.3H115.7z"/>
	<path class="st1" d="M152.8,568.4v-37h37.1v5.3h-26.5v10.6h21.2v5.3h-21.2v10.6h26.5v5.3H152.8z"/>
	<path class="st1" d="M205.7,568.4v-5.3h-5.3v-5.3h-5.3V542h5.3v-5.3h5.3v-5.3h26.5v5.3H211v5.3h-5.3v15.9h5.3v5.3h10.6v-10.6h-5.3
		v-5.3h15.9v21.2H205.7z"/>
	<path class="st1" d="M237.5,568.4v-37h31.8v5.3h5.3v15.9h-10.6v5.3h5.3v5.3h5.3v5.3h-15.9v-5.3h-5.3v-5.3h-5.3v10.6H237.5z
		 M248.1,552.5h10.6v-5.3h5.3v-10.6h-15.9V552.5z"/>
	<path class="st1" d="M279.8,568.4V542h5.3v-5.3h5.3v-5.3h15.9v5.3h5.3v5.3h5.3v26.5h-10.6v-10.6h-15.9v10.6H279.8z M290.4,552.5
		h15.9V542H301v-5.3h-5.3v5.3h-5.3V552.5z"/>
	<path class="st1" d="M322.2,568.4v-37h10.6v5.3h5.3v5.3h5.3v-5.3h5.3v-5.3h10.6v37h-10.6v-21.2h-5.3v10.6h-5.3v-10.6h-5.3v21.2
		H322.2z"/>
	<path class="st1" d="M406.9,568.4v-37h10.6v5.3h5.3v5.3h5.3v-5.3h5.3v-5.3h10.6v37h-10.6v-21.2H428v10.6h-5.3v-10.6h-5.3v21.2
		H406.9z"/>
	<path class="st1" d="M449.2,568.4V542h5.3v-5.3h5.3v-5.3h15.9v5.3h5.3v5.3h5.3v26.5h-10.6v-10.6h-15.9v10.6H449.2z M459.8,552.5
		h15.9V542h-5.3v-5.3h-5.3v5.3h-5.3V552.5z"/>
	<path class="st1" d="M496.8,568.4v-5.3h10.6v-26.5h-10.6v-5.3h31.8v5.3H518v26.5h10.6v5.3H496.8z"/>
	<path class="st1" d="M533.9,568.4v-37h10.6v5.3h5.3v5.3h5.3v5.3h5.3v-15.9h10.6v37h-10.6v-10.6h-5.3v-5.3h-5.3v-5.3h-5.3v21.2
		H533.9z"/>
</g>
</svg>
