<?xml version="1.0" encoding="utf-8"?>
<!-- Generator: Adobe Illustrator 25.2.1, SVG Export Plug-In . SVG Version: 6.00 Build 0)  -->
<svg version="1.1" id="Capa_1" xmlns="http://www.w3.org/2000/svg" xmlns:xlink="http://www.w3.org/1999/xlink" x="0px" y="0px"
	 viewBox="0 0 537.3 637.4" style="enable-background:new 0 0 537.3 637.4;" xml:space="preserve">
<style type="text/css">
	.st0{fill:#00AAAA;}
	.st1{fill:#FFFFFF;}
	.st2{fill:#11726B;}
	.st3{fill:#494949;}
	.st4{fill:#999999;}
	.st5{font-family:'PressStart2P-Regular';}
	.st6{font-size:77.664px;}
	.st7{enable-background:new    ;}
</style>
<g>
	<g>
		<g>
			<circle class="st0" cx="268.6" cy="268.6" r="268.6"/>
			<path class="st1" d="M442,361.8c-3.7-0.6-7.3-0.3-10.6,0.7c-2.9,0.9-6.1,0.3-8.2-1.9l-38.1-38.1c-0.7-0.7-1.3-1.5-1.9-2.3
				l-54.4-81.6c-0.9-1.4-0.7-3.2,0.4-4.4l6.5-6.5l45.3-45.3c2.2-2.2,5.4-2.8,8.4-1.8c3.7,1.2,7.7,1.5,12,0.6
				c8.9-1.9,15.9-9.3,17.4-18.3c2.5-15.4-10.7-28.6-26.1-26c-9.4,1.5-16.9,9.1-18.5,18.4c-0.6,3.6-0.3,7.2,0.6,10.4
				c0.9,2.9,0.2,6-1.9,8.1L329,217.7l-6,5.9c-1.3,1.3-3.6,1.1-4.6-0.5L277,160.9c-1.7-2.5-2.5-5.4-2.5-8.4v-49.4
				c0-3.1,1.8-5.9,4.5-7.4c8.3-4.4,13.6-13.8,11.8-24.2c-1.6-9.1-8.9-16.4-17.9-18C258.6,51,246,62,246,75.9c0,8.7,4.9,16.2,12.1,20
				c2.8,1.4,4.5,4.3,4.5,7.4v49.4c0,3-0.9,5.9-2.5,8.4l-41.5,62.2c-1,1.6-3.3,1.8-4.6,0.5L164.4,174c-2.1-2.1-2.8-5.2-1.9-8.1
				c1-3.2,1.3-6.7,0.6-10.4c-1.6-9.4-9.1-16.9-18.5-18.4c-15.4-2.5-28.6,10.6-26.1,26c1.5,9,8.5,16.4,17.4,18.4
				c4.2,0.9,8.3,0.6,12-0.6c2.9-1,6.2-0.4,8.4,1.8L259,285.4c2.3,2.3,3.7,5.5,3.7,8.8v25.2h-89.1c-2,0-3.2-2.3-2.1-3.9l37.5-56.3
				c1.3-1.9,1.5-4.5,0.3-6.5c-2.4-3.9-7.7-3.8-10-0.3L154,320.3c-0.6,0.8-1.2,1.6-1.9,2.3L114,360.7c-2.2,2.2-5.3,2.8-8.2,1.9
				c-3.3-1-6.8-1.4-10.6-0.8c-9.4,1.6-17,9.1-18.6,18.6c-2.5,15.4,10.7,28.5,26,26c9.4-1.5,17-9.1,18.6-18.6
				c0.6-3.7,0.3-7.3-0.7-10.6c-0.9-2.9-0.3-6.1,1.9-8.2l33.4-33.4c2.8-2.8,6.7-4.4,10.7-4.4h96.2v50c0,3-1.7,5.7-4.3,7
				c-2.9,1.5-5.5,3.6-7.5,6.2c-3.1,3.9-4.9,8.8-4.8,14.1c0.1,12,10,22.2,22,22.5c12.8,0.3,23.3-9.9,23.3-22.6c0-5.3-1.8-10.1-4.9-14
				c-2-2.6-4.6-4.7-7.5-6.2c-2.7-1.4-4.3-4.1-4.3-7v-87.1c0-3.3,1.3-6.5,3.7-8.8l8.2-8.2l20.1-20.1c1.8-1.8,2.5-4.5,1.4-6.8
				c-1.8-3.9-6.7-4.7-9.6-1.8L270.9,276c-1.2,1.2-3.1,1.2-4.2,0l-39.2-39.2c-1.2-1.2-1.4-3-0.4-4.4l39.7-59.5c1-1.5,3.2-1.5,4.2,0
				l95.1,142.6c1.1,1.7-0.1,3.9-2.1,3.9h-71.1c-2.8,0-5.4,1.8-6,4.5c-0.9,3.9,2,7.4,5.7,7.4h78.5c4,0,7.9,1.6,10.7,4.4l33.4,33.4
				c2.2,2.2,2.8,5.3,1.9,8.2c-1,3.3-1.4,6.8-0.7,10.6c1.5,9.4,9.1,17,18.6,18.6c15.4,2.5,28.5-10.7,26-26
				C459.1,371,451.5,363.4,442,361.8L442,361.8z M393.7,148.8c8.2-2.2,15.5,5.1,13.3,13.3c-1,3.6-3.9,6.5-7.5,7.4
				c-8.2,2.2-15.5-5.1-13.3-13.3C387.2,152.7,390.1,149.8,393.7,148.8L393.7,148.8z M143.8,169.7c-8.2,2.2-15.5-5.1-13.3-13.3
				c1-3.6,3.9-6.5,7.5-7.5c8.2-2.2,15.5,5.1,13.3,13.3C150.2,165.8,147.3,168.7,143.8,169.7L143.8,169.7z M101.9,394.5
				c-8.2,2.2-15.5-5.1-13.3-13.3c1-3.6,3.9-6.5,7.5-7.4c8.2-2.2,15.5,5.1,13.3,13.3C108.4,390.6,105.5,393.6,101.9,394.5
				L101.9,394.5z M278.3,403.6c0.7,1.5,1.2,3.1,1.2,4.9c0,6.4-5.7,11.6-12.3,10.7c-3.4-0.5-6.5-2.7-8.1-5.8c-1.7-3.4-1.4-6.9,0-9.7
				c1.8-3.5,5.4-5.9,9.6-5.9C272.8,397.7,276.5,400.1,278.3,403.6L278.3,403.6z M258.3,78.8c-2.2-8.2,5.1-15.5,13.3-13.3
				c3.6,1,6.5,3.9,7.5,7.5c2.2,8.2-5.1,15.5-13.3,13.3C262.1,85.3,259.2,82.4,258.3,78.8L258.3,78.8z M441.2,394.5
				c-8.2,2.2-15.5-5.1-13.3-13.3c1-3.6,3.9-6.5,7.5-7.5c8.2-2.2,15.5,5.1,13.3,13.3C447.7,390.6,444.8,393.6,441.2,394.5"/>
			<g>
				<g>
					<g>
						<g>
							<g>
								<path class="st2" d="M268.6,9.3C202,9.3,141.3,34.5,95.3,75.9c-0.3,0.3-0.7,0.5-1,0.8l0,0c-52.2,47.5-85,116-85,191.9
									c0,79,35.5,149.9,91.5,197.5c0.1,0.1,0.2,0.2,0.4,0.3c1.2,1,2.4,2,3.6,3c0.7,0.5,1.3,1.1,2,1.6c1.1,0.9,2.2,1.7,3.2,2.6
									l0.1,0.1c21.9,17,46.7,30.6,73.4,39.9c26.7,9.3,55.4,14.4,85.3,14.4c143,0,259.4-116.3,259.4-259.4S411.6,9.3,268.6,9.3z
									 M504.5,205.8h-17.9c-2,0-3.2-2.3-2.1-3.9l12.6-19C499.9,190.3,502.4,198,504.5,205.8z M41.5,179.4l15,22.5
									c1.1,1.7-0.1,3.9-2.1,3.9H32.8C35.2,196.8,38.1,188,41.5,179.4z M173.9,493.5l21.1-31.6c1-1.5,3.2-1.5,4.2,0l31.9,47.9
									C211.2,506.7,192,501.2,173.9,493.5z M194.2,375.3c-3.6-1-6.5-3.9-7.5-7.4c-2.2-8.2,5.1-15.5,13.3-13.3
									c3.6,1,6.5,3.9,7.5,7.5C209.6,370.2,202.3,377.5,194.2,375.3z M482.6,320.6c-3.6-0.9-6.5-3.9-7.5-7.4
									c-2.2-8.2,5.1-15.5,13.3-13.3c3.6,1,6.5,3.9,7.5,7.5C498,315.5,490.7,322.8,482.6,320.6z M491.4,337.7
									c0-3.1,1.8-5.9,4.5-7.4c8.3-4.4,13.6-13.8,11.8-24.2c-1.6-9-8.9-16.4-17.9-18c-14.4-2.7-26.9,8.3-26.9,22.2
									c0,8.7,4.9,16.2,12.2,20c2.8,1.4,4.5,4.3,4.5,7.4V387c0,3-0.9,5.9-2.5,8.4l-11.4,17.2c-11.2,15.3-24.2,29.3-38.6,41.6
									l-45.8-45.8c-2.1-2.1-2.8-5.3-1.9-8.1c1-3.2,1.3-6.7,0.7-10.4c-1.6-9.4-9.1-16.9-18.5-18.4c-15.4-2.5-28.6,10.6-26.1,26
									c1.4,9,8.5,16.4,17.4,18.3c4.3,0.9,8.3,0.6,12-0.6c2.9-1,6.2-0.4,8.4,1.8l44.7,44.7c-41.3,32-93,51-149.2,51h-0.2l41.2-41.2
									c2.2-2.2,5.4-2.8,8.3-1.8c3.7,1.2,7.7,1.5,12,0.6c9-1.9,16-9.3,17.4-18.3c2.5-15.4-10.7-28.6-26.1-26
									c-9.3,1.5-16.9,9.1-18.5,18.4c-0.6,3.6-0.3,7.2,0.6,10.4c0.9,2.9,0.2,6-1.9,8.1l-49.3,49.3c-1.9-0.1-3.8-0.3-5.6-0.4
									l-41-61.6c-1.7-2.5-2.5-5.4-2.5-8.4v-49.4c0-3.1,1.8-5.9,4.5-7.4c8.3-4.4,13.6-13.8,11.8-24.2c-1.6-9.1-8.9-16.4-17.9-18
									c-14.4-2.7-26.9,8.3-26.9,22.2c0,8.7,4.9,16.2,12.1,20c2.8,1.4,4.6,4.3,4.6,7.4v49.4c0,3-0.9,5.9-2.5,8.4l-25.7,38.5
									c-14.9-7.2-29-15.9-42-25.9l0.9-0.9c2.2-2.2,5.4-2.8,8.3-1.8c3.7,1.2,7.8,1.5,12,0.6c8.9-1.9,15.9-9.3,17.4-18.3
									c2.5-15.4-10.7-28.6-26.1-26c-9.4,1.5-16.9,9.1-18.5,18.5c-0.6,3.6-0.3,7.2,0.7,10.4c0.9,2.9,0.2,6-1.9,8.1l-2,2
									c-31.1-26.2-55.6-59.9-70.5-98.4L60,338c2.2-2.2,5.4-2.8,8.4-1.8c3.7,1.2,7.7,1.5,12,0.6c8.9-1.9,16-9.3,17.4-18.3
									c2.5-15.4-10.7-28.6-26.1-26c-9.4,1.5-16.9,9.1-18.5,18.4c-0.6,3.6-0.4,7.2,0.6,10.4c0.9,2.9,0.2,6-1.9,8.1l-15.2,15.2
									c-7.9-23.9-12.1-49.4-12.1-75.9c0-17.5,1.9-34.5,5.4-51h31.5c4,0,7.9,1.6,10.7,4.4l33.4,33.4c2.2,2.2,2.8,5.4,1.8,8.3
									c-1,3.2-1.4,6.8-0.7,10.5c1.6,9.4,9.2,17.1,18.6,18.6c15.4,2.5,28.5-10.7,26-26c-1.5-9.4-9.1-17-18.6-18.6
									c-3.7-0.6-7.3-0.3-10.5,0.7c-2.9,0.9-6.1,0.3-8.3-1.9l-38-38.1c-0.7-0.7-1.4-1.5-1.9-2.3l-26.9-40.3
									c13.9-30.1,33.8-56.8,58.1-78.8l0.8,0.8c2.2,2.2,2.8,5.4,1.9,8.3c-1.1,3.2-1.4,6.8-0.7,10.6c1.5,9.4,9.1,17,18.6,18.6
									c15.4,2.5,28.5-10.7,26-26c-1.5-9.4-9.1-17-18.6-18.6c-3.7-0.6-7.3-0.3-10.6,0.7c-2.9,0.9-6.1,0.3-8.3-1.9l-0.2-0.2
									c30.7-25.1,67.5-43,108-50.8L193,58.2c-2.2,2.2-5.3,2.8-8.3,1.8c-3.2-1-6.8-1.4-10.5-0.7c-9.4,1.6-17.1,9.2-18.6,18.6
									c-2.5,15.4,10.7,28.5,26,26c9.4-1.5,17-9.1,18.6-18.6c0.6-3.7,0.3-7.3-0.7-10.5c-0.9-2.9-0.3-6.1,1.8-8.3l33.4-33.4
									c0.6-0.6,1.3-1.2,2-1.7c0.9-0.6,1.8-1.1,2.8-1.5c0.1,0,0.1-0.1,0.2-0.1c6-2.9,14.4-5.2,26.1-5.2c31.5,0,47.4,4.1,47.4,4.1
									c9.7,1.8,19.1,4.2,28.4,7.1v43c0,3-1.7,5.7-4.3,7c-2.9,1.5-5.5,3.6-7.5,6.2c-3.1,3.9-4.9,8.8-4.8,14.1
									c0.1,12,10,22.2,22,22.5c12.8,0.3,23.3-9.9,23.3-22.6c0-5.3-1.8-10.1-4.9-14c-2-2.6-4.6-4.7-7.5-6.2c-2.6-1.4-4.3-4-4.3-7
									V39.9c49.1,18.3,90.8,52,119.1,95.1l-12.3,12.3c-2.2,2.2-5.4,2.8-8.3,1.9c-3.2-1.1-6.8-1.4-10.5-0.8
									c-9.4,1.6-17.1,9.2-18.6,18.6c-2.5,15.4,10.7,28.5,26,26c9.4-1.5,17-9.1,18.6-18.6c0.6-3.7,0.3-7.3-0.7-10.6
									c-0.9-2.9-0.3-6.1,1.9-8.3l10.3-10.3c4.6,7.9,8.8,16,12.6,24.4l-24.7,37c-0.5,0.8-1.2,1.6-1.9,2.3L427,247.1
									c-2.2,2.2-5.3,2.8-8.2,1.9c-3.3-1.1-6.8-1.4-10.6-0.8c-9.4,1.6-17,9.2-18.6,18.6c-2.5,15.4,10.7,28.5,26,26
									c9.4-1.5,17-9.1,18.6-18.6c0.6-3.7,0.3-7.3-0.7-10.6c-0.9-2.9-0.3-6.1,1.9-8.3l33.4-33.4c2.8-2.8,6.7-4.4,10.7-4.4h27.8
									c3.5,16.5,5.4,33.5,5.4,51c0,35.5-7.6,69.2-21.3,99.6L491.4,337.7L491.4,337.7z M368,396.6c-1,3.6-3.9,6.5-7.5,7.5
									c-8.2,2.2-15.5-5.1-13.3-13.3c1-3.6,3.9-6.5,7.5-7.5C362.9,381.1,370.2,388.4,368,396.6z M314.7,445.3
									c0.9-3.6,3.9-6.5,7.5-7.5c8.2-2.2,15.5,5.1,13.3,13.3c-1,3.6-3.9,6.5-7.5,7.4C319.8,460.7,312.5,453.4,314.7,445.3z
									 M126.9,435.6c1-3.6,3.9-6.5,7.5-7.5c8.2-2.2,15.5,5.1,13.3,13.3c-1,3.6-3.9,6.5-7.5,7.4C132,451.1,124.7,443.8,126.9,435.6
									z M65,311.8c1-3.6,3.9-6.5,7.5-7.5c8.2-2.2,15.5,5.1,13.3,13.3c-1,3.6-3.9,6.5-7.5,7.5C70.2,327.2,62.9,319.9,65,311.8z
									 M118.6,267.6c0.9-3.6,3.9-6.5,7.4-7.5c8.2-2.2,15.5,5.1,13.3,13.3c-1,3.6-3.9,6.5-7.5,7.5
									C123.7,283.1,116.4,275.8,118.6,267.6z M119.1,100.6c1-3.6,3.9-6.5,7.5-7.5c8.2-2.2,15.5,5.1,13.3,13.3
									c-1,3.6-3.9,6.5-7.5,7.5C124.2,116.1,116.9,108.8,119.1,100.6z M188.4,84.5c-1,3.6-3.9,6.5-7.5,7.5
									c-8.2,2.2-15.5-5.1-13.3-13.3c1-3.6,3.9-6.5,7.5-7.4C183.3,69.1,190.5,76.4,188.4,84.5z M347.7,95.2c4.2,0,7.8,2.4,9.6,5.9
									c0.7,1.5,1.2,3.1,1.2,4.9c0,6.4-5.7,11.6-12.3,10.7c-3.4-0.5-6.5-2.7-8.1-5.8c-1.7-3.4-1.4-6.9,0-9.7
									C339.8,97.6,343.4,95.2,347.7,95.2z M455.7,173.6c-1,3.6-3.9,6.5-7.5,7.5c-8.2,2.2-15.5-5.1-13.3-13.3
									c1-3.6,3.9-6.5,7.5-7.5C450.6,158.1,457.9,165.4,455.7,173.6z M422.3,273.4c-1,3.6-3.9,6.5-7.5,7.5
									c-8.2,2.2-15.5-5.1-13.3-13.3c1-3.6,3.9-6.5,7.5-7.5C417.2,258,424.5,265.3,422.3,273.4z"/>
							</g>
						</g>
					</g>
					<g>
						<path class="st2" d="M111.6,224.9L111.6,224.9c-8.2,2.2-15.5-5.1-13.3-13.3c1-3.6,3.9-6.5,7.5-7.5c8.2-2.2,15.5,5.1,13.3,13.3
							C118.1,221,115.2,223.9,111.6,224.9"/>
					</g>
					<g>
						<path class="st2" d="M170.2,134.2L170.2,134.2c-8.2,2.2-15.5-5.1-13.3-13.3c1-3.6,3.9-6.5,7.5-7.5c8.2-2.2,15.5,5.1,13.3,13.3
							C176.7,130.3,173.8,133.2,170.2,134.2"/>
					</g>
					<g>
						<path class="st2" d="M90.1,203.3L90.1,203.3c-8.2,2.2-15.5-5.1-13.3-13.3c1-3.6,3.9-6.5,7.5-7.5c8.2-2.2,15.5,5.1,13.3,13.3
							C96.6,199.5,93.7,202.4,90.1,203.3"/>
					</g>
					<g>
						<path class="st2" d="M320.3,416L320.3,416c-8.2,2.2-15.5-5.1-13.3-13.3c1-3.6,3.9-6.5,7.5-7.5c8.2-2.2,15.5,5.1,13.3,13.3
							C326.8,412.2,323.8,415.1,320.3,416"/>
					</g>
					<g>
						<path class="st2" d="M481.3,252.6L481.3,252.6c-8.2,2.2-15.5-5.1-13.3-13.3c1-3.6,3.9-6.5,7.5-7.5c8.2-2.2,15.5,5.1,13.3,13.3
							C487.8,248.7,484.9,251.6,481.3,252.6"/>
					</g>
					<g>
						<path class="st2" d="M459,272.3L459,272.3c-8.2,2.2-15.5-5.1-13.3-13.3c1-3.6,3.9-6.5,7.5-7.5c8.2-2.2,15.5,5.1,13.3,13.3
							C465.5,268.5,462.6,271.4,459,272.3"/>
					</g>
					<g>
						<path class="st2" d="M325.9,58.6L325.9,58.6c-8.2,2.2-15.5-5.1-13.3-13.3c1-3.6,3.9-6.5,7.5-7.5c8.2-2.2,15.5,5.1,13.3,13.3
							C332.4,54.8,329.5,57.7,325.9,58.6"/>
					</g>
					<g>
						<path class="st2" d="M328,203L328,203c-8.2,2.2-15.5-5.1-13.3-13.3c1-3.6,3.9-6.5,7.5-7.5c8.2-2.2,15.5,5.1,13.3,13.3
							C334.5,199.1,331.6,202,328,203"/>
					</g>
					<g>
						<path class="st2" d="M350.6,173.7L350.6,173.7c-8.2,2.2-15.5-5.1-13.3-13.3c1-3.6,3.9-6.5,7.5-7.5c8.2-2.2,15.5,5.1,13.3,13.3
							C357.1,169.8,354.2,172.7,350.6,173.7"/>
					</g>
					<g>
						<path class="st2" d="M143.8,404.1L143.8,404.1c-8.2,2.2-15.5-5.1-13.3-13.3c1-3.6,3.9-6.5,7.5-7.5c8.2-2.2,15.5,5.1,13.3,13.3
							C150.2,400.2,147.3,403.1,143.8,404.1"/>
					</g>
					<g>
						<path class="st2" d="M59.8,282.2L59.8,282.2c-8.2,2.2-15.5-5.1-13.3-13.3c1-3.6,3.9-6.5,7.5-7.5c8.2-2.2,15.5,5.1,13.3,13.3
							C66.3,278.3,63.4,281.2,59.8,282.2"/>
					</g>
					<g>
						<path class="st2" d="M59.8,252.1L59.8,252.1c-8.2,2.2-15.5-5.1-13.3-13.3c1-3.6,3.9-6.5,7.5-7.5c8.2-2.2,15.5,5.1,13.3,13.3
							C66.3,248.2,63.4,251.2,59.8,252.1"/>
					</g>
					<g>
						<path class="st2" d="M367.7,447.8L367.7,447.8c-8.2,2.2-15.5-5.1-13.3-13.3c1-3.6,3.9-6.5,7.5-7.5c8.2-2.2,15.5,5.1,13.3,13.3
							C374.2,443.9,371.3,446.8,367.7,447.8"/>
					</g>
					<g>
						<path class="st2" d="M399.5,404.1L399.5,404.1c-8.2,2.2-15.5-5.1-13.3-13.3c1-3.6,3.9-6.5,7.5-7.5c8.2-2.2,15.5,5.1,13.3,13.3
							C406,400.2,403.1,403.1,399.5,404.1"/>
					</g>
					<g>
						<path class="st2" d="M388.8,465.3L388.8,465.3c-8.2,2.2-15.5-5.1-13.3-13.3c1-3.6,3.9-6.5,7.5-7.5c8.2-2.2,15.5,5.1,13.3,13.3
							C395.3,461.4,392.3,464.3,388.8,465.3"/>
					</g>
					<g>
						<path class="st2" d="M254.8,495.7L254.8,495.7c-8.2,2.2-15.5-5.1-13.3-13.3c1-3.6,3.9-6.5,7.5-7.5c8.2-2.2,15.5,5.1,13.3,13.3
							C261.3,491.8,258.4,494.7,254.8,495.7"/>
					</g>
					<g>
						<path class="st2" d="M300.6,58.6L300.6,58.6c-8.2,2.2-15.5-5.1-13.3-13.3c1-3.6,3.9-6.5,7.5-7.5c8.2-2.2,15.5,5.1,13.3,13.3
							C307.1,54.8,304.2,57.7,300.6,58.6"/>
					</g>
					<rect x="15.8" y="235.8" class="st2" width="34" height="11.9"/>
					<rect x="479.2" y="236.3" class="st2" width="34" height="11.9"/>
					<rect x="379.9" y="457.5" class="st2" width="11.9" height="34"/>
					<path class="st2" d="M319.1,187.8v-32c0-0.6,0.5-1,1-1h9.8c0.6,0,1,0.5,1,1v32c0,0.6-0.5,1-1,1h-9.8
						C319.6,188.8,319.1,188.3,319.1,187.8z"/>
					<path class="st2" d="M135.4,220.4h-32c-0.6,0-1-0.5-1-1v-9.8c0-0.6,0.5-1,1-1h32c0.6,0,1,0.5,1,1v9.8
						C136.5,220,136,220.4,135.4,220.4z"/>
					<path class="st2" d="M233.1,129.7h-64.8c-0.6,0-1-0.5-1-1v-9.8c0-0.6,0.5-1,1-1h64.8c0.6,0,1,0.5,1,1v9.8
						C234.1,129.3,233.6,129.7,233.1,129.7z"/>
					<path class="st2" d="M450.2,297.3v-32c0-0.6,0.5-1,1-1h9.8c0.6,0,1,0.5,1,1v32c0,0.6-0.5,1-1,1h-9.8
						C450.6,298.3,450.2,297.8,450.2,297.3z"/>
					<path class="st2" d="M245.1,480.8v-32c0-0.6,0.5-1,1-1h9.8c0.6,0,1,0.5,1,1v32c0,0.6-0.5,1-1,1h-9.8
						C245.5,481.8,245.1,481.4,245.1,480.8z"/>
					<rect x="81.2" y="92.4" class="st2" width="11.9" height="98.3"/>
					<rect x="291.8" y="16" class="st2" width="11.9" height="35.7"/>
				</g>
			</g>
		</g>
		<g>
			<path class="st3" d="M110.8,467.7c-3.6,0-6.6-3-6.6-6.6V382c0-3.6,3-6.6,6.6-6.6h327.7c3.6,0,6.6,3,6.6,6.6v79.1
				c0,3.6-3,6.6-6.6,6.6H110.8z"/>
			<path class="st4" d="M438.4,378.6c1.9,0,3.4,1.5,3.4,3.4v79.1c0,1.9-1.5,3.4-3.4,3.4H110.8c-1.9,0-3.4-1.5-3.4-3.4V382
				c0-1.9,1.5-3.4,3.4-3.4H438.4 M438.4,372.2H110.8c-5.4,0-9.8,4.4-9.8,9.8v79.1c0,5.4,4.4,9.8,9.8,9.8h327.7
				c5.4,0,9.8-4.4,9.8-9.8V382C448.3,376.6,443.9,372.2,438.4,372.2L438.4,372.2z"/>
		</g>
		<text transform="matrix(1 0 0 1 124.3135 464.4795)" class="st1 st5 st6">NEWS</text>
	</g>
	<g>
		<g class="st7">
			<path d="M94.7,622.2v-26.6h7.6v3.8h3.8v3.8h3.8v3.8h3.8v-11.4h7.6v26.6h-7.6v-7.6h-3.8v-3.8h-3.8v-3.8h-3.8v15.2H94.7z"/>
			<path d="M125.1,622.2v-26.6h26.6v3.8h-19v7.6h15.2v3.8h-15.2v7.6h19v3.8H125.1z"/>
			<path d="M159.2,622.2v-3.8h-3.8v-22.8h7.6v15.2h3.8v-15.2h3.8v15.2h3.8v-15.2h7.6v22.8h-3.8v3.8h-3.8v-3.8h-3.8v-3.8h-3.8v3.8
				H163v3.8H159.2z"/>
			<path d="M189.6,622.2v-3.8h-3.8v-3.8h7.6v3.8h11.4v-7.6h-15.2v-3.8h-3.8v-7.6h3.8v-3.8h19v3.8h3.8v3.8h-7.6v-3.8h-11.4v7.6h15.2
				v3.8h3.8v7.6h-3.8v3.8H189.6z"/>
			<path d="M254.1,622.2v-3.8h-3.8v-3.8h-3.8v-11.4h3.8v-3.8h3.8v-3.8h15.2v3.8h3.8v3.8h-7.6v-3.8h-7.6v3.8h-3.8v11.4h3.8v3.8h7.6
				v-3.8h7.6v3.8h-3.8v3.8H254.1z"/>
			<path d="M276.9,622.2v-26.6h7.6v11.4h11.4v-11.4h7.6v26.6h-7.6v-11.4h-11.4v11.4H276.9z"/>
			<path d="M307.2,622.2v-19h3.8v-3.8h3.8v-3.8h11.4v3.8h3.8v3.8h3.8v19h-7.6v-7.6h-11.4v7.6H307.2z M314.8,610.9h11.4v-7.6h-3.8
				v-3.8h-3.8v3.8h-3.8V610.9z"/>
			<path d="M337.6,622.2v-26.6h7.6v3.8h3.8v3.8h3.8v3.8h3.8v-11.4h7.6v26.6h-7.6v-7.6h-3.8v-3.8H349v-3.8h-3.8v15.2H337.6z"/>
			<path d="M367.9,622.2v-26.6h7.6v3.8h3.8v3.8h3.8v3.8h3.8v-11.4h7.6v26.6h-7.6v-7.6h-3.8v-3.8h-3.8v-3.8h-3.8v15.2H367.9z"/>
			<path d="M398.3,622.2v-26.6h26.6v3.8h-19v7.6h15.2v3.8h-15.2v7.6h19v3.8H398.3z"/>
			<path d="M432.4,622.2v-26.6h7.6v22.8h15.2v3.8H432.4z"/>
		</g>
		<g class="st7">
			<path class="st1" d="M93.1,617.5v-26.6h7.6v3.8h3.8v3.8h3.8v3.8h3.8v-11.4h7.6v26.6h-7.6v-7.6h-3.8v-3.8h-3.8v-3.8h-3.8v15.2
				H93.1z"/>
			<path class="st1" d="M123.5,617.5v-26.6H150v3.8h-19v7.6h15.2v3.8H131v7.6h19v3.8H123.5z"/>
			<path class="st1" d="M157.6,617.5v-3.8h-3.8v-22.8h7.6v15.2h3.8v-15.2h3.8v15.2h3.8v-15.2h7.6v22.8h-3.8v3.8h-3.8v-3.8H169v-3.8
				h-3.8v3.8h-3.8v3.8H157.6z"/>
			<path class="st1" d="M188,617.5v-3.8h-3.8v-3.8h7.6v3.8h11.4v-7.6H188v-3.8h-3.8v-7.6h3.8v-3.8h19v3.8h3.8v3.8h-7.6v-3.8h-11.4
				v7.6h15.2v3.8h3.8v7.6h-3.8v3.8H188z"/>
			<path class="st1" d="M252.5,617.5v-3.8h-3.8v-3.8h-3.8v-11.4h3.8v-3.8h3.8v-3.8h15.2v3.8h3.8v3.8h-7.6v-3.8h-7.6v3.8h-3.8v11.4
				h3.8v3.8h7.6v-3.8h7.6v3.8h-3.8v3.8H252.5z"/>
			<path class="st1" d="M275.2,617.5v-26.6h7.6v11.4h11.4v-11.4h7.6v26.6h-7.6v-11.4h-11.4v11.4H275.2z"/>
			<path class="st1" d="M305.6,617.5v-19h3.8v-3.8h3.8v-3.8h11.4v3.8h3.8v3.8h3.8v19h-7.6v-7.6h-11.4v7.6H305.6z M313.2,606.1h11.4
				v-7.6h-3.8v-3.8H317v3.8h-3.8V606.1z"/>
			<path class="st1" d="M336,617.5v-26.6h7.6v3.8h3.8v3.8h3.8v3.8h3.8v-11.4h7.6v26.6h-7.6v-7.6h-3.8v-3.8h-3.8v-3.8h-3.8v15.2H336z
				"/>
			<path class="st1" d="M366.3,617.5v-26.6h7.6v3.8h3.8v3.8h3.8v3.8h3.8v-11.4h7.6v26.6h-7.6v-7.6h-3.8v-3.8h-3.8v-3.8h-3.8v15.2
				H366.3z"/>
			<path class="st1" d="M396.7,617.5v-26.6h26.6v3.8h-19v7.6h15.2v3.8h-15.2v7.6h19v3.8H396.7z"/>
			<path class="st1" d="M430.8,617.5v-26.6h7.6v22.8h15.2v3.8H430.8z"/>
		</g>
	</g>
</g>
</svg>
