<?xml version="1.0" encoding="utf-8"?>
<!-- Generator: Adobe Illustrator 25.2.1, SVG Export Plug-In . SVG Version: 6.00 Build 0)  -->
<svg version="1.1" id="Capa_1" xmlns="http://www.w3.org/2000/svg" xmlns:xlink="http://www.w3.org/1999/xlink" x="0px" y="0px"
	 viewBox="0 0 600 600" style="enable-background:new 0 0 600 600;" xml:space="preserve">
<style type="text/css">
	.st0{fill:#00AAAA;}
	.st1{fill:#047774;}
</style>
<g>
	<g>
		<g>
			<polygon class="st0" points="293,563.6 197.7,556.5 119,541.5 50,492.5 41.5,436.6 81.2,390.3 103.4,372.3 86.3,342.7 
				81.2,291.6 109,246.8 138.9,231.1 157.5,197.1 200.6,131.7 276.7,72.7 339.2,41.5 389.1,32.2 372.6,81.3 373.2,155.1 
				426.5,211.3 484.7,246 505.4,270.9 501.8,363.9 538.1,400.9 553.7,432.1 553.7,482.7 511.1,521.7 458.5,548 327,563.6 			"/>
		</g>
		<g>
			<path class="st1" d="M322.1,50c-12.1,5.2-25.3,16.3-37.9,30c-31.4,33.8-60.6,83.4-69.3,102.1c-7,15.2-7.8,26.9-7.2,34.1
				c0.4,5.2,1.6,8.2,1.6,8.2l9.3,20.2c0,0-14.4-2.7-32-0.4c-21.8,2.9-48.4,13.2-57.6,46c-7.1,25.9-2.1,44.8,5.9,58
				c10.2,16.9,25.1,24.2,25.1,24.2s-7.9,2.5-18,8.9c-16.7,10.6-39.4,32-40.7,70.4c-1,27.5,22.5,59.3,48.8,86
				c16.2,16.5,33.3,30.9,46.3,41.4c-21.9-3-43.3-7.1-64.9-12.2c-94.1-22.8-107.2-76.3-109-92.1c-3.7-32.3,2.1-57.5,42.1-99
				c2.8-2.9,5.3-5.2,8.2-7.5c-19.5-30-19-53.4-10.8-83.6c9.2-33.4,38.9-68.6,79-74.9c0.2-16.2,3.9-29.9,12.6-50.6
				c19.2-45,61.3-76.2,132.6-118.1c12.3-7.2,24.2-12.5,35.3-16.5C334.9,31.5,343.3,40.8,322.1,50z"/>
		</g>
		<g>
			<path class="st1" d="M563,502.9c-21.9,33.5-49,62.2-154.3,74.9l27.2-20.5c0,0,16.3-6.9,33-24.3c15.1-15.6,30.5-39.7,34.9-74.6
				c6.9-54.9-34-90.5-55.4-105.2c-7.4-5-12.5-7.6-12.5-7.6l26.8-11.4c0,0,0.7-4,0.8-10.4c0.4-12-0.7-32.5-10-49.3
				c-14.2-25.6-74.5-50.3-103-102.3c-24.4-44.3-14.3-93-1.9-121.6c2.1-4.8,4.1-9,6.2-12.5c4.7-8.5,13.2-16.3,22.4-22.8
				c22.2,0.4,35.9,5.9,37,6.4c5.2,2.2,9,6.9,10,12.4c0.9,5.5-1.2,11.3-5.4,14.9c-13.1,11.3-34,37-27.2,82.6
				c5.1,34.3,39.5,52.1,69.6,68c4,2.1,7.9,4.1,11.5,6.1c37.6,20.4,50,46.1,57.2,78.3c5,23.1-6.1,47.1-15.6,62.4
				c24.5,14.9,36.7,29.3,38.7,31.7C586.7,418.7,583.6,471.6,563,502.9z"/>
		</g>
		<g>
			
				<ellipse transform="matrix(0.9988 -4.875064e-02 4.875064e-02 0.9988 -16.3851 12.6348)" cx="250.8" cy="342.2" rx="23.2" ry="25.8"/>
		</g>
		<g>
			<ellipse transform="matrix(0.2422 -0.9702 0.9702 0.2422 -63.9654 602.3403)" cx="353.6" cy="342.1" rx="25.8" ry="23.2"/>
		</g>
		<g>
			<path d="M303,467c-27.4,0-50.6-12.1-62.7-22.4c-6.9-5.8-7.6-16.1-1.9-22.9c5.8-6.8,16.1-7.6,22.8-1.9c4.1,3.4,40.9,32,82.3-0.4
				c7.1-5.4,17.3-4.2,22.8,2.9c5.5,7.1,4.2,17.3-2.9,22.8C342.8,461.2,321.9,467,303,467z"/>
		</g>
		<g>
			<path d="M552.8,377.8c-2-2.4-14.2-16.9-38.7-31.7c9.6-15.3,20.7-39.4,15.6-62.4c-7.1-32.3-19.4-57.8-57.2-78.3
				c-3.7-2-7.5-4-11.5-6.1c-30.3-15.9-64.6-33.8-69.6-68c-6.8-45.6,14.1-71.4,27.2-82.6c4.2-3.8,6.3-9.3,5.4-15
				c-0.9-5.5-4.5-10.3-9.9-12.4c-2.1-1-56.4-22.5-127.8,19.4C215,82.7,172.8,113.9,153.8,158.6c-8.8,20.6-12.4,34.5-12.6,50.6
				c-40.1,6.3-69.8,41.7-79,74.9c-8.3,30-8.9,53.5,10.8,83.6c-2.9,2.3-5.5,4.7-8.2,7.5c-40,41.6-45.7,66.8-42.1,99
				c1.8,15.9,14.9,69.3,109,92.1c51.3,12.4,103.2,18.6,160.5,18.6c33.3,0,68.4-2.1,106.4-6.1c113.9-12.1,142-41.7,164.6-76.2
				C583.5,471.6,586.7,418.6,552.8,377.8z M535.7,485c-15.4,23.5-33,50.1-140.9,61.6c-99.6,10.6-178.5,7-255.9-11.6
				c-73.5-17.8-83-53.5-84.3-64.2c-2.4-21.4-1.3-37,33.3-72.9c29.9-31,77.9-11.4,80-10.5c8.2,3.5,17.8-0.3,21.3-8.5
				c3.5-8.3-0.3-17.8-8.5-21.3c-2.2-0.9-40.8-17.1-79.2-5c-16.5-24.2-13.9-38.9-8.2-59.4c6.4-23.6,28.5-49.9,56.6-52
				c31.3-2.5,61.2,11.2,61.5,11.4c8.1,3.9,17.8,0.3,21.6-7.9c3.9-8.1,0.3-17.8-7.9-21.6c-1.2-0.6-23.2-10.8-51.7-13.7
				c0.3-11.5,3.1-21.2,10.1-37.6c15.4-36.5,53.8-64.2,119.1-102.4c30.6-18,56.8-21.7,74.3-21.4c-16.2,24.7-22.5,55.7-17.6,88.6
				c7.5,50.6,53.3,74.5,86.8,92c3.9,2,7.5,3.9,11.1,5.9c27.3,14.9,35.1,30.7,40.9,56.8c2.8,12.5-5.8,29.5-13.1,40.7
				c-12.2-5-26.2-9.8-42.1-13.2c-8.8-1.9-17.5,3.7-19.3,12.3c-2,8.8,3.7,17.5,12.3,19.3c63.7,14,91.3,47.9,91.5,48.1
				c0.1,0.1,0.2,0.3,0.3,0.4C551.5,427.1,549.8,463.7,535.7,485z"/>
		</g>
	</g>
</g>
</svg>
